<?xml version="1.0" encoding="UTF-8"?><svg xmlns="http://www.w3.org/2000/svg" xmlns:xlink="http://www.w3.org/1999/xlink" stroke-dasharray="none" shape-rendering="auto" font-family="'Dialog'" width="717" text-rendering="auto" fill-opacity="1" contentScriptType="text/ecmascript" color-interpolation="auto" color-rendering="auto" preserveAspectRatio="xMidYMid meet" font-size="12" fill="black" stroke="black" image-rendering="auto" stroke-miterlimit="10" zoomAndPan="magnify" version="1.0" stroke-linecap="square" stroke-linejoin="miter" contentStyleType="text/css" font-style="normal" height="308" stroke-width="1" stroke-dashoffset="0" font-weight="normal" stroke-opacity="1">
    <!--Generated by the Batik Graphics2D SVG Generator-->
    <defs id="genericDefs"/>
    <g>
        <defs id="defs1">
            <clipPath clipPathUnits="userSpaceOnUse" id="clipPath1">
                <path d="M30 38 L687 38 L687 286 L30 286 L30 38 Z"/>
            </clipPath>
            <clipPath clipPathUnits="userSpaceOnUse" id="clipPath2">
                <path d="M-1 -1 L718 -1 L718 309 L-1 309 L-1 -1 Z"/>
            </clipPath>
        </defs>
        <g font-size="14" fill="white" text-rendering="geometricPrecision" font-family="'Ubuntu'" stroke-linejoin="round" stroke="white" stroke-width="0" stroke-miterlimit="0">
            <rect x="31" y="39" clip-path="url(#clipPath1)" width="655" height="246" stroke="none"/>
        </g>
        <g stroke-linecap="butt" font-size="14" fill="rgb(204,204,204)" text-rendering="geometricPrecision" font-family="'Ubuntu'" stroke-dasharray="3,3" stroke="rgb(204,204,204)">
            <line clip-path="url(#clipPath1)" fill="none" x1="59" x2="59" y1="39" y2="285"/>
            <line clip-path="url(#clipPath1)" fill="none" x1="116" x2="116" y1="39" y2="285"/>
            <line clip-path="url(#clipPath1)" fill="none" x1="173" x2="173" y1="39" y2="285"/>
            <line clip-path="url(#clipPath1)" fill="none" x1="230" x2="230" y1="39" y2="285"/>
            <line clip-path="url(#clipPath1)" fill="none" x1="287" x2="287" y1="39" y2="285"/>
            <line clip-path="url(#clipPath1)" fill="none" x1="344" x2="344" y1="39" y2="285"/>
            <line clip-path="url(#clipPath1)" fill="none" x1="401" x2="401" y1="39" y2="285"/>
            <line clip-path="url(#clipPath1)" fill="none" x1="458" x2="458" y1="39" y2="285"/>
            <line clip-path="url(#clipPath1)" fill="none" x1="515" x2="515" y1="39" y2="285"/>
            <line clip-path="url(#clipPath1)" fill="none" x1="572" x2="572" y1="39" y2="285"/>
            <line clip-path="url(#clipPath1)" fill="none" x1="629" x2="629" y1="39" y2="285"/>
            <line clip-path="url(#clipPath1)" fill="none" x1="31" x2="686" y1="272" y2="272"/>
            <line clip-path="url(#clipPath1)" fill="none" x1="31" x2="686" y1="209" y2="209"/>
            <line clip-path="url(#clipPath1)" fill="none" x1="31" x2="686" y1="146" y2="146"/>
            <line clip-path="url(#clipPath1)" fill="none" x1="31" x2="686" y1="83" y2="83"/>
            <rect x="189" y="264" clip-path="url(#clipPath1)" fill="rgb(0,0,139)" width="5" height="5" stroke="none"/>
            <line clip-path="url(#clipPath1)" fill="none" x1="191" x2="331" y1="266" y2="260" stroke-dasharray="none" stroke="rgb(0,0,139)"/>
            <rect x="329" y="258" clip-path="url(#clipPath1)" fill="rgb(0,0,139)" width="5" stroke-dasharray="none" height="5" stroke="none"/>
            <line clip-path="url(#clipPath1)" fill="none" x1="331" x2="337" y1="260" y2="248" stroke-dasharray="none" stroke="rgb(0,0,139)"/>
            <rect x="335" y="246" clip-path="url(#clipPath1)" fill="rgb(0,0,139)" width="5" stroke-dasharray="none" height="5" stroke="none"/>
            <line clip-path="url(#clipPath1)" fill="none" x1="337" x2="355" y1="248" y2="242" stroke-dasharray="none" stroke="rgb(0,0,139)"/>
            <rect x="353" y="240" clip-path="url(#clipPath1)" fill="rgb(0,0,139)" width="5" stroke-dasharray="none" height="5" stroke="none"/>
            <line clip-path="url(#clipPath1)" fill="none" x1="355" x2="394" y1="242" y2="249" stroke-dasharray="none" stroke="rgb(0,0,139)"/>
            <rect x="392" y="247" clip-path="url(#clipPath1)" fill="rgb(0,0,139)" width="5" stroke-dasharray="none" height="5" stroke="none"/>
            <line clip-path="url(#clipPath1)" fill="none" x1="394" x2="408" y1="249" y2="243" stroke-dasharray="none" stroke="rgb(0,0,139)"/>
            <rect x="406" y="241" clip-path="url(#clipPath1)" fill="rgb(0,0,139)" width="5" stroke-dasharray="none" height="5" stroke="none"/>
            <line clip-path="url(#clipPath1)" fill="none" x1="408" x2="409" y1="243" y2="238" stroke-dasharray="none" stroke="rgb(0,0,139)"/>
            <rect x="407" y="236" clip-path="url(#clipPath1)" fill="rgb(0,0,139)" width="5" stroke-dasharray="none" height="5" stroke="none"/>
            <line clip-path="url(#clipPath1)" fill="none" x1="409" x2="415" y1="238" y2="232" stroke-dasharray="none" stroke="rgb(0,0,139)"/>
            <rect x="413" y="230" clip-path="url(#clipPath1)" fill="rgb(0,0,139)" width="5" stroke-dasharray="none" height="5" stroke="none"/>
            <line clip-path="url(#clipPath1)" fill="none" x1="415" x2="419" y1="232" y2="212" stroke-dasharray="none" stroke="rgb(0,0,139)"/>
            <rect x="417" y="210" clip-path="url(#clipPath1)" fill="rgb(0,0,139)" width="5" stroke-dasharray="none" height="5" stroke="none"/>
        </g>
        <g stroke-linecap="butt" font-size="14" fill="rgb(0,0,139)" text-rendering="geometricPrecision" font-family="'Ubuntu'" shape-rendering="crispEdges" stroke="rgb(0,0,139)">
            <line clip-path="url(#clipPath1)" fill="none" x1="419" x2="419" y1="212" y2="180"/>
            <rect x="417" y="178" clip-path="url(#clipPath1)" width="5" shape-rendering="auto" height="5" stroke="none"/>
            <line clip-path="url(#clipPath1)" fill="none" x1="419" x2="420" y1="180" y2="160" shape-rendering="auto"/>
            <rect x="418" y="158" clip-path="url(#clipPath1)" width="5" shape-rendering="auto" height="5" stroke="none"/>
            <line clip-path="url(#clipPath1)" fill="none" x1="420" x2="420" y1="160" y2="141"/>
            <rect x="418" y="139" clip-path="url(#clipPath1)" width="5" shape-rendering="auto" height="5" stroke="none"/>
            <line clip-path="url(#clipPath1)" fill="none" x1="420" x2="421" y1="141" y2="138" shape-rendering="auto"/>
            <rect x="419" y="136" clip-path="url(#clipPath1)" width="5" shape-rendering="auto" height="5" stroke="none"/>
            <line clip-path="url(#clipPath1)" fill="none" x1="421" x2="436" y1="138" y2="135" shape-rendering="auto"/>
            <rect x="434" y="133" clip-path="url(#clipPath1)" width="5" shape-rendering="auto" height="5" stroke="none"/>
            <line clip-path="url(#clipPath1)" fill="none" x1="436" x2="452" y1="135" y2="131" shape-rendering="auto"/>
            <rect x="450" y="129" clip-path="url(#clipPath1)" width="5" shape-rendering="auto" height="5" stroke="none"/>
            <line clip-path="url(#clipPath1)" fill="none" x1="452" x2="456" y1="131" y2="128" shape-rendering="auto"/>
            <rect x="454" y="126" clip-path="url(#clipPath1)" width="5" shape-rendering="auto" height="5" stroke="none"/>
            <line clip-path="url(#clipPath1)" fill="none" x1="456" x2="460" y1="128" y2="134" shape-rendering="auto"/>
            <rect x="458" y="132" clip-path="url(#clipPath1)" width="5" shape-rendering="auto" height="5" stroke="none"/>
            <line clip-path="url(#clipPath1)" fill="none" x1="460" x2="465" y1="134" y2="131" shape-rendering="auto"/>
            <rect x="463" y="129" clip-path="url(#clipPath1)" width="5" shape-rendering="auto" height="5" stroke="none"/>
            <line clip-path="url(#clipPath1)" fill="none" x1="465" x2="476" y1="131" y2="127" shape-rendering="auto"/>
            <rect x="474" y="125" clip-path="url(#clipPath1)" width="5" shape-rendering="auto" height="5" stroke="none"/>
            <line clip-path="url(#clipPath1)" fill="none" x1="476" x2="476" y1="127" y2="124"/>
            <rect x="474" y="122" clip-path="url(#clipPath1)" width="5" shape-rendering="auto" height="5" stroke="none"/>
            <line clip-path="url(#clipPath1)" fill="none" x1="476" x2="481" y1="124" y2="121" shape-rendering="auto"/>
            <rect x="479" y="119" clip-path="url(#clipPath1)" width="5" shape-rendering="auto" height="5" stroke="none"/>
            <line clip-path="url(#clipPath1)" fill="none" x1="481" x2="512" y1="121" y2="118" shape-rendering="auto"/>
            <rect x="510" y="116" clip-path="url(#clipPath1)" width="5" shape-rendering="auto" height="5" stroke="none"/>
            <line clip-path="url(#clipPath1)" fill="none" x1="512" x2="517" y1="118" y2="115" shape-rendering="auto"/>
            <rect x="515" y="113" clip-path="url(#clipPath1)" width="5" shape-rendering="auto" height="5" stroke="none"/>
            <line clip-path="url(#clipPath1)" fill="none" x1="517" x2="546" y1="115" y2="112" shape-rendering="auto"/>
            <rect x="544" y="110" clip-path="url(#clipPath1)" width="5" shape-rendering="auto" height="5" stroke="none"/>
            <line clip-path="url(#clipPath1)" fill="none" x1="546" x2="655" y1="112" y2="104" shape-rendering="auto"/>
            <rect x="653" y="102" clip-path="url(#clipPath1)" width="5" shape-rendering="auto" height="5" stroke="none"/>
            <line clip-path="url(#clipPath1)" fill="none" x1="655" x2="655" y1="104" y2="102"/>
            <rect x="653" y="100" clip-path="url(#clipPath1)" width="5" shape-rendering="auto" height="5" stroke="none"/>
            <line clip-path="url(#clipPath1)" fill="none" x1="655" x2="655" y1="102" y2="92"/>
            <rect x="653" y="90" clip-path="url(#clipPath1)" width="5" shape-rendering="auto" height="5" stroke="none"/>
            <line clip-path="url(#clipPath1)" fill="none" x1="655" x2="656" y1="92" y2="87" shape-rendering="auto"/>
            <rect x="654" y="85" clip-path="url(#clipPath1)" width="5" shape-rendering="auto" height="5" stroke="none"/>
            <line clip-path="url(#clipPath1)" fill="none" x1="656" x2="656" y1="87" y2="84"/>
            <rect x="654" y="82" clip-path="url(#clipPath1)" width="5" shape-rendering="auto" height="5" stroke="none"/>
            <line clip-path="url(#clipPath1)" fill="none" x1="656" x2="657" y1="84" y2="76" shape-rendering="auto"/>
            <rect x="655" y="74" clip-path="url(#clipPath1)" width="5" shape-rendering="auto" height="5" stroke="none"/>
            <circle clip-path="url(#clipPath1)" fill="rgb(238,0,0)" shape-rendering="auto" r="2" cx="390" cy="266" stroke="none"/>
            <line clip-path="url(#clipPath1)" fill="none" x1="390" x2="394" y1="266" y2="272" shape-rendering="auto" stroke="rgb(238,0,0)"/>
            <circle clip-path="url(#clipPath1)" fill="rgb(238,0,0)" shape-rendering="auto" r="2" cx="394" cy="272" stroke="none"/>
            <line clip-path="url(#clipPath1)" fill="none" x1="394" x2="408" y1="272" y2="266" shape-rendering="auto" stroke="rgb(238,0,0)"/>
            <circle clip-path="url(#clipPath1)" fill="rgb(238,0,0)" shape-rendering="auto" r="2" cx="408" cy="266" stroke="none"/>
            <line clip-path="url(#clipPath1)" fill="none" x1="408" x2="409" y1="266" y2="260" shape-rendering="auto" stroke="rgb(238,0,0)"/>
            <circle clip-path="url(#clipPath1)" fill="rgb(238,0,0)" shape-rendering="auto" r="2" cx="409" cy="260" stroke="none"/>
            <line clip-path="url(#clipPath1)" fill="none" x1="409" x2="413" y1="260" y2="254" shape-rendering="auto" stroke="rgb(238,0,0)"/>
            <circle clip-path="url(#clipPath1)" fill="rgb(238,0,0)" shape-rendering="auto" r="2" cx="413" cy="254" stroke="none"/>
            <line clip-path="url(#clipPath1)" fill="none" x1="413" x2="415" y1="254" y2="248" shape-rendering="auto" stroke="rgb(238,0,0)"/>
            <circle clip-path="url(#clipPath1)" fill="rgb(238,0,0)" shape-rendering="auto" r="2" cx="415" cy="248" stroke="none"/>
            <line clip-path="url(#clipPath1)" fill="none" x1="415" x2="419" y1="248" y2="211" shape-rendering="auto" stroke="rgb(238,0,0)"/>
            <circle clip-path="url(#clipPath1)" fill="rgb(238,0,0)" shape-rendering="auto" r="2" cx="419" cy="211" stroke="none"/>
            <line clip-path="url(#clipPath1)" fill="none" x1="419" x2="419" y1="211" y2="192" stroke="rgb(238,0,0)"/>
            <circle clip-path="url(#clipPath1)" fill="rgb(238,0,0)" shape-rendering="auto" r="2" cx="419" cy="192" stroke="none"/>
            <line clip-path="url(#clipPath1)" fill="none" x1="419" x2="419" y1="192" y2="162" stroke="rgb(238,0,0)"/>
            <circle clip-path="url(#clipPath1)" fill="rgb(238,0,0)" shape-rendering="auto" r="2" cx="419" cy="162" stroke="none"/>
            <line clip-path="url(#clipPath1)" fill="none" x1="419" x2="420" y1="162" y2="143" shape-rendering="auto" stroke="rgb(238,0,0)"/>
            <circle clip-path="url(#clipPath1)" fill="rgb(238,0,0)" shape-rendering="auto" r="2" cx="420" cy="143" stroke="none"/>
            <line clip-path="url(#clipPath1)" fill="none" x1="420" x2="420" y1="143" y2="125" stroke="rgb(238,0,0)"/>
            <circle clip-path="url(#clipPath1)" fill="rgb(238,0,0)" shape-rendering="auto" r="2" cx="420" cy="125" stroke="none"/>
            <line clip-path="url(#clipPath1)" fill="none" x1="420" x2="421" y1="125" y2="122" shape-rendering="auto" stroke="rgb(238,0,0)"/>
            <circle clip-path="url(#clipPath1)" fill="rgb(238,0,0)" shape-rendering="auto" r="2" cx="421" cy="122" stroke="none"/>
            <line clip-path="url(#clipPath1)" fill="none" x1="421" x2="436" y1="122" y2="119" shape-rendering="auto" stroke="rgb(238,0,0)"/>
            <circle clip-path="url(#clipPath1)" fill="rgb(238,0,0)" shape-rendering="auto" r="2" cx="436" cy="119" stroke="none"/>
            <line clip-path="url(#clipPath1)" fill="none" x1="436" x2="440" y1="119" y2="116" shape-rendering="auto" stroke="rgb(238,0,0)"/>
            <circle clip-path="url(#clipPath1)" fill="rgb(238,0,0)" shape-rendering="auto" r="2" cx="440" cy="116" stroke="none"/>
            <line clip-path="url(#clipPath1)" fill="none" x1="440" x2="452" y1="116" y2="113" shape-rendering="auto" stroke="rgb(238,0,0)"/>
            <circle clip-path="url(#clipPath1)" fill="rgb(238,0,0)" shape-rendering="auto" r="2" cx="452" cy="113" stroke="none"/>
            <line clip-path="url(#clipPath1)" fill="none" x1="452" x2="453" y1="113" y2="110" shape-rendering="auto" stroke="rgb(238,0,0)"/>
            <circle clip-path="url(#clipPath1)" fill="rgb(238,0,0)" shape-rendering="auto" r="2" cx="453" cy="110" stroke="none"/>
            <line clip-path="url(#clipPath1)" fill="none" x1="453" x2="456" y1="110" y2="107" shape-rendering="auto" stroke="rgb(238,0,0)"/>
            <circle clip-path="url(#clipPath1)" fill="rgb(238,0,0)" shape-rendering="auto" r="2" cx="456" cy="107" stroke="none"/>
            <line clip-path="url(#clipPath1)" fill="none" x1="456" x2="460" y1="107" y2="113" shape-rendering="auto" stroke="rgb(238,0,0)"/>
            <circle clip-path="url(#clipPath1)" fill="rgb(238,0,0)" shape-rendering="auto" r="2" cx="460" cy="113" stroke="none"/>
            <line clip-path="url(#clipPath1)" fill="none" x1="460" x2="463" y1="113" y2="110" shape-rendering="auto" stroke="rgb(238,0,0)"/>
            <circle clip-path="url(#clipPath1)" fill="rgb(238,0,0)" shape-rendering="auto" r="2" cx="463" cy="110" stroke="none"/>
            <line clip-path="url(#clipPath1)" fill="none" x1="463" x2="470" y1="110" y2="107" shape-rendering="auto" stroke="rgb(238,0,0)"/>
            <circle clip-path="url(#clipPath1)" fill="rgb(238,0,0)" shape-rendering="auto" r="2" cx="470" cy="107" stroke="none"/>
            <line clip-path="url(#clipPath1)" fill="none" x1="470" x2="476" y1="107" y2="104" shape-rendering="auto" stroke="rgb(238,0,0)"/>
            <circle clip-path="url(#clipPath1)" fill="rgb(238,0,0)" shape-rendering="auto" r="2" cx="476" cy="104" stroke="none"/>
            <line clip-path="url(#clipPath1)" fill="none" x1="476" x2="476" y1="104" y2="101" stroke="rgb(238,0,0)"/>
            <circle clip-path="url(#clipPath1)" fill="rgb(238,0,0)" shape-rendering="auto" r="2" cx="476" cy="101" stroke="none"/>
            <line clip-path="url(#clipPath1)" fill="none" x1="476" x2="481" y1="101" y2="99" shape-rendering="auto" stroke="rgb(238,0,0)"/>
            <circle clip-path="url(#clipPath1)" fill="rgb(238,0,0)" shape-rendering="auto" r="2" cx="481" cy="99" stroke="none"/>
            <line clip-path="url(#clipPath1)" fill="none" x1="481" x2="512" y1="99" y2="96" shape-rendering="auto" stroke="rgb(238,0,0)"/>
            <circle clip-path="url(#clipPath1)" fill="rgb(238,0,0)" shape-rendering="auto" r="2" cx="512" cy="96" stroke="none"/>
            <line clip-path="url(#clipPath1)" fill="none" x1="512" x2="521" y1="96" y2="91" shape-rendering="auto" stroke="rgb(238,0,0)"/>
            <circle clip-path="url(#clipPath1)" fill="rgb(238,0,0)" shape-rendering="auto" r="2" cx="521" cy="91" stroke="none"/>
            <line clip-path="url(#clipPath1)" fill="none" x1="521" x2="523" y1="91" y2="84" shape-rendering="auto" stroke="rgb(238,0,0)"/>
            <circle clip-path="url(#clipPath1)" fill="rgb(238,0,0)" shape-rendering="auto" r="2" cx="523" cy="84" stroke="none"/>
            <rect x="31" y="39" clip-path="url(#clipPath2)" fill="none" width="655" shape-rendering="auto" height="246" stroke="black"/>
        </g>
        <g text-rendering="geometricPrecision" font-size="13" stroke-linecap="butt">
            <text xml:space="preserve" x="306" y="13" clip-path="url(#clipPath2)" stroke="none">RepScoreVector-2</text>
            <line clip-path="url(#clipPath2)" fill="none" x1="31" x2="686" y1="37" y2="37"/>
            <line clip-path="url(#clipPath2)" fill="none" x1="31" x2="686" y1="287" y2="287"/>
            <line clip-path="url(#clipPath2)" fill="none" x1="31" x2="31" y1="35" y2="37"/>
            <line clip-path="url(#clipPath2)" fill="none" x1="31" x2="31" y1="289" y2="287"/>
            <line clip-path="url(#clipPath2)" fill="none" x1="59" x2="59" y1="33" y2="37"/>
            <line clip-path="url(#clipPath2)" fill="none" x1="59" x2="59" y1="291" y2="287"/>
            <text x="55" font-size="10" y="29" clip-path="url(#clipPath2)" stroke="none" xml:space="preserve">80</text>
            <text x="55" font-size="10" y="302" clip-path="url(#clipPath2)" stroke="none" xml:space="preserve">80</text>
            <line clip-path="url(#clipPath2)" fill="none" x1="87" x2="87" y1="35" y2="37"/>
            <line clip-path="url(#clipPath2)" fill="none" x1="87" x2="87" y1="289" y2="287"/>
            <line clip-path="url(#clipPath2)" fill="none" x1="116" x2="116" y1="33" y2="37"/>
            <line clip-path="url(#clipPath2)" fill="none" x1="116" x2="116" y1="291" y2="287"/>
            <text x="110" font-size="10" y="29" clip-path="url(#clipPath2)" stroke="none" xml:space="preserve">100</text>
            <text x="110" font-size="10" y="302" clip-path="url(#clipPath2)" stroke="none" xml:space="preserve">100</text>
            <line clip-path="url(#clipPath2)" fill="none" x1="144" x2="144" y1="35" y2="37"/>
            <line clip-path="url(#clipPath2)" fill="none" x1="144" x2="144" y1="289" y2="287"/>
            <line clip-path="url(#clipPath2)" fill="none" x1="173" x2="173" y1="33" y2="37"/>
            <line clip-path="url(#clipPath2)" fill="none" x1="173" x2="173" y1="291" y2="287"/>
            <text x="167" font-size="10" y="29" clip-path="url(#clipPath2)" stroke="none" xml:space="preserve">120</text>
            <text x="167" font-size="10" y="302" clip-path="url(#clipPath2)" stroke="none" xml:space="preserve">120</text>
            <line clip-path="url(#clipPath2)" fill="none" x1="201" x2="201" y1="35" y2="37"/>
            <line clip-path="url(#clipPath2)" fill="none" x1="201" x2="201" y1="289" y2="287"/>
            <line clip-path="url(#clipPath2)" fill="none" x1="230" x2="230" y1="33" y2="37"/>
            <line clip-path="url(#clipPath2)" fill="none" x1="230" x2="230" y1="291" y2="287"/>
            <text x="224" font-size="10" y="29" clip-path="url(#clipPath2)" stroke="none" xml:space="preserve">140</text>
            <text x="224" font-size="10" y="302" clip-path="url(#clipPath2)" stroke="none" xml:space="preserve">140</text>
            <line clip-path="url(#clipPath2)" fill="none" x1="258" x2="258" y1="35" y2="37"/>
            <line clip-path="url(#clipPath2)" fill="none" x1="258" x2="258" y1="289" y2="287"/>
            <line clip-path="url(#clipPath2)" fill="none" x1="287" x2="287" y1="33" y2="37"/>
            <line clip-path="url(#clipPath2)" fill="none" x1="287" x2="287" y1="291" y2="287"/>
            <text x="281" font-size="10" y="29" clip-path="url(#clipPath2)" stroke="none" xml:space="preserve">160</text>
            <text x="281" font-size="10" y="302" clip-path="url(#clipPath2)" stroke="none" xml:space="preserve">160</text>
            <line clip-path="url(#clipPath2)" fill="none" x1="315" x2="315" y1="35" y2="37"/>
            <line clip-path="url(#clipPath2)" fill="none" x1="315" x2="315" y1="289" y2="287"/>
            <line clip-path="url(#clipPath2)" fill="none" x1="344" x2="344" y1="33" y2="37"/>
            <line clip-path="url(#clipPath2)" fill="none" x1="344" x2="344" y1="291" y2="287"/>
            <text x="338" font-size="10" y="29" clip-path="url(#clipPath2)" stroke="none" xml:space="preserve">180</text>
            <text x="338" font-size="10" y="302" clip-path="url(#clipPath2)" stroke="none" xml:space="preserve">180</text>
            <line clip-path="url(#clipPath2)" fill="none" x1="372" x2="372" y1="35" y2="37"/>
            <line clip-path="url(#clipPath2)" fill="none" x1="372" x2="372" y1="289" y2="287"/>
            <line clip-path="url(#clipPath2)" fill="none" x1="401" x2="401" y1="33" y2="37"/>
            <line clip-path="url(#clipPath2)" fill="none" x1="401" x2="401" y1="291" y2="287"/>
            <text x="395" font-size="10" y="29" clip-path="url(#clipPath2)" stroke="none" xml:space="preserve">200</text>
            <text x="395" font-size="10" y="302" clip-path="url(#clipPath2)" stroke="none" xml:space="preserve">200</text>
            <line clip-path="url(#clipPath2)" fill="none" x1="429" x2="429" y1="35" y2="37"/>
            <line clip-path="url(#clipPath2)" fill="none" x1="429" x2="429" y1="289" y2="287"/>
            <line clip-path="url(#clipPath2)" fill="none" x1="458" x2="458" y1="33" y2="37"/>
            <line clip-path="url(#clipPath2)" fill="none" x1="458" x2="458" y1="291" y2="287"/>
            <text x="452" font-size="10" y="29" clip-path="url(#clipPath2)" stroke="none" xml:space="preserve">220</text>
            <text x="452" font-size="10" y="302" clip-path="url(#clipPath2)" stroke="none" xml:space="preserve">220</text>
            <line clip-path="url(#clipPath2)" fill="none" x1="486" x2="486" y1="35" y2="37"/>
            <line clip-path="url(#clipPath2)" fill="none" x1="486" x2="486" y1="289" y2="287"/>
            <line clip-path="url(#clipPath2)" fill="none" x1="515" x2="515" y1="33" y2="37"/>
            <line clip-path="url(#clipPath2)" fill="none" x1="515" x2="515" y1="291" y2="287"/>
            <text x="509" font-size="10" y="29" clip-path="url(#clipPath2)" stroke="none" xml:space="preserve">240</text>
            <text x="509" font-size="10" y="302" clip-path="url(#clipPath2)" stroke="none" xml:space="preserve">240</text>
            <line clip-path="url(#clipPath2)" fill="none" x1="543" x2="543" y1="35" y2="37"/>
            <line clip-path="url(#clipPath2)" fill="none" x1="543" x2="543" y1="289" y2="287"/>
            <line clip-path="url(#clipPath2)" fill="none" x1="572" x2="572" y1="33" y2="37"/>
            <line clip-path="url(#clipPath2)" fill="none" x1="572" x2="572" y1="291" y2="287"/>
            <text x="566" font-size="10" y="29" clip-path="url(#clipPath2)" stroke="none" xml:space="preserve">260</text>
            <text x="566" font-size="10" y="302" clip-path="url(#clipPath2)" stroke="none" xml:space="preserve">260</text>
            <line clip-path="url(#clipPath2)" fill="none" x1="600" x2="600" y1="35" y2="37"/>
            <line clip-path="url(#clipPath2)" fill="none" x1="600" x2="600" y1="289" y2="287"/>
            <line clip-path="url(#clipPath2)" fill="none" x1="629" x2="629" y1="33" y2="37"/>
            <line clip-path="url(#clipPath2)" fill="none" x1="629" x2="629" y1="291" y2="287"/>
            <text x="623" font-size="10" y="29" clip-path="url(#clipPath2)" stroke="none" xml:space="preserve">280</text>
            <text x="623" font-size="10" y="302" clip-path="url(#clipPath2)" stroke="none" xml:space="preserve">280</text>
            <line clip-path="url(#clipPath2)" fill="none" x1="657" x2="657" y1="35" y2="37"/>
            <line clip-path="url(#clipPath2)" fill="none" x1="657" x2="657" y1="289" y2="287"/>
            <line clip-path="url(#clipPath2)" fill="none" x1="29" x2="29" y1="39" y2="285"/>
            <line clip-path="url(#clipPath2)" fill="none" x1="688" x2="688" y1="39" y2="285"/>
            <line clip-path="url(#clipPath2)" fill="none" x1="27" x2="29" y1="285" y2="285"/>
            <line clip-path="url(#clipPath2)" fill="none" x1="690" x2="688" y1="285" y2="285"/>
            <line clip-path="url(#clipPath2)" fill="none" x1="25" x2="29" y1="272" y2="272"/>
            <line clip-path="url(#clipPath2)" fill="none" x1="692" x2="688" y1="272" y2="272"/>
            <text x="4" font-size="10" y="276" clip-path="url(#clipPath2)" stroke="none" xml:space="preserve">0.50</text>
            <text x="695" font-size="10" y="276" clip-path="url(#clipPath2)" stroke="none" xml:space="preserve">0.50</text>
            <line clip-path="url(#clipPath2)" fill="none" x1="27" x2="29" y1="259" y2="259"/>
            <line clip-path="url(#clipPath2)" fill="none" x1="690" x2="688" y1="259" y2="259"/>
            <line clip-path="url(#clipPath2)" fill="none" x1="27" x2="29" y1="247" y2="247"/>
            <line clip-path="url(#clipPath2)" fill="none" x1="690" x2="688" y1="247" y2="247"/>
            <line clip-path="url(#clipPath2)" fill="none" x1="27" x2="29" y1="234" y2="234"/>
            <line clip-path="url(#clipPath2)" fill="none" x1="690" x2="688" y1="234" y2="234"/>
            <line clip-path="url(#clipPath2)" fill="none" x1="27" x2="29" y1="221" y2="221"/>
            <line clip-path="url(#clipPath2)" fill="none" x1="690" x2="688" y1="221" y2="221"/>
            <line clip-path="url(#clipPath2)" fill="none" x1="25" x2="29" y1="209" y2="209"/>
            <line clip-path="url(#clipPath2)" fill="none" x1="692" x2="688" y1="209" y2="209"/>
            <text x="4" font-size="10" y="213" clip-path="url(#clipPath2)" stroke="none" xml:space="preserve">0.60</text>
            <text x="695" font-size="10" y="213" clip-path="url(#clipPath2)" stroke="none" xml:space="preserve">0.60</text>
            <line clip-path="url(#clipPath2)" fill="none" x1="27" x2="29" y1="196" y2="196"/>
            <line clip-path="url(#clipPath2)" fill="none" x1="690" x2="688" y1="196" y2="196"/>
            <line clip-path="url(#clipPath2)" fill="none" x1="27" x2="29" y1="184" y2="184"/>
            <line clip-path="url(#clipPath2)" fill="none" x1="690" x2="688" y1="184" y2="184"/>
            <line clip-path="url(#clipPath2)" fill="none" x1="27" x2="29" y1="171" y2="171"/>
            <line clip-path="url(#clipPath2)" fill="none" x1="690" x2="688" y1="171" y2="171"/>
            <line clip-path="url(#clipPath2)" fill="none" x1="27" x2="29" y1="158" y2="158"/>
            <line clip-path="url(#clipPath2)" fill="none" x1="690" x2="688" y1="158" y2="158"/>
            <line clip-path="url(#clipPath2)" fill="none" x1="25" x2="29" y1="146" y2="146"/>
            <line clip-path="url(#clipPath2)" fill="none" x1="692" x2="688" y1="146" y2="146"/>
            <text x="4" font-size="10" y="150" clip-path="url(#clipPath2)" stroke="none" xml:space="preserve">0.70</text>
            <text x="695" font-size="10" y="150" clip-path="url(#clipPath2)" stroke="none" xml:space="preserve">0.70</text>
            <line clip-path="url(#clipPath2)" fill="none" x1="27" x2="29" y1="133" y2="133"/>
            <line clip-path="url(#clipPath2)" fill="none" x1="690" x2="688" y1="133" y2="133"/>
            <line clip-path="url(#clipPath2)" fill="none" x1="27" x2="29" y1="121" y2="121"/>
            <line clip-path="url(#clipPath2)" fill="none" x1="690" x2="688" y1="121" y2="121"/>
            <line clip-path="url(#clipPath2)" fill="none" x1="27" x2="29" y1="108" y2="108"/>
            <line clip-path="url(#clipPath2)" fill="none" x1="690" x2="688" y1="108" y2="108"/>
            <line clip-path="url(#clipPath2)" fill="none" x1="27" x2="29" y1="95" y2="95"/>
            <line clip-path="url(#clipPath2)" fill="none" x1="690" x2="688" y1="95" y2="95"/>
            <line clip-path="url(#clipPath2)" fill="none" x1="25" x2="29" y1="83" y2="83"/>
            <line clip-path="url(#clipPath2)" fill="none" x1="692" x2="688" y1="83" y2="83"/>
            <text x="4" font-size="10" y="87" clip-path="url(#clipPath2)" stroke="none" xml:space="preserve">0.80</text>
            <text x="695" font-size="10" y="87" clip-path="url(#clipPath2)" stroke="none" xml:space="preserve">0.80</text>
            <line clip-path="url(#clipPath2)" fill="none" x1="27" x2="29" y1="70" y2="70"/>
            <line clip-path="url(#clipPath2)" fill="none" x1="690" x2="688" y1="70" y2="70"/>
            <line clip-path="url(#clipPath2)" fill="none" x1="27" x2="29" y1="57" y2="57"/>
            <line clip-path="url(#clipPath2)" fill="none" x1="690" x2="688" y1="57" y2="57"/>
            <line clip-path="url(#clipPath2)" fill="none" x1="27" x2="29" y1="45" y2="45"/>
            <line clip-path="url(#clipPath2)" fill="none" x1="690" x2="688" y1="45" y2="45"/>
        </g>
    </g>
</svg>
