<?xml version="1.0" encoding="utf-8" standalone="no"?>
<!DOCTYPE svg PUBLIC "-//W3C//DTD SVG 1.1//EN"
  "http://www.w3.org/Graphics/SVG/1.1/DTD/svg11.dtd">
<!-- Created with matplotlib (https://matplotlib.org/) -->
<svg height="1080pt" version="1.1" viewBox="0 0 720 1080" width="720pt" xmlns="http://www.w3.org/2000/svg" xmlns:xlink="http://www.w3.org/1999/xlink">
 <defs>
  <style type="text/css">
*{stroke-linecap:butt;stroke-linejoin:round;}
  </style>
 </defs>
 <g id="figure_1">
  <g id="patch_1">
   <path d="M 0 1080 
L 720 1080 
L 720 0 
L 0 0 
z
" style="fill:#ffffff;"/>
  </g>
  <g id="axes_1">
   <g id="patch_2">
    <path d="M 52.30649 368.797483 
L 707.45601 368.797483 
L 707.45601 56.753075 
L 52.30649 56.753075 
z
" style="fill:#ffffff;"/>
   </g>
   <g id="patch_3">
    <path clip-path="url(#p8e31de5e56)" d="M 52.30649 368.797483 
L 82.544163 368.797483 
L 82.544163 277.262522 
L 52.30649 277.262522 
z
" style="fill:#ff0000;opacity:0.4;"/>
   </g>
   <g id="patch_4">
    <path clip-path="url(#p8e31de5e56)" d="M 82.544163 368.797483 
L 112.781835 368.797483 
L 112.781835 263.058821 
L 82.544163 263.058821 
z
" style="fill:#ff0000;opacity:0.4;"/>
   </g>
   <g id="patch_5">
    <path clip-path="url(#p8e31de5e56)" d="M 112.781835 368.797483 
L 143.019508 368.797483 
L 143.019508 316.717247 
L 112.781835 316.717247 
z
" style="fill:#ff0000;opacity:0.4;"/>
   </g>
   <g id="patch_6">
    <path clip-path="url(#p8e31de5e56)" d="M 143.019508 368.797483 
L 173.257181 368.797483 
L 173.257181 338.811893 
L 143.019508 338.811893 
z
" style="fill:#ff0000;opacity:0.4;"/>
   </g>
   <g id="patch_7">
    <path clip-path="url(#p8e31de5e56)" d="M 173.257181 368.797483 
L 203.494853 368.797483 
L 203.494853 360.906538 
L 173.257181 360.906538 
z
" style="fill:#ff0000;opacity:0.4;"/>
   </g>
   <g id="patch_8">
    <path clip-path="url(#p8e31de5e56)" d="M 203.494853 368.797483 
L 233.732526 368.797483 
L 233.732526 362.484727 
L 203.494853 362.484727 
z
" style="fill:#ff0000;opacity:0.4;"/>
   </g>
   <g id="patch_9">
    <path clip-path="url(#p8e31de5e56)" d="M 233.732526 368.797483 
L 263.970199 368.797483 
L 263.970199 357.75016 
L 233.732526 357.75016 
z
" style="fill:#ff0000;opacity:0.4;"/>
   </g>
   <g id="patch_10">
    <path clip-path="url(#p8e31de5e56)" d="M 263.970199 368.797483 
L 294.207871 368.797483 
L 294.207871 364.062916 
L 263.970199 364.062916 
z
" style="fill:#ff0000;opacity:0.4;"/>
   </g>
   <g id="patch_11">
    <path clip-path="url(#p8e31de5e56)" d="M 294.207871 368.797483 
L 324.445544 368.797483 
L 324.445544 368.797483 
L 294.207871 368.797483 
z
" style="fill:#ff0000;opacity:0.4;"/>
   </g>
   <g id="patch_12">
    <path clip-path="url(#p8e31de5e56)" d="M 324.445544 368.797483 
L 354.683217 368.797483 
L 354.683217 368.797483 
L 324.445544 368.797483 
z
" style="fill:#ff0000;opacity:0.4;"/>
   </g>
   <g id="patch_13">
    <path clip-path="url(#p8e31de5e56)" d="M 354.683217 368.797483 
L 384.920889 368.797483 
L 384.920889 365.641105 
L 354.683217 365.641105 
z
" style="fill:#ff0000;opacity:0.4;"/>
   </g>
   <g id="patch_14">
    <path clip-path="url(#p8e31de5e56)" d="M 384.920889 368.797483 
L 415.158562 368.797483 
L 415.158562 368.797483 
L 384.920889 368.797483 
z
" style="fill:#ff0000;opacity:0.4;"/>
   </g>
   <g id="patch_15">
    <path clip-path="url(#p8e31de5e56)" d="M 415.158562 368.797483 
L 445.396235 368.797483 
L 445.396235 368.797483 
L 415.158562 368.797483 
z
" style="fill:#ff0000;opacity:0.4;"/>
   </g>
   <g id="patch_16">
    <path clip-path="url(#p8e31de5e56)" d="M 445.396235 368.797483 
L 475.633907 368.797483 
L 475.633907 368.797483 
L 445.396235 368.797483 
z
" style="fill:#ff0000;opacity:0.4;"/>
   </g>
   <g id="patch_17">
    <path clip-path="url(#p8e31de5e56)" d="M 475.633907 368.797483 
L 505.87158 368.797483 
L 505.87158 367.219294 
L 475.633907 367.219294 
z
" style="fill:#ff0000;opacity:0.4;"/>
   </g>
   <g id="patch_18">
    <path clip-path="url(#p8e31de5e56)" d="M 505.87158 368.797483 
L 536.109253 368.797483 
L 536.109253 368.797483 
L 505.87158 368.797483 
z
" style="fill:#ff0000;opacity:0.4;"/>
   </g>
   <g id="patch_19">
    <path clip-path="url(#p8e31de5e56)" d="M 536.109253 368.797483 
L 566.346925 368.797483 
L 566.346925 368.797483 
L 536.109253 368.797483 
z
" style="fill:#ff0000;opacity:0.4;"/>
   </g>
   <g id="patch_20">
    <path clip-path="url(#p8e31de5e56)" d="M 566.346925 368.797483 
L 596.584598 368.797483 
L 596.584598 362.484727 
L 566.346925 362.484727 
z
" style="fill:#ff0000;opacity:0.4;"/>
   </g>
   <g id="patch_21">
    <path clip-path="url(#p8e31de5e56)" d="M 596.584598 368.797483 
L 626.822271 368.797483 
L 626.822271 368.797483 
L 596.584598 368.797483 
z
" style="fill:#ff0000;opacity:0.4;"/>
   </g>
   <g id="patch_22">
    <path clip-path="url(#p8e31de5e56)" d="M 626.822271 368.797483 
L 657.059943 368.797483 
L 657.059943 367.219294 
L 626.822271 367.219294 
z
" style="fill:#ff0000;opacity:0.4;"/>
   </g>
   <g id="matplotlib.axis_1">
    <g id="xtick_1">
     <g id="line2d_1">
      <defs>
       <path d="M 0 0 
L 0 3.5 
" id="mc8c1c21e13" style="stroke:#000000;stroke-width:0.8;"/>
      </defs>
      <g>
       <use style="stroke:#000000;stroke-width:0.8;" x="52.30649" xlink:href="#mc8c1c21e13" y="368.797483"/>
      </g>
     </g>
    </g>
    <g id="xtick_2">
     <g id="line2d_2">
      <g>
       <use style="stroke:#000000;stroke-width:0.8;" x="183.336394" xlink:href="#mc8c1c21e13" y="368.797483"/>
      </g>
     </g>
    </g>
    <g id="xtick_3">
     <g id="line2d_3">
      <g>
       <use style="stroke:#000000;stroke-width:0.8;" x="314.366298" xlink:href="#mc8c1c21e13" y="368.797483"/>
      </g>
     </g>
    </g>
    <g id="xtick_4">
     <g id="line2d_4">
      <g>
       <use style="stroke:#000000;stroke-width:0.8;" x="445.396202" xlink:href="#mc8c1c21e13" y="368.797483"/>
      </g>
     </g>
    </g>
    <g id="xtick_5">
     <g id="line2d_5">
      <g>
       <use style="stroke:#000000;stroke-width:0.8;" x="576.426106" xlink:href="#mc8c1c21e13" y="368.797483"/>
      </g>
     </g>
    </g>
    <g id="xtick_6">
     <g id="line2d_6">
      <g>
       <use style="stroke:#000000;stroke-width:0.8;" x="707.45601" xlink:href="#mc8c1c21e13" y="368.797483"/>
      </g>
     </g>
    </g>
    <g id="text_1">
     <!-- Absolute Error in Accuracy(%) Estimation -->
     <defs>
      <path d="M 34.1875 63.1875 
L 20.796875 26.90625 
L 47.609375 26.90625 
z
M 28.609375 72.90625 
L 39.796875 72.90625 
L 67.578125 0 
L 57.328125 0 
L 50.6875 18.703125 
L 17.828125 18.703125 
L 11.1875 0 
L 0.78125 0 
z
" id="DejaVuSans-65"/>
      <path d="M 48.6875 27.296875 
Q 48.6875 37.203125 44.609375 42.84375 
Q 40.53125 48.484375 33.40625 48.484375 
Q 26.265625 48.484375 22.1875 42.84375 
Q 18.109375 37.203125 18.109375 27.296875 
Q 18.109375 17.390625 22.1875 11.75 
Q 26.265625 6.109375 33.40625 6.109375 
Q 40.53125 6.109375 44.609375 11.75 
Q 48.6875 17.390625 48.6875 27.296875 
z
M 18.109375 46.390625 
Q 20.953125 51.265625 25.265625 53.625 
Q 29.59375 56 35.59375 56 
Q 45.5625 56 51.78125 48.09375 
Q 58.015625 40.1875 58.015625 27.296875 
Q 58.015625 14.40625 51.78125 6.484375 
Q 45.5625 -1.421875 35.59375 -1.421875 
Q 29.59375 -1.421875 25.265625 0.953125 
Q 20.953125 3.328125 18.109375 8.203125 
L 18.109375 0 
L 9.078125 0 
L 9.078125 75.984375 
L 18.109375 75.984375 
z
" id="DejaVuSans-98"/>
      <path d="M 44.28125 53.078125 
L 44.28125 44.578125 
Q 40.484375 46.53125 36.375 47.5 
Q 32.28125 48.484375 27.875 48.484375 
Q 21.1875 48.484375 17.84375 46.4375 
Q 14.5 44.390625 14.5 40.28125 
Q 14.5 37.15625 16.890625 35.375 
Q 19.28125 33.59375 26.515625 31.984375 
L 29.59375 31.296875 
Q 39.15625 29.25 43.1875 25.515625 
Q 47.21875 21.78125 47.21875 15.09375 
Q 47.21875 7.46875 41.1875 3.015625 
Q 35.15625 -1.421875 24.609375 -1.421875 
Q 20.21875 -1.421875 15.453125 -0.5625 
Q 10.6875 0.296875 5.421875 2 
L 5.421875 11.28125 
Q 10.40625 8.6875 15.234375 7.390625 
Q 20.0625 6.109375 24.8125 6.109375 
Q 31.15625 6.109375 34.5625 8.28125 
Q 37.984375 10.453125 37.984375 14.40625 
Q 37.984375 18.0625 35.515625 20.015625 
Q 33.0625 21.96875 24.703125 23.78125 
L 21.578125 24.515625 
Q 13.234375 26.265625 9.515625 29.90625 
Q 5.8125 33.546875 5.8125 39.890625 
Q 5.8125 47.609375 11.28125 51.796875 
Q 16.75 56 26.8125 56 
Q 31.78125 56 36.171875 55.265625 
Q 40.578125 54.546875 44.28125 53.078125 
z
" id="DejaVuSans-115"/>
      <path d="M 30.609375 48.390625 
Q 23.390625 48.390625 19.1875 42.75 
Q 14.984375 37.109375 14.984375 27.296875 
Q 14.984375 17.484375 19.15625 11.84375 
Q 23.34375 6.203125 30.609375 6.203125 
Q 37.796875 6.203125 41.984375 11.859375 
Q 46.1875 17.53125 46.1875 27.296875 
Q 46.1875 37.015625 41.984375 42.703125 
Q 37.796875 48.390625 30.609375 48.390625 
z
M 30.609375 56 
Q 42.328125 56 49.015625 48.375 
Q 55.71875 40.765625 55.71875 27.296875 
Q 55.71875 13.875 49.015625 6.21875 
Q 42.328125 -1.421875 30.609375 -1.421875 
Q 18.84375 -1.421875 12.171875 6.21875 
Q 5.515625 13.875 5.515625 27.296875 
Q 5.515625 40.765625 12.171875 48.375 
Q 18.84375 56 30.609375 56 
z
" id="DejaVuSans-111"/>
      <path d="M 9.421875 75.984375 
L 18.40625 75.984375 
L 18.40625 0 
L 9.421875 0 
z
" id="DejaVuSans-108"/>
      <path d="M 8.5 21.578125 
L 8.5 54.6875 
L 17.484375 54.6875 
L 17.484375 21.921875 
Q 17.484375 14.15625 20.5 10.265625 
Q 23.53125 6.390625 29.59375 6.390625 
Q 36.859375 6.390625 41.078125 11.03125 
Q 45.3125 15.671875 45.3125 23.6875 
L 45.3125 54.6875 
L 54.296875 54.6875 
L 54.296875 0 
L 45.3125 0 
L 45.3125 8.40625 
Q 42.046875 3.421875 37.71875 1 
Q 33.40625 -1.421875 27.6875 -1.421875 
Q 18.265625 -1.421875 13.375 4.4375 
Q 8.5 10.296875 8.5 21.578125 
z
M 31.109375 56 
z
" id="DejaVuSans-117"/>
      <path d="M 18.3125 70.21875 
L 18.3125 54.6875 
L 36.8125 54.6875 
L 36.8125 47.703125 
L 18.3125 47.703125 
L 18.3125 18.015625 
Q 18.3125 11.328125 20.140625 9.421875 
Q 21.96875 7.515625 27.59375 7.515625 
L 36.8125 7.515625 
L 36.8125 0 
L 27.59375 0 
Q 17.1875 0 13.234375 3.875 
Q 9.28125 7.765625 9.28125 18.015625 
L 9.28125 47.703125 
L 2.6875 47.703125 
L 2.6875 54.6875 
L 9.28125 54.6875 
L 9.28125 70.21875 
z
" id="DejaVuSans-116"/>
      <path d="M 56.203125 29.59375 
L 56.203125 25.203125 
L 14.890625 25.203125 
Q 15.484375 15.921875 20.484375 11.0625 
Q 25.484375 6.203125 34.421875 6.203125 
Q 39.59375 6.203125 44.453125 7.46875 
Q 49.3125 8.734375 54.109375 11.28125 
L 54.109375 2.78125 
Q 49.265625 0.734375 44.1875 -0.34375 
Q 39.109375 -1.421875 33.890625 -1.421875 
Q 20.796875 -1.421875 13.15625 6.1875 
Q 5.515625 13.8125 5.515625 26.8125 
Q 5.515625 40.234375 12.765625 48.109375 
Q 20.015625 56 32.328125 56 
Q 43.359375 56 49.78125 48.890625 
Q 56.203125 41.796875 56.203125 29.59375 
z
M 47.21875 32.234375 
Q 47.125 39.59375 43.09375 43.984375 
Q 39.0625 48.390625 32.421875 48.390625 
Q 24.90625 48.390625 20.390625 44.140625 
Q 15.875 39.890625 15.1875 32.171875 
z
" id="DejaVuSans-101"/>
      <path id="DejaVuSans-32"/>
      <path d="M 9.8125 72.90625 
L 55.90625 72.90625 
L 55.90625 64.59375 
L 19.671875 64.59375 
L 19.671875 43.015625 
L 54.390625 43.015625 
L 54.390625 34.71875 
L 19.671875 34.71875 
L 19.671875 8.296875 
L 56.78125 8.296875 
L 56.78125 0 
L 9.8125 0 
z
" id="DejaVuSans-69"/>
      <path d="M 41.109375 46.296875 
Q 39.59375 47.171875 37.8125 47.578125 
Q 36.03125 48 33.890625 48 
Q 26.265625 48 22.1875 43.046875 
Q 18.109375 38.09375 18.109375 28.8125 
L 18.109375 0 
L 9.078125 0 
L 9.078125 54.6875 
L 18.109375 54.6875 
L 18.109375 46.1875 
Q 20.953125 51.171875 25.484375 53.578125 
Q 30.03125 56 36.53125 56 
Q 37.453125 56 38.578125 55.875 
Q 39.703125 55.765625 41.0625 55.515625 
z
" id="DejaVuSans-114"/>
      <path d="M 9.421875 54.6875 
L 18.40625 54.6875 
L 18.40625 0 
L 9.421875 0 
z
M 9.421875 75.984375 
L 18.40625 75.984375 
L 18.40625 64.59375 
L 9.421875 64.59375 
z
" id="DejaVuSans-105"/>
      <path d="M 54.890625 33.015625 
L 54.890625 0 
L 45.90625 0 
L 45.90625 32.71875 
Q 45.90625 40.484375 42.875 44.328125 
Q 39.84375 48.1875 33.796875 48.1875 
Q 26.515625 48.1875 22.3125 43.546875 
Q 18.109375 38.921875 18.109375 30.90625 
L 18.109375 0 
L 9.078125 0 
L 9.078125 54.6875 
L 18.109375 54.6875 
L 18.109375 46.1875 
Q 21.34375 51.125 25.703125 53.5625 
Q 30.078125 56 35.796875 56 
Q 45.21875 56 50.046875 50.171875 
Q 54.890625 44.34375 54.890625 33.015625 
z
" id="DejaVuSans-110"/>
      <path d="M 48.78125 52.59375 
L 48.78125 44.1875 
Q 44.96875 46.296875 41.140625 47.34375 
Q 37.3125 48.390625 33.40625 48.390625 
Q 24.65625 48.390625 19.8125 42.84375 
Q 14.984375 37.3125 14.984375 27.296875 
Q 14.984375 17.28125 19.8125 11.734375 
Q 24.65625 6.203125 33.40625 6.203125 
Q 37.3125 6.203125 41.140625 7.25 
Q 44.96875 8.296875 48.78125 10.40625 
L 48.78125 2.09375 
Q 45.015625 0.34375 40.984375 -0.53125 
Q 36.96875 -1.421875 32.421875 -1.421875 
Q 20.0625 -1.421875 12.78125 6.34375 
Q 5.515625 14.109375 5.515625 27.296875 
Q 5.515625 40.671875 12.859375 48.328125 
Q 20.21875 56 33.015625 56 
Q 37.15625 56 41.109375 55.140625 
Q 45.0625 54.296875 48.78125 52.59375 
z
" id="DejaVuSans-99"/>
      <path d="M 34.28125 27.484375 
Q 23.390625 27.484375 19.1875 25 
Q 14.984375 22.515625 14.984375 16.5 
Q 14.984375 11.71875 18.140625 8.90625 
Q 21.296875 6.109375 26.703125 6.109375 
Q 34.1875 6.109375 38.703125 11.40625 
Q 43.21875 16.703125 43.21875 25.484375 
L 43.21875 27.484375 
z
M 52.203125 31.203125 
L 52.203125 0 
L 43.21875 0 
L 43.21875 8.296875 
Q 40.140625 3.328125 35.546875 0.953125 
Q 30.953125 -1.421875 24.3125 -1.421875 
Q 15.921875 -1.421875 10.953125 3.296875 
Q 6 8.015625 6 15.921875 
Q 6 25.140625 12.171875 29.828125 
Q 18.359375 34.515625 30.609375 34.515625 
L 43.21875 34.515625 
L 43.21875 35.40625 
Q 43.21875 41.609375 39.140625 45 
Q 35.0625 48.390625 27.6875 48.390625 
Q 23 48.390625 18.546875 47.265625 
Q 14.109375 46.140625 10.015625 43.890625 
L 10.015625 52.203125 
Q 14.9375 54.109375 19.578125 55.046875 
Q 24.21875 56 28.609375 56 
Q 40.484375 56 46.34375 49.84375 
Q 52.203125 43.703125 52.203125 31.203125 
z
" id="DejaVuSans-97"/>
      <path d="M 32.171875 -5.078125 
Q 28.375 -14.84375 24.75 -17.8125 
Q 21.140625 -20.796875 15.09375 -20.796875 
L 7.90625 -20.796875 
L 7.90625 -13.28125 
L 13.1875 -13.28125 
Q 16.890625 -13.28125 18.9375 -11.515625 
Q 21 -9.765625 23.484375 -3.21875 
L 25.09375 0.875 
L 2.984375 54.6875 
L 12.5 54.6875 
L 29.59375 11.921875 
L 46.6875 54.6875 
L 56.203125 54.6875 
z
" id="DejaVuSans-121"/>
      <path d="M 31 75.875 
Q 24.46875 64.65625 21.28125 53.65625 
Q 18.109375 42.671875 18.109375 31.390625 
Q 18.109375 20.125 21.3125 9.0625 
Q 24.515625 -2 31 -13.1875 
L 23.1875 -13.1875 
Q 15.875 -1.703125 12.234375 9.375 
Q 8.59375 20.453125 8.59375 31.390625 
Q 8.59375 42.28125 12.203125 53.3125 
Q 15.828125 64.359375 23.1875 75.875 
z
" id="DejaVuSans-40"/>
      <path d="M 72.703125 32.078125 
Q 68.453125 32.078125 66.03125 28.46875 
Q 63.625 24.859375 63.625 18.40625 
Q 63.625 12.0625 66.03125 8.421875 
Q 68.453125 4.78125 72.703125 4.78125 
Q 76.859375 4.78125 79.265625 8.421875 
Q 81.6875 12.0625 81.6875 18.40625 
Q 81.6875 24.8125 79.265625 28.4375 
Q 76.859375 32.078125 72.703125 32.078125 
z
M 72.703125 38.28125 
Q 80.421875 38.28125 84.953125 32.90625 
Q 89.5 27.546875 89.5 18.40625 
Q 89.5 9.28125 84.9375 3.921875 
Q 80.375 -1.421875 72.703125 -1.421875 
Q 64.890625 -1.421875 60.34375 3.921875 
Q 55.8125 9.28125 55.8125 18.40625 
Q 55.8125 27.59375 60.375 32.9375 
Q 64.9375 38.28125 72.703125 38.28125 
z
M 22.3125 68.015625 
Q 18.109375 68.015625 15.6875 64.375 
Q 13.28125 60.75 13.28125 54.390625 
Q 13.28125 47.953125 15.671875 44.328125 
Q 18.0625 40.71875 22.3125 40.71875 
Q 26.5625 40.71875 28.96875 44.328125 
Q 31.390625 47.953125 31.390625 54.390625 
Q 31.390625 60.6875 28.953125 64.34375 
Q 26.515625 68.015625 22.3125 68.015625 
z
M 66.40625 74.21875 
L 74.21875 74.21875 
L 28.609375 -1.421875 
L 20.796875 -1.421875 
z
M 22.3125 74.21875 
Q 30.03125 74.21875 34.609375 68.875 
Q 39.203125 63.53125 39.203125 54.390625 
Q 39.203125 45.171875 34.640625 39.84375 
Q 30.078125 34.515625 22.3125 34.515625 
Q 14.546875 34.515625 10.03125 39.859375 
Q 5.515625 45.21875 5.515625 54.390625 
Q 5.515625 63.484375 10.046875 68.84375 
Q 14.59375 74.21875 22.3125 74.21875 
z
" id="DejaVuSans-37"/>
      <path d="M 8.015625 75.875 
L 15.828125 75.875 
Q 23.140625 64.359375 26.78125 53.3125 
Q 30.421875 42.28125 30.421875 31.390625 
Q 30.421875 20.453125 26.78125 9.375 
Q 23.140625 -1.703125 15.828125 -13.1875 
L 8.015625 -13.1875 
Q 14.5 -2 17.703125 9.0625 
Q 20.90625 20.125 20.90625 31.390625 
Q 20.90625 42.671875 17.703125 53.65625 
Q 14.5 64.65625 8.015625 75.875 
z
" id="DejaVuSans-41"/>
      <path d="M 52 44.1875 
Q 55.375 50.25 60.0625 53.125 
Q 64.75 56 71.09375 56 
Q 79.640625 56 84.28125 50.015625 
Q 88.921875 44.046875 88.921875 33.015625 
L 88.921875 0 
L 79.890625 0 
L 79.890625 32.71875 
Q 79.890625 40.578125 77.09375 44.375 
Q 74.3125 48.1875 68.609375 48.1875 
Q 61.625 48.1875 57.5625 43.546875 
Q 53.515625 38.921875 53.515625 30.90625 
L 53.515625 0 
L 44.484375 0 
L 44.484375 32.71875 
Q 44.484375 40.625 41.703125 44.40625 
Q 38.921875 48.1875 33.109375 48.1875 
Q 26.21875 48.1875 22.15625 43.53125 
Q 18.109375 38.875 18.109375 30.90625 
L 18.109375 0 
L 9.078125 0 
L 9.078125 54.6875 
L 18.109375 54.6875 
L 18.109375 46.1875 
Q 21.1875 51.21875 25.484375 53.609375 
Q 29.78125 56 35.6875 56 
Q 41.65625 56 45.828125 52.96875 
Q 50 49.953125 52 44.1875 
z
" id="DejaVuSans-109"/>
     </defs>
     <g transform="translate(276.823437 380.395921)scale(0.1 -0.1)">
      <use xlink:href="#DejaVuSans-65"/>
      <use x="68.408203" xlink:href="#DejaVuSans-98"/>
      <use x="131.884766" xlink:href="#DejaVuSans-115"/>
      <use x="183.984375" xlink:href="#DejaVuSans-111"/>
      <use x="245.166016" xlink:href="#DejaVuSans-108"/>
      <use x="272.949219" xlink:href="#DejaVuSans-117"/>
      <use x="336.328125" xlink:href="#DejaVuSans-116"/>
      <use x="375.537109" xlink:href="#DejaVuSans-101"/>
      <use x="437.060547" xlink:href="#DejaVuSans-32"/>
      <use x="468.847656" xlink:href="#DejaVuSans-69"/>
      <use x="532.03125" xlink:href="#DejaVuSans-114"/>
      <use x="571.394531" xlink:href="#DejaVuSans-114"/>
      <use x="610.257812" xlink:href="#DejaVuSans-111"/>
      <use x="671.439453" xlink:href="#DejaVuSans-114"/>
      <use x="712.552734" xlink:href="#DejaVuSans-32"/>
      <use x="744.339844" xlink:href="#DejaVuSans-105"/>
      <use x="772.123047" xlink:href="#DejaVuSans-110"/>
      <use x="835.501953" xlink:href="#DejaVuSans-32"/>
      <use x="867.289062" xlink:href="#DejaVuSans-65"/>
      <use x="933.947266" xlink:href="#DejaVuSans-99"/>
      <use x="988.927734" xlink:href="#DejaVuSans-99"/>
      <use x="1043.908203" xlink:href="#DejaVuSans-117"/>
      <use x="1107.287109" xlink:href="#DejaVuSans-114"/>
      <use x="1148.400391" xlink:href="#DejaVuSans-97"/>
      <use x="1209.679688" xlink:href="#DejaVuSans-99"/>
      <use x="1264.660156" xlink:href="#DejaVuSans-121"/>
      <use x="1323.839844" xlink:href="#DejaVuSans-40"/>
      <use x="1362.853516" xlink:href="#DejaVuSans-37"/>
      <use x="1457.873047" xlink:href="#DejaVuSans-41"/>
      <use x="1496.886719" xlink:href="#DejaVuSans-32"/>
      <use x="1528.673828" xlink:href="#DejaVuSans-69"/>
      <use x="1591.857422" xlink:href="#DejaVuSans-115"/>
      <use x="1643.957031" xlink:href="#DejaVuSans-116"/>
      <use x="1683.166016" xlink:href="#DejaVuSans-105"/>
      <use x="1710.949219" xlink:href="#DejaVuSans-109"/>
      <use x="1808.361328" xlink:href="#DejaVuSans-97"/>
      <use x="1869.640625" xlink:href="#DejaVuSans-116"/>
      <use x="1908.849609" xlink:href="#DejaVuSans-105"/>
      <use x="1936.632812" xlink:href="#DejaVuSans-111"/>
      <use x="1997.814453" xlink:href="#DejaVuSans-110"/>
     </g>
    </g>
   </g>
   <g id="matplotlib.axis_2">
    <g id="ytick_1">
     <g id="line2d_7">
      <defs>
       <path d="M 0 0 
L -3.5 0 
" id="m4bd235d30d" style="stroke:#000000;stroke-width:0.8;"/>
      </defs>
      <g>
       <use style="stroke:#000000;stroke-width:0.8;" x="52.30649" xlink:href="#m4bd235d30d" y="368.797483"/>
      </g>
     </g>
     <g id="text_2">
      <!-- 0.000 -->
      <defs>
       <path d="M 31.78125 66.40625 
Q 24.171875 66.40625 20.328125 58.90625 
Q 16.5 51.421875 16.5 36.375 
Q 16.5 21.390625 20.328125 13.890625 
Q 24.171875 6.390625 31.78125 6.390625 
Q 39.453125 6.390625 43.28125 13.890625 
Q 47.125 21.390625 47.125 36.375 
Q 47.125 51.421875 43.28125 58.90625 
Q 39.453125 66.40625 31.78125 66.40625 
z
M 31.78125 74.21875 
Q 44.046875 74.21875 50.515625 64.515625 
Q 56.984375 54.828125 56.984375 36.375 
Q 56.984375 17.96875 50.515625 8.265625 
Q 44.046875 -1.421875 31.78125 -1.421875 
Q 19.53125 -1.421875 13.0625 8.265625 
Q 6.59375 17.96875 6.59375 36.375 
Q 6.59375 54.828125 13.0625 64.515625 
Q 19.53125 74.21875 31.78125 74.21875 
z
" id="DejaVuSans-48"/>
       <path d="M 10.6875 12.40625 
L 21 12.40625 
L 21 0 
L 10.6875 0 
z
" id="DejaVuSans-46"/>
      </defs>
      <g transform="translate(16.678365 372.596702)scale(0.1 -0.1)">
       <use xlink:href="#DejaVuSans-48"/>
       <use x="63.623047" xlink:href="#DejaVuSans-46"/>
       <use x="95.410156" xlink:href="#DejaVuSans-48"/>
       <use x="159.033203" xlink:href="#DejaVuSans-48"/>
       <use x="222.65625" xlink:href="#DejaVuSans-48"/>
      </g>
     </g>
    </g>
    <g id="ytick_2">
     <g id="line2d_8">
      <g>
       <use style="stroke:#000000;stroke-width:0.8;" x="52.30649" xlink:href="#m4bd235d30d" y="331.649339"/>
      </g>
     </g>
     <g id="text_3">
      <!-- 0.025 -->
      <defs>
       <path d="M 19.1875 8.296875 
L 53.609375 8.296875 
L 53.609375 0 
L 7.328125 0 
L 7.328125 8.296875 
Q 12.9375 14.109375 22.625 23.890625 
Q 32.328125 33.6875 34.8125 36.53125 
Q 39.546875 41.84375 41.421875 45.53125 
Q 43.3125 49.21875 43.3125 52.78125 
Q 43.3125 58.59375 39.234375 62.25 
Q 35.15625 65.921875 28.609375 65.921875 
Q 23.96875 65.921875 18.8125 64.3125 
Q 13.671875 62.703125 7.8125 59.421875 
L 7.8125 69.390625 
Q 13.765625 71.78125 18.9375 73 
Q 24.125 74.21875 28.421875 74.21875 
Q 39.75 74.21875 46.484375 68.546875 
Q 53.21875 62.890625 53.21875 53.421875 
Q 53.21875 48.921875 51.53125 44.890625 
Q 49.859375 40.875 45.40625 35.40625 
Q 44.1875 33.984375 37.640625 27.21875 
Q 31.109375 20.453125 19.1875 8.296875 
z
" id="DejaVuSans-50"/>
       <path d="M 10.796875 72.90625 
L 49.515625 72.90625 
L 49.515625 64.59375 
L 19.828125 64.59375 
L 19.828125 46.734375 
Q 21.96875 47.46875 24.109375 47.828125 
Q 26.265625 48.1875 28.421875 48.1875 
Q 40.625 48.1875 47.75 41.5 
Q 54.890625 34.8125 54.890625 23.390625 
Q 54.890625 11.625 47.5625 5.09375 
Q 40.234375 -1.421875 26.90625 -1.421875 
Q 22.3125 -1.421875 17.546875 -0.640625 
Q 12.796875 0.140625 7.71875 1.703125 
L 7.71875 11.625 
Q 12.109375 9.234375 16.796875 8.0625 
Q 21.484375 6.890625 26.703125 6.890625 
Q 35.15625 6.890625 40.078125 11.328125 
Q 45.015625 15.765625 45.015625 23.390625 
Q 45.015625 31 40.078125 35.4375 
Q 35.15625 39.890625 26.703125 39.890625 
Q 22.75 39.890625 18.8125 39.015625 
Q 14.890625 38.140625 10.796875 36.28125 
z
" id="DejaVuSans-53"/>
      </defs>
      <g transform="translate(16.678365 335.448558)scale(0.1 -0.1)">
       <use xlink:href="#DejaVuSans-48"/>
       <use x="63.623047" xlink:href="#DejaVuSans-46"/>
       <use x="95.410156" xlink:href="#DejaVuSans-48"/>
       <use x="159.033203" xlink:href="#DejaVuSans-50"/>
       <use x="222.65625" xlink:href="#DejaVuSans-53"/>
      </g>
     </g>
    </g>
    <g id="ytick_3">
     <g id="line2d_9">
      <g>
       <use style="stroke:#000000;stroke-width:0.8;" x="52.30649" xlink:href="#m4bd235d30d" y="294.501196"/>
      </g>
     </g>
     <g id="text_4">
      <!-- 0.050 -->
      <g transform="translate(16.678365 298.300414)scale(0.1 -0.1)">
       <use xlink:href="#DejaVuSans-48"/>
       <use x="63.623047" xlink:href="#DejaVuSans-46"/>
       <use x="95.410156" xlink:href="#DejaVuSans-48"/>
       <use x="159.033203" xlink:href="#DejaVuSans-53"/>
       <use x="222.65625" xlink:href="#DejaVuSans-48"/>
      </g>
     </g>
    </g>
    <g id="ytick_4">
     <g id="line2d_10">
      <g>
       <use style="stroke:#000000;stroke-width:0.8;" x="52.30649" xlink:href="#m4bd235d30d" y="257.353052"/>
      </g>
     </g>
     <g id="text_5">
      <!-- 0.075 -->
      <defs>
       <path d="M 8.203125 72.90625 
L 55.078125 72.90625 
L 55.078125 68.703125 
L 28.609375 0 
L 18.3125 0 
L 43.21875 64.59375 
L 8.203125 64.59375 
z
" id="DejaVuSans-55"/>
      </defs>
      <g transform="translate(16.678365 261.152271)scale(0.1 -0.1)">
       <use xlink:href="#DejaVuSans-48"/>
       <use x="63.623047" xlink:href="#DejaVuSans-46"/>
       <use x="95.410156" xlink:href="#DejaVuSans-48"/>
       <use x="159.033203" xlink:href="#DejaVuSans-55"/>
       <use x="222.65625" xlink:href="#DejaVuSans-53"/>
      </g>
     </g>
    </g>
    <g id="ytick_5">
     <g id="line2d_11">
      <g>
       <use style="stroke:#000000;stroke-width:0.8;" x="52.30649" xlink:href="#m4bd235d30d" y="220.204908"/>
      </g>
     </g>
     <g id="text_6">
      <!-- 0.100 -->
      <defs>
       <path d="M 12.40625 8.296875 
L 28.515625 8.296875 
L 28.515625 63.921875 
L 10.984375 60.40625 
L 10.984375 69.390625 
L 28.421875 72.90625 
L 38.28125 72.90625 
L 38.28125 8.296875 
L 54.390625 8.296875 
L 54.390625 0 
L 12.40625 0 
z
" id="DejaVuSans-49"/>
      </defs>
      <g transform="translate(16.678365 224.004127)scale(0.1 -0.1)">
       <use xlink:href="#DejaVuSans-48"/>
       <use x="63.623047" xlink:href="#DejaVuSans-46"/>
       <use x="95.410156" xlink:href="#DejaVuSans-49"/>
       <use x="159.033203" xlink:href="#DejaVuSans-48"/>
       <use x="222.65625" xlink:href="#DejaVuSans-48"/>
      </g>
     </g>
    </g>
    <g id="ytick_6">
     <g id="line2d_12">
      <g>
       <use style="stroke:#000000;stroke-width:0.8;" x="52.30649" xlink:href="#m4bd235d30d" y="183.056764"/>
      </g>
     </g>
     <g id="text_7">
      <!-- 0.125 -->
      <g transform="translate(16.678365 186.855983)scale(0.1 -0.1)">
       <use xlink:href="#DejaVuSans-48"/>
       <use x="63.623047" xlink:href="#DejaVuSans-46"/>
       <use x="95.410156" xlink:href="#DejaVuSans-49"/>
       <use x="159.033203" xlink:href="#DejaVuSans-50"/>
       <use x="222.65625" xlink:href="#DejaVuSans-53"/>
      </g>
     </g>
    </g>
    <g id="ytick_7">
     <g id="line2d_13">
      <g>
       <use style="stroke:#000000;stroke-width:0.8;" x="52.30649" xlink:href="#m4bd235d30d" y="145.90862"/>
      </g>
     </g>
     <g id="text_8">
      <!-- 0.150 -->
      <g transform="translate(16.678365 149.707839)scale(0.1 -0.1)">
       <use xlink:href="#DejaVuSans-48"/>
       <use x="63.623047" xlink:href="#DejaVuSans-46"/>
       <use x="95.410156" xlink:href="#DejaVuSans-49"/>
       <use x="159.033203" xlink:href="#DejaVuSans-53"/>
       <use x="222.65625" xlink:href="#DejaVuSans-48"/>
      </g>
     </g>
    </g>
    <g id="ytick_8">
     <g id="line2d_14">
      <g>
       <use style="stroke:#000000;stroke-width:0.8;" x="52.30649" xlink:href="#m4bd235d30d" y="108.760476"/>
      </g>
     </g>
     <g id="text_9">
      <!-- 0.175 -->
      <g transform="translate(16.678365 112.559695)scale(0.1 -0.1)">
       <use xlink:href="#DejaVuSans-48"/>
       <use x="63.623047" xlink:href="#DejaVuSans-46"/>
       <use x="95.410156" xlink:href="#DejaVuSans-49"/>
       <use x="159.033203" xlink:href="#DejaVuSans-55"/>
       <use x="222.65625" xlink:href="#DejaVuSans-53"/>
      </g>
     </g>
    </g>
    <g id="ytick_9">
     <g id="line2d_15">
      <g>
       <use style="stroke:#000000;stroke-width:0.8;" x="52.30649" xlink:href="#m4bd235d30d" y="71.612333"/>
      </g>
     </g>
     <g id="text_10">
      <!-- 0.200 -->
      <g transform="translate(16.678365 75.411551)scale(0.1 -0.1)">
       <use xlink:href="#DejaVuSans-48"/>
       <use x="63.623047" xlink:href="#DejaVuSans-46"/>
       <use x="95.410156" xlink:href="#DejaVuSans-50"/>
       <use x="159.033203" xlink:href="#DejaVuSans-48"/>
       <use x="222.65625" xlink:href="#DejaVuSans-48"/>
      </g>
     </g>
    </g>
    <g id="text_11">
     <!-- #nodes in bin -->
     <defs>
      <path d="M 51.125 44 
L 36.921875 44 
L 32.8125 27.6875 
L 47.125 27.6875 
z
M 43.796875 71.78125 
L 38.71875 51.515625 
L 52.984375 51.515625 
L 58.109375 71.78125 
L 65.921875 71.78125 
L 60.890625 51.515625 
L 76.125 51.515625 
L 76.125 44 
L 58.984375 44 
L 54.984375 27.6875 
L 70.515625 27.6875 
L 70.515625 20.21875 
L 53.078125 20.21875 
L 48 0 
L 40.1875 0 
L 45.21875 20.21875 
L 30.90625 20.21875 
L 25.875 0 
L 18.015625 0 
L 23.09375 20.21875 
L 7.71875 20.21875 
L 7.71875 27.6875 
L 24.90625 27.6875 
L 29 44 
L 13.28125 44 
L 13.28125 51.515625 
L 30.90625 51.515625 
L 35.890625 71.78125 
z
" id="DejaVuSans-35"/>
      <path d="M 45.40625 46.390625 
L 45.40625 75.984375 
L 54.390625 75.984375 
L 54.390625 0 
L 45.40625 0 
L 45.40625 8.203125 
Q 42.578125 3.328125 38.25 0.953125 
Q 33.9375 -1.421875 27.875 -1.421875 
Q 17.96875 -1.421875 11.734375 6.484375 
Q 5.515625 14.40625 5.515625 27.296875 
Q 5.515625 40.1875 11.734375 48.09375 
Q 17.96875 56 27.875 56 
Q 33.9375 56 38.25 53.625 
Q 42.578125 51.265625 45.40625 46.390625 
z
M 14.796875 27.296875 
Q 14.796875 17.390625 18.875 11.75 
Q 22.953125 6.109375 30.078125 6.109375 
Q 37.203125 6.109375 41.296875 11.75 
Q 45.40625 17.390625 45.40625 27.296875 
Q 45.40625 37.203125 41.296875 42.84375 
Q 37.203125 48.484375 30.078125 48.484375 
Q 22.953125 48.484375 18.875 42.84375 
Q 14.796875 37.203125 14.796875 27.296875 
z
" id="DejaVuSans-100"/>
     </defs>
     <g transform="translate(10.598678 247.516685)rotate(-90)scale(0.1 -0.1)">
      <use xlink:href="#DejaVuSans-35"/>
      <use x="83.789062" xlink:href="#DejaVuSans-110"/>
      <use x="147.167969" xlink:href="#DejaVuSans-111"/>
      <use x="208.349609" xlink:href="#DejaVuSans-100"/>
      <use x="271.826172" xlink:href="#DejaVuSans-101"/>
      <use x="333.349609" xlink:href="#DejaVuSans-115"/>
      <use x="385.449219" xlink:href="#DejaVuSans-32"/>
      <use x="417.236328" xlink:href="#DejaVuSans-105"/>
      <use x="445.019531" xlink:href="#DejaVuSans-110"/>
      <use x="508.398438" xlink:href="#DejaVuSans-32"/>
      <use x="540.185547" xlink:href="#DejaVuSans-98"/>
      <use x="603.662109" xlink:href="#DejaVuSans-105"/>
      <use x="631.445312" xlink:href="#DejaVuSans-110"/>
     </g>
    </g>
   </g>
   <g id="line2d_16">
    <path clip-path="url(#p8e31de5e56)" d="M -1 363.272497 
L 1.843076 362.403101 
L 9.954343 358.852835 
L 18.065611 354.055807 
L 26.176878 347.940117 
L 34.288146 340.591355 
L 42.399414 332.285728 
L 50.510681 323.490237 
L 58.621949 314.823337 
L 66.733216 306.979327 
L 74.844484 300.629356 
L 82.955752 296.318467 
L 91.067019 294.380056 
L 99.178287 294.886137 
L 107.289555 297.644577 
L 115.400822 302.24409 
L 123.51209 308.136389 
L 131.623357 314.735391 
L 139.734625 321.509083 
L 147.845893 328.042931 
L 155.95716 334.063962 
L 164.068428 339.428212 
L 172.179695 344.085516 
L 180.290963 348.04011 
L 188.402231 351.321924 
L 196.513498 353.97451 
L 204.624766 356.056192 
L 212.736034 357.645604 
L 220.847301 358.842974 
L 228.958569 359.762917 
L 237.069836 360.520085 
L 245.181104 361.212773 
L 253.292372 361.910125 
L 261.403639 362.646537 
L 269.514907 363.423686 
L 277.626174 364.21817 
L 285.737442 364.991821 
L 293.84871 365.702164 
L 301.959977 366.311517 
L 310.071245 366.794019 
L 318.182512 367.140167 
L 326.29378 367.358385 
L 334.405048 367.473267 
L 342.516315 367.520549 
L 350.627583 367.539704 
L 358.738851 367.565845 
L 366.850118 367.623017 
L 374.961386 367.720618 
L 383.072653 367.853715 
L 391.183921 368.006747 
L 399.295189 368.159106 
L 407.406456 368.29079 
L 415.517724 368.386706 
L 423.628991 368.439023 
L 431.740259 368.447712 
L 439.851527 368.419758 
L 447.962794 368.367487 
L 456.074062 368.306208 
L 464.18533 368.251265 
L 472.296597 368.214783 
L 480.407865 368.202642 
L 488.519132 368.212441 
L 496.6304 368.233114 
L 504.741668 368.246486 
L 512.852935 368.230633 
L 520.964203 368.164504 
L 529.07547 368.033088 
L 537.186738 367.832201 
L 545.298006 367.571804 
L 553.409273 367.27665 
L 561.520541 366.983322 
L 569.631808 366.733556 
L 577.743076 366.565056 
L 585.854344 366.502313 
L 593.965611 366.550431 
L 602.076879 366.694278 
L 610.188147 366.903433 
L 618.299414 367.141242 
L 626.410682 367.374731 
L 634.521949 367.581996 
L 642.633217 367.754926 
L 650.744485 367.897096 
L 658.855752 368.018506 
L 666.96702 368.129698 
L 675.078287 368.237486 
L 683.189555 368.343399 
L 691.300823 368.444627 
L 699.41209 368.536365 
L 707.523358 368.61423 
L 715.634625 368.67584 
L 721 368.705868 
" style="fill:none;stroke:#ff0000;stroke-linecap:square;stroke-width:1.5;"/>
   </g>
   <g id="patch_23">
    <path d="M 52.30649 368.797483 
L 52.30649 56.753075 
" style="fill:none;stroke:#000000;stroke-linecap:square;stroke-linejoin:miter;stroke-width:0.8;"/>
   </g>
   <g id="patch_24">
    <path d="M 707.45601 368.797483 
L 707.45601 56.753075 
" style="fill:none;stroke:#000000;stroke-linecap:square;stroke-linejoin:miter;stroke-width:0.8;"/>
   </g>
   <g id="patch_25">
    <path d="M 52.30649 368.797483 
L 707.45601 368.797483 
" style="fill:none;stroke:#000000;stroke-linecap:square;stroke-linejoin:miter;stroke-width:0.8;"/>
   </g>
   <g id="patch_26">
    <path d="M 52.30649 56.753075 
L 707.45601 56.753075 
" style="fill:none;stroke:#000000;stroke-linecap:square;stroke-linejoin:miter;stroke-width:0.8;"/>
   </g>
   <g id="legend_1">
    <g id="patch_27">
     <path d="M 596.21851 79.4312 
L 700.45601 79.4312 
Q 702.45601 79.4312 702.45601 77.4312 
L 702.45601 63.753075 
Q 702.45601 61.753075 700.45601 61.753075 
L 596.21851 61.753075 
Q 594.21851 61.753075 594.21851 63.753075 
L 594.21851 77.4312 
Q 594.21851 79.4312 596.21851 79.4312 
z
" style="fill:#ffffff;opacity:0.8;stroke:#cccccc;stroke-linejoin:miter;"/>
    </g>
    <g id="patch_28">
     <path d="M 598.21851 73.351513 
L 618.21851 73.351513 
L 618.21851 66.351513 
L 598.21851 66.351513 
z
" style="fill:#ff0000;opacity:0.4;"/>
    </g>
    <g id="text_12">
     <!-- Reports Based -->
     <defs>
      <path d="M 44.390625 34.1875 
Q 47.5625 33.109375 50.5625 29.59375 
Q 53.5625 26.078125 56.59375 19.921875 
L 66.609375 0 
L 56 0 
L 46.6875 18.703125 
Q 43.0625 26.03125 39.671875 28.421875 
Q 36.28125 30.8125 30.421875 30.8125 
L 19.671875 30.8125 
L 19.671875 0 
L 9.8125 0 
L 9.8125 72.90625 
L 32.078125 72.90625 
Q 44.578125 72.90625 50.734375 67.671875 
Q 56.890625 62.453125 56.890625 51.90625 
Q 56.890625 45.015625 53.6875 40.46875 
Q 50.484375 35.9375 44.390625 34.1875 
z
M 19.671875 64.796875 
L 19.671875 38.921875 
L 32.078125 38.921875 
Q 39.203125 38.921875 42.84375 42.21875 
Q 46.484375 45.515625 46.484375 51.90625 
Q 46.484375 58.296875 42.84375 61.546875 
Q 39.203125 64.796875 32.078125 64.796875 
z
" id="DejaVuSans-82"/>
      <path d="M 18.109375 8.203125 
L 18.109375 -20.796875 
L 9.078125 -20.796875 
L 9.078125 54.6875 
L 18.109375 54.6875 
L 18.109375 46.390625 
Q 20.953125 51.265625 25.265625 53.625 
Q 29.59375 56 35.59375 56 
Q 45.5625 56 51.78125 48.09375 
Q 58.015625 40.1875 58.015625 27.296875 
Q 58.015625 14.40625 51.78125 6.484375 
Q 45.5625 -1.421875 35.59375 -1.421875 
Q 29.59375 -1.421875 25.265625 0.953125 
Q 20.953125 3.328125 18.109375 8.203125 
z
M 48.6875 27.296875 
Q 48.6875 37.203125 44.609375 42.84375 
Q 40.53125 48.484375 33.40625 48.484375 
Q 26.265625 48.484375 22.1875 42.84375 
Q 18.109375 37.203125 18.109375 27.296875 
Q 18.109375 17.390625 22.1875 11.75 
Q 26.265625 6.109375 33.40625 6.109375 
Q 40.53125 6.109375 44.609375 11.75 
Q 48.6875 17.390625 48.6875 27.296875 
z
" id="DejaVuSans-112"/>
      <path d="M 19.671875 34.8125 
L 19.671875 8.109375 
L 35.5 8.109375 
Q 43.453125 8.109375 47.28125 11.40625 
Q 51.125 14.703125 51.125 21.484375 
Q 51.125 28.328125 47.28125 31.5625 
Q 43.453125 34.8125 35.5 34.8125 
z
M 19.671875 64.796875 
L 19.671875 42.828125 
L 34.28125 42.828125 
Q 41.5 42.828125 45.03125 45.53125 
Q 48.578125 48.25 48.578125 53.8125 
Q 48.578125 59.328125 45.03125 62.0625 
Q 41.5 64.796875 34.28125 64.796875 
z
M 9.8125 72.90625 
L 35.015625 72.90625 
Q 46.296875 72.90625 52.390625 68.21875 
Q 58.5 63.53125 58.5 54.890625 
Q 58.5 48.1875 55.375 44.234375 
Q 52.25 40.28125 46.1875 39.3125 
Q 53.46875 37.75 57.5 32.78125 
Q 61.53125 27.828125 61.53125 20.40625 
Q 61.53125 10.640625 54.890625 5.3125 
Q 48.25 0 35.984375 0 
L 9.8125 0 
z
" id="DejaVuSans-66"/>
     </defs>
     <g transform="translate(626.21851 73.351513)scale(0.1 -0.1)">
      <use xlink:href="#DejaVuSans-82"/>
      <use x="64.982422" xlink:href="#DejaVuSans-101"/>
      <use x="126.505859" xlink:href="#DejaVuSans-112"/>
      <use x="189.982422" xlink:href="#DejaVuSans-111"/>
      <use x="251.164062" xlink:href="#DejaVuSans-114"/>
      <use x="292.277344" xlink:href="#DejaVuSans-116"/>
      <use x="331.486328" xlink:href="#DejaVuSans-115"/>
      <use x="383.585938" xlink:href="#DejaVuSans-32"/>
      <use x="415.373047" xlink:href="#DejaVuSans-66"/>
      <use x="483.976562" xlink:href="#DejaVuSans-97"/>
      <use x="545.255859" xlink:href="#DejaVuSans-115"/>
      <use x="597.355469" xlink:href="#DejaVuSans-101"/>
      <use x="658.878906" xlink:href="#DejaVuSans-100"/>
     </g>
    </g>
   </g>
  </g>
  <g id="axes_2">
   <g id="patch_29">
    <path d="M 52.30649 707.720497 
L 707.45601 707.720497 
L 707.45601 395.676088 
L 52.30649 395.676088 
z
" style="fill:#ffffff;"/>
   </g>
   <g id="patch_30">
    <path clip-path="url(#p7055b6dc2b)" d="M 52.30649 707.720497 
L 71.205031 707.720497 
L 71.205031 599.141071 
L 52.30649 599.141071 
z
" style="fill:#800080;opacity:0.4;"/>
   </g>
   <g id="patch_31">
    <path clip-path="url(#p7055b6dc2b)" d="M 71.205031 707.720497 
L 90.103573 707.720497 
L 90.103573 452.685101 
L 71.205031 452.685101 
z
" style="fill:#800080;opacity:0.4;"/>
   </g>
   <g id="patch_32">
    <path clip-path="url(#p7055b6dc2b)" d="M 90.103573 707.720497 
L 109.002114 707.720497 
L 109.002114 619.341894 
L 90.103573 619.341894 
z
" style="fill:#800080;opacity:0.4;"/>
   </g>
   <g id="patch_33">
    <path clip-path="url(#p7055b6dc2b)" d="M 109.002114 707.720497 
L 127.900655 707.720497 
L 127.900655 679.944364 
L 109.002114 679.944364 
z
" style="fill:#800080;opacity:0.4;"/>
   </g>
   <g id="patch_34">
    <path clip-path="url(#p7055b6dc2b)" d="M 127.900655 707.720497 
L 146.799197 707.720497 
L 146.799197 682.469467 
L 127.900655 682.469467 
z
" style="fill:#800080;opacity:0.4;"/>
   </g>
   <g id="patch_35">
    <path clip-path="url(#p7055b6dc2b)" d="M 146.799197 707.720497 
L 165.697738 707.720497 
L 165.697738 705.195394 
L 146.799197 705.195394 
z
" style="fill:#800080;opacity:0.4;"/>
   </g>
   <g id="patch_36">
    <path clip-path="url(#p7055b6dc2b)" d="M 165.697738 707.720497 
L 184.596279 707.720497 
L 184.596279 707.720497 
L 165.697738 707.720497 
z
" style="fill:#800080;opacity:0.4;"/>
   </g>
   <g id="patch_37">
    <path clip-path="url(#p7055b6dc2b)" d="M 184.596279 707.720497 
L 203.494821 707.720497 
L 203.494821 705.195394 
L 184.596279 705.195394 
z
" style="fill:#800080;opacity:0.4;"/>
   </g>
   <g id="patch_38">
    <path clip-path="url(#p7055b6dc2b)" d="M 203.494821 707.720497 
L 222.393362 707.720497 
L 222.393362 707.720497 
L 203.494821 707.720497 
z
" style="fill:#800080;opacity:0.4;"/>
   </g>
   <g id="patch_39">
    <path clip-path="url(#p7055b6dc2b)" d="M 222.393362 707.720497 
L 241.291903 707.720497 
L 241.291903 705.195394 
L 222.393362 705.195394 
z
" style="fill:#800080;opacity:0.4;"/>
   </g>
   <g id="patch_40">
    <path clip-path="url(#p7055b6dc2b)" d="M 241.291903 707.720497 
L 260.190445 707.720497 
L 260.190445 707.720497 
L 241.291903 707.720497 
z
" style="fill:#800080;opacity:0.4;"/>
   </g>
   <g id="patch_41">
    <path clip-path="url(#p7055b6dc2b)" d="M 260.190445 707.720497 
L 279.088986 707.720497 
L 279.088986 707.720497 
L 260.190445 707.720497 
z
" style="fill:#800080;opacity:0.4;"/>
   </g>
   <g id="patch_42">
    <path clip-path="url(#p7055b6dc2b)" d="M 279.088986 707.720497 
L 297.987527 707.720497 
L 297.987527 707.720497 
L 279.088986 707.720497 
z
" style="fill:#800080;opacity:0.4;"/>
   </g>
   <g id="patch_43">
    <path clip-path="url(#p7055b6dc2b)" d="M 297.987527 707.720497 
L 316.886069 707.720497 
L 316.886069 707.720497 
L 297.987527 707.720497 
z
" style="fill:#800080;opacity:0.4;"/>
   </g>
   <g id="patch_44">
    <path clip-path="url(#p7055b6dc2b)" d="M 316.886069 707.720497 
L 335.78461 707.720497 
L 335.78461 707.720497 
L 316.886069 707.720497 
z
" style="fill:#800080;opacity:0.4;"/>
   </g>
   <g id="patch_45">
    <path clip-path="url(#p7055b6dc2b)" d="M 335.78461 707.720497 
L 354.683151 707.720497 
L 354.683151 707.720497 
L 335.78461 707.720497 
z
" style="fill:#800080;opacity:0.4;"/>
   </g>
   <g id="patch_46">
    <path clip-path="url(#p7055b6dc2b)" d="M 354.683151 707.720497 
L 373.581693 707.720497 
L 373.581693 707.720497 
L 354.683151 707.720497 
z
" style="fill:#800080;opacity:0.4;"/>
   </g>
   <g id="patch_47">
    <path clip-path="url(#p7055b6dc2b)" d="M 373.581693 707.720497 
L 392.480234 707.720497 
L 392.480234 707.720497 
L 373.581693 707.720497 
z
" style="fill:#800080;opacity:0.4;"/>
   </g>
   <g id="patch_48">
    <path clip-path="url(#p7055b6dc2b)" d="M 392.480234 707.720497 
L 411.378775 707.720497 
L 411.378775 707.720497 
L 392.480234 707.720497 
z
" style="fill:#800080;opacity:0.4;"/>
   </g>
   <g id="patch_49">
    <path clip-path="url(#p7055b6dc2b)" d="M 411.378775 707.720497 
L 430.277317 707.720497 
L 430.277317 705.195394 
L 411.378775 705.195394 
z
" style="fill:#800080;opacity:0.4;"/>
   </g>
   <g id="matplotlib.axis_3">
    <g id="xtick_7">
     <g id="line2d_17">
      <g>
       <use style="stroke:#000000;stroke-width:0.8;" x="52.30649" xlink:href="#mc8c1c21e13" y="707.720497"/>
      </g>
     </g>
    </g>
    <g id="xtick_8">
     <g id="line2d_18">
      <g>
       <use style="stroke:#000000;stroke-width:0.8;" x="183.336394" xlink:href="#mc8c1c21e13" y="707.720497"/>
      </g>
     </g>
    </g>
    <g id="xtick_9">
     <g id="line2d_19">
      <g>
       <use style="stroke:#000000;stroke-width:0.8;" x="314.366298" xlink:href="#mc8c1c21e13" y="707.720497"/>
      </g>
     </g>
    </g>
    <g id="xtick_10">
     <g id="line2d_20">
      <g>
       <use style="stroke:#000000;stroke-width:0.8;" x="445.396202" xlink:href="#mc8c1c21e13" y="707.720497"/>
      </g>
     </g>
    </g>
    <g id="xtick_11">
     <g id="line2d_21">
      <g>
       <use style="stroke:#000000;stroke-width:0.8;" x="576.426106" xlink:href="#mc8c1c21e13" y="707.720497"/>
      </g>
     </g>
    </g>
    <g id="xtick_12">
     <g id="line2d_22">
      <g>
       <use style="stroke:#000000;stroke-width:0.8;" x="707.45601" xlink:href="#mc8c1c21e13" y="707.720497"/>
      </g>
     </g>
    </g>
    <g id="text_13">
     <!-- Absolute Error in Accuracy(%) Estimation -->
     <g transform="translate(276.823437 719.318934)scale(0.1 -0.1)">
      <use xlink:href="#DejaVuSans-65"/>
      <use x="68.408203" xlink:href="#DejaVuSans-98"/>
      <use x="131.884766" xlink:href="#DejaVuSans-115"/>
      <use x="183.984375" xlink:href="#DejaVuSans-111"/>
      <use x="245.166016" xlink:href="#DejaVuSans-108"/>
      <use x="272.949219" xlink:href="#DejaVuSans-117"/>
      <use x="336.328125" xlink:href="#DejaVuSans-116"/>
      <use x="375.537109" xlink:href="#DejaVuSans-101"/>
      <use x="437.060547" xlink:href="#DejaVuSans-32"/>
      <use x="468.847656" xlink:href="#DejaVuSans-69"/>
      <use x="532.03125" xlink:href="#DejaVuSans-114"/>
      <use x="571.394531" xlink:href="#DejaVuSans-114"/>
      <use x="610.257812" xlink:href="#DejaVuSans-111"/>
      <use x="671.439453" xlink:href="#DejaVuSans-114"/>
      <use x="712.552734" xlink:href="#DejaVuSans-32"/>
      <use x="744.339844" xlink:href="#DejaVuSans-105"/>
      <use x="772.123047" xlink:href="#DejaVuSans-110"/>
      <use x="835.501953" xlink:href="#DejaVuSans-32"/>
      <use x="867.289062" xlink:href="#DejaVuSans-65"/>
      <use x="933.947266" xlink:href="#DejaVuSans-99"/>
      <use x="988.927734" xlink:href="#DejaVuSans-99"/>
      <use x="1043.908203" xlink:href="#DejaVuSans-117"/>
      <use x="1107.287109" xlink:href="#DejaVuSans-114"/>
      <use x="1148.400391" xlink:href="#DejaVuSans-97"/>
      <use x="1209.679688" xlink:href="#DejaVuSans-99"/>
      <use x="1264.660156" xlink:href="#DejaVuSans-121"/>
      <use x="1323.839844" xlink:href="#DejaVuSans-40"/>
      <use x="1362.853516" xlink:href="#DejaVuSans-37"/>
      <use x="1457.873047" xlink:href="#DejaVuSans-41"/>
      <use x="1496.886719" xlink:href="#DejaVuSans-32"/>
      <use x="1528.673828" xlink:href="#DejaVuSans-69"/>
      <use x="1591.857422" xlink:href="#DejaVuSans-115"/>
      <use x="1643.957031" xlink:href="#DejaVuSans-116"/>
      <use x="1683.166016" xlink:href="#DejaVuSans-105"/>
      <use x="1710.949219" xlink:href="#DejaVuSans-109"/>
      <use x="1808.361328" xlink:href="#DejaVuSans-97"/>
      <use x="1869.640625" xlink:href="#DejaVuSans-116"/>
      <use x="1908.849609" xlink:href="#DejaVuSans-105"/>
      <use x="1936.632812" xlink:href="#DejaVuSans-111"/>
      <use x="1997.814453" xlink:href="#DejaVuSans-110"/>
     </g>
    </g>
   </g>
   <g id="matplotlib.axis_4">
    <g id="ytick_10">
     <g id="line2d_23">
      <g>
       <use style="stroke:#000000;stroke-width:0.8;" x="52.30649" xlink:href="#m4bd235d30d" y="707.720497"/>
      </g>
     </g>
     <g id="text_14">
      <!-- 0.000 -->
      <g transform="translate(16.678365 711.519715)scale(0.1 -0.1)">
       <use xlink:href="#DejaVuSans-48"/>
       <use x="63.623047" xlink:href="#DejaVuSans-46"/>
       <use x="95.410156" xlink:href="#DejaVuSans-48"/>
       <use x="159.033203" xlink:href="#DejaVuSans-48"/>
       <use x="222.65625" xlink:href="#DejaVuSans-48"/>
      </g>
     </g>
    </g>
    <g id="ytick_11">
     <g id="line2d_24">
      <g>
       <use style="stroke:#000000;stroke-width:0.8;" x="52.30649" xlink:href="#m4bd235d30d" y="670.572353"/>
      </g>
     </g>
     <g id="text_15">
      <!-- 0.025 -->
      <g transform="translate(16.678365 674.371572)scale(0.1 -0.1)">
       <use xlink:href="#DejaVuSans-48"/>
       <use x="63.623047" xlink:href="#DejaVuSans-46"/>
       <use x="95.410156" xlink:href="#DejaVuSans-48"/>
       <use x="159.033203" xlink:href="#DejaVuSans-50"/>
       <use x="222.65625" xlink:href="#DejaVuSans-53"/>
      </g>
     </g>
    </g>
    <g id="ytick_12">
     <g id="line2d_25">
      <g>
       <use style="stroke:#000000;stroke-width:0.8;" x="52.30649" xlink:href="#m4bd235d30d" y="633.424209"/>
      </g>
     </g>
     <g id="text_16">
      <!-- 0.050 -->
      <g transform="translate(16.678365 637.223428)scale(0.1 -0.1)">
       <use xlink:href="#DejaVuSans-48"/>
       <use x="63.623047" xlink:href="#DejaVuSans-46"/>
       <use x="95.410156" xlink:href="#DejaVuSans-48"/>
       <use x="159.033203" xlink:href="#DejaVuSans-53"/>
       <use x="222.65625" xlink:href="#DejaVuSans-48"/>
      </g>
     </g>
    </g>
    <g id="ytick_13">
     <g id="line2d_26">
      <g>
       <use style="stroke:#000000;stroke-width:0.8;" x="52.30649" xlink:href="#m4bd235d30d" y="596.276065"/>
      </g>
     </g>
     <g id="text_17">
      <!-- 0.075 -->
      <g transform="translate(16.678365 600.075284)scale(0.1 -0.1)">
       <use xlink:href="#DejaVuSans-48"/>
       <use x="63.623047" xlink:href="#DejaVuSans-46"/>
       <use x="95.410156" xlink:href="#DejaVuSans-48"/>
       <use x="159.033203" xlink:href="#DejaVuSans-55"/>
       <use x="222.65625" xlink:href="#DejaVuSans-53"/>
      </g>
     </g>
    </g>
    <g id="ytick_14">
     <g id="line2d_27">
      <g>
       <use style="stroke:#000000;stroke-width:0.8;" x="52.30649" xlink:href="#m4bd235d30d" y="559.127921"/>
      </g>
     </g>
     <g id="text_18">
      <!-- 0.100 -->
      <g transform="translate(16.678365 562.92714)scale(0.1 -0.1)">
       <use xlink:href="#DejaVuSans-48"/>
       <use x="63.623047" xlink:href="#DejaVuSans-46"/>
       <use x="95.410156" xlink:href="#DejaVuSans-49"/>
       <use x="159.033203" xlink:href="#DejaVuSans-48"/>
       <use x="222.65625" xlink:href="#DejaVuSans-48"/>
      </g>
     </g>
    </g>
    <g id="ytick_15">
     <g id="line2d_28">
      <g>
       <use style="stroke:#000000;stroke-width:0.8;" x="52.30649" xlink:href="#m4bd235d30d" y="521.979777"/>
      </g>
     </g>
     <g id="text_19">
      <!-- 0.125 -->
      <g transform="translate(16.678365 525.778996)scale(0.1 -0.1)">
       <use xlink:href="#DejaVuSans-48"/>
       <use x="63.623047" xlink:href="#DejaVuSans-46"/>
       <use x="95.410156" xlink:href="#DejaVuSans-49"/>
       <use x="159.033203" xlink:href="#DejaVuSans-50"/>
       <use x="222.65625" xlink:href="#DejaVuSans-53"/>
      </g>
     </g>
    </g>
    <g id="ytick_16">
     <g id="line2d_29">
      <g>
       <use style="stroke:#000000;stroke-width:0.8;" x="52.30649" xlink:href="#m4bd235d30d" y="484.831634"/>
      </g>
     </g>
     <g id="text_20">
      <!-- 0.150 -->
      <g transform="translate(16.678365 488.630852)scale(0.1 -0.1)">
       <use xlink:href="#DejaVuSans-48"/>
       <use x="63.623047" xlink:href="#DejaVuSans-46"/>
       <use x="95.410156" xlink:href="#DejaVuSans-49"/>
       <use x="159.033203" xlink:href="#DejaVuSans-53"/>
       <use x="222.65625" xlink:href="#DejaVuSans-48"/>
      </g>
     </g>
    </g>
    <g id="ytick_17">
     <g id="line2d_30">
      <g>
       <use style="stroke:#000000;stroke-width:0.8;" x="52.30649" xlink:href="#m4bd235d30d" y="447.68349"/>
      </g>
     </g>
     <g id="text_21">
      <!-- 0.175 -->
      <g transform="translate(16.678365 451.482708)scale(0.1 -0.1)">
       <use xlink:href="#DejaVuSans-48"/>
       <use x="63.623047" xlink:href="#DejaVuSans-46"/>
       <use x="95.410156" xlink:href="#DejaVuSans-49"/>
       <use x="159.033203" xlink:href="#DejaVuSans-55"/>
       <use x="222.65625" xlink:href="#DejaVuSans-53"/>
      </g>
     </g>
    </g>
    <g id="ytick_18">
     <g id="line2d_31">
      <g>
       <use style="stroke:#000000;stroke-width:0.8;" x="52.30649" xlink:href="#m4bd235d30d" y="410.535346"/>
      </g>
     </g>
     <g id="text_22">
      <!-- 0.200 -->
      <g transform="translate(16.678365 414.334565)scale(0.1 -0.1)">
       <use xlink:href="#DejaVuSans-48"/>
       <use x="63.623047" xlink:href="#DejaVuSans-46"/>
       <use x="95.410156" xlink:href="#DejaVuSans-50"/>
       <use x="159.033203" xlink:href="#DejaVuSans-48"/>
       <use x="222.65625" xlink:href="#DejaVuSans-48"/>
      </g>
     </g>
    </g>
    <g id="text_23">
     <!-- #nodes in bin -->
     <g transform="translate(10.598678 586.439699)rotate(-90)scale(0.1 -0.1)">
      <use xlink:href="#DejaVuSans-35"/>
      <use x="83.789062" xlink:href="#DejaVuSans-110"/>
      <use x="147.167969" xlink:href="#DejaVuSans-111"/>
      <use x="208.349609" xlink:href="#DejaVuSans-100"/>
      <use x="271.826172" xlink:href="#DejaVuSans-101"/>
      <use x="333.349609" xlink:href="#DejaVuSans-115"/>
      <use x="385.449219" xlink:href="#DejaVuSans-32"/>
      <use x="417.236328" xlink:href="#DejaVuSans-105"/>
      <use x="445.019531" xlink:href="#DejaVuSans-110"/>
      <use x="508.398438" xlink:href="#DejaVuSans-32"/>
      <use x="540.185547" xlink:href="#DejaVuSans-98"/>
      <use x="603.662109" xlink:href="#DejaVuSans-105"/>
      <use x="631.445312" xlink:href="#DejaVuSans-110"/>
     </g>
    </g>
   </g>
   <g id="line2d_32">
    <path clip-path="url(#p7055b6dc2b)" d="M 18.116539 707.615475 
L 22.625132 707.376098 
L 27.133725 706.728608 
L 31.642318 705.191498 
L 36.150912 701.957318 
L 40.659505 695.858396 
L 45.168098 685.441596 
L 49.676691 669.21643 
L 54.185285 646.161414 
L 58.693878 616.504404 
L 63.202471 582.523137 
L 67.711064 548.78374 
L 72.219657 521.267603 
L 76.728251 505.461011 
L 81.236844 504.29478 
L 85.745437 517.08215 
L 90.25403 540.021052 
L 94.762624 567.87125 
L 99.271217 595.818849 
L 103.77981 620.644785 
L 108.288403 640.909974 
L 112.796996 656.468251 
L 117.30559 667.841071 
L 121.814183 675.809357 
L 126.322776 681.258601 
L 130.831369 685.120871 
L 135.339963 688.266406 
L 139.848556 691.322039 
L 144.357149 694.517588 
L 148.865742 697.69568 
L 153.374335 700.51902 
L 157.882929 702.73904 
L 162.391522 704.328146 
L 166.900115 705.411547 
L 171.408708 706.118131 
L 175.917302 706.504527 
L 180.425895 706.591792 
L 184.934488 706.443473 
L 189.443081 706.198968 
L 193.951674 706.028913 
L 198.460268 706.043945 
L 202.968861 706.227497 
L 207.477454 706.44951 
L 211.986047 706.556356 
L 216.494641 706.475 
L 221.003234 706.262315 
L 225.511827 706.069221 
L 230.02042 706.043967 
L 234.529013 706.240662 
L 239.037607 706.596921 
L 243.5462 706.989244 
L 248.054793 707.313 
L 252.563386 707.526132 
L 257.07198 707.641156 
L 261.580573 707.69278 
L 266.089166 707.71221 
L 270.597759 707.718377 
L 275.106352 707.720032 
L 279.614946 707.72041 
L 284.123539 707.720483 
L 288.632132 707.720495 
L 293.140725 707.720496 
L 297.649319 707.720497 
L 302.157912 707.720497 
L 306.666505 707.720497 
L 311.175098 707.720497 
L 315.683691 707.720497 
L 320.192285 707.720497 
L 324.700878 707.720497 
L 329.209471 707.720497 
L 333.718064 707.720497 
L 338.226658 707.720497 
L 342.735251 707.720497 
L 347.243844 707.720497 
L 351.752437 707.720497 
L 356.26103 707.720497 
L 360.769624 707.720497 
L 365.278217 707.720497 
L 369.78681 707.720495 
L 374.295403 707.720486 
L 378.803997 707.720432 
L 383.31259 707.72014 
L 387.821183 707.718826 
L 392.329776 707.713797 
L 396.838369 707.697507 
L 401.346963 707.65299 
L 405.855556 707.550857 
L 410.364149 707.355681 
L 414.872742 707.049092 
L 419.381336 706.663049 
L 423.889929 706.295225 
L 428.398522 706.076501 
L 432.907115 706.097687 
L 437.415708 706.34962 
L 441.924302 706.729452 
L 446.432895 707.107367 
L 450.941488 707.395877 
L 455.450081 707.573414 
L 459.958675 707.663465 
L 464.467268 707.701572 
" style="fill:none;stroke:#800080;stroke-linecap:square;stroke-width:1.5;"/>
   </g>
   <g id="patch_50">
    <path d="M 52.30649 707.720497 
L 52.30649 395.676088 
" style="fill:none;stroke:#000000;stroke-linecap:square;stroke-linejoin:miter;stroke-width:0.8;"/>
   </g>
   <g id="patch_51">
    <path d="M 707.45601 707.720497 
L 707.45601 395.676088 
" style="fill:none;stroke:#000000;stroke-linecap:square;stroke-linejoin:miter;stroke-width:0.8;"/>
   </g>
   <g id="patch_52">
    <path d="M 52.30649 707.720497 
L 707.45601 707.720497 
" style="fill:none;stroke:#000000;stroke-linecap:square;stroke-linejoin:miter;stroke-width:0.8;"/>
   </g>
   <g id="patch_53">
    <path d="M 52.30649 395.676088 
L 707.45601 395.676088 
" style="fill:none;stroke:#000000;stroke-linecap:square;stroke-linejoin:miter;stroke-width:0.8;"/>
   </g>
   <g id="legend_2">
    <g id="patch_54">
     <path d="M 466.41226 418.354213 
L 700.45601 418.354213 
Q 702.45601 418.354213 702.45601 416.354213 
L 702.45601 402.676088 
Q 702.45601 400.676088 700.45601 400.676088 
L 466.41226 400.676088 
Q 464.41226 400.676088 464.41226 402.676088 
L 464.41226 416.354213 
Q 464.41226 418.354213 466.41226 418.354213 
z
" style="fill:#ffffff;opacity:0.8;stroke:#cccccc;stroke-linejoin:miter;"/>
    </g>
    <g id="patch_55">
     <path d="M 468.41226 412.274526 
L 488.41226 412.274526 
L 488.41226 405.274526 
L 468.41226 405.274526 
z
" style="fill:#800080;opacity:0.4;"/>
    </g>
    <g id="text_24">
     <!-- Message Avg Based Without Blacklisting -->
     <defs>
      <path d="M 9.8125 72.90625 
L 24.515625 72.90625 
L 43.109375 23.296875 
L 61.8125 72.90625 
L 76.515625 72.90625 
L 76.515625 0 
L 66.890625 0 
L 66.890625 64.015625 
L 48.09375 14.015625 
L 38.1875 14.015625 
L 19.390625 64.015625 
L 19.390625 0 
L 9.8125 0 
z
" id="DejaVuSans-77"/>
      <path d="M 45.40625 27.984375 
Q 45.40625 37.75 41.375 43.109375 
Q 37.359375 48.484375 30.078125 48.484375 
Q 22.859375 48.484375 18.828125 43.109375 
Q 14.796875 37.75 14.796875 27.984375 
Q 14.796875 18.265625 18.828125 12.890625 
Q 22.859375 7.515625 30.078125 7.515625 
Q 37.359375 7.515625 41.375 12.890625 
Q 45.40625 18.265625 45.40625 27.984375 
z
M 54.390625 6.78125 
Q 54.390625 -7.171875 48.1875 -13.984375 
Q 42 -20.796875 29.203125 -20.796875 
Q 24.46875 -20.796875 20.265625 -20.09375 
Q 16.0625 -19.390625 12.109375 -17.921875 
L 12.109375 -9.1875 
Q 16.0625 -11.328125 19.921875 -12.34375 
Q 23.78125 -13.375 27.78125 -13.375 
Q 36.625 -13.375 41.015625 -8.765625 
Q 45.40625 -4.15625 45.40625 5.171875 
L 45.40625 9.625 
Q 42.625 4.78125 38.28125 2.390625 
Q 33.9375 0 27.875 0 
Q 17.828125 0 11.671875 7.65625 
Q 5.515625 15.328125 5.515625 27.984375 
Q 5.515625 40.671875 11.671875 48.328125 
Q 17.828125 56 27.875 56 
Q 33.9375 56 38.28125 53.609375 
Q 42.625 51.21875 45.40625 46.390625 
L 45.40625 54.6875 
L 54.390625 54.6875 
z
" id="DejaVuSans-103"/>
      <path d="M 2.984375 54.6875 
L 12.5 54.6875 
L 29.59375 8.796875 
L 46.6875 54.6875 
L 56.203125 54.6875 
L 35.6875 0 
L 23.484375 0 
z
" id="DejaVuSans-118"/>
      <path d="M 3.328125 72.90625 
L 13.28125 72.90625 
L 28.609375 11.28125 
L 43.890625 72.90625 
L 54.984375 72.90625 
L 70.3125 11.28125 
L 85.59375 72.90625 
L 95.609375 72.90625 
L 77.296875 0 
L 64.890625 0 
L 49.515625 63.28125 
L 33.984375 0 
L 21.578125 0 
z
" id="DejaVuSans-87"/>
      <path d="M 54.890625 33.015625 
L 54.890625 0 
L 45.90625 0 
L 45.90625 32.71875 
Q 45.90625 40.484375 42.875 44.328125 
Q 39.84375 48.1875 33.796875 48.1875 
Q 26.515625 48.1875 22.3125 43.546875 
Q 18.109375 38.921875 18.109375 30.90625 
L 18.109375 0 
L 9.078125 0 
L 9.078125 75.984375 
L 18.109375 75.984375 
L 18.109375 46.1875 
Q 21.34375 51.125 25.703125 53.5625 
Q 30.078125 56 35.796875 56 
Q 45.21875 56 50.046875 50.171875 
Q 54.890625 44.34375 54.890625 33.015625 
z
" id="DejaVuSans-104"/>
      <path d="M 9.078125 75.984375 
L 18.109375 75.984375 
L 18.109375 31.109375 
L 44.921875 54.6875 
L 56.390625 54.6875 
L 27.390625 29.109375 
L 57.625 0 
L 45.90625 0 
L 18.109375 26.703125 
L 18.109375 0 
L 9.078125 0 
z
" id="DejaVuSans-107"/>
     </defs>
     <g transform="translate(496.41226 412.274526)scale(0.1 -0.1)">
      <use xlink:href="#DejaVuSans-77"/>
      <use x="86.279297" xlink:href="#DejaVuSans-101"/>
      <use x="147.802734" xlink:href="#DejaVuSans-115"/>
      <use x="199.902344" xlink:href="#DejaVuSans-115"/>
      <use x="252.001953" xlink:href="#DejaVuSans-97"/>
      <use x="313.28125" xlink:href="#DejaVuSans-103"/>
      <use x="376.757812" xlink:href="#DejaVuSans-101"/>
      <use x="438.28125" xlink:href="#DejaVuSans-32"/>
      <use x="470.068359" xlink:href="#DejaVuSans-65"/>
      <use x="532.601562" xlink:href="#DejaVuSans-118"/>
      <use x="591.78125" xlink:href="#DejaVuSans-103"/>
      <use x="655.257812" xlink:href="#DejaVuSans-32"/>
      <use x="687.044922" xlink:href="#DejaVuSans-66"/>
      <use x="755.648438" xlink:href="#DejaVuSans-97"/>
      <use x="816.927734" xlink:href="#DejaVuSans-115"/>
      <use x="869.027344" xlink:href="#DejaVuSans-101"/>
      <use x="930.550781" xlink:href="#DejaVuSans-100"/>
      <use x="994.027344" xlink:href="#DejaVuSans-32"/>
      <use x="1025.814453" xlink:href="#DejaVuSans-87"/>
      <use x="1122.441406" xlink:href="#DejaVuSans-105"/>
      <use x="1150.224609" xlink:href="#DejaVuSans-116"/>
      <use x="1189.433594" xlink:href="#DejaVuSans-104"/>
      <use x="1252.8125" xlink:href="#DejaVuSans-111"/>
      <use x="1313.994141" xlink:href="#DejaVuSans-117"/>
      <use x="1377.373047" xlink:href="#DejaVuSans-116"/>
      <use x="1416.582031" xlink:href="#DejaVuSans-32"/>
      <use x="1448.369141" xlink:href="#DejaVuSans-66"/>
      <use x="1516.972656" xlink:href="#DejaVuSans-108"/>
      <use x="1544.755859" xlink:href="#DejaVuSans-97"/>
      <use x="1606.035156" xlink:href="#DejaVuSans-99"/>
      <use x="1661.015625" xlink:href="#DejaVuSans-107"/>
      <use x="1718.925781" xlink:href="#DejaVuSans-108"/>
      <use x="1746.708984" xlink:href="#DejaVuSans-105"/>
      <use x="1774.492188" xlink:href="#DejaVuSans-115"/>
      <use x="1826.591797" xlink:href="#DejaVuSans-116"/>
      <use x="1865.800781" xlink:href="#DejaVuSans-105"/>
      <use x="1893.583984" xlink:href="#DejaVuSans-110"/>
      <use x="1956.962891" xlink:href="#DejaVuSans-103"/>
     </g>
    </g>
   </g>
  </g>
  <g id="axes_3">
   <g id="patch_56">
    <path d="M 52.30649 1046.64351 
L 707.45601 1046.64351 
L 707.45601 734.599102 
L 52.30649 734.599102 
z
" style="fill:#ffffff;"/>
   </g>
   <g id="patch_57">
    <path clip-path="url(#p6f7636c6b4)" d="M 52.30649 1046.64351 
L 63.225638 1046.64351 
L 63.225638 928.643406 
L 52.30649 928.643406 
z
" style="fill:#0000ff;opacity:0.4;"/>
   </g>
   <g id="patch_58">
    <path clip-path="url(#p6f7636c6b4)" d="M 63.225638 1046.64351 
L 74.144785 1046.64351 
L 74.144785 749.458062 
L 63.225638 749.458062 
z
" style="fill:#0000ff;opacity:0.4;"/>
   </g>
   <g id="patch_59">
    <path clip-path="url(#p6f7636c6b4)" d="M 74.144785 1046.64351 
L 85.063933 1046.64351 
L 85.063933 740.717314 
L 74.144785 740.717314 
z
" style="fill:#0000ff;opacity:0.4;"/>
   </g>
   <g id="patch_60">
    <path clip-path="url(#p6f7636c6b4)" d="M 85.063933 1046.64351 
L 95.983081 1046.64351 
L 95.983081 933.01378 
L 85.063933 933.01378 
z
" style="fill:#0000ff;opacity:0.4;"/>
   </g>
   <g id="patch_61">
    <path clip-path="url(#p6f7636c6b4)" d="M 95.983081 1046.64351 
L 106.902229 1046.64351 
L 106.902229 1024.791639 
L 95.983081 1024.791639 
z
" style="fill:#0000ff;opacity:0.4;"/>
   </g>
   <g id="patch_62">
    <path clip-path="url(#p6f7636c6b4)" d="M 106.902229 1046.64351 
L 117.821376 1046.64351 
L 117.821376 1037.902762 
L 106.902229 1037.902762 
z
" style="fill:#0000ff;opacity:0.4;"/>
   </g>
   <g id="patch_63">
    <path clip-path="url(#p6f7636c6b4)" d="M 117.821376 1046.64351 
L 128.740524 1046.64351 
L 128.740524 1046.64351 
L 117.821376 1046.64351 
z
" style="fill:#0000ff;opacity:0.4;"/>
   </g>
   <g id="patch_64">
    <path clip-path="url(#p6f7636c6b4)" d="M 128.740524 1046.64351 
L 139.659672 1046.64351 
L 139.659672 1042.273136 
L 128.740524 1042.273136 
z
" style="fill:#0000ff;opacity:0.4;"/>
   </g>
   <g id="patch_65">
    <path clip-path="url(#p6f7636c6b4)" d="M 139.659672 1046.64351 
L 150.57882 1046.64351 
L 150.57882 1033.532387 
L 139.659672 1033.532387 
z
" style="fill:#0000ff;opacity:0.4;"/>
   </g>
   <g id="patch_66">
    <path clip-path="url(#p6f7636c6b4)" d="M 150.57882 1046.64351 
L 161.497967 1046.64351 
L 161.497967 1046.64351 
L 150.57882 1046.64351 
z
" style="fill:#0000ff;opacity:0.4;"/>
   </g>
   <g id="patch_67">
    <path clip-path="url(#p6f7636c6b4)" d="M 161.497967 1046.64351 
L 172.417115 1046.64351 
L 172.417115 1046.64351 
L 161.497967 1046.64351 
z
" style="fill:#0000ff;opacity:0.4;"/>
   </g>
   <g id="patch_68">
    <path clip-path="url(#p6f7636c6b4)" d="M 172.417115 1046.64351 
L 183.336263 1046.64351 
L 183.336263 1046.64351 
L 172.417115 1046.64351 
z
" style="fill:#0000ff;opacity:0.4;"/>
   </g>
   <g id="patch_69">
    <path clip-path="url(#p6f7636c6b4)" d="M 183.336263 1046.64351 
L 194.255411 1046.64351 
L 194.255411 1046.64351 
L 183.336263 1046.64351 
z
" style="fill:#0000ff;opacity:0.4;"/>
   </g>
   <g id="patch_70">
    <path clip-path="url(#p6f7636c6b4)" d="M 194.255411 1046.64351 
L 205.174558 1046.64351 
L 205.174558 1042.273136 
L 194.255411 1042.273136 
z
" style="fill:#0000ff;opacity:0.4;"/>
   </g>
   <g id="patch_71">
    <path clip-path="url(#p6f7636c6b4)" d="M 205.174558 1046.64351 
L 216.093706 1046.64351 
L 216.093706 1046.64351 
L 205.174558 1046.64351 
z
" style="fill:#0000ff;opacity:0.4;"/>
   </g>
   <g id="patch_72">
    <path clip-path="url(#p6f7636c6b4)" d="M 216.093706 1046.64351 
L 227.012854 1046.64351 
L 227.012854 1046.64351 
L 216.093706 1046.64351 
z
" style="fill:#0000ff;opacity:0.4;"/>
   </g>
   <g id="patch_73">
    <path clip-path="url(#p6f7636c6b4)" d="M 227.012854 1046.64351 
L 237.932002 1046.64351 
L 237.932002 1046.64351 
L 227.012854 1046.64351 
z
" style="fill:#0000ff;opacity:0.4;"/>
   </g>
   <g id="patch_74">
    <path clip-path="url(#p6f7636c6b4)" d="M 237.932002 1046.64351 
L 248.851149 1046.64351 
L 248.851149 1046.64351 
L 237.932002 1046.64351 
z
" style="fill:#0000ff;opacity:0.4;"/>
   </g>
   <g id="patch_75">
    <path clip-path="url(#p6f7636c6b4)" d="M 248.851149 1046.64351 
L 259.770297 1046.64351 
L 259.770297 1046.64351 
L 248.851149 1046.64351 
z
" style="fill:#0000ff;opacity:0.4;"/>
   </g>
   <g id="patch_76">
    <path clip-path="url(#p6f7636c6b4)" d="M 259.770297 1046.64351 
L 270.689445 1046.64351 
L 270.689445 1042.273136 
L 259.770297 1042.273136 
z
" style="fill:#0000ff;opacity:0.4;"/>
   </g>
   <g id="matplotlib.axis_5">
    <g id="xtick_13">
     <g id="line2d_33">
      <g>
       <use style="stroke:#000000;stroke-width:0.8;" x="52.30649" xlink:href="#mc8c1c21e13" y="1046.64351"/>
      </g>
     </g>
     <g id="text_25">
      <!-- 0 -->
      <g transform="translate(49.12524 1061.241947)scale(0.1 -0.1)">
       <use xlink:href="#DejaVuSans-48"/>
      </g>
     </g>
    </g>
    <g id="xtick_14">
     <g id="line2d_34">
      <g>
       <use style="stroke:#000000;stroke-width:0.8;" x="183.336394" xlink:href="#mc8c1c21e13" y="1046.64351"/>
      </g>
     </g>
     <g id="text_26">
      <!-- 20 -->
      <g transform="translate(176.973894 1061.241947)scale(0.1 -0.1)">
       <use xlink:href="#DejaVuSans-50"/>
       <use x="63.623047" xlink:href="#DejaVuSans-48"/>
      </g>
     </g>
    </g>
    <g id="xtick_15">
     <g id="line2d_35">
      <g>
       <use style="stroke:#000000;stroke-width:0.8;" x="314.366298" xlink:href="#mc8c1c21e13" y="1046.64351"/>
      </g>
     </g>
     <g id="text_27">
      <!-- 40 -->
      <defs>
       <path d="M 37.796875 64.3125 
L 12.890625 25.390625 
L 37.796875 25.390625 
z
M 35.203125 72.90625 
L 47.609375 72.90625 
L 47.609375 25.390625 
L 58.015625 25.390625 
L 58.015625 17.1875 
L 47.609375 17.1875 
L 47.609375 0 
L 37.796875 0 
L 37.796875 17.1875 
L 4.890625 17.1875 
L 4.890625 26.703125 
z
" id="DejaVuSans-52"/>
      </defs>
      <g transform="translate(308.003798 1061.241947)scale(0.1 -0.1)">
       <use xlink:href="#DejaVuSans-52"/>
       <use x="63.623047" xlink:href="#DejaVuSans-48"/>
      </g>
     </g>
    </g>
    <g id="xtick_16">
     <g id="line2d_36">
      <g>
       <use style="stroke:#000000;stroke-width:0.8;" x="445.396202" xlink:href="#mc8c1c21e13" y="1046.64351"/>
      </g>
     </g>
     <g id="text_28">
      <!-- 60 -->
      <defs>
       <path d="M 33.015625 40.375 
Q 26.375 40.375 22.484375 35.828125 
Q 18.609375 31.296875 18.609375 23.390625 
Q 18.609375 15.53125 22.484375 10.953125 
Q 26.375 6.390625 33.015625 6.390625 
Q 39.65625 6.390625 43.53125 10.953125 
Q 47.40625 15.53125 47.40625 23.390625 
Q 47.40625 31.296875 43.53125 35.828125 
Q 39.65625 40.375 33.015625 40.375 
z
M 52.59375 71.296875 
L 52.59375 62.3125 
Q 48.875 64.0625 45.09375 64.984375 
Q 41.3125 65.921875 37.59375 65.921875 
Q 27.828125 65.921875 22.671875 59.328125 
Q 17.53125 52.734375 16.796875 39.40625 
Q 19.671875 43.65625 24.015625 45.921875 
Q 28.375 48.1875 33.59375 48.1875 
Q 44.578125 48.1875 50.953125 41.515625 
Q 57.328125 34.859375 57.328125 23.390625 
Q 57.328125 12.15625 50.6875 5.359375 
Q 44.046875 -1.421875 33.015625 -1.421875 
Q 20.359375 -1.421875 13.671875 8.265625 
Q 6.984375 17.96875 6.984375 36.375 
Q 6.984375 53.65625 15.1875 63.9375 
Q 23.390625 74.21875 37.203125 74.21875 
Q 40.921875 74.21875 44.703125 73.484375 
Q 48.484375 72.75 52.59375 71.296875 
z
" id="DejaVuSans-54"/>
      </defs>
      <g transform="translate(439.033702 1061.241947)scale(0.1 -0.1)">
       <use xlink:href="#DejaVuSans-54"/>
       <use x="63.623047" xlink:href="#DejaVuSans-48"/>
      </g>
     </g>
    </g>
    <g id="xtick_17">
     <g id="line2d_37">
      <g>
       <use style="stroke:#000000;stroke-width:0.8;" x="576.426106" xlink:href="#mc8c1c21e13" y="1046.64351"/>
      </g>
     </g>
     <g id="text_29">
      <!-- 80 -->
      <defs>
       <path d="M 31.78125 34.625 
Q 24.75 34.625 20.71875 30.859375 
Q 16.703125 27.09375 16.703125 20.515625 
Q 16.703125 13.921875 20.71875 10.15625 
Q 24.75 6.390625 31.78125 6.390625 
Q 38.8125 6.390625 42.859375 10.171875 
Q 46.921875 13.96875 46.921875 20.515625 
Q 46.921875 27.09375 42.890625 30.859375 
Q 38.875 34.625 31.78125 34.625 
z
M 21.921875 38.8125 
Q 15.578125 40.375 12.03125 44.71875 
Q 8.5 49.078125 8.5 55.328125 
Q 8.5 64.0625 14.71875 69.140625 
Q 20.953125 74.21875 31.78125 74.21875 
Q 42.671875 74.21875 48.875 69.140625 
Q 55.078125 64.0625 55.078125 55.328125 
Q 55.078125 49.078125 51.53125 44.71875 
Q 48 40.375 41.703125 38.8125 
Q 48.828125 37.15625 52.796875 32.3125 
Q 56.78125 27.484375 56.78125 20.515625 
Q 56.78125 9.90625 50.3125 4.234375 
Q 43.84375 -1.421875 31.78125 -1.421875 
Q 19.734375 -1.421875 13.25 4.234375 
Q 6.78125 9.90625 6.78125 20.515625 
Q 6.78125 27.484375 10.78125 32.3125 
Q 14.796875 37.15625 21.921875 38.8125 
z
M 18.3125 54.390625 
Q 18.3125 48.734375 21.84375 45.5625 
Q 25.390625 42.390625 31.78125 42.390625 
Q 38.140625 42.390625 41.71875 45.5625 
Q 45.3125 48.734375 45.3125 54.390625 
Q 45.3125 60.0625 41.71875 63.234375 
Q 38.140625 66.40625 31.78125 66.40625 
Q 25.390625 66.40625 21.84375 63.234375 
Q 18.3125 60.0625 18.3125 54.390625 
z
" id="DejaVuSans-56"/>
      </defs>
      <g transform="translate(570.063606 1061.241947)scale(0.1 -0.1)">
       <use xlink:href="#DejaVuSans-56"/>
       <use x="63.623047" xlink:href="#DejaVuSans-48"/>
      </g>
     </g>
    </g>
    <g id="xtick_18">
     <g id="line2d_38">
      <g>
       <use style="stroke:#000000;stroke-width:0.8;" x="707.45601" xlink:href="#mc8c1c21e13" y="1046.64351"/>
      </g>
     </g>
     <g id="text_30">
      <!-- 100 -->
      <g transform="translate(697.91226 1061.241947)scale(0.1 -0.1)">
       <use xlink:href="#DejaVuSans-49"/>
       <use x="63.623047" xlink:href="#DejaVuSans-48"/>
       <use x="127.246094" xlink:href="#DejaVuSans-48"/>
      </g>
     </g>
    </g>
    <g id="text_31">
     <!-- Absolute Error in Accuracy(%) Estimation -->
     <g transform="translate(276.823437 1074.920072)scale(0.1 -0.1)">
      <use xlink:href="#DejaVuSans-65"/>
      <use x="68.408203" xlink:href="#DejaVuSans-98"/>
      <use x="131.884766" xlink:href="#DejaVuSans-115"/>
      <use x="183.984375" xlink:href="#DejaVuSans-111"/>
      <use x="245.166016" xlink:href="#DejaVuSans-108"/>
      <use x="272.949219" xlink:href="#DejaVuSans-117"/>
      <use x="336.328125" xlink:href="#DejaVuSans-116"/>
      <use x="375.537109" xlink:href="#DejaVuSans-101"/>
      <use x="437.060547" xlink:href="#DejaVuSans-32"/>
      <use x="468.847656" xlink:href="#DejaVuSans-69"/>
      <use x="532.03125" xlink:href="#DejaVuSans-114"/>
      <use x="571.394531" xlink:href="#DejaVuSans-114"/>
      <use x="610.257812" xlink:href="#DejaVuSans-111"/>
      <use x="671.439453" xlink:href="#DejaVuSans-114"/>
      <use x="712.552734" xlink:href="#DejaVuSans-32"/>
      <use x="744.339844" xlink:href="#DejaVuSans-105"/>
      <use x="772.123047" xlink:href="#DejaVuSans-110"/>
      <use x="835.501953" xlink:href="#DejaVuSans-32"/>
      <use x="867.289062" xlink:href="#DejaVuSans-65"/>
      <use x="933.947266" xlink:href="#DejaVuSans-99"/>
      <use x="988.927734" xlink:href="#DejaVuSans-99"/>
      <use x="1043.908203" xlink:href="#DejaVuSans-117"/>
      <use x="1107.287109" xlink:href="#DejaVuSans-114"/>
      <use x="1148.400391" xlink:href="#DejaVuSans-97"/>
      <use x="1209.679688" xlink:href="#DejaVuSans-99"/>
      <use x="1264.660156" xlink:href="#DejaVuSans-121"/>
      <use x="1323.839844" xlink:href="#DejaVuSans-40"/>
      <use x="1362.853516" xlink:href="#DejaVuSans-37"/>
      <use x="1457.873047" xlink:href="#DejaVuSans-41"/>
      <use x="1496.886719" xlink:href="#DejaVuSans-32"/>
      <use x="1528.673828" xlink:href="#DejaVuSans-69"/>
      <use x="1591.857422" xlink:href="#DejaVuSans-115"/>
      <use x="1643.957031" xlink:href="#DejaVuSans-116"/>
      <use x="1683.166016" xlink:href="#DejaVuSans-105"/>
      <use x="1710.949219" xlink:href="#DejaVuSans-109"/>
      <use x="1808.361328" xlink:href="#DejaVuSans-97"/>
      <use x="1869.640625" xlink:href="#DejaVuSans-116"/>
      <use x="1908.849609" xlink:href="#DejaVuSans-105"/>
      <use x="1936.632812" xlink:href="#DejaVuSans-111"/>
      <use x="1997.814453" xlink:href="#DejaVuSans-110"/>
     </g>
    </g>
   </g>
   <g id="matplotlib.axis_6">
    <g id="ytick_19">
     <g id="line2d_39">
      <g>
       <use style="stroke:#000000;stroke-width:0.8;" x="52.30649" xlink:href="#m4bd235d30d" y="1046.64351"/>
      </g>
     </g>
     <g id="text_32">
      <!-- 0.000 -->
      <g transform="translate(16.678365 1050.442729)scale(0.1 -0.1)">
       <use xlink:href="#DejaVuSans-48"/>
       <use x="63.623047" xlink:href="#DejaVuSans-46"/>
       <use x="95.410156" xlink:href="#DejaVuSans-48"/>
       <use x="159.033203" xlink:href="#DejaVuSans-48"/>
       <use x="222.65625" xlink:href="#DejaVuSans-48"/>
      </g>
     </g>
    </g>
    <g id="ytick_20">
     <g id="line2d_40">
      <g>
       <use style="stroke:#000000;stroke-width:0.8;" x="52.30649" xlink:href="#m4bd235d30d" y="1009.495366"/>
      </g>
     </g>
     <g id="text_33">
      <!-- 0.025 -->
      <g transform="translate(16.678365 1013.294585)scale(0.1 -0.1)">
       <use xlink:href="#DejaVuSans-48"/>
       <use x="63.623047" xlink:href="#DejaVuSans-46"/>
       <use x="95.410156" xlink:href="#DejaVuSans-48"/>
       <use x="159.033203" xlink:href="#DejaVuSans-50"/>
       <use x="222.65625" xlink:href="#DejaVuSans-53"/>
      </g>
     </g>
    </g>
    <g id="ytick_21">
     <g id="line2d_41">
      <g>
       <use style="stroke:#000000;stroke-width:0.8;" x="52.30649" xlink:href="#m4bd235d30d" y="972.347222"/>
      </g>
     </g>
     <g id="text_34">
      <!-- 0.050 -->
      <g transform="translate(16.678365 976.146441)scale(0.1 -0.1)">
       <use xlink:href="#DejaVuSans-48"/>
       <use x="63.623047" xlink:href="#DejaVuSans-46"/>
       <use x="95.410156" xlink:href="#DejaVuSans-48"/>
       <use x="159.033203" xlink:href="#DejaVuSans-53"/>
       <use x="222.65625" xlink:href="#DejaVuSans-48"/>
      </g>
     </g>
    </g>
    <g id="ytick_22">
     <g id="line2d_42">
      <g>
       <use style="stroke:#000000;stroke-width:0.8;" x="52.30649" xlink:href="#m4bd235d30d" y="935.199078"/>
      </g>
     </g>
     <g id="text_35">
      <!-- 0.075 -->
      <g transform="translate(16.678365 938.998297)scale(0.1 -0.1)">
       <use xlink:href="#DejaVuSans-48"/>
       <use x="63.623047" xlink:href="#DejaVuSans-46"/>
       <use x="95.410156" xlink:href="#DejaVuSans-48"/>
       <use x="159.033203" xlink:href="#DejaVuSans-55"/>
       <use x="222.65625" xlink:href="#DejaVuSans-53"/>
      </g>
     </g>
    </g>
    <g id="ytick_23">
     <g id="line2d_43">
      <g>
       <use style="stroke:#000000;stroke-width:0.8;" x="52.30649" xlink:href="#m4bd235d30d" y="898.050935"/>
      </g>
     </g>
     <g id="text_36">
      <!-- 0.100 -->
      <g transform="translate(16.678365 901.850153)scale(0.1 -0.1)">
       <use xlink:href="#DejaVuSans-48"/>
       <use x="63.623047" xlink:href="#DejaVuSans-46"/>
       <use x="95.410156" xlink:href="#DejaVuSans-49"/>
       <use x="159.033203" xlink:href="#DejaVuSans-48"/>
       <use x="222.65625" xlink:href="#DejaVuSans-48"/>
      </g>
     </g>
    </g>
    <g id="ytick_24">
     <g id="line2d_44">
      <g>
       <use style="stroke:#000000;stroke-width:0.8;" x="52.30649" xlink:href="#m4bd235d30d" y="860.902791"/>
      </g>
     </g>
     <g id="text_37">
      <!-- 0.125 -->
      <g transform="translate(16.678365 864.70201)scale(0.1 -0.1)">
       <use xlink:href="#DejaVuSans-48"/>
       <use x="63.623047" xlink:href="#DejaVuSans-46"/>
       <use x="95.410156" xlink:href="#DejaVuSans-49"/>
       <use x="159.033203" xlink:href="#DejaVuSans-50"/>
       <use x="222.65625" xlink:href="#DejaVuSans-53"/>
      </g>
     </g>
    </g>
    <g id="ytick_25">
     <g id="line2d_45">
      <g>
       <use style="stroke:#000000;stroke-width:0.8;" x="52.30649" xlink:href="#m4bd235d30d" y="823.754647"/>
      </g>
     </g>
     <g id="text_38">
      <!-- 0.150 -->
      <g transform="translate(16.678365 827.553866)scale(0.1 -0.1)">
       <use xlink:href="#DejaVuSans-48"/>
       <use x="63.623047" xlink:href="#DejaVuSans-46"/>
       <use x="95.410156" xlink:href="#DejaVuSans-49"/>
       <use x="159.033203" xlink:href="#DejaVuSans-53"/>
       <use x="222.65625" xlink:href="#DejaVuSans-48"/>
      </g>
     </g>
    </g>
    <g id="ytick_26">
     <g id="line2d_46">
      <g>
       <use style="stroke:#000000;stroke-width:0.8;" x="52.30649" xlink:href="#m4bd235d30d" y="786.606503"/>
      </g>
     </g>
     <g id="text_39">
      <!-- 0.175 -->
      <g transform="translate(16.678365 790.405722)scale(0.1 -0.1)">
       <use xlink:href="#DejaVuSans-48"/>
       <use x="63.623047" xlink:href="#DejaVuSans-46"/>
       <use x="95.410156" xlink:href="#DejaVuSans-49"/>
       <use x="159.033203" xlink:href="#DejaVuSans-55"/>
       <use x="222.65625" xlink:href="#DejaVuSans-53"/>
      </g>
     </g>
    </g>
    <g id="ytick_27">
     <g id="line2d_47">
      <g>
       <use style="stroke:#000000;stroke-width:0.8;" x="52.30649" xlink:href="#m4bd235d30d" y="749.458359"/>
      </g>
     </g>
     <g id="text_40">
      <!-- 0.200 -->
      <g transform="translate(16.678365 753.257578)scale(0.1 -0.1)">
       <use xlink:href="#DejaVuSans-48"/>
       <use x="63.623047" xlink:href="#DejaVuSans-46"/>
       <use x="95.410156" xlink:href="#DejaVuSans-50"/>
       <use x="159.033203" xlink:href="#DejaVuSans-48"/>
       <use x="222.65625" xlink:href="#DejaVuSans-48"/>
      </g>
     </g>
    </g>
    <g id="text_41">
     <!-- #nodes in bin -->
     <g transform="translate(10.598678 925.362712)rotate(-90)scale(0.1 -0.1)">
      <use xlink:href="#DejaVuSans-35"/>
      <use x="83.789062" xlink:href="#DejaVuSans-110"/>
      <use x="147.167969" xlink:href="#DejaVuSans-111"/>
      <use x="208.349609" xlink:href="#DejaVuSans-100"/>
      <use x="271.826172" xlink:href="#DejaVuSans-101"/>
      <use x="333.349609" xlink:href="#DejaVuSans-115"/>
      <use x="385.449219" xlink:href="#DejaVuSans-32"/>
      <use x="417.236328" xlink:href="#DejaVuSans-105"/>
      <use x="445.019531" xlink:href="#DejaVuSans-110"/>
      <use x="508.398438" xlink:href="#DejaVuSans-32"/>
      <use x="540.185547" xlink:href="#DejaVuSans-98"/>
      <use x="603.662109" xlink:href="#DejaVuSans-105"/>
      <use x="631.445312" xlink:href="#DejaVuSans-110"/>
     </g>
    </g>
   </g>
   <g id="line2d_48">
    <path clip-path="url(#p6f7636c6b4)" d="M 29.957645 1046.358348 
L 32.615025 1045.833574 
L 35.272405 1044.596962 
L 37.929785 1042.026399 
L 40.587166 1037.295857 
L 43.244546 1029.540481 
L 45.901926 1018.097093 
L 48.559306 1002.665748 
L 51.216687 983.26857 
L 53.874067 960.072943 
L 56.531447 933.311537 
L 59.188827 903.451174 
L 61.846208 871.497185 
L 64.503588 839.184569 
L 67.160968 808.946898 
L 69.818348 783.730873 
L 72.475729 766.684346 
L 75.133109 760.616735 
L 77.790489 767.21928 
L 80.447869 786.328454 
L 83.10525 815.672564 
L 85.76263 851.335564 
L 88.42001 888.768318 
L 91.077391 923.906166 
L 93.734771 953.972028 
L 96.392151 977.767601 
L 99.049531 995.493399 
L 101.706912 1008.270012 
L 104.364292 1017.559201 
L 107.021672 1024.662458 
L 109.679052 1030.429305 
L 112.336433 1035.22254 
L 114.993813 1039.077095 
L 117.651193 1041.916006 
L 120.308573 1043.700039 
L 122.965954 1044.469165 
L 125.623334 1044.318438 
L 128.280714 1043.380812 
L 130.938094 1041.855074 
L 133.595475 1040.053705 
L 136.252855 1038.405526 
L 138.910235 1037.366113 
L 141.567616 1037.257563 
L 144.224996 1038.12767 
L 146.882376 1039.725636 
L 149.539756 1041.619993 
L 152.197137 1043.387798 
L 154.854517 1044.763136 
L 157.511897 1045.676966 
L 160.169277 1046.201872 
L 162.826658 1046.464289 
L 165.484038 1046.578855 
L 168.141418 1046.62225 
L 170.798798 1046.635009 
L 173.456179 1046.632654 
L 176.113559 1046.614153 
L 178.770939 1046.564425 
L 181.428319 1046.454007 
L 184.0857 1046.243154 
L 186.74308 1045.898249 
L 189.40046 1045.421203 
L 192.05784 1044.877221 
L 194.715221 1044.394701 
L 197.372601 1044.120886 
L 200.029981 1044.150284 
L 202.687362 1044.472409 
L 205.344742 1044.977769 
L 208.002122 1045.517495 
L 210.659502 1045.972869 
L 213.316883 1046.291589 
L 215.974263 1046.480802 
L 218.631643 1046.57723 
L 221.289023 1046.619722 
L 223.946404 1046.635988 
L 226.603784 1046.641414 
L 229.261164 1046.642995 
L 231.918544 1046.643395 
L 234.575925 1046.643467 
L 237.233305 1046.643395 
L 239.890685 1046.642993 
L 242.548065 1046.641407 
L 245.205446 1046.635963 
L 247.862826 1046.619652 
L 250.520206 1046.577059 
L 253.177587 1046.480437 
L 255.834967 1046.29092 
L 258.492347 1045.971823 
L 261.149727 1045.516121 
L 263.807108 1044.976303 
L 266.464488 1044.471236 
L 269.121868 1044.149784 
L 271.779248 1044.121236 
L 274.436629 1044.395776 
L 277.094009 1044.878664 
L 279.751389 1045.422617 
L 282.408769 1045.899364 
L 285.06615 1046.24389 
L 287.72353 1046.45443 
L 290.38091 1046.564687 
L 293.03829 1046.614558 
" style="fill:none;stroke:#0000ff;stroke-linecap:square;stroke-width:1.5;"/>
   </g>
   <g id="patch_77">
    <path d="M 52.30649 1046.64351 
L 52.30649 734.599102 
" style="fill:none;stroke:#000000;stroke-linecap:square;stroke-linejoin:miter;stroke-width:0.8;"/>
   </g>
   <g id="patch_78">
    <path d="M 707.45601 1046.64351 
L 707.45601 734.599102 
" style="fill:none;stroke:#000000;stroke-linecap:square;stroke-linejoin:miter;stroke-width:0.8;"/>
   </g>
   <g id="patch_79">
    <path d="M 52.30649 1046.64351 
L 707.45601 1046.64351 
" style="fill:none;stroke:#000000;stroke-linecap:square;stroke-linejoin:miter;stroke-width:0.8;"/>
   </g>
   <g id="patch_80">
    <path d="M 52.30649 734.599102 
L 707.45601 734.599102 
" style="fill:none;stroke:#000000;stroke-linecap:square;stroke-linejoin:miter;stroke-width:0.8;"/>
   </g>
   <g id="legend_3">
    <g id="patch_81">
     <path d="M 486.709135 757.277227 
L 700.45601 757.277227 
Q 702.45601 757.277227 702.45601 755.277227 
L 702.45601 741.599102 
Q 702.45601 739.599102 700.45601 739.599102 
L 486.709135 739.599102 
Q 484.709135 739.599102 484.709135 741.599102 
L 484.709135 755.277227 
Q 484.709135 757.277227 486.709135 757.277227 
z
" style="fill:#ffffff;opacity:0.8;stroke:#cccccc;stroke-linejoin:miter;"/>
    </g>
    <g id="patch_82">
     <path d="M 488.709135 751.197539 
L 508.709135 751.197539 
L 508.709135 744.197539 
L 488.709135 744.197539 
z
" style="fill:#0000ff;opacity:0.4;"/>
    </g>
    <g id="text_42">
     <!-- Message Avg Based With Blacklising -->
     <g transform="translate(516.709135 751.197539)scale(0.1 -0.1)">
      <use xlink:href="#DejaVuSans-77"/>
      <use x="86.279297" xlink:href="#DejaVuSans-101"/>
      <use x="147.802734" xlink:href="#DejaVuSans-115"/>
      <use x="199.902344" xlink:href="#DejaVuSans-115"/>
      <use x="252.001953" xlink:href="#DejaVuSans-97"/>
      <use x="313.28125" xlink:href="#DejaVuSans-103"/>
      <use x="376.757812" xlink:href="#DejaVuSans-101"/>
      <use x="438.28125" xlink:href="#DejaVuSans-32"/>
      <use x="470.068359" xlink:href="#DejaVuSans-65"/>
      <use x="532.601562" xlink:href="#DejaVuSans-118"/>
      <use x="591.78125" xlink:href="#DejaVuSans-103"/>
      <use x="655.257812" xlink:href="#DejaVuSans-32"/>
      <use x="687.044922" xlink:href="#DejaVuSans-66"/>
      <use x="755.648438" xlink:href="#DejaVuSans-97"/>
      <use x="816.927734" xlink:href="#DejaVuSans-115"/>
      <use x="869.027344" xlink:href="#DejaVuSans-101"/>
      <use x="930.550781" xlink:href="#DejaVuSans-100"/>
      <use x="994.027344" xlink:href="#DejaVuSans-32"/>
      <use x="1025.814453" xlink:href="#DejaVuSans-87"/>
      <use x="1122.441406" xlink:href="#DejaVuSans-105"/>
      <use x="1150.224609" xlink:href="#DejaVuSans-116"/>
      <use x="1189.433594" xlink:href="#DejaVuSans-104"/>
      <use x="1252.8125" xlink:href="#DejaVuSans-32"/>
      <use x="1284.599609" xlink:href="#DejaVuSans-66"/>
      <use x="1353.203125" xlink:href="#DejaVuSans-108"/>
      <use x="1380.986328" xlink:href="#DejaVuSans-97"/>
      <use x="1442.265625" xlink:href="#DejaVuSans-99"/>
      <use x="1497.246094" xlink:href="#DejaVuSans-107"/>
      <use x="1555.15625" xlink:href="#DejaVuSans-108"/>
      <use x="1582.939453" xlink:href="#DejaVuSans-105"/>
      <use x="1610.722656" xlink:href="#DejaVuSans-115"/>
      <use x="1662.822266" xlink:href="#DejaVuSans-105"/>
      <use x="1690.605469" xlink:href="#DejaVuSans-110"/>
      <use x="1753.984375" xlink:href="#DejaVuSans-103"/>
     </g>
    </g>
   </g>
  </g>
  <g id="text_43">
   <!-- Histogram(&amp;KDE) of Absolute Errors in Accuracy Estimation -->
   <defs>
    <path d="M 9.8125 72.90625 
L 19.671875 72.90625 
L 19.671875 43.015625 
L 55.515625 43.015625 
L 55.515625 72.90625 
L 65.375 72.90625 
L 65.375 0 
L 55.515625 0 
L 55.515625 34.71875 
L 19.671875 34.71875 
L 19.671875 0 
L 9.8125 0 
z
" id="DejaVuSans-72"/>
    <path d="M 24.3125 39.203125 
Q 19.875 35.25 17.796875 31.3125 
Q 15.71875 27.390625 15.71875 23.09375 
Q 15.71875 15.96875 20.890625 11.234375 
Q 26.078125 6.5 33.890625 6.5 
Q 38.53125 6.5 42.578125 8.03125 
Q 46.625 9.578125 50.203125 12.703125 
z
M 31.203125 44.671875 
L 56 19.28125 
Q 58.890625 23.640625 60.5 28.59375 
Q 62.109375 33.546875 62.40625 39.109375 
L 71.484375 39.109375 
Q 70.90625 32.671875 68.359375 26.359375 
Q 65.828125 20.0625 61.28125 13.921875 
L 74.90625 0 
L 62.59375 0 
L 55.609375 7.171875 
Q 50.53125 2.828125 44.96875 0.703125 
Q 39.40625 -1.421875 33.015625 -1.421875 
Q 21.234375 -1.421875 13.765625 5.296875 
Q 6.296875 12.015625 6.296875 22.515625 
Q 6.296875 28.765625 9.5625 34.25 
Q 12.84375 39.75 19.390625 44.578125 
Q 17.046875 47.65625 15.8125 50.703125 
Q 14.59375 53.765625 14.59375 56.6875 
Q 14.59375 64.59375 20.015625 69.40625 
Q 25.4375 74.21875 34.421875 74.21875 
Q 38.484375 74.21875 42.5 73.34375 
Q 46.53125 72.46875 50.6875 70.703125 
L 50.6875 61.8125 
Q 46.4375 64.109375 42.578125 65.296875 
Q 38.71875 66.5 35.40625 66.5 
Q 30.28125 66.5 27.078125 63.78125 
Q 23.875 61.078125 23.875 56.78125 
Q 23.875 54.296875 25.3125 51.78125 
Q 26.765625 49.265625 31.203125 44.671875 
z
" id="DejaVuSans-38"/>
    <path d="M 9.8125 72.90625 
L 19.671875 72.90625 
L 19.671875 42.09375 
L 52.390625 72.90625 
L 65.09375 72.90625 
L 28.90625 38.921875 
L 67.671875 0 
L 54.6875 0 
L 19.671875 35.109375 
L 19.671875 0 
L 9.8125 0 
z
" id="DejaVuSans-75"/>
    <path d="M 19.671875 64.796875 
L 19.671875 8.109375 
L 31.59375 8.109375 
Q 46.6875 8.109375 53.6875 14.9375 
Q 60.6875 21.78125 60.6875 36.53125 
Q 60.6875 51.171875 53.6875 57.984375 
Q 46.6875 64.796875 31.59375 64.796875 
z
M 9.8125 72.90625 
L 30.078125 72.90625 
Q 51.265625 72.90625 61.171875 64.09375 
Q 71.09375 55.28125 71.09375 36.53125 
Q 71.09375 17.671875 61.125 8.828125 
Q 51.171875 0 30.078125 0 
L 9.8125 0 
z
" id="DejaVuSans-68"/>
    <path d="M 37.109375 75.984375 
L 37.109375 68.5 
L 28.515625 68.5 
Q 23.6875 68.5 21.796875 66.546875 
Q 19.921875 64.59375 19.921875 59.515625 
L 19.921875 54.6875 
L 34.71875 54.6875 
L 34.71875 47.703125 
L 19.921875 47.703125 
L 19.921875 0 
L 10.890625 0 
L 10.890625 47.703125 
L 2.296875 47.703125 
L 2.296875 54.6875 
L 10.890625 54.6875 
L 10.890625 58.5 
Q 10.890625 67.625 15.140625 71.796875 
Q 19.390625 75.984375 28.609375 75.984375 
z
" id="DejaVuSans-102"/>
   </defs>
   <g transform="translate(61.93125 18.197115)scale(0.2 -0.2)">
    <use xlink:href="#DejaVuSans-72"/>
    <use x="75.195312" xlink:href="#DejaVuSans-105"/>
    <use x="102.978516" xlink:href="#DejaVuSans-115"/>
    <use x="155.078125" xlink:href="#DejaVuSans-116"/>
    <use x="194.287109" xlink:href="#DejaVuSans-111"/>
    <use x="255.46875" xlink:href="#DejaVuSans-103"/>
    <use x="318.945312" xlink:href="#DejaVuSans-114"/>
    <use x="360.058594" xlink:href="#DejaVuSans-97"/>
    <use x="421.337891" xlink:href="#DejaVuSans-109"/>
    <use x="518.75" xlink:href="#DejaVuSans-40"/>
    <use x="557.763672" xlink:href="#DejaVuSans-38"/>
    <use x="635.742188" xlink:href="#DejaVuSans-75"/>
    <use x="701.318359" xlink:href="#DejaVuSans-68"/>
    <use x="778.320312" xlink:href="#DejaVuSans-69"/>
    <use x="841.503906" xlink:href="#DejaVuSans-41"/>
    <use x="880.517578" xlink:href="#DejaVuSans-32"/>
    <use x="912.304688" xlink:href="#DejaVuSans-111"/>
    <use x="973.486328" xlink:href="#DejaVuSans-102"/>
    <use x="1008.691406" xlink:href="#DejaVuSans-32"/>
    <use x="1040.478516" xlink:href="#DejaVuSans-65"/>
    <use x="1108.886719" xlink:href="#DejaVuSans-98"/>
    <use x="1172.363281" xlink:href="#DejaVuSans-115"/>
    <use x="1224.462891" xlink:href="#DejaVuSans-111"/>
    <use x="1285.644531" xlink:href="#DejaVuSans-108"/>
    <use x="1313.427734" xlink:href="#DejaVuSans-117"/>
    <use x="1376.806641" xlink:href="#DejaVuSans-116"/>
    <use x="1416.015625" xlink:href="#DejaVuSans-101"/>
    <use x="1477.539062" xlink:href="#DejaVuSans-32"/>
    <use x="1509.326172" xlink:href="#DejaVuSans-69"/>
    <use x="1572.509766" xlink:href="#DejaVuSans-114"/>
    <use x="1611.873047" xlink:href="#DejaVuSans-114"/>
    <use x="1650.736328" xlink:href="#DejaVuSans-111"/>
    <use x="1711.917969" xlink:href="#DejaVuSans-114"/>
    <use x="1753.03125" xlink:href="#DejaVuSans-115"/>
    <use x="1805.130859" xlink:href="#DejaVuSans-32"/>
    <use x="1836.917969" xlink:href="#DejaVuSans-105"/>
    <use x="1864.701172" xlink:href="#DejaVuSans-110"/>
    <use x="1928.080078" xlink:href="#DejaVuSans-32"/>
    <use x="1959.867188" xlink:href="#DejaVuSans-65"/>
    <use x="2026.525391" xlink:href="#DejaVuSans-99"/>
    <use x="2081.505859" xlink:href="#DejaVuSans-99"/>
    <use x="2136.486328" xlink:href="#DejaVuSans-117"/>
    <use x="2199.865234" xlink:href="#DejaVuSans-114"/>
    <use x="2240.978516" xlink:href="#DejaVuSans-97"/>
    <use x="2302.257812" xlink:href="#DejaVuSans-99"/>
    <use x="2357.238281" xlink:href="#DejaVuSans-121"/>
    <use x="2416.417969" xlink:href="#DejaVuSans-32"/>
    <use x="2448.205078" xlink:href="#DejaVuSans-69"/>
    <use x="2511.388672" xlink:href="#DejaVuSans-115"/>
    <use x="2563.488281" xlink:href="#DejaVuSans-116"/>
    <use x="2602.697266" xlink:href="#DejaVuSans-105"/>
    <use x="2630.480469" xlink:href="#DejaVuSans-109"/>
    <use x="2727.892578" xlink:href="#DejaVuSans-97"/>
    <use x="2789.171875" xlink:href="#DejaVuSans-116"/>
    <use x="2828.380859" xlink:href="#DejaVuSans-105"/>
    <use x="2856.164062" xlink:href="#DejaVuSans-111"/>
    <use x="2917.345703" xlink:href="#DejaVuSans-110"/>
   </g>
   <!-- Scenario:0 -->
   <defs>
    <path d="M 53.515625 70.515625 
L 53.515625 60.890625 
Q 47.90625 63.578125 42.921875 64.890625 
Q 37.9375 66.21875 33.296875 66.21875 
Q 25.25 66.21875 20.875 63.09375 
Q 16.5 59.96875 16.5 54.203125 
Q 16.5 49.359375 19.40625 46.890625 
Q 22.3125 44.4375 30.421875 42.921875 
L 36.375 41.703125 
Q 47.40625 39.59375 52.65625 34.296875 
Q 57.90625 29 57.90625 20.125 
Q 57.90625 9.515625 50.796875 4.046875 
Q 43.703125 -1.421875 29.984375 -1.421875 
Q 24.8125 -1.421875 18.96875 -0.25 
Q 13.140625 0.921875 6.890625 3.21875 
L 6.890625 13.375 
Q 12.890625 10.015625 18.65625 8.296875 
Q 24.421875 6.59375 29.984375 6.59375 
Q 38.421875 6.59375 43.015625 9.90625 
Q 47.609375 13.234375 47.609375 19.390625 
Q 47.609375 24.75 44.3125 27.78125 
Q 41.015625 30.8125 33.5 32.328125 
L 27.484375 33.5 
Q 16.453125 35.6875 11.515625 40.375 
Q 6.59375 45.0625 6.59375 53.421875 
Q 6.59375 63.09375 13.40625 68.65625 
Q 20.21875 74.21875 32.171875 74.21875 
Q 37.3125 74.21875 42.625 73.28125 
Q 47.953125 72.359375 53.515625 70.515625 
z
" id="DejaVuSans-83"/>
    <path d="M 11.71875 12.40625 
L 22.015625 12.40625 
L 22.015625 0 
L 11.71875 0 
z
M 11.71875 51.703125 
L 22.015625 51.703125 
L 22.015625 39.3125 
L 11.71875 39.3125 
z
" id="DejaVuSans-58"/>
   </defs>
   <g transform="translate(306.795313 40.59274)scale(0.2 -0.2)">
    <use xlink:href="#DejaVuSans-83"/>
    <use x="63.476562" xlink:href="#DejaVuSans-99"/>
    <use x="118.457031" xlink:href="#DejaVuSans-101"/>
    <use x="179.980469" xlink:href="#DejaVuSans-110"/>
    <use x="243.359375" xlink:href="#DejaVuSans-97"/>
    <use x="304.638672" xlink:href="#DejaVuSans-114"/>
    <use x="345.751953" xlink:href="#DejaVuSans-105"/>
    <use x="373.535156" xlink:href="#DejaVuSans-111"/>
    <use x="434.716797" xlink:href="#DejaVuSans-58"/>
    <use x="468.408203" xlink:href="#DejaVuSans-48"/>
   </g>
  </g>
 </g>
 <defs>
  <clipPath id="p8e31de5e56">
   <rect height="312.044408" width="655.14952" x="52.30649" y="56.753075"/>
  </clipPath>
  <clipPath id="p7055b6dc2b">
   <rect height="312.044408" width="655.14952" x="52.30649" y="395.676088"/>
  </clipPath>
  <clipPath id="p6f7636c6b4">
   <rect height="312.044408" width="655.14952" x="52.30649" y="734.599102"/>
  </clipPath>
 </defs>
</svg>
