<?xml version="1.0" encoding="utf-8" standalone="no"?>
<!DOCTYPE svg PUBLIC "-//W3C//DTD SVG 1.1//EN"
  "http://www.w3.org/Graphics/SVG/1.1/DTD/svg11.dtd">
<!-- Created with matplotlib (https://matplotlib.org/) -->
<svg height="324pt" version="1.1" viewBox="0 0 576 324" width="576pt" xmlns="http://www.w3.org/2000/svg" xmlns:xlink="http://www.w3.org/1999/xlink">
 <defs>
  <style type="text/css">
*{stroke-linecap:butt;stroke-linejoin:round;}
  </style>
 </defs>
 <g id="figure_1">
  <g id="patch_1">
   <path d="M 0 324 
L 576 324 
L 576 0 
L 0 0 
z
" style="fill:#ffffff;"/>
  </g>
  <g id="axes_1">
   <g id="patch_2">
    <path d="M 72 283.5 
L 518.4 283.5 
L 518.4 38.88 
L 72 38.88 
z
" style="fill:#ffffff;"/>
   </g>
   <g id="matplotlib.axis_1">
    <g id="xtick_1">
     <g id="line2d_1">
      <path clip-path="url(#p2483cb7399)" d="M 72 283.5 
L 72 38.88 
" style="fill:none;stroke:#b0b0b0;stroke-linecap:square;stroke-width:0.8;"/>
     </g>
     <g id="line2d_2">
      <defs>
       <path d="M 0 0 
L 0 3.5 
" id="m20a126e053" style="stroke:#000000;stroke-width:0.8;"/>
      </defs>
      <g>
       <use style="stroke:#000000;stroke-width:0.8;" x="72" xlink:href="#m20a126e053" y="283.5"/>
      </g>
     </g>
     <g id="text_1">
      <!-- 0 -->
      <defs>
       <path d="M 31.78125 66.40625 
Q 24.171875 66.40625 20.328125 58.90625 
Q 16.5 51.421875 16.5 36.375 
Q 16.5 21.390625 20.328125 13.890625 
Q 24.171875 6.390625 31.78125 6.390625 
Q 39.453125 6.390625 43.28125 13.890625 
Q 47.125 21.390625 47.125 36.375 
Q 47.125 51.421875 43.28125 58.90625 
Q 39.453125 66.40625 31.78125 66.40625 
z
M 31.78125 74.21875 
Q 44.046875 74.21875 50.515625 64.515625 
Q 56.984375 54.828125 56.984375 36.375 
Q 56.984375 17.96875 50.515625 8.265625 
Q 44.046875 -1.421875 31.78125 -1.421875 
Q 19.53125 -1.421875 13.0625 8.265625 
Q 6.59375 17.96875 6.59375 36.375 
Q 6.59375 54.828125 13.0625 64.515625 
Q 19.53125 74.21875 31.78125 74.21875 
z
" id="DejaVuSans-48"/>
      </defs>
      <g transform="translate(68.81875 298.098437)scale(0.1 -0.1)">
       <use xlink:href="#DejaVuSans-48"/>
      </g>
     </g>
    </g>
    <g id="xtick_2">
     <g id="line2d_3">
      <path clip-path="url(#p2483cb7399)" d="M 116.64 283.5 
L 116.64 38.88 
" style="fill:none;stroke:#b0b0b0;stroke-linecap:square;stroke-width:0.8;"/>
     </g>
     <g id="line2d_4">
      <g>
       <use style="stroke:#000000;stroke-width:0.8;" x="116.64" xlink:href="#m20a126e053" y="283.5"/>
      </g>
     </g>
     <g id="text_2">
      <!-- 5 -->
      <defs>
       <path d="M 10.796875 72.90625 
L 49.515625 72.90625 
L 49.515625 64.59375 
L 19.828125 64.59375 
L 19.828125 46.734375 
Q 21.96875 47.46875 24.109375 47.828125 
Q 26.265625 48.1875 28.421875 48.1875 
Q 40.625 48.1875 47.75 41.5 
Q 54.890625 34.8125 54.890625 23.390625 
Q 54.890625 11.625 47.5625 5.09375 
Q 40.234375 -1.421875 26.90625 -1.421875 
Q 22.3125 -1.421875 17.546875 -0.640625 
Q 12.796875 0.140625 7.71875 1.703125 
L 7.71875 11.625 
Q 12.109375 9.234375 16.796875 8.0625 
Q 21.484375 6.890625 26.703125 6.890625 
Q 35.15625 6.890625 40.078125 11.328125 
Q 45.015625 15.765625 45.015625 23.390625 
Q 45.015625 31 40.078125 35.4375 
Q 35.15625 39.890625 26.703125 39.890625 
Q 22.75 39.890625 18.8125 39.015625 
Q 14.890625 38.140625 10.796875 36.28125 
z
" id="DejaVuSans-53"/>
      </defs>
      <g transform="translate(113.45875 298.098437)scale(0.1 -0.1)">
       <use xlink:href="#DejaVuSans-53"/>
      </g>
     </g>
    </g>
    <g id="xtick_3">
     <g id="line2d_5">
      <path clip-path="url(#p2483cb7399)" d="M 161.28 283.5 
L 161.28 38.88 
" style="fill:none;stroke:#b0b0b0;stroke-linecap:square;stroke-width:0.8;"/>
     </g>
     <g id="line2d_6">
      <g>
       <use style="stroke:#000000;stroke-width:0.8;" x="161.28" xlink:href="#m20a126e053" y="283.5"/>
      </g>
     </g>
     <g id="text_3">
      <!-- 10 -->
      <defs>
       <path d="M 12.40625 8.296875 
L 28.515625 8.296875 
L 28.515625 63.921875 
L 10.984375 60.40625 
L 10.984375 69.390625 
L 28.421875 72.90625 
L 38.28125 72.90625 
L 38.28125 8.296875 
L 54.390625 8.296875 
L 54.390625 0 
L 12.40625 0 
z
" id="DejaVuSans-49"/>
      </defs>
      <g transform="translate(154.9175 298.098437)scale(0.1 -0.1)">
       <use xlink:href="#DejaVuSans-49"/>
       <use x="63.623047" xlink:href="#DejaVuSans-48"/>
      </g>
     </g>
    </g>
    <g id="xtick_4">
     <g id="line2d_7">
      <path clip-path="url(#p2483cb7399)" d="M 205.92 283.5 
L 205.92 38.88 
" style="fill:none;stroke:#b0b0b0;stroke-linecap:square;stroke-width:0.8;"/>
     </g>
     <g id="line2d_8">
      <g>
       <use style="stroke:#000000;stroke-width:0.8;" x="205.92" xlink:href="#m20a126e053" y="283.5"/>
      </g>
     </g>
     <g id="text_4">
      <!-- 15 -->
      <g transform="translate(199.5575 298.098437)scale(0.1 -0.1)">
       <use xlink:href="#DejaVuSans-49"/>
       <use x="63.623047" xlink:href="#DejaVuSans-53"/>
      </g>
     </g>
    </g>
    <g id="xtick_5">
     <g id="line2d_9">
      <path clip-path="url(#p2483cb7399)" d="M 250.56 283.5 
L 250.56 38.88 
" style="fill:none;stroke:#b0b0b0;stroke-linecap:square;stroke-width:0.8;"/>
     </g>
     <g id="line2d_10">
      <g>
       <use style="stroke:#000000;stroke-width:0.8;" x="250.56" xlink:href="#m20a126e053" y="283.5"/>
      </g>
     </g>
     <g id="text_5">
      <!-- 20 -->
      <defs>
       <path d="M 19.1875 8.296875 
L 53.609375 8.296875 
L 53.609375 0 
L 7.328125 0 
L 7.328125 8.296875 
Q 12.9375 14.109375 22.625 23.890625 
Q 32.328125 33.6875 34.8125 36.53125 
Q 39.546875 41.84375 41.421875 45.53125 
Q 43.3125 49.21875 43.3125 52.78125 
Q 43.3125 58.59375 39.234375 62.25 
Q 35.15625 65.921875 28.609375 65.921875 
Q 23.96875 65.921875 18.8125 64.3125 
Q 13.671875 62.703125 7.8125 59.421875 
L 7.8125 69.390625 
Q 13.765625 71.78125 18.9375 73 
Q 24.125 74.21875 28.421875 74.21875 
Q 39.75 74.21875 46.484375 68.546875 
Q 53.21875 62.890625 53.21875 53.421875 
Q 53.21875 48.921875 51.53125 44.890625 
Q 49.859375 40.875 45.40625 35.40625 
Q 44.1875 33.984375 37.640625 27.21875 
Q 31.109375 20.453125 19.1875 8.296875 
z
" id="DejaVuSans-50"/>
      </defs>
      <g transform="translate(244.1975 298.098437)scale(0.1 -0.1)">
       <use xlink:href="#DejaVuSans-50"/>
       <use x="63.623047" xlink:href="#DejaVuSans-48"/>
      </g>
     </g>
    </g>
    <g id="xtick_6">
     <g id="line2d_11">
      <path clip-path="url(#p2483cb7399)" d="M 295.2 283.5 
L 295.2 38.88 
" style="fill:none;stroke:#b0b0b0;stroke-linecap:square;stroke-width:0.8;"/>
     </g>
     <g id="line2d_12">
      <g>
       <use style="stroke:#000000;stroke-width:0.8;" x="295.2" xlink:href="#m20a126e053" y="283.5"/>
      </g>
     </g>
     <g id="text_6">
      <!-- 25 -->
      <g transform="translate(288.8375 298.098437)scale(0.1 -0.1)">
       <use xlink:href="#DejaVuSans-50"/>
       <use x="63.623047" xlink:href="#DejaVuSans-53"/>
      </g>
     </g>
    </g>
    <g id="xtick_7">
     <g id="line2d_13">
      <path clip-path="url(#p2483cb7399)" d="M 339.84 283.5 
L 339.84 38.88 
" style="fill:none;stroke:#b0b0b0;stroke-linecap:square;stroke-width:0.8;"/>
     </g>
     <g id="line2d_14">
      <g>
       <use style="stroke:#000000;stroke-width:0.8;" x="339.84" xlink:href="#m20a126e053" y="283.5"/>
      </g>
     </g>
     <g id="text_7">
      <!-- 30 -->
      <defs>
       <path d="M 40.578125 39.3125 
Q 47.65625 37.796875 51.625 33 
Q 55.609375 28.21875 55.609375 21.1875 
Q 55.609375 10.40625 48.1875 4.484375 
Q 40.765625 -1.421875 27.09375 -1.421875 
Q 22.515625 -1.421875 17.65625 -0.515625 
Q 12.796875 0.390625 7.625 2.203125 
L 7.625 11.71875 
Q 11.71875 9.328125 16.59375 8.109375 
Q 21.484375 6.890625 26.8125 6.890625 
Q 36.078125 6.890625 40.9375 10.546875 
Q 45.796875 14.203125 45.796875 21.1875 
Q 45.796875 27.640625 41.28125 31.265625 
Q 36.765625 34.90625 28.71875 34.90625 
L 20.21875 34.90625 
L 20.21875 43.015625 
L 29.109375 43.015625 
Q 36.375 43.015625 40.234375 45.921875 
Q 44.09375 48.828125 44.09375 54.296875 
Q 44.09375 59.90625 40.109375 62.90625 
Q 36.140625 65.921875 28.71875 65.921875 
Q 24.65625 65.921875 20.015625 65.03125 
Q 15.375 64.15625 9.8125 62.3125 
L 9.8125 71.09375 
Q 15.4375 72.65625 20.34375 73.4375 
Q 25.25 74.21875 29.59375 74.21875 
Q 40.828125 74.21875 47.359375 69.109375 
Q 53.90625 64.015625 53.90625 55.328125 
Q 53.90625 49.265625 50.4375 45.09375 
Q 46.96875 40.921875 40.578125 39.3125 
z
" id="DejaVuSans-51"/>
      </defs>
      <g transform="translate(333.4775 298.098437)scale(0.1 -0.1)">
       <use xlink:href="#DejaVuSans-51"/>
       <use x="63.623047" xlink:href="#DejaVuSans-48"/>
      </g>
     </g>
    </g>
    <g id="xtick_8">
     <g id="line2d_15">
      <path clip-path="url(#p2483cb7399)" d="M 384.48 283.5 
L 384.48 38.88 
" style="fill:none;stroke:#b0b0b0;stroke-linecap:square;stroke-width:0.8;"/>
     </g>
     <g id="line2d_16">
      <g>
       <use style="stroke:#000000;stroke-width:0.8;" x="384.48" xlink:href="#m20a126e053" y="283.5"/>
      </g>
     </g>
     <g id="text_8">
      <!-- 35 -->
      <g transform="translate(378.1175 298.098437)scale(0.1 -0.1)">
       <use xlink:href="#DejaVuSans-51"/>
       <use x="63.623047" xlink:href="#DejaVuSans-53"/>
      </g>
     </g>
    </g>
    <g id="xtick_9">
     <g id="line2d_17">
      <path clip-path="url(#p2483cb7399)" d="M 429.12 283.5 
L 429.12 38.88 
" style="fill:none;stroke:#b0b0b0;stroke-linecap:square;stroke-width:0.8;"/>
     </g>
     <g id="line2d_18">
      <g>
       <use style="stroke:#000000;stroke-width:0.8;" x="429.12" xlink:href="#m20a126e053" y="283.5"/>
      </g>
     </g>
     <g id="text_9">
      <!-- 40 -->
      <defs>
       <path d="M 37.796875 64.3125 
L 12.890625 25.390625 
L 37.796875 25.390625 
z
M 35.203125 72.90625 
L 47.609375 72.90625 
L 47.609375 25.390625 
L 58.015625 25.390625 
L 58.015625 17.1875 
L 47.609375 17.1875 
L 47.609375 0 
L 37.796875 0 
L 37.796875 17.1875 
L 4.890625 17.1875 
L 4.890625 26.703125 
z
" id="DejaVuSans-52"/>
      </defs>
      <g transform="translate(422.7575 298.098437)scale(0.1 -0.1)">
       <use xlink:href="#DejaVuSans-52"/>
       <use x="63.623047" xlink:href="#DejaVuSans-48"/>
      </g>
     </g>
    </g>
    <g id="xtick_10">
     <g id="line2d_19">
      <path clip-path="url(#p2483cb7399)" d="M 473.76 283.5 
L 473.76 38.88 
" style="fill:none;stroke:#b0b0b0;stroke-linecap:square;stroke-width:0.8;"/>
     </g>
     <g id="line2d_20">
      <g>
       <use style="stroke:#000000;stroke-width:0.8;" x="473.76" xlink:href="#m20a126e053" y="283.5"/>
      </g>
     </g>
     <g id="text_10">
      <!-- 45 -->
      <g transform="translate(467.3975 298.098437)scale(0.1 -0.1)">
       <use xlink:href="#DejaVuSans-52"/>
       <use x="63.623047" xlink:href="#DejaVuSans-53"/>
      </g>
     </g>
    </g>
    <g id="text_11">
     <!-- Absolute Error in Accuracy(%) Estimation -->
     <defs>
      <path d="M 34.1875 63.1875 
L 20.796875 26.90625 
L 47.609375 26.90625 
z
M 28.609375 72.90625 
L 39.796875 72.90625 
L 67.578125 0 
L 57.328125 0 
L 50.6875 18.703125 
L 17.828125 18.703125 
L 11.1875 0 
L 0.78125 0 
z
" id="DejaVuSans-65"/>
      <path d="M 48.6875 27.296875 
Q 48.6875 37.203125 44.609375 42.84375 
Q 40.53125 48.484375 33.40625 48.484375 
Q 26.265625 48.484375 22.1875 42.84375 
Q 18.109375 37.203125 18.109375 27.296875 
Q 18.109375 17.390625 22.1875 11.75 
Q 26.265625 6.109375 33.40625 6.109375 
Q 40.53125 6.109375 44.609375 11.75 
Q 48.6875 17.390625 48.6875 27.296875 
z
M 18.109375 46.390625 
Q 20.953125 51.265625 25.265625 53.625 
Q 29.59375 56 35.59375 56 
Q 45.5625 56 51.78125 48.09375 
Q 58.015625 40.1875 58.015625 27.296875 
Q 58.015625 14.40625 51.78125 6.484375 
Q 45.5625 -1.421875 35.59375 -1.421875 
Q 29.59375 -1.421875 25.265625 0.953125 
Q 20.953125 3.328125 18.109375 8.203125 
L 18.109375 0 
L 9.078125 0 
L 9.078125 75.984375 
L 18.109375 75.984375 
z
" id="DejaVuSans-98"/>
      <path d="M 44.28125 53.078125 
L 44.28125 44.578125 
Q 40.484375 46.53125 36.375 47.5 
Q 32.28125 48.484375 27.875 48.484375 
Q 21.1875 48.484375 17.84375 46.4375 
Q 14.5 44.390625 14.5 40.28125 
Q 14.5 37.15625 16.890625 35.375 
Q 19.28125 33.59375 26.515625 31.984375 
L 29.59375 31.296875 
Q 39.15625 29.25 43.1875 25.515625 
Q 47.21875 21.78125 47.21875 15.09375 
Q 47.21875 7.46875 41.1875 3.015625 
Q 35.15625 -1.421875 24.609375 -1.421875 
Q 20.21875 -1.421875 15.453125 -0.5625 
Q 10.6875 0.296875 5.421875 2 
L 5.421875 11.28125 
Q 10.40625 8.6875 15.234375 7.390625 
Q 20.0625 6.109375 24.8125 6.109375 
Q 31.15625 6.109375 34.5625 8.28125 
Q 37.984375 10.453125 37.984375 14.40625 
Q 37.984375 18.0625 35.515625 20.015625 
Q 33.0625 21.96875 24.703125 23.78125 
L 21.578125 24.515625 
Q 13.234375 26.265625 9.515625 29.90625 
Q 5.8125 33.546875 5.8125 39.890625 
Q 5.8125 47.609375 11.28125 51.796875 
Q 16.75 56 26.8125 56 
Q 31.78125 56 36.171875 55.265625 
Q 40.578125 54.546875 44.28125 53.078125 
z
" id="DejaVuSans-115"/>
      <path d="M 30.609375 48.390625 
Q 23.390625 48.390625 19.1875 42.75 
Q 14.984375 37.109375 14.984375 27.296875 
Q 14.984375 17.484375 19.15625 11.84375 
Q 23.34375 6.203125 30.609375 6.203125 
Q 37.796875 6.203125 41.984375 11.859375 
Q 46.1875 17.53125 46.1875 27.296875 
Q 46.1875 37.015625 41.984375 42.703125 
Q 37.796875 48.390625 30.609375 48.390625 
z
M 30.609375 56 
Q 42.328125 56 49.015625 48.375 
Q 55.71875 40.765625 55.71875 27.296875 
Q 55.71875 13.875 49.015625 6.21875 
Q 42.328125 -1.421875 30.609375 -1.421875 
Q 18.84375 -1.421875 12.171875 6.21875 
Q 5.515625 13.875 5.515625 27.296875 
Q 5.515625 40.765625 12.171875 48.375 
Q 18.84375 56 30.609375 56 
z
" id="DejaVuSans-111"/>
      <path d="M 9.421875 75.984375 
L 18.40625 75.984375 
L 18.40625 0 
L 9.421875 0 
z
" id="DejaVuSans-108"/>
      <path d="M 8.5 21.578125 
L 8.5 54.6875 
L 17.484375 54.6875 
L 17.484375 21.921875 
Q 17.484375 14.15625 20.5 10.265625 
Q 23.53125 6.390625 29.59375 6.390625 
Q 36.859375 6.390625 41.078125 11.03125 
Q 45.3125 15.671875 45.3125 23.6875 
L 45.3125 54.6875 
L 54.296875 54.6875 
L 54.296875 0 
L 45.3125 0 
L 45.3125 8.40625 
Q 42.046875 3.421875 37.71875 1 
Q 33.40625 -1.421875 27.6875 -1.421875 
Q 18.265625 -1.421875 13.375 4.4375 
Q 8.5 10.296875 8.5 21.578125 
z
M 31.109375 56 
z
" id="DejaVuSans-117"/>
      <path d="M 18.3125 70.21875 
L 18.3125 54.6875 
L 36.8125 54.6875 
L 36.8125 47.703125 
L 18.3125 47.703125 
L 18.3125 18.015625 
Q 18.3125 11.328125 20.140625 9.421875 
Q 21.96875 7.515625 27.59375 7.515625 
L 36.8125 7.515625 
L 36.8125 0 
L 27.59375 0 
Q 17.1875 0 13.234375 3.875 
Q 9.28125 7.765625 9.28125 18.015625 
L 9.28125 47.703125 
L 2.6875 47.703125 
L 2.6875 54.6875 
L 9.28125 54.6875 
L 9.28125 70.21875 
z
" id="DejaVuSans-116"/>
      <path d="M 56.203125 29.59375 
L 56.203125 25.203125 
L 14.890625 25.203125 
Q 15.484375 15.921875 20.484375 11.0625 
Q 25.484375 6.203125 34.421875 6.203125 
Q 39.59375 6.203125 44.453125 7.46875 
Q 49.3125 8.734375 54.109375 11.28125 
L 54.109375 2.78125 
Q 49.265625 0.734375 44.1875 -0.34375 
Q 39.109375 -1.421875 33.890625 -1.421875 
Q 20.796875 -1.421875 13.15625 6.1875 
Q 5.515625 13.8125 5.515625 26.8125 
Q 5.515625 40.234375 12.765625 48.109375 
Q 20.015625 56 32.328125 56 
Q 43.359375 56 49.78125 48.890625 
Q 56.203125 41.796875 56.203125 29.59375 
z
M 47.21875 32.234375 
Q 47.125 39.59375 43.09375 43.984375 
Q 39.0625 48.390625 32.421875 48.390625 
Q 24.90625 48.390625 20.390625 44.140625 
Q 15.875 39.890625 15.1875 32.171875 
z
" id="DejaVuSans-101"/>
      <path id="DejaVuSans-32"/>
      <path d="M 9.8125 72.90625 
L 55.90625 72.90625 
L 55.90625 64.59375 
L 19.671875 64.59375 
L 19.671875 43.015625 
L 54.390625 43.015625 
L 54.390625 34.71875 
L 19.671875 34.71875 
L 19.671875 8.296875 
L 56.78125 8.296875 
L 56.78125 0 
L 9.8125 0 
z
" id="DejaVuSans-69"/>
      <path d="M 41.109375 46.296875 
Q 39.59375 47.171875 37.8125 47.578125 
Q 36.03125 48 33.890625 48 
Q 26.265625 48 22.1875 43.046875 
Q 18.109375 38.09375 18.109375 28.8125 
L 18.109375 0 
L 9.078125 0 
L 9.078125 54.6875 
L 18.109375 54.6875 
L 18.109375 46.1875 
Q 20.953125 51.171875 25.484375 53.578125 
Q 30.03125 56 36.53125 56 
Q 37.453125 56 38.578125 55.875 
Q 39.703125 55.765625 41.0625 55.515625 
z
" id="DejaVuSans-114"/>
      <path d="M 9.421875 54.6875 
L 18.40625 54.6875 
L 18.40625 0 
L 9.421875 0 
z
M 9.421875 75.984375 
L 18.40625 75.984375 
L 18.40625 64.59375 
L 9.421875 64.59375 
z
" id="DejaVuSans-105"/>
      <path d="M 54.890625 33.015625 
L 54.890625 0 
L 45.90625 0 
L 45.90625 32.71875 
Q 45.90625 40.484375 42.875 44.328125 
Q 39.84375 48.1875 33.796875 48.1875 
Q 26.515625 48.1875 22.3125 43.546875 
Q 18.109375 38.921875 18.109375 30.90625 
L 18.109375 0 
L 9.078125 0 
L 9.078125 54.6875 
L 18.109375 54.6875 
L 18.109375 46.1875 
Q 21.34375 51.125 25.703125 53.5625 
Q 30.078125 56 35.796875 56 
Q 45.21875 56 50.046875 50.171875 
Q 54.890625 44.34375 54.890625 33.015625 
z
" id="DejaVuSans-110"/>
      <path d="M 48.78125 52.59375 
L 48.78125 44.1875 
Q 44.96875 46.296875 41.140625 47.34375 
Q 37.3125 48.390625 33.40625 48.390625 
Q 24.65625 48.390625 19.8125 42.84375 
Q 14.984375 37.3125 14.984375 27.296875 
Q 14.984375 17.28125 19.8125 11.734375 
Q 24.65625 6.203125 33.40625 6.203125 
Q 37.3125 6.203125 41.140625 7.25 
Q 44.96875 8.296875 48.78125 10.40625 
L 48.78125 2.09375 
Q 45.015625 0.34375 40.984375 -0.53125 
Q 36.96875 -1.421875 32.421875 -1.421875 
Q 20.0625 -1.421875 12.78125 6.34375 
Q 5.515625 14.109375 5.515625 27.296875 
Q 5.515625 40.671875 12.859375 48.328125 
Q 20.21875 56 33.015625 56 
Q 37.15625 56 41.109375 55.140625 
Q 45.0625 54.296875 48.78125 52.59375 
z
" id="DejaVuSans-99"/>
      <path d="M 34.28125 27.484375 
Q 23.390625 27.484375 19.1875 25 
Q 14.984375 22.515625 14.984375 16.5 
Q 14.984375 11.71875 18.140625 8.90625 
Q 21.296875 6.109375 26.703125 6.109375 
Q 34.1875 6.109375 38.703125 11.40625 
Q 43.21875 16.703125 43.21875 25.484375 
L 43.21875 27.484375 
z
M 52.203125 31.203125 
L 52.203125 0 
L 43.21875 0 
L 43.21875 8.296875 
Q 40.140625 3.328125 35.546875 0.953125 
Q 30.953125 -1.421875 24.3125 -1.421875 
Q 15.921875 -1.421875 10.953125 3.296875 
Q 6 8.015625 6 15.921875 
Q 6 25.140625 12.171875 29.828125 
Q 18.359375 34.515625 30.609375 34.515625 
L 43.21875 34.515625 
L 43.21875 35.40625 
Q 43.21875 41.609375 39.140625 45 
Q 35.0625 48.390625 27.6875 48.390625 
Q 23 48.390625 18.546875 47.265625 
Q 14.109375 46.140625 10.015625 43.890625 
L 10.015625 52.203125 
Q 14.9375 54.109375 19.578125 55.046875 
Q 24.21875 56 28.609375 56 
Q 40.484375 56 46.34375 49.84375 
Q 52.203125 43.703125 52.203125 31.203125 
z
" id="DejaVuSans-97"/>
      <path d="M 32.171875 -5.078125 
Q 28.375 -14.84375 24.75 -17.8125 
Q 21.140625 -20.796875 15.09375 -20.796875 
L 7.90625 -20.796875 
L 7.90625 -13.28125 
L 13.1875 -13.28125 
Q 16.890625 -13.28125 18.9375 -11.515625 
Q 21 -9.765625 23.484375 -3.21875 
L 25.09375 0.875 
L 2.984375 54.6875 
L 12.5 54.6875 
L 29.59375 11.921875 
L 46.6875 54.6875 
L 56.203125 54.6875 
z
" id="DejaVuSans-121"/>
      <path d="M 31 75.875 
Q 24.46875 64.65625 21.28125 53.65625 
Q 18.109375 42.671875 18.109375 31.390625 
Q 18.109375 20.125 21.3125 9.0625 
Q 24.515625 -2 31 -13.1875 
L 23.1875 -13.1875 
Q 15.875 -1.703125 12.234375 9.375 
Q 8.59375 20.453125 8.59375 31.390625 
Q 8.59375 42.28125 12.203125 53.3125 
Q 15.828125 64.359375 23.1875 75.875 
z
" id="DejaVuSans-40"/>
      <path d="M 72.703125 32.078125 
Q 68.453125 32.078125 66.03125 28.46875 
Q 63.625 24.859375 63.625 18.40625 
Q 63.625 12.0625 66.03125 8.421875 
Q 68.453125 4.78125 72.703125 4.78125 
Q 76.859375 4.78125 79.265625 8.421875 
Q 81.6875 12.0625 81.6875 18.40625 
Q 81.6875 24.8125 79.265625 28.4375 
Q 76.859375 32.078125 72.703125 32.078125 
z
M 72.703125 38.28125 
Q 80.421875 38.28125 84.953125 32.90625 
Q 89.5 27.546875 89.5 18.40625 
Q 89.5 9.28125 84.9375 3.921875 
Q 80.375 -1.421875 72.703125 -1.421875 
Q 64.890625 -1.421875 60.34375 3.921875 
Q 55.8125 9.28125 55.8125 18.40625 
Q 55.8125 27.59375 60.375 32.9375 
Q 64.9375 38.28125 72.703125 38.28125 
z
M 22.3125 68.015625 
Q 18.109375 68.015625 15.6875 64.375 
Q 13.28125 60.75 13.28125 54.390625 
Q 13.28125 47.953125 15.671875 44.328125 
Q 18.0625 40.71875 22.3125 40.71875 
Q 26.5625 40.71875 28.96875 44.328125 
Q 31.390625 47.953125 31.390625 54.390625 
Q 31.390625 60.6875 28.953125 64.34375 
Q 26.515625 68.015625 22.3125 68.015625 
z
M 66.40625 74.21875 
L 74.21875 74.21875 
L 28.609375 -1.421875 
L 20.796875 -1.421875 
z
M 22.3125 74.21875 
Q 30.03125 74.21875 34.609375 68.875 
Q 39.203125 63.53125 39.203125 54.390625 
Q 39.203125 45.171875 34.640625 39.84375 
Q 30.078125 34.515625 22.3125 34.515625 
Q 14.546875 34.515625 10.03125 39.859375 
Q 5.515625 45.21875 5.515625 54.390625 
Q 5.515625 63.484375 10.046875 68.84375 
Q 14.59375 74.21875 22.3125 74.21875 
z
" id="DejaVuSans-37"/>
      <path d="M 8.015625 75.875 
L 15.828125 75.875 
Q 23.140625 64.359375 26.78125 53.3125 
Q 30.421875 42.28125 30.421875 31.390625 
Q 30.421875 20.453125 26.78125 9.375 
Q 23.140625 -1.703125 15.828125 -13.1875 
L 8.015625 -13.1875 
Q 14.5 -2 17.703125 9.0625 
Q 20.90625 20.125 20.90625 31.390625 
Q 20.90625 42.671875 17.703125 53.65625 
Q 14.5 64.65625 8.015625 75.875 
z
" id="DejaVuSans-41"/>
      <path d="M 52 44.1875 
Q 55.375 50.25 60.0625 53.125 
Q 64.75 56 71.09375 56 
Q 79.640625 56 84.28125 50.015625 
Q 88.921875 44.046875 88.921875 33.015625 
L 88.921875 0 
L 79.890625 0 
L 79.890625 32.71875 
Q 79.890625 40.578125 77.09375 44.375 
Q 74.3125 48.1875 68.609375 48.1875 
Q 61.625 48.1875 57.5625 43.546875 
Q 53.515625 38.921875 53.515625 30.90625 
L 53.515625 0 
L 44.484375 0 
L 44.484375 32.71875 
Q 44.484375 40.625 41.703125 44.40625 
Q 38.921875 48.1875 33.109375 48.1875 
Q 26.21875 48.1875 22.15625 43.53125 
Q 18.109375 38.875 18.109375 30.90625 
L 18.109375 0 
L 9.078125 0 
L 9.078125 54.6875 
L 18.109375 54.6875 
L 18.109375 46.1875 
Q 21.1875 51.21875 25.484375 53.609375 
Q 29.78125 56 35.6875 56 
Q 41.65625 56 45.828125 52.96875 
Q 50 49.953125 52 44.1875 
z
" id="DejaVuSans-109"/>
     </defs>
     <g transform="translate(192.142187 311.776563)scale(0.1 -0.1)">
      <use xlink:href="#DejaVuSans-65"/>
      <use x="68.408203" xlink:href="#DejaVuSans-98"/>
      <use x="131.884766" xlink:href="#DejaVuSans-115"/>
      <use x="183.984375" xlink:href="#DejaVuSans-111"/>
      <use x="245.166016" xlink:href="#DejaVuSans-108"/>
      <use x="272.949219" xlink:href="#DejaVuSans-117"/>
      <use x="336.328125" xlink:href="#DejaVuSans-116"/>
      <use x="375.537109" xlink:href="#DejaVuSans-101"/>
      <use x="437.060547" xlink:href="#DejaVuSans-32"/>
      <use x="468.847656" xlink:href="#DejaVuSans-69"/>
      <use x="532.03125" xlink:href="#DejaVuSans-114"/>
      <use x="571.394531" xlink:href="#DejaVuSans-114"/>
      <use x="610.257812" xlink:href="#DejaVuSans-111"/>
      <use x="671.439453" xlink:href="#DejaVuSans-114"/>
      <use x="712.552734" xlink:href="#DejaVuSans-32"/>
      <use x="744.339844" xlink:href="#DejaVuSans-105"/>
      <use x="772.123047" xlink:href="#DejaVuSans-110"/>
      <use x="835.501953" xlink:href="#DejaVuSans-32"/>
      <use x="867.289062" xlink:href="#DejaVuSans-65"/>
      <use x="933.947266" xlink:href="#DejaVuSans-99"/>
      <use x="988.927734" xlink:href="#DejaVuSans-99"/>
      <use x="1043.908203" xlink:href="#DejaVuSans-117"/>
      <use x="1107.287109" xlink:href="#DejaVuSans-114"/>
      <use x="1148.400391" xlink:href="#DejaVuSans-97"/>
      <use x="1209.679688" xlink:href="#DejaVuSans-99"/>
      <use x="1264.660156" xlink:href="#DejaVuSans-121"/>
      <use x="1323.839844" xlink:href="#DejaVuSans-40"/>
      <use x="1362.853516" xlink:href="#DejaVuSans-37"/>
      <use x="1457.873047" xlink:href="#DejaVuSans-41"/>
      <use x="1496.886719" xlink:href="#DejaVuSans-32"/>
      <use x="1528.673828" xlink:href="#DejaVuSans-69"/>
      <use x="1591.857422" xlink:href="#DejaVuSans-115"/>
      <use x="1643.957031" xlink:href="#DejaVuSans-116"/>
      <use x="1683.166016" xlink:href="#DejaVuSans-105"/>
      <use x="1710.949219" xlink:href="#DejaVuSans-109"/>
      <use x="1808.361328" xlink:href="#DejaVuSans-97"/>
      <use x="1869.640625" xlink:href="#DejaVuSans-116"/>
      <use x="1908.849609" xlink:href="#DejaVuSans-105"/>
      <use x="1936.632812" xlink:href="#DejaVuSans-111"/>
      <use x="1997.814453" xlink:href="#DejaVuSans-110"/>
     </g>
    </g>
   </g>
   <g id="matplotlib.axis_2">
    <g id="ytick_1">
     <g id="line2d_21">
      <path clip-path="url(#p2483cb7399)" d="M 72 283.5 
L 518.4 283.5 
" style="fill:none;stroke:#b0b0b0;stroke-linecap:square;stroke-width:0.8;"/>
     </g>
     <g id="line2d_22">
      <defs>
       <path d="M 0 0 
L -3.5 0 
" id="mf9d928cc12" style="stroke:#000000;stroke-width:0.8;"/>
      </defs>
      <g>
       <use style="stroke:#000000;stroke-width:0.8;" x="72" xlink:href="#mf9d928cc12" y="283.5"/>
      </g>
     </g>
     <g id="text_12">
      <!-- 0 -->
      <g transform="translate(58.6375 287.299219)scale(0.1 -0.1)">
       <use xlink:href="#DejaVuSans-48"/>
      </g>
     </g>
    </g>
    <g id="ytick_2">
     <g id="line2d_23">
      <path clip-path="url(#p2483cb7399)" d="M 72 259.038 
L 518.4 259.038 
" style="fill:none;stroke:#b0b0b0;stroke-linecap:square;stroke-width:0.8;"/>
     </g>
     <g id="line2d_24">
      <g>
       <use style="stroke:#000000;stroke-width:0.8;" x="72" xlink:href="#mf9d928cc12" y="259.038"/>
      </g>
     </g>
     <g id="text_13">
      <!-- 10 -->
      <g transform="translate(52.275 262.837219)scale(0.1 -0.1)">
       <use xlink:href="#DejaVuSans-49"/>
       <use x="63.623047" xlink:href="#DejaVuSans-48"/>
      </g>
     </g>
    </g>
    <g id="ytick_3">
     <g id="line2d_25">
      <path clip-path="url(#p2483cb7399)" d="M 72 234.576 
L 518.4 234.576 
" style="fill:none;stroke:#b0b0b0;stroke-linecap:square;stroke-width:0.8;"/>
     </g>
     <g id="line2d_26">
      <g>
       <use style="stroke:#000000;stroke-width:0.8;" x="72" xlink:href="#mf9d928cc12" y="234.576"/>
      </g>
     </g>
     <g id="text_14">
      <!-- 20 -->
      <g transform="translate(52.275 238.375219)scale(0.1 -0.1)">
       <use xlink:href="#DejaVuSans-50"/>
       <use x="63.623047" xlink:href="#DejaVuSans-48"/>
      </g>
     </g>
    </g>
    <g id="ytick_4">
     <g id="line2d_27">
      <path clip-path="url(#p2483cb7399)" d="M 72 210.114 
L 518.4 210.114 
" style="fill:none;stroke:#b0b0b0;stroke-linecap:square;stroke-width:0.8;"/>
     </g>
     <g id="line2d_28">
      <g>
       <use style="stroke:#000000;stroke-width:0.8;" x="72" xlink:href="#mf9d928cc12" y="210.114"/>
      </g>
     </g>
     <g id="text_15">
      <!-- 30 -->
      <g transform="translate(52.275 213.913219)scale(0.1 -0.1)">
       <use xlink:href="#DejaVuSans-51"/>
       <use x="63.623047" xlink:href="#DejaVuSans-48"/>
      </g>
     </g>
    </g>
    <g id="ytick_5">
     <g id="line2d_29">
      <path clip-path="url(#p2483cb7399)" d="M 72 185.652 
L 518.4 185.652 
" style="fill:none;stroke:#b0b0b0;stroke-linecap:square;stroke-width:0.8;"/>
     </g>
     <g id="line2d_30">
      <g>
       <use style="stroke:#000000;stroke-width:0.8;" x="72" xlink:href="#mf9d928cc12" y="185.652"/>
      </g>
     </g>
     <g id="text_16">
      <!-- 40 -->
      <g transform="translate(52.275 189.451219)scale(0.1 -0.1)">
       <use xlink:href="#DejaVuSans-52"/>
       <use x="63.623047" xlink:href="#DejaVuSans-48"/>
      </g>
     </g>
    </g>
    <g id="ytick_6">
     <g id="line2d_31">
      <path clip-path="url(#p2483cb7399)" d="M 72 161.19 
L 518.4 161.19 
" style="fill:none;stroke:#b0b0b0;stroke-linecap:square;stroke-width:0.8;"/>
     </g>
     <g id="line2d_32">
      <g>
       <use style="stroke:#000000;stroke-width:0.8;" x="72" xlink:href="#mf9d928cc12" y="161.19"/>
      </g>
     </g>
     <g id="text_17">
      <!-- 50 -->
      <g transform="translate(52.275 164.989219)scale(0.1 -0.1)">
       <use xlink:href="#DejaVuSans-53"/>
       <use x="63.623047" xlink:href="#DejaVuSans-48"/>
      </g>
     </g>
    </g>
    <g id="ytick_7">
     <g id="line2d_33">
      <path clip-path="url(#p2483cb7399)" d="M 72 136.728 
L 518.4 136.728 
" style="fill:none;stroke:#b0b0b0;stroke-linecap:square;stroke-width:0.8;"/>
     </g>
     <g id="line2d_34">
      <g>
       <use style="stroke:#000000;stroke-width:0.8;" x="72" xlink:href="#mf9d928cc12" y="136.728"/>
      </g>
     </g>
     <g id="text_18">
      <!-- 60 -->
      <defs>
       <path d="M 33.015625 40.375 
Q 26.375 40.375 22.484375 35.828125 
Q 18.609375 31.296875 18.609375 23.390625 
Q 18.609375 15.53125 22.484375 10.953125 
Q 26.375 6.390625 33.015625 6.390625 
Q 39.65625 6.390625 43.53125 10.953125 
Q 47.40625 15.53125 47.40625 23.390625 
Q 47.40625 31.296875 43.53125 35.828125 
Q 39.65625 40.375 33.015625 40.375 
z
M 52.59375 71.296875 
L 52.59375 62.3125 
Q 48.875 64.0625 45.09375 64.984375 
Q 41.3125 65.921875 37.59375 65.921875 
Q 27.828125 65.921875 22.671875 59.328125 
Q 17.53125 52.734375 16.796875 39.40625 
Q 19.671875 43.65625 24.015625 45.921875 
Q 28.375 48.1875 33.59375 48.1875 
Q 44.578125 48.1875 50.953125 41.515625 
Q 57.328125 34.859375 57.328125 23.390625 
Q 57.328125 12.15625 50.6875 5.359375 
Q 44.046875 -1.421875 33.015625 -1.421875 
Q 20.359375 -1.421875 13.671875 8.265625 
Q 6.984375 17.96875 6.984375 36.375 
Q 6.984375 53.65625 15.1875 63.9375 
Q 23.390625 74.21875 37.203125 74.21875 
Q 40.921875 74.21875 44.703125 73.484375 
Q 48.484375 72.75 52.59375 71.296875 
z
" id="DejaVuSans-54"/>
      </defs>
      <g transform="translate(52.275 140.527219)scale(0.1 -0.1)">
       <use xlink:href="#DejaVuSans-54"/>
       <use x="63.623047" xlink:href="#DejaVuSans-48"/>
      </g>
     </g>
    </g>
    <g id="ytick_8">
     <g id="line2d_35">
      <path clip-path="url(#p2483cb7399)" d="M 72 112.266 
L 518.4 112.266 
" style="fill:none;stroke:#b0b0b0;stroke-linecap:square;stroke-width:0.8;"/>
     </g>
     <g id="line2d_36">
      <g>
       <use style="stroke:#000000;stroke-width:0.8;" x="72" xlink:href="#mf9d928cc12" y="112.266"/>
      </g>
     </g>
     <g id="text_19">
      <!-- 70 -->
      <defs>
       <path d="M 8.203125 72.90625 
L 55.078125 72.90625 
L 55.078125 68.703125 
L 28.609375 0 
L 18.3125 0 
L 43.21875 64.59375 
L 8.203125 64.59375 
z
" id="DejaVuSans-55"/>
      </defs>
      <g transform="translate(52.275 116.065219)scale(0.1 -0.1)">
       <use xlink:href="#DejaVuSans-55"/>
       <use x="63.623047" xlink:href="#DejaVuSans-48"/>
      </g>
     </g>
    </g>
    <g id="ytick_9">
     <g id="line2d_37">
      <path clip-path="url(#p2483cb7399)" d="M 72 87.804 
L 518.4 87.804 
" style="fill:none;stroke:#b0b0b0;stroke-linecap:square;stroke-width:0.8;"/>
     </g>
     <g id="line2d_38">
      <g>
       <use style="stroke:#000000;stroke-width:0.8;" x="72" xlink:href="#mf9d928cc12" y="87.804"/>
      </g>
     </g>
     <g id="text_20">
      <!-- 80 -->
      <defs>
       <path d="M 31.78125 34.625 
Q 24.75 34.625 20.71875 30.859375 
Q 16.703125 27.09375 16.703125 20.515625 
Q 16.703125 13.921875 20.71875 10.15625 
Q 24.75 6.390625 31.78125 6.390625 
Q 38.8125 6.390625 42.859375 10.171875 
Q 46.921875 13.96875 46.921875 20.515625 
Q 46.921875 27.09375 42.890625 30.859375 
Q 38.875 34.625 31.78125 34.625 
z
M 21.921875 38.8125 
Q 15.578125 40.375 12.03125 44.71875 
Q 8.5 49.078125 8.5 55.328125 
Q 8.5 64.0625 14.71875 69.140625 
Q 20.953125 74.21875 31.78125 74.21875 
Q 42.671875 74.21875 48.875 69.140625 
Q 55.078125 64.0625 55.078125 55.328125 
Q 55.078125 49.078125 51.53125 44.71875 
Q 48 40.375 41.703125 38.8125 
Q 48.828125 37.15625 52.796875 32.3125 
Q 56.78125 27.484375 56.78125 20.515625 
Q 56.78125 9.90625 50.3125 4.234375 
Q 43.84375 -1.421875 31.78125 -1.421875 
Q 19.734375 -1.421875 13.25 4.234375 
Q 6.78125 9.90625 6.78125 20.515625 
Q 6.78125 27.484375 10.78125 32.3125 
Q 14.796875 37.15625 21.921875 38.8125 
z
M 18.3125 54.390625 
Q 18.3125 48.734375 21.84375 45.5625 
Q 25.390625 42.390625 31.78125 42.390625 
Q 38.140625 42.390625 41.71875 45.5625 
Q 45.3125 48.734375 45.3125 54.390625 
Q 45.3125 60.0625 41.71875 63.234375 
Q 38.140625 66.40625 31.78125 66.40625 
Q 25.390625 66.40625 21.84375 63.234375 
Q 18.3125 60.0625 18.3125 54.390625 
z
" id="DejaVuSans-56"/>
      </defs>
      <g transform="translate(52.275 91.603219)scale(0.1 -0.1)">
       <use xlink:href="#DejaVuSans-56"/>
       <use x="63.623047" xlink:href="#DejaVuSans-48"/>
      </g>
     </g>
    </g>
    <g id="ytick_10">
     <g id="line2d_39">
      <path clip-path="url(#p2483cb7399)" d="M 72 63.342 
L 518.4 63.342 
" style="fill:none;stroke:#b0b0b0;stroke-linecap:square;stroke-width:0.8;"/>
     </g>
     <g id="line2d_40">
      <g>
       <use style="stroke:#000000;stroke-width:0.8;" x="72" xlink:href="#mf9d928cc12" y="63.342"/>
      </g>
     </g>
     <g id="text_21">
      <!-- 90 -->
      <defs>
       <path d="M 10.984375 1.515625 
L 10.984375 10.5 
Q 14.703125 8.734375 18.5 7.8125 
Q 22.3125 6.890625 25.984375 6.890625 
Q 35.75 6.890625 40.890625 13.453125 
Q 46.046875 20.015625 46.78125 33.40625 
Q 43.953125 29.203125 39.59375 26.953125 
Q 35.25 24.703125 29.984375 24.703125 
Q 19.046875 24.703125 12.671875 31.3125 
Q 6.296875 37.9375 6.296875 49.421875 
Q 6.296875 60.640625 12.9375 67.421875 
Q 19.578125 74.21875 30.609375 74.21875 
Q 43.265625 74.21875 49.921875 64.515625 
Q 56.59375 54.828125 56.59375 36.375 
Q 56.59375 19.140625 48.40625 8.859375 
Q 40.234375 -1.421875 26.421875 -1.421875 
Q 22.703125 -1.421875 18.890625 -0.6875 
Q 15.09375 0.046875 10.984375 1.515625 
z
M 30.609375 32.421875 
Q 37.25 32.421875 41.125 36.953125 
Q 45.015625 41.5 45.015625 49.421875 
Q 45.015625 57.28125 41.125 61.84375 
Q 37.25 66.40625 30.609375 66.40625 
Q 23.96875 66.40625 20.09375 61.84375 
Q 16.21875 57.28125 16.21875 49.421875 
Q 16.21875 41.5 20.09375 36.953125 
Q 23.96875 32.421875 30.609375 32.421875 
z
" id="DejaVuSans-57"/>
      </defs>
      <g transform="translate(52.275 67.141219)scale(0.1 -0.1)">
       <use xlink:href="#DejaVuSans-57"/>
       <use x="63.623047" xlink:href="#DejaVuSans-48"/>
      </g>
     </g>
    </g>
    <g id="text_22">
     <!-- % of Nodes -->
     <defs>
      <path d="M 37.109375 75.984375 
L 37.109375 68.5 
L 28.515625 68.5 
Q 23.6875 68.5 21.796875 66.546875 
Q 19.921875 64.59375 19.921875 59.515625 
L 19.921875 54.6875 
L 34.71875 54.6875 
L 34.71875 47.703125 
L 19.921875 47.703125 
L 19.921875 0 
L 10.890625 0 
L 10.890625 47.703125 
L 2.296875 47.703125 
L 2.296875 54.6875 
L 10.890625 54.6875 
L 10.890625 58.5 
Q 10.890625 67.625 15.140625 71.796875 
Q 19.390625 75.984375 28.609375 75.984375 
z
" id="DejaVuSans-102"/>
      <path d="M 9.8125 72.90625 
L 23.09375 72.90625 
L 55.421875 11.921875 
L 55.421875 72.90625 
L 64.984375 72.90625 
L 64.984375 0 
L 51.703125 0 
L 19.390625 60.984375 
L 19.390625 0 
L 9.8125 0 
z
" id="DejaVuSans-78"/>
      <path d="M 45.40625 46.390625 
L 45.40625 75.984375 
L 54.390625 75.984375 
L 54.390625 0 
L 45.40625 0 
L 45.40625 8.203125 
Q 42.578125 3.328125 38.25 0.953125 
Q 33.9375 -1.421875 27.875 -1.421875 
Q 17.96875 -1.421875 11.734375 6.484375 
Q 5.515625 14.40625 5.515625 27.296875 
Q 5.515625 40.1875 11.734375 48.09375 
Q 17.96875 56 27.875 56 
Q 33.9375 56 38.25 53.625 
Q 42.578125 51.265625 45.40625 46.390625 
z
M 14.796875 27.296875 
Q 14.796875 17.390625 18.875 11.75 
Q 22.953125 6.109375 30.078125 6.109375 
Q 37.203125 6.109375 41.296875 11.75 
Q 45.40625 17.390625 45.40625 27.296875 
Q 45.40625 37.203125 41.296875 42.84375 
Q 37.203125 48.484375 30.078125 48.484375 
Q 22.953125 48.484375 18.875 42.84375 
Q 14.796875 37.203125 14.796875 27.296875 
z
" id="DejaVuSans-100"/>
     </defs>
     <g transform="translate(46.195312 189.593906)rotate(-90)scale(0.1 -0.1)">
      <use xlink:href="#DejaVuSans-37"/>
      <use x="95.019531" xlink:href="#DejaVuSans-32"/>
      <use x="126.806641" xlink:href="#DejaVuSans-111"/>
      <use x="187.988281" xlink:href="#DejaVuSans-102"/>
      <use x="223.193359" xlink:href="#DejaVuSans-32"/>
      <use x="254.980469" xlink:href="#DejaVuSans-78"/>
      <use x="329.785156" xlink:href="#DejaVuSans-111"/>
      <use x="390.966797" xlink:href="#DejaVuSans-100"/>
      <use x="454.443359" xlink:href="#DejaVuSans-101"/>
      <use x="515.966797" xlink:href="#DejaVuSans-115"/>
     </g>
    </g>
   </g>
   <g id="line2d_41">
    <path clip-path="url(#p2483cb7399)" d="M 72 273.907059 
L 75.306931 272.707941 
L 76.313117 270.309706 
L 76.422038 269.110588 
L 77.424653 266.712353 
L 78.65761 265.513235 
L 78.67368 264.314118 
L 80.116445 263.115 
L 80.92175 260.716765 
L 82.053821 259.517647 
L 82.703779 258.318529 
L 82.941264 257.119412 
L 84.911674 255.920294 
L 85.526813 254.721176 
L 85.639306 252.322941 
L 86.136595 251.123824 
L 86.399078 249.924706 
L 86.519606 248.725588 
L 87.138317 247.526471 
L 87.332054 246.327353 
L 87.950765 245.128235 
L 88.23289 243.929118 
L 88.502515 241.530882 
L 88.883741 240.331765 
L 89.112298 237.933529 
L 89.773862 236.734412 
L 89.856 234.336176 
L 89.993491 233.137059 
L 90.036346 230.738824 
L 90.189014 229.539706 
L 90.220262 228.340588 
L 91.277338 227.141471 
L 91.301443 225.942353 
L 91.555891 224.743235 
L 91.66392 222.345 
L 92.418336 221.145882 
L 93.256675 216.349412 
L 93.461126 213.951176 
L 93.671827 212.752059 
L 93.730484 211.552941 
L 94.252147 207.955588 
L 94.486954 204.358235 
L 94.798541 203.159118 
L 95.410109 201.96 
L 95.825261 200.760882 
L 96.091315 198.362647 
L 96.811805 197.163529 
L 97.683178 192.367059 
L 98.32153 191.167941 
L 98.346528 189.968824 
L 98.571514 188.769706 
L 99.187546 187.570588 
L 99.52056 186.371471 
L 100.40711 180.375882 
L 100.874938 175.579412 
L 101.292768 174.380294 
L 101.361514 170.782941 
L 101.540966 168.384706 
L 102.029328 162.389118 
L 102.631075 159.990882 
L 102.889809 157.592647 
L 102.998909 156.393529 
L 103.57655 152.796176 
L 103.602442 151.597059 
L 103.885459 150.397941 
L 104.295254 149.198824 
L 104.465779 146.800588 
L 105.221088 145.601471 
L 105.824621 143.203235 
L 106.756704 140.805 
L 107.100432 136.008529 
L 107.278992 127.614706 
L 107.322739 126.415588 
L 107.89681 125.216471 
L 108.083405 122.818235 
L 108.703901 121.619118 
L 108.766397 120.42 
L 109.200298 119.220882 
L 109.418141 118.021765 
L 109.793117 116.822647 
L 110.029709 115.623529 
L 110.075242 114.424412 
L 110.29487 113.225294 
L 110.905813 112.026176 
L 111.218026 110.827059 
L 111.38855 107.229706 
L 111.62425 103.632353 
L 112.097434 101.234118 
L 112.111718 98.835882 
L 113.092906 97.636765 
L 113.100941 96.437647 
L 113.507165 95.238529 
L 114.59281 94.039412 
L 115.120454 88.043824 
L 115.601674 86.844706 
L 115.86505 85.645588 
L 115.990934 84.446471 
L 116.230205 83.247353 
L 116.608752 82.048235 
L 116.795347 80.849118 
L 117.161395 79.65 
L 117.680112 78.450882 
L 117.89617 77.251765 
L 117.915811 76.052647 
L 118.111334 74.853529 
L 118.147939 73.654412 
L 118.438992 72.455294 
L 119.236262 71.256176 
L 119.258582 70.057059 
L 119.912112 68.857941 
L 119.91479 67.658824 
L 120.280838 66.459706 
L 120.8858 65.260588 
L 122.076259 64.061471 
L 122.478912 62.862353 
L 123.292253 59.265 
L 126.437587 58.065882 
L 127.500019 56.866765 
L 128.708335 54.468529 
L 128.94457 53.269412 
L 129.604349 52.070294 
L 130.879267 50.871176 
L 131.297098 49.672059 
L 133.770154 48.472941 
L 139.218019 47.273824 
L 140.676854 46.074706 
L 140.763456 44.875588 
L 164.223562 43.676471 
L 193.427942 42.477353 
L 220.800298 40.079118 
L 226.523146 38.88 
L 577 38.88 
L 577 38.88 
" style="fill:none;stroke:#0000ff;stroke-linecap:square;stroke-width:1.5;"/>
   </g>
   <g id="line2d_42">
    <path clip-path="url(#p2483cb7399)" d="M 72 282.300882 
L 80.753011 281.101765 
L 85.048272 279.902647 
L 85.526813 278.703529 
L 94.32 276.305294 
L 95.662771 275.106176 
L 103.109616 272.707941 
L 105.170198 271.508824 
L 108.740506 270.309706 
L 109.576166 269.110588 
L 110.078813 267.911471 
L 110.26273 266.712353 
L 115.749878 265.513235 
L 116.959622 264.314118 
L 120.72456 263.115 
L 123.978816 261.915882 
L 124.942147 260.716765 
L 129.403469 259.517647 
L 130.693565 258.318529 
L 131.520298 257.119412 
L 131.785459 255.920294 
L 132.763343 254.721176 
L 133.077341 253.522059 
L 133.270186 251.123824 
L 136.584259 249.924706 
L 138.074342 248.725588 
L 138.356467 247.526471 
L 140.005469 246.327353 
L 140.676854 245.128235 
L 143.02849 243.929118 
L 143.489174 241.530882 
L 144.281981 240.331765 
L 144.54 239.132647 
L 146.330957 237.933529 
L 146.368454 236.734412 
L 146.669328 235.535294 
L 147.302323 234.336176 
L 149.315587 233.137059 
L 152.614483 231.937941 
L 153.84003 229.539706 
L 153.840298 228.340588 
L 156.843677 227.141471 
L 157.594522 225.942353 
L 158.985504 224.743235 
L 159.211382 223.544118 
L 160.815744 222.345 
L 160.89431 221.145882 
L 161.619264 219.946765 
L 162.837936 218.747647 
L 164.364356 217.548529 
L 167.857258 216.349412 
L 168.42865 215.150294 
L 168.797376 213.951176 
L 169.361626 212.752059 
L 170.99545 211.552941 
L 171.485597 210.353824 
L 173.548858 209.154706 
L 174.305059 207.955588 
L 174.517546 206.756471 
L 177.004886 204.358235 
L 177.491462 201.96 
L 177.929827 200.760882 
L 178.44408 197.163529 
L 179.488656 195.964412 
L 179.764531 194.765294 
L 180.314496 193.566176 
L 181.110874 192.367059 
L 181.364429 191.167941 
L 181.828685 189.968824 
L 182.150986 188.769706 
L 182.223302 187.570588 
L 184.289242 186.371471 
L 184.934736 185.172353 
L 185.275786 183.973235 
L 186.198941 181.575 
L 188.302378 179.176765 
L 188.40505 177.977647 
L 190.355818 176.778529 
L 193.303843 175.579412 
L 193.524365 174.380294 
L 194.050403 173.181176 
L 194.24039 170.782941 
L 194.604653 169.583824 
L 196.750051 168.384706 
L 196.869686 167.185588 
L 197.207165 165.986471 
L 197.363405 164.787353 
L 198.250848 163.588235 
L 198.325843 162.389118 
L 200.015914 161.19 
L 200.054304 159.990882 
L 201.77473 158.791765 
L 202.723776 157.592647 
L 202.969296 156.393529 
L 204.407597 155.194412 
L 205.075411 153.995294 
L 205.604842 152.796176 
L 207.124387 151.597059 
L 208.892131 147.999706 
L 210.359002 146.800588 
L 212.84545 144.402353 
L 213.89449 142.004118 
L 216.105955 140.805 
L 216.488074 139.605882 
L 217.28088 138.406765 
L 221.455613 137.207647 
L 222.059146 134.809412 
L 223.360848 133.610294 
L 226.032106 132.411176 
L 230.330045 130.012941 
L 230.736269 128.813824 
L 234.994925 127.614706 
L 236.271629 126.415588 
L 236.561789 125.216471 
L 237.481373 124.017353 
L 240.091027 122.818235 
L 240.660634 121.619118 
L 241.417728 120.42 
L 242.336419 119.220882 
L 242.644435 118.021765 
L 244.02024 116.822647 
L 244.205942 115.623529 
L 244.248797 114.424412 
L 245.333549 113.225294 
L 245.476932 110.827059 
L 248.610125 109.627941 
L 250.101994 108.428824 
L 250.992115 106.030588 
L 251.346557 103.632353 
L 251.566186 102.433235 
L 252.628618 100.035 
L 257.353315 98.835882 
L 257.614013 97.636765 
L 259.297834 96.437647 
L 264.26448 95.238529 
L 267.326338 94.039412 
L 269.691811 92.840294 
L 270.198029 91.641176 
L 273.309258 90.442059 
L 275.151283 89.242941 
L 276.431558 88.043824 
L 276.809213 86.844706 
L 277.872538 85.645588 
L 280.32863 84.446471 
L 284.156064 83.247353 
L 286.04255 82.048235 
L 289.247702 80.849118 
L 289.621786 79.65 
L 292.019311 78.450882 
L 292.733194 77.251765 
L 295.854422 76.052647 
L 297.086486 74.853529 
L 297.238262 73.654412 
L 298.728346 72.455294 
L 304.022292 71.256176 
L 307.825978 70.057059 
L 308.694672 68.857941 
L 310.080298 67.658824 
L 311.033808 66.459706 
L 311.207011 65.260588 
L 314.269315 64.061471 
L 315.916531 62.862353 
L 317.036102 61.663235 
L 320.225184 60.464118 
L 321.650986 59.265 
L 327.884515 58.065882 
L 328.343414 55.667647 
L 335.620627 54.468529 
L 336.700022 53.269412 
L 343.690646 52.070294 
L 359.086982 49.672059 
L 364.694659 48.472941 
L 364.95 47.273824 
L 368.992598 46.074706 
L 376.522474 44.875588 
L 414.56111 43.676471 
L 419.554541 42.477353 
L 465.410534 41.278235 
L 546.135725 40.079118 
L 552.738874 38.88 
L 577 38.88 
L 577 38.88 
" style="fill:none;stroke:#800080;stroke-linecap:square;stroke-width:1.5;"/>
   </g>
   <g id="line2d_43">
    <path clip-path="url(#p2483cb7399)" d="M 72 277.504412 
L 73.750781 276.305294 
L 77.236272 275.106176 
L 77.39519 273.907059 
L 77.668387 272.707941 
L 78.438874 271.508824 
L 80.774438 270.309706 
L 81.163699 269.110588 
L 83.16 267.911471 
L 86.88003 266.712353 
L 89.585482 265.513235 
L 91.632672 264.314118 
L 92.358518 263.115 
L 93.257568 260.716765 
L 108.136973 258.318529 
L 109.723478 257.119412 
L 110.862691 254.721176 
L 112.582224 253.522059 
L 114.514243 252.322941 
L 117.514944 249.924706 
L 118.15151 248.725588 
L 118.293466 247.526471 
L 118.98985 246.327353 
L 119.829082 245.128235 
L 121.600397 243.929118 
L 122.953882 242.73 
L 124.518067 241.530882 
L 125.301946 240.331765 
L 125.767094 239.132647 
L 128.190154 237.933529 
L 130.225738 235.535294 
L 130.618123 233.137059 
L 132.32471 230.738824 
L 134.873654 229.539706 
L 134.971862 228.340588 
L 135.509328 227.141471 
L 135.771811 225.942353 
L 137.178864 224.743235 
L 137.237789 223.544118 
L 138.133267 222.345 
L 138.626986 221.145882 
L 138.657341 219.946765 
L 140.676854 217.548529 
L 144.291802 216.349412 
L 144.431971 213.951176 
L 145.381018 212.752059 
L 145.972051 211.552941 
L 146.399702 210.353824 
L 146.400595 209.154706 
L 148.214765 207.955588 
L 151.324387 206.756471 
L 153.163555 205.557353 
L 153.163644 204.358235 
L 153.983146 203.159118 
L 154.412582 201.96 
L 157.028486 199.561765 
L 159.102461 198.362647 
L 159.228346 197.163529 
L 159.816701 195.964412 
L 161.28 194.765294 
L 161.28 193.566176 
L 161.559446 192.367059 
L 163.309334 191.167941 
L 163.457539 189.968824 
L 163.867334 188.769706 
L 164.496758 187.570588 
L 165.531514 186.371471 
L 166.945709 185.172353 
L 168.892906 183.973235 
L 169.396445 182.774118 
L 169.396445 180.375882 
L 171.199901 179.176765 
L 172.101629 177.977647 
L 175.813891 175.579412 
L 176.160298 174.380294 
L 177.035242 173.181176 
L 178.747632 171.982059 
L 180.877853 170.782941 
L 181.462637 169.583824 
L 182.317939 168.384706 
L 185.974848 165.986471 
L 186.615878 164.787353 
L 187.733664 163.588235 
L 189.268387 162.389118 
L 192.26016 161.19 
L 199.052582 158.791765 
L 199.225786 157.592647 
L 199.249623 156.393529 
L 199.54273 155.194412 
L 201.014957 151.597059 
L 202.177382 150.397941 
L 206.569066 149.198824 
L 206.76191 147.999706 
L 209.188541 146.800588 
L 214.119475 145.601471 
L 214.330176 144.402353 
L 214.667654 143.203235 
L 219.164688 142.004118 
L 221.567034 139.605882 
L 229.956854 138.406765 
L 231.428546 137.207647 
L 231.777274 136.008529 
L 237.175142 134.809412 
L 241.506115 132.411176 
L 246.554006 131.212059 
L 250.56 130.012941 
L 253.147334 128.813824 
L 253.331251 127.614706 
L 254.636525 126.415588 
L 256.107859 125.216471 
L 256.587293 124.017353 
L 257.999702 122.818235 
L 258.676445 121.619118 
L 261.037008 120.42 
L 266.148288 119.220882 
L 267.624086 118.021765 
L 272.424672 116.822647 
L 272.988029 115.623529 
L 273.424608 114.424412 
L 276.01105 113.225294 
L 279.594749 112.026176 
L 280.319702 110.827059 
L 280.898237 109.627941 
L 281.664259 108.428824 
L 281.783269 107.229706 
L 285.37295 106.030588 
L 286.652333 104.831471 
L 288.436147 102.433235 
L 290.239603 101.234118 
L 290.823494 100.035 
L 292.85015 98.835882 
L 297.510566 96.437647 
L 303.466435 94.039412 
L 306.037699 92.840294 
L 309.181248 91.641176 
L 310.638298 90.442059 
L 316.038845 89.242941 
L 319.999306 88.043824 
L 320.000198 86.844706 
L 329.919206 85.645588 
L 334.358208 84.446471 
L 339.84 83.247353 
L 343.867421 82.048235 
L 345.980678 80.849118 
L 346.707418 79.65 
L 350.836618 78.450882 
L 353.415203 77.251765 
L 362.16 76.052647 
L 369.600595 74.853529 
L 380.422224 73.654412 
L 384.992467 72.455294 
L 388.085126 71.256176 
L 388.405642 70.057059 
L 392.073264 68.857941 
L 414.046411 67.658824 
L 422.74273 66.459706 
L 427.870973 65.260588 
L 441.546883 64.061471 
L 441.745978 62.862353 
L 444.682397 61.663235 
L 446.976 60.464118 
L 460.173905 59.265 
L 467.324698 58.065882 
L 473.76 56.866765 
L 512.177184 54.468529 
L 524.122848 52.070294 
L 525.725424 50.871176 
L 526.907491 49.672059 
L 530.424766 48.472941 
L 559.541117 47.273824 
L 577 46.439192 
L 577 46.439192 
" style="fill:none;stroke:#ff0000;stroke-linecap:square;stroke-width:1.5;"/>
   </g>
   <g id="line2d_44">
    <path clip-path="url(#p2483cb7399)" d="M 161.28 283.5 
L 161.28 38.88 
" style="fill:none;stroke:#000000;stroke-linecap:square;stroke-width:1.5;"/>
   </g>
   <g id="patch_3">
    <path d="M 72 283.5 
L 72 38.88 
" style="fill:none;stroke:#000000;stroke-linecap:square;stroke-linejoin:miter;stroke-width:0.8;"/>
   </g>
   <g id="patch_4">
    <path d="M 518.4 283.5 
L 518.4 38.88 
" style="fill:none;stroke:#000000;stroke-linecap:square;stroke-linejoin:miter;stroke-width:0.8;"/>
   </g>
   <g id="patch_5">
    <path d="M 72 283.5 
L 518.4 283.5 
" style="fill:none;stroke:#000000;stroke-linecap:square;stroke-linejoin:miter;stroke-width:0.8;"/>
   </g>
   <g id="patch_6">
    <path d="M 72 38.88 
L 518.4 38.88 
" style="fill:none;stroke:#000000;stroke-linecap:square;stroke-linejoin:miter;stroke-width:0.8;"/>
   </g>
   <g id="text_23">
    <!-- Percentage of estimates for which there was less than X absolute error -->
    <defs>
     <path d="M 19.671875 64.796875 
L 19.671875 37.40625 
L 32.078125 37.40625 
Q 38.96875 37.40625 42.71875 40.96875 
Q 46.484375 44.53125 46.484375 51.125 
Q 46.484375 57.671875 42.71875 61.234375 
Q 38.96875 64.796875 32.078125 64.796875 
z
M 9.8125 72.90625 
L 32.078125 72.90625 
Q 44.34375 72.90625 50.609375 67.359375 
Q 56.890625 61.8125 56.890625 51.125 
Q 56.890625 40.328125 50.609375 34.8125 
Q 44.34375 29.296875 32.078125 29.296875 
L 19.671875 29.296875 
L 19.671875 0 
L 9.8125 0 
z
" id="DejaVuSans-80"/>
     <path d="M 45.40625 27.984375 
Q 45.40625 37.75 41.375 43.109375 
Q 37.359375 48.484375 30.078125 48.484375 
Q 22.859375 48.484375 18.828125 43.109375 
Q 14.796875 37.75 14.796875 27.984375 
Q 14.796875 18.265625 18.828125 12.890625 
Q 22.859375 7.515625 30.078125 7.515625 
Q 37.359375 7.515625 41.375 12.890625 
Q 45.40625 18.265625 45.40625 27.984375 
z
M 54.390625 6.78125 
Q 54.390625 -7.171875 48.1875 -13.984375 
Q 42 -20.796875 29.203125 -20.796875 
Q 24.46875 -20.796875 20.265625 -20.09375 
Q 16.0625 -19.390625 12.109375 -17.921875 
L 12.109375 -9.1875 
Q 16.0625 -11.328125 19.921875 -12.34375 
Q 23.78125 -13.375 27.78125 -13.375 
Q 36.625 -13.375 41.015625 -8.765625 
Q 45.40625 -4.15625 45.40625 5.171875 
L 45.40625 9.625 
Q 42.625 4.78125 38.28125 2.390625 
Q 33.9375 0 27.875 0 
Q 17.828125 0 11.671875 7.65625 
Q 5.515625 15.328125 5.515625 27.984375 
Q 5.515625 40.671875 11.671875 48.328125 
Q 17.828125 56 27.875 56 
Q 33.9375 56 38.28125 53.609375 
Q 42.625 51.21875 45.40625 46.390625 
L 45.40625 54.6875 
L 54.390625 54.6875 
z
" id="DejaVuSans-103"/>
     <path d="M 4.203125 54.6875 
L 13.1875 54.6875 
L 24.421875 12.015625 
L 35.59375 54.6875 
L 46.1875 54.6875 
L 57.421875 12.015625 
L 68.609375 54.6875 
L 77.59375 54.6875 
L 63.28125 0 
L 52.6875 0 
L 40.921875 44.828125 
L 29.109375 0 
L 18.5 0 
z
" id="DejaVuSans-119"/>
     <path d="M 54.890625 33.015625 
L 54.890625 0 
L 45.90625 0 
L 45.90625 32.71875 
Q 45.90625 40.484375 42.875 44.328125 
Q 39.84375 48.1875 33.796875 48.1875 
Q 26.515625 48.1875 22.3125 43.546875 
Q 18.109375 38.921875 18.109375 30.90625 
L 18.109375 0 
L 9.078125 0 
L 9.078125 75.984375 
L 18.109375 75.984375 
L 18.109375 46.1875 
Q 21.34375 51.125 25.703125 53.5625 
Q 30.078125 56 35.796875 56 
Q 45.21875 56 50.046875 50.171875 
Q 54.890625 44.34375 54.890625 33.015625 
z
" id="DejaVuSans-104"/>
     <path d="M 6.296875 72.90625 
L 16.890625 72.90625 
L 35.015625 45.796875 
L 53.21875 72.90625 
L 63.8125 72.90625 
L 40.375 37.890625 
L 65.375 0 
L 54.78125 0 
L 34.28125 31 
L 13.625 0 
L 2.984375 0 
L 29 38.921875 
z
" id="DejaVuSans-88"/>
    </defs>
    <g transform="translate(82.185937 32.88)scale(0.12 -0.12)">
     <use xlink:href="#DejaVuSans-80"/>
     <use x="56.677734" xlink:href="#DejaVuSans-101"/>
     <use x="118.201172" xlink:href="#DejaVuSans-114"/>
     <use x="157.064453" xlink:href="#DejaVuSans-99"/>
     <use x="212.044922" xlink:href="#DejaVuSans-101"/>
     <use x="273.568359" xlink:href="#DejaVuSans-110"/>
     <use x="336.947266" xlink:href="#DejaVuSans-116"/>
     <use x="376.15625" xlink:href="#DejaVuSans-97"/>
     <use x="437.435547" xlink:href="#DejaVuSans-103"/>
     <use x="500.912109" xlink:href="#DejaVuSans-101"/>
     <use x="562.435547" xlink:href="#DejaVuSans-32"/>
     <use x="594.222656" xlink:href="#DejaVuSans-111"/>
     <use x="655.404297" xlink:href="#DejaVuSans-102"/>
     <use x="690.609375" xlink:href="#DejaVuSans-32"/>
     <use x="722.396484" xlink:href="#DejaVuSans-101"/>
     <use x="783.919922" xlink:href="#DejaVuSans-115"/>
     <use x="836.019531" xlink:href="#DejaVuSans-116"/>
     <use x="875.228516" xlink:href="#DejaVuSans-105"/>
     <use x="903.011719" xlink:href="#DejaVuSans-109"/>
     <use x="1000.423828" xlink:href="#DejaVuSans-97"/>
     <use x="1061.703125" xlink:href="#DejaVuSans-116"/>
     <use x="1100.912109" xlink:href="#DejaVuSans-101"/>
     <use x="1162.435547" xlink:href="#DejaVuSans-115"/>
     <use x="1214.535156" xlink:href="#DejaVuSans-32"/>
     <use x="1246.322266" xlink:href="#DejaVuSans-102"/>
     <use x="1281.527344" xlink:href="#DejaVuSans-111"/>
     <use x="1342.708984" xlink:href="#DejaVuSans-114"/>
     <use x="1383.822266" xlink:href="#DejaVuSans-32"/>
     <use x="1415.609375" xlink:href="#DejaVuSans-119"/>
     <use x="1497.396484" xlink:href="#DejaVuSans-104"/>
     <use x="1560.775391" xlink:href="#DejaVuSans-105"/>
     <use x="1588.558594" xlink:href="#DejaVuSans-99"/>
     <use x="1643.539062" xlink:href="#DejaVuSans-104"/>
     <use x="1706.917969" xlink:href="#DejaVuSans-32"/>
     <use x="1738.705078" xlink:href="#DejaVuSans-116"/>
     <use x="1777.914062" xlink:href="#DejaVuSans-104"/>
     <use x="1841.292969" xlink:href="#DejaVuSans-101"/>
     <use x="1902.816406" xlink:href="#DejaVuSans-114"/>
     <use x="1941.679688" xlink:href="#DejaVuSans-101"/>
     <use x="2003.203125" xlink:href="#DejaVuSans-32"/>
     <use x="2034.990234" xlink:href="#DejaVuSans-119"/>
     <use x="2116.777344" xlink:href="#DejaVuSans-97"/>
     <use x="2178.056641" xlink:href="#DejaVuSans-115"/>
     <use x="2230.15625" xlink:href="#DejaVuSans-32"/>
     <use x="2261.943359" xlink:href="#DejaVuSans-108"/>
     <use x="2289.726562" xlink:href="#DejaVuSans-101"/>
     <use x="2351.25" xlink:href="#DejaVuSans-115"/>
     <use x="2403.349609" xlink:href="#DejaVuSans-115"/>
     <use x="2455.449219" xlink:href="#DejaVuSans-32"/>
     <use x="2487.236328" xlink:href="#DejaVuSans-116"/>
     <use x="2526.445312" xlink:href="#DejaVuSans-104"/>
     <use x="2589.824219" xlink:href="#DejaVuSans-97"/>
     <use x="2651.103516" xlink:href="#DejaVuSans-110"/>
     <use x="2714.482422" xlink:href="#DejaVuSans-32"/>
     <use x="2746.269531" xlink:href="#DejaVuSans-88"/>
     <use x="2814.775391" xlink:href="#DejaVuSans-32"/>
     <use x="2846.5625" xlink:href="#DejaVuSans-97"/>
     <use x="2907.841797" xlink:href="#DejaVuSans-98"/>
     <use x="2971.318359" xlink:href="#DejaVuSans-115"/>
     <use x="3023.417969" xlink:href="#DejaVuSans-111"/>
     <use x="3084.599609" xlink:href="#DejaVuSans-108"/>
     <use x="3112.382812" xlink:href="#DejaVuSans-117"/>
     <use x="3175.761719" xlink:href="#DejaVuSans-116"/>
     <use x="3214.970703" xlink:href="#DejaVuSans-101"/>
     <use x="3276.494141" xlink:href="#DejaVuSans-32"/>
     <use x="3308.28125" xlink:href="#DejaVuSans-101"/>
     <use x="3369.804688" xlink:href="#DejaVuSans-114"/>
     <use x="3409.167969" xlink:href="#DejaVuSans-114"/>
     <use x="3448.03125" xlink:href="#DejaVuSans-111"/>
     <use x="3509.212891" xlink:href="#DejaVuSans-114"/>
    </g>
   </g>
   <g id="legend_1">
    <g id="patch_7">
     <path d="M 236.671875 278.5 
L 511.4 278.5 
Q 513.4 278.5 513.4 276.5 
L 513.4 218.7875 
Q 513.4 216.7875 511.4 216.7875 
L 236.671875 216.7875 
Q 234.671875 216.7875 234.671875 218.7875 
L 234.671875 276.5 
Q 234.671875 278.5 236.671875 278.5 
z
" style="fill:#ffffff;opacity:0.8;stroke:#cccccc;stroke-linejoin:miter;"/>
    </g>
    <g id="line2d_45">
     <path d="M 238.671875 224.885938 
L 258.671875 224.885938 
" style="fill:none;stroke:#0000ff;stroke-linecap:square;stroke-width:1.5;"/>
    </g>
    <g id="line2d_46"/>
    <g id="text_24">
     <!-- Message Avg Based Method With Blacklisting -->
     <defs>
      <path d="M 9.8125 72.90625 
L 24.515625 72.90625 
L 43.109375 23.296875 
L 61.8125 72.90625 
L 76.515625 72.90625 
L 76.515625 0 
L 66.890625 0 
L 66.890625 64.015625 
L 48.09375 14.015625 
L 38.1875 14.015625 
L 19.390625 64.015625 
L 19.390625 0 
L 9.8125 0 
z
" id="DejaVuSans-77"/>
      <path d="M 2.984375 54.6875 
L 12.5 54.6875 
L 29.59375 8.796875 
L 46.6875 54.6875 
L 56.203125 54.6875 
L 35.6875 0 
L 23.484375 0 
z
" id="DejaVuSans-118"/>
      <path d="M 19.671875 34.8125 
L 19.671875 8.109375 
L 35.5 8.109375 
Q 43.453125 8.109375 47.28125 11.40625 
Q 51.125 14.703125 51.125 21.484375 
Q 51.125 28.328125 47.28125 31.5625 
Q 43.453125 34.8125 35.5 34.8125 
z
M 19.671875 64.796875 
L 19.671875 42.828125 
L 34.28125 42.828125 
Q 41.5 42.828125 45.03125 45.53125 
Q 48.578125 48.25 48.578125 53.8125 
Q 48.578125 59.328125 45.03125 62.0625 
Q 41.5 64.796875 34.28125 64.796875 
z
M 9.8125 72.90625 
L 35.015625 72.90625 
Q 46.296875 72.90625 52.390625 68.21875 
Q 58.5 63.53125 58.5 54.890625 
Q 58.5 48.1875 55.375 44.234375 
Q 52.25 40.28125 46.1875 39.3125 
Q 53.46875 37.75 57.5 32.78125 
Q 61.53125 27.828125 61.53125 20.40625 
Q 61.53125 10.640625 54.890625 5.3125 
Q 48.25 0 35.984375 0 
L 9.8125 0 
z
" id="DejaVuSans-66"/>
      <path d="M 3.328125 72.90625 
L 13.28125 72.90625 
L 28.609375 11.28125 
L 43.890625 72.90625 
L 54.984375 72.90625 
L 70.3125 11.28125 
L 85.59375 72.90625 
L 95.609375 72.90625 
L 77.296875 0 
L 64.890625 0 
L 49.515625 63.28125 
L 33.984375 0 
L 21.578125 0 
z
" id="DejaVuSans-87"/>
      <path d="M 9.078125 75.984375 
L 18.109375 75.984375 
L 18.109375 31.109375 
L 44.921875 54.6875 
L 56.390625 54.6875 
L 27.390625 29.109375 
L 57.625 0 
L 45.90625 0 
L 18.109375 26.703125 
L 18.109375 0 
L 9.078125 0 
z
" id="DejaVuSans-107"/>
     </defs>
     <g transform="translate(266.671875 228.385938)scale(0.1 -0.1)">
      <use xlink:href="#DejaVuSans-77"/>
      <use x="86.279297" xlink:href="#DejaVuSans-101"/>
      <use x="147.802734" xlink:href="#DejaVuSans-115"/>
      <use x="199.902344" xlink:href="#DejaVuSans-115"/>
      <use x="252.001953" xlink:href="#DejaVuSans-97"/>
      <use x="313.28125" xlink:href="#DejaVuSans-103"/>
      <use x="376.757812" xlink:href="#DejaVuSans-101"/>
      <use x="438.28125" xlink:href="#DejaVuSans-32"/>
      <use x="470.068359" xlink:href="#DejaVuSans-65"/>
      <use x="532.601562" xlink:href="#DejaVuSans-118"/>
      <use x="591.78125" xlink:href="#DejaVuSans-103"/>
      <use x="655.257812" xlink:href="#DejaVuSans-32"/>
      <use x="687.044922" xlink:href="#DejaVuSans-66"/>
      <use x="755.648438" xlink:href="#DejaVuSans-97"/>
      <use x="816.927734" xlink:href="#DejaVuSans-115"/>
      <use x="869.027344" xlink:href="#DejaVuSans-101"/>
      <use x="930.550781" xlink:href="#DejaVuSans-100"/>
      <use x="994.027344" xlink:href="#DejaVuSans-32"/>
      <use x="1025.814453" xlink:href="#DejaVuSans-77"/>
      <use x="1112.09375" xlink:href="#DejaVuSans-101"/>
      <use x="1173.617188" xlink:href="#DejaVuSans-116"/>
      <use x="1212.826172" xlink:href="#DejaVuSans-104"/>
      <use x="1276.205078" xlink:href="#DejaVuSans-111"/>
      <use x="1337.386719" xlink:href="#DejaVuSans-100"/>
      <use x="1400.863281" xlink:href="#DejaVuSans-32"/>
      <use x="1432.650391" xlink:href="#DejaVuSans-87"/>
      <use x="1529.277344" xlink:href="#DejaVuSans-105"/>
      <use x="1557.060547" xlink:href="#DejaVuSans-116"/>
      <use x="1596.269531" xlink:href="#DejaVuSans-104"/>
      <use x="1659.648438" xlink:href="#DejaVuSans-32"/>
      <use x="1691.435547" xlink:href="#DejaVuSans-66"/>
      <use x="1760.039062" xlink:href="#DejaVuSans-108"/>
      <use x="1787.822266" xlink:href="#DejaVuSans-97"/>
      <use x="1849.101562" xlink:href="#DejaVuSans-99"/>
      <use x="1904.082031" xlink:href="#DejaVuSans-107"/>
      <use x="1961.992188" xlink:href="#DejaVuSans-108"/>
      <use x="1989.775391" xlink:href="#DejaVuSans-105"/>
      <use x="2017.558594" xlink:href="#DejaVuSans-115"/>
      <use x="2069.658203" xlink:href="#DejaVuSans-116"/>
      <use x="2108.867188" xlink:href="#DejaVuSans-105"/>
      <use x="2136.650391" xlink:href="#DejaVuSans-110"/>
      <use x="2200.029297" xlink:href="#DejaVuSans-103"/>
     </g>
    </g>
    <g id="line2d_47">
     <path d="M 238.671875 239.564063 
L 258.671875 239.564063 
" style="fill:none;stroke:#800080;stroke-linecap:square;stroke-width:1.5;"/>
    </g>
    <g id="line2d_48"/>
    <g id="text_25">
     <!-- Message Avg Based Method Without Blacklisting -->
     <g transform="translate(266.671875 243.064063)scale(0.1 -0.1)">
      <use xlink:href="#DejaVuSans-77"/>
      <use x="86.279297" xlink:href="#DejaVuSans-101"/>
      <use x="147.802734" xlink:href="#DejaVuSans-115"/>
      <use x="199.902344" xlink:href="#DejaVuSans-115"/>
      <use x="252.001953" xlink:href="#DejaVuSans-97"/>
      <use x="313.28125" xlink:href="#DejaVuSans-103"/>
      <use x="376.757812" xlink:href="#DejaVuSans-101"/>
      <use x="438.28125" xlink:href="#DejaVuSans-32"/>
      <use x="470.068359" xlink:href="#DejaVuSans-65"/>
      <use x="532.601562" xlink:href="#DejaVuSans-118"/>
      <use x="591.78125" xlink:href="#DejaVuSans-103"/>
      <use x="655.257812" xlink:href="#DejaVuSans-32"/>
      <use x="687.044922" xlink:href="#DejaVuSans-66"/>
      <use x="755.648438" xlink:href="#DejaVuSans-97"/>
      <use x="816.927734" xlink:href="#DejaVuSans-115"/>
      <use x="869.027344" xlink:href="#DejaVuSans-101"/>
      <use x="930.550781" xlink:href="#DejaVuSans-100"/>
      <use x="994.027344" xlink:href="#DejaVuSans-32"/>
      <use x="1025.814453" xlink:href="#DejaVuSans-77"/>
      <use x="1112.09375" xlink:href="#DejaVuSans-101"/>
      <use x="1173.617188" xlink:href="#DejaVuSans-116"/>
      <use x="1212.826172" xlink:href="#DejaVuSans-104"/>
      <use x="1276.205078" xlink:href="#DejaVuSans-111"/>
      <use x="1337.386719" xlink:href="#DejaVuSans-100"/>
      <use x="1400.863281" xlink:href="#DejaVuSans-32"/>
      <use x="1432.650391" xlink:href="#DejaVuSans-87"/>
      <use x="1529.277344" xlink:href="#DejaVuSans-105"/>
      <use x="1557.060547" xlink:href="#DejaVuSans-116"/>
      <use x="1596.269531" xlink:href="#DejaVuSans-104"/>
      <use x="1659.648438" xlink:href="#DejaVuSans-111"/>
      <use x="1720.830078" xlink:href="#DejaVuSans-117"/>
      <use x="1784.208984" xlink:href="#DejaVuSans-116"/>
      <use x="1823.417969" xlink:href="#DejaVuSans-32"/>
      <use x="1855.205078" xlink:href="#DejaVuSans-66"/>
      <use x="1923.808594" xlink:href="#DejaVuSans-108"/>
      <use x="1951.591797" xlink:href="#DejaVuSans-97"/>
      <use x="2012.871094" xlink:href="#DejaVuSans-99"/>
      <use x="2067.851562" xlink:href="#DejaVuSans-107"/>
      <use x="2125.761719" xlink:href="#DejaVuSans-108"/>
      <use x="2153.544922" xlink:href="#DejaVuSans-105"/>
      <use x="2181.328125" xlink:href="#DejaVuSans-115"/>
      <use x="2233.427734" xlink:href="#DejaVuSans-116"/>
      <use x="2272.636719" xlink:href="#DejaVuSans-105"/>
      <use x="2300.419922" xlink:href="#DejaVuSans-110"/>
      <use x="2363.798828" xlink:href="#DejaVuSans-103"/>
     </g>
    </g>
    <g id="line2d_49">
     <path d="M 238.671875 254.242188 
L 258.671875 254.242188 
" style="fill:none;stroke:#ff0000;stroke-linecap:square;stroke-width:1.5;"/>
    </g>
    <g id="line2d_50"/>
    <g id="text_26">
     <!-- Reports Based Method -->
     <defs>
      <path d="M 44.390625 34.1875 
Q 47.5625 33.109375 50.5625 29.59375 
Q 53.5625 26.078125 56.59375 19.921875 
L 66.609375 0 
L 56 0 
L 46.6875 18.703125 
Q 43.0625 26.03125 39.671875 28.421875 
Q 36.28125 30.8125 30.421875 30.8125 
L 19.671875 30.8125 
L 19.671875 0 
L 9.8125 0 
L 9.8125 72.90625 
L 32.078125 72.90625 
Q 44.578125 72.90625 50.734375 67.671875 
Q 56.890625 62.453125 56.890625 51.90625 
Q 56.890625 45.015625 53.6875 40.46875 
Q 50.484375 35.9375 44.390625 34.1875 
z
M 19.671875 64.796875 
L 19.671875 38.921875 
L 32.078125 38.921875 
Q 39.203125 38.921875 42.84375 42.21875 
Q 46.484375 45.515625 46.484375 51.90625 
Q 46.484375 58.296875 42.84375 61.546875 
Q 39.203125 64.796875 32.078125 64.796875 
z
" id="DejaVuSans-82"/>
      <path d="M 18.109375 8.203125 
L 18.109375 -20.796875 
L 9.078125 -20.796875 
L 9.078125 54.6875 
L 18.109375 54.6875 
L 18.109375 46.390625 
Q 20.953125 51.265625 25.265625 53.625 
Q 29.59375 56 35.59375 56 
Q 45.5625 56 51.78125 48.09375 
Q 58.015625 40.1875 58.015625 27.296875 
Q 58.015625 14.40625 51.78125 6.484375 
Q 45.5625 -1.421875 35.59375 -1.421875 
Q 29.59375 -1.421875 25.265625 0.953125 
Q 20.953125 3.328125 18.109375 8.203125 
z
M 48.6875 27.296875 
Q 48.6875 37.203125 44.609375 42.84375 
Q 40.53125 48.484375 33.40625 48.484375 
Q 26.265625 48.484375 22.1875 42.84375 
Q 18.109375 37.203125 18.109375 27.296875 
Q 18.109375 17.390625 22.1875 11.75 
Q 26.265625 6.109375 33.40625 6.109375 
Q 40.53125 6.109375 44.609375 11.75 
Q 48.6875 17.390625 48.6875 27.296875 
z
" id="DejaVuSans-112"/>
     </defs>
     <g transform="translate(266.671875 257.742188)scale(0.1 -0.1)">
      <use xlink:href="#DejaVuSans-82"/>
      <use x="64.982422" xlink:href="#DejaVuSans-101"/>
      <use x="126.505859" xlink:href="#DejaVuSans-112"/>
      <use x="189.982422" xlink:href="#DejaVuSans-111"/>
      <use x="251.164062" xlink:href="#DejaVuSans-114"/>
      <use x="292.277344" xlink:href="#DejaVuSans-116"/>
      <use x="331.486328" xlink:href="#DejaVuSans-115"/>
      <use x="383.585938" xlink:href="#DejaVuSans-32"/>
      <use x="415.373047" xlink:href="#DejaVuSans-66"/>
      <use x="483.976562" xlink:href="#DejaVuSans-97"/>
      <use x="545.255859" xlink:href="#DejaVuSans-115"/>
      <use x="597.355469" xlink:href="#DejaVuSans-101"/>
      <use x="658.878906" xlink:href="#DejaVuSans-100"/>
      <use x="722.355469" xlink:href="#DejaVuSans-32"/>
      <use x="754.142578" xlink:href="#DejaVuSans-77"/>
      <use x="840.421875" xlink:href="#DejaVuSans-101"/>
      <use x="901.945312" xlink:href="#DejaVuSans-116"/>
      <use x="941.154297" xlink:href="#DejaVuSans-104"/>
      <use x="1004.533203" xlink:href="#DejaVuSans-111"/>
      <use x="1065.714844" xlink:href="#DejaVuSans-100"/>
     </g>
    </g>
    <g id="line2d_51">
     <path d="M 238.671875 268.920313 
L 258.671875 268.920313 
" style="fill:none;stroke:#000000;stroke-linecap:square;stroke-width:1.5;"/>
    </g>
    <g id="line2d_52"/>
    <g id="text_27">
     <!-- 10% Absolute Error -->
     <g transform="translate(266.671875 272.420313)scale(0.1 -0.1)">
      <use xlink:href="#DejaVuSans-49"/>
      <use x="63.623047" xlink:href="#DejaVuSans-48"/>
      <use x="127.246094" xlink:href="#DejaVuSans-37"/>
      <use x="222.265625" xlink:href="#DejaVuSans-32"/>
      <use x="254.052734" xlink:href="#DejaVuSans-65"/>
      <use x="322.460938" xlink:href="#DejaVuSans-98"/>
      <use x="385.9375" xlink:href="#DejaVuSans-115"/>
      <use x="438.037109" xlink:href="#DejaVuSans-111"/>
      <use x="499.21875" xlink:href="#DejaVuSans-108"/>
      <use x="527.001953" xlink:href="#DejaVuSans-117"/>
      <use x="590.380859" xlink:href="#DejaVuSans-116"/>
      <use x="629.589844" xlink:href="#DejaVuSans-101"/>
      <use x="691.113281" xlink:href="#DejaVuSans-32"/>
      <use x="722.900391" xlink:href="#DejaVuSans-69"/>
      <use x="786.083984" xlink:href="#DejaVuSans-114"/>
      <use x="825.447266" xlink:href="#DejaVuSans-114"/>
      <use x="864.310547" xlink:href="#DejaVuSans-111"/>
      <use x="925.492188" xlink:href="#DejaVuSans-114"/>
     </g>
    </g>
   </g>
  </g>
 </g>
 <defs>
  <clipPath id="p2483cb7399">
   <rect height="244.62" width="446.4" x="72" y="38.88"/>
  </clipPath>
 </defs>
</svg>
