<?xml version="1.0" encoding="utf-8" standalone="no"?>
<!DOCTYPE svg PUBLIC "-//W3C//DTD SVG 1.1//EN"
  "http://www.w3.org/Graphics/SVG/1.1/DTD/svg11.dtd">
<!-- Created with matplotlib (https://matplotlib.org/) -->
<svg height="432pt" version="1.1" viewBox="0 0 936 432" width="936pt" xmlns="http://www.w3.org/2000/svg" xmlns:xlink="http://www.w3.org/1999/xlink">
 <defs>
  <style type="text/css">
*{stroke-linecap:butt;stroke-linejoin:round;}
  </style>
 </defs>
 <g id="figure_1">
  <g id="patch_1">
   <path d="M 0 432 
L 936 432 
L 936 0 
L 0 0 
z
" style="fill:#ffffff;"/>
  </g>
  <g id="axes_1">
   <g id="patch_2">
    <path d="M 117 378 
L 842.4 378 
L 842.4 51.84 
L 117 51.84 
z
" style="fill:#ffffff;"/>
   </g>
   <g id="matplotlib.axis_1">
    <g id="xtick_1">
     <g id="line2d_1">
      <path clip-path="url(#p8e0e2e0a4d)" d="M 117 378 
L 117 51.84 
" style="fill:none;stroke:#b0b0b0;stroke-linecap:square;stroke-width:0.8;"/>
     </g>
     <g id="line2d_2">
      <defs>
       <path d="M 0 0 
L 0 3.5 
" id="mb0bf7fd49f" style="stroke:#000000;stroke-width:0.8;"/>
      </defs>
      <g>
       <use style="stroke:#000000;stroke-width:0.8;" x="117" xlink:href="#mb0bf7fd49f" y="378"/>
      </g>
     </g>
     <g id="text_1">
      <!-- 0 -->
      <defs>
       <path d="M 31.78125 66.40625 
Q 24.171875 66.40625 20.328125 58.90625 
Q 16.5 51.421875 16.5 36.375 
Q 16.5 21.390625 20.328125 13.890625 
Q 24.171875 6.390625 31.78125 6.390625 
Q 39.453125 6.390625 43.28125 13.890625 
Q 47.125 21.390625 47.125 36.375 
Q 47.125 51.421875 43.28125 58.90625 
Q 39.453125 66.40625 31.78125 66.40625 
z
M 31.78125 74.21875 
Q 44.046875 74.21875 50.515625 64.515625 
Q 56.984375 54.828125 56.984375 36.375 
Q 56.984375 17.96875 50.515625 8.265625 
Q 44.046875 -1.421875 31.78125 -1.421875 
Q 19.53125 -1.421875 13.0625 8.265625 
Q 6.59375 17.96875 6.59375 36.375 
Q 6.59375 54.828125 13.0625 64.515625 
Q 19.53125 74.21875 31.78125 74.21875 
z
" id="DejaVuSans-48"/>
      </defs>
      <g transform="translate(113.81875 392.598437)scale(0.1 -0.1)">
       <use xlink:href="#DejaVuSans-48"/>
      </g>
     </g>
    </g>
    <g id="xtick_2">
     <g id="line2d_3">
      <path clip-path="url(#p8e0e2e0a4d)" d="M 189.54 378 
L 189.54 51.84 
" style="fill:none;stroke:#b0b0b0;stroke-linecap:square;stroke-width:0.8;"/>
     </g>
     <g id="line2d_4">
      <g>
       <use style="stroke:#000000;stroke-width:0.8;" x="189.54" xlink:href="#mb0bf7fd49f" y="378"/>
      </g>
     </g>
     <g id="text_2">
      <!-- 5 -->
      <defs>
       <path d="M 10.796875 72.90625 
L 49.515625 72.90625 
L 49.515625 64.59375 
L 19.828125 64.59375 
L 19.828125 46.734375 
Q 21.96875 47.46875 24.109375 47.828125 
Q 26.265625 48.1875 28.421875 48.1875 
Q 40.625 48.1875 47.75 41.5 
Q 54.890625 34.8125 54.890625 23.390625 
Q 54.890625 11.625 47.5625 5.09375 
Q 40.234375 -1.421875 26.90625 -1.421875 
Q 22.3125 -1.421875 17.546875 -0.640625 
Q 12.796875 0.140625 7.71875 1.703125 
L 7.71875 11.625 
Q 12.109375 9.234375 16.796875 8.0625 
Q 21.484375 6.890625 26.703125 6.890625 
Q 35.15625 6.890625 40.078125 11.328125 
Q 45.015625 15.765625 45.015625 23.390625 
Q 45.015625 31 40.078125 35.4375 
Q 35.15625 39.890625 26.703125 39.890625 
Q 22.75 39.890625 18.8125 39.015625 
Q 14.890625 38.140625 10.796875 36.28125 
z
" id="DejaVuSans-53"/>
      </defs>
      <g transform="translate(186.35875 392.598437)scale(0.1 -0.1)">
       <use xlink:href="#DejaVuSans-53"/>
      </g>
     </g>
    </g>
    <g id="xtick_3">
     <g id="line2d_5">
      <path clip-path="url(#p8e0e2e0a4d)" d="M 262.08 378 
L 262.08 51.84 
" style="fill:none;stroke:#b0b0b0;stroke-linecap:square;stroke-width:0.8;"/>
     </g>
     <g id="line2d_6">
      <g>
       <use style="stroke:#000000;stroke-width:0.8;" x="262.08" xlink:href="#mb0bf7fd49f" y="378"/>
      </g>
     </g>
     <g id="text_3">
      <!-- 10 -->
      <defs>
       <path d="M 12.40625 8.296875 
L 28.515625 8.296875 
L 28.515625 63.921875 
L 10.984375 60.40625 
L 10.984375 69.390625 
L 28.421875 72.90625 
L 38.28125 72.90625 
L 38.28125 8.296875 
L 54.390625 8.296875 
L 54.390625 0 
L 12.40625 0 
z
" id="DejaVuSans-49"/>
      </defs>
      <g transform="translate(255.7175 392.598437)scale(0.1 -0.1)">
       <use xlink:href="#DejaVuSans-49"/>
       <use x="63.623047" xlink:href="#DejaVuSans-48"/>
      </g>
     </g>
    </g>
    <g id="xtick_4">
     <g id="line2d_7">
      <path clip-path="url(#p8e0e2e0a4d)" d="M 334.62 378 
L 334.62 51.84 
" style="fill:none;stroke:#b0b0b0;stroke-linecap:square;stroke-width:0.8;"/>
     </g>
     <g id="line2d_8">
      <g>
       <use style="stroke:#000000;stroke-width:0.8;" x="334.62" xlink:href="#mb0bf7fd49f" y="378"/>
      </g>
     </g>
     <g id="text_4">
      <!-- 15 -->
      <g transform="translate(328.2575 392.598437)scale(0.1 -0.1)">
       <use xlink:href="#DejaVuSans-49"/>
       <use x="63.623047" xlink:href="#DejaVuSans-53"/>
      </g>
     </g>
    </g>
    <g id="xtick_5">
     <g id="line2d_9">
      <path clip-path="url(#p8e0e2e0a4d)" d="M 407.16 378 
L 407.16 51.84 
" style="fill:none;stroke:#b0b0b0;stroke-linecap:square;stroke-width:0.8;"/>
     </g>
     <g id="line2d_10">
      <g>
       <use style="stroke:#000000;stroke-width:0.8;" x="407.16" xlink:href="#mb0bf7fd49f" y="378"/>
      </g>
     </g>
     <g id="text_5">
      <!-- 20 -->
      <defs>
       <path d="M 19.1875 8.296875 
L 53.609375 8.296875 
L 53.609375 0 
L 7.328125 0 
L 7.328125 8.296875 
Q 12.9375 14.109375 22.625 23.890625 
Q 32.328125 33.6875 34.8125 36.53125 
Q 39.546875 41.84375 41.421875 45.53125 
Q 43.3125 49.21875 43.3125 52.78125 
Q 43.3125 58.59375 39.234375 62.25 
Q 35.15625 65.921875 28.609375 65.921875 
Q 23.96875 65.921875 18.8125 64.3125 
Q 13.671875 62.703125 7.8125 59.421875 
L 7.8125 69.390625 
Q 13.765625 71.78125 18.9375 73 
Q 24.125 74.21875 28.421875 74.21875 
Q 39.75 74.21875 46.484375 68.546875 
Q 53.21875 62.890625 53.21875 53.421875 
Q 53.21875 48.921875 51.53125 44.890625 
Q 49.859375 40.875 45.40625 35.40625 
Q 44.1875 33.984375 37.640625 27.21875 
Q 31.109375 20.453125 19.1875 8.296875 
z
" id="DejaVuSans-50"/>
      </defs>
      <g transform="translate(400.7975 392.598437)scale(0.1 -0.1)">
       <use xlink:href="#DejaVuSans-50"/>
       <use x="63.623047" xlink:href="#DejaVuSans-48"/>
      </g>
     </g>
    </g>
    <g id="xtick_6">
     <g id="line2d_11">
      <path clip-path="url(#p8e0e2e0a4d)" d="M 479.7 378 
L 479.7 51.84 
" style="fill:none;stroke:#b0b0b0;stroke-linecap:square;stroke-width:0.8;"/>
     </g>
     <g id="line2d_12">
      <g>
       <use style="stroke:#000000;stroke-width:0.8;" x="479.7" xlink:href="#mb0bf7fd49f" y="378"/>
      </g>
     </g>
     <g id="text_6">
      <!-- 25 -->
      <g transform="translate(473.3375 392.598437)scale(0.1 -0.1)">
       <use xlink:href="#DejaVuSans-50"/>
       <use x="63.623047" xlink:href="#DejaVuSans-53"/>
      </g>
     </g>
    </g>
    <g id="xtick_7">
     <g id="line2d_13">
      <path clip-path="url(#p8e0e2e0a4d)" d="M 552.24 378 
L 552.24 51.84 
" style="fill:none;stroke:#b0b0b0;stroke-linecap:square;stroke-width:0.8;"/>
     </g>
     <g id="line2d_14">
      <g>
       <use style="stroke:#000000;stroke-width:0.8;" x="552.24" xlink:href="#mb0bf7fd49f" y="378"/>
      </g>
     </g>
     <g id="text_7">
      <!-- 30 -->
      <defs>
       <path d="M 40.578125 39.3125 
Q 47.65625 37.796875 51.625 33 
Q 55.609375 28.21875 55.609375 21.1875 
Q 55.609375 10.40625 48.1875 4.484375 
Q 40.765625 -1.421875 27.09375 -1.421875 
Q 22.515625 -1.421875 17.65625 -0.515625 
Q 12.796875 0.390625 7.625 2.203125 
L 7.625 11.71875 
Q 11.71875 9.328125 16.59375 8.109375 
Q 21.484375 6.890625 26.8125 6.890625 
Q 36.078125 6.890625 40.9375 10.546875 
Q 45.796875 14.203125 45.796875 21.1875 
Q 45.796875 27.640625 41.28125 31.265625 
Q 36.765625 34.90625 28.71875 34.90625 
L 20.21875 34.90625 
L 20.21875 43.015625 
L 29.109375 43.015625 
Q 36.375 43.015625 40.234375 45.921875 
Q 44.09375 48.828125 44.09375 54.296875 
Q 44.09375 59.90625 40.109375 62.90625 
Q 36.140625 65.921875 28.71875 65.921875 
Q 24.65625 65.921875 20.015625 65.03125 
Q 15.375 64.15625 9.8125 62.3125 
L 9.8125 71.09375 
Q 15.4375 72.65625 20.34375 73.4375 
Q 25.25 74.21875 29.59375 74.21875 
Q 40.828125 74.21875 47.359375 69.109375 
Q 53.90625 64.015625 53.90625 55.328125 
Q 53.90625 49.265625 50.4375 45.09375 
Q 46.96875 40.921875 40.578125 39.3125 
z
" id="DejaVuSans-51"/>
      </defs>
      <g transform="translate(545.8775 392.598437)scale(0.1 -0.1)">
       <use xlink:href="#DejaVuSans-51"/>
       <use x="63.623047" xlink:href="#DejaVuSans-48"/>
      </g>
     </g>
    </g>
    <g id="xtick_8">
     <g id="line2d_15">
      <path clip-path="url(#p8e0e2e0a4d)" d="M 624.78 378 
L 624.78 51.84 
" style="fill:none;stroke:#b0b0b0;stroke-linecap:square;stroke-width:0.8;"/>
     </g>
     <g id="line2d_16">
      <g>
       <use style="stroke:#000000;stroke-width:0.8;" x="624.78" xlink:href="#mb0bf7fd49f" y="378"/>
      </g>
     </g>
     <g id="text_8">
      <!-- 35 -->
      <g transform="translate(618.4175 392.598437)scale(0.1 -0.1)">
       <use xlink:href="#DejaVuSans-51"/>
       <use x="63.623047" xlink:href="#DejaVuSans-53"/>
      </g>
     </g>
    </g>
    <g id="xtick_9">
     <g id="line2d_17">
      <path clip-path="url(#p8e0e2e0a4d)" d="M 697.32 378 
L 697.32 51.84 
" style="fill:none;stroke:#b0b0b0;stroke-linecap:square;stroke-width:0.8;"/>
     </g>
     <g id="line2d_18">
      <g>
       <use style="stroke:#000000;stroke-width:0.8;" x="697.32" xlink:href="#mb0bf7fd49f" y="378"/>
      </g>
     </g>
     <g id="text_9">
      <!-- 40 -->
      <defs>
       <path d="M 37.796875 64.3125 
L 12.890625 25.390625 
L 37.796875 25.390625 
z
M 35.203125 72.90625 
L 47.609375 72.90625 
L 47.609375 25.390625 
L 58.015625 25.390625 
L 58.015625 17.1875 
L 47.609375 17.1875 
L 47.609375 0 
L 37.796875 0 
L 37.796875 17.1875 
L 4.890625 17.1875 
L 4.890625 26.703125 
z
" id="DejaVuSans-52"/>
      </defs>
      <g transform="translate(690.9575 392.598437)scale(0.1 -0.1)">
       <use xlink:href="#DejaVuSans-52"/>
       <use x="63.623047" xlink:href="#DejaVuSans-48"/>
      </g>
     </g>
    </g>
    <g id="xtick_10">
     <g id="line2d_19">
      <path clip-path="url(#p8e0e2e0a4d)" d="M 769.86 378 
L 769.86 51.84 
" style="fill:none;stroke:#b0b0b0;stroke-linecap:square;stroke-width:0.8;"/>
     </g>
     <g id="line2d_20">
      <g>
       <use style="stroke:#000000;stroke-width:0.8;" x="769.86" xlink:href="#mb0bf7fd49f" y="378"/>
      </g>
     </g>
     <g id="text_10">
      <!-- 45 -->
      <g transform="translate(763.4975 392.598437)scale(0.1 -0.1)">
       <use xlink:href="#DejaVuSans-52"/>
       <use x="63.623047" xlink:href="#DejaVuSans-53"/>
      </g>
     </g>
    </g>
    <g id="text_11">
     <!-- Absolute Error in Accuracy(%) Estimation -->
     <defs>
      <path d="M 34.1875 63.1875 
L 20.796875 26.90625 
L 47.609375 26.90625 
z
M 28.609375 72.90625 
L 39.796875 72.90625 
L 67.578125 0 
L 57.328125 0 
L 50.6875 18.703125 
L 17.828125 18.703125 
L 11.1875 0 
L 0.78125 0 
z
" id="DejaVuSans-65"/>
      <path d="M 48.6875 27.296875 
Q 48.6875 37.203125 44.609375 42.84375 
Q 40.53125 48.484375 33.40625 48.484375 
Q 26.265625 48.484375 22.1875 42.84375 
Q 18.109375 37.203125 18.109375 27.296875 
Q 18.109375 17.390625 22.1875 11.75 
Q 26.265625 6.109375 33.40625 6.109375 
Q 40.53125 6.109375 44.609375 11.75 
Q 48.6875 17.390625 48.6875 27.296875 
z
M 18.109375 46.390625 
Q 20.953125 51.265625 25.265625 53.625 
Q 29.59375 56 35.59375 56 
Q 45.5625 56 51.78125 48.09375 
Q 58.015625 40.1875 58.015625 27.296875 
Q 58.015625 14.40625 51.78125 6.484375 
Q 45.5625 -1.421875 35.59375 -1.421875 
Q 29.59375 -1.421875 25.265625 0.953125 
Q 20.953125 3.328125 18.109375 8.203125 
L 18.109375 0 
L 9.078125 0 
L 9.078125 75.984375 
L 18.109375 75.984375 
z
" id="DejaVuSans-98"/>
      <path d="M 44.28125 53.078125 
L 44.28125 44.578125 
Q 40.484375 46.53125 36.375 47.5 
Q 32.28125 48.484375 27.875 48.484375 
Q 21.1875 48.484375 17.84375 46.4375 
Q 14.5 44.390625 14.5 40.28125 
Q 14.5 37.15625 16.890625 35.375 
Q 19.28125 33.59375 26.515625 31.984375 
L 29.59375 31.296875 
Q 39.15625 29.25 43.1875 25.515625 
Q 47.21875 21.78125 47.21875 15.09375 
Q 47.21875 7.46875 41.1875 3.015625 
Q 35.15625 -1.421875 24.609375 -1.421875 
Q 20.21875 -1.421875 15.453125 -0.5625 
Q 10.6875 0.296875 5.421875 2 
L 5.421875 11.28125 
Q 10.40625 8.6875 15.234375 7.390625 
Q 20.0625 6.109375 24.8125 6.109375 
Q 31.15625 6.109375 34.5625 8.28125 
Q 37.984375 10.453125 37.984375 14.40625 
Q 37.984375 18.0625 35.515625 20.015625 
Q 33.0625 21.96875 24.703125 23.78125 
L 21.578125 24.515625 
Q 13.234375 26.265625 9.515625 29.90625 
Q 5.8125 33.546875 5.8125 39.890625 
Q 5.8125 47.609375 11.28125 51.796875 
Q 16.75 56 26.8125 56 
Q 31.78125 56 36.171875 55.265625 
Q 40.578125 54.546875 44.28125 53.078125 
z
" id="DejaVuSans-115"/>
      <path d="M 30.609375 48.390625 
Q 23.390625 48.390625 19.1875 42.75 
Q 14.984375 37.109375 14.984375 27.296875 
Q 14.984375 17.484375 19.15625 11.84375 
Q 23.34375 6.203125 30.609375 6.203125 
Q 37.796875 6.203125 41.984375 11.859375 
Q 46.1875 17.53125 46.1875 27.296875 
Q 46.1875 37.015625 41.984375 42.703125 
Q 37.796875 48.390625 30.609375 48.390625 
z
M 30.609375 56 
Q 42.328125 56 49.015625 48.375 
Q 55.71875 40.765625 55.71875 27.296875 
Q 55.71875 13.875 49.015625 6.21875 
Q 42.328125 -1.421875 30.609375 -1.421875 
Q 18.84375 -1.421875 12.171875 6.21875 
Q 5.515625 13.875 5.515625 27.296875 
Q 5.515625 40.765625 12.171875 48.375 
Q 18.84375 56 30.609375 56 
z
" id="DejaVuSans-111"/>
      <path d="M 9.421875 75.984375 
L 18.40625 75.984375 
L 18.40625 0 
L 9.421875 0 
z
" id="DejaVuSans-108"/>
      <path d="M 8.5 21.578125 
L 8.5 54.6875 
L 17.484375 54.6875 
L 17.484375 21.921875 
Q 17.484375 14.15625 20.5 10.265625 
Q 23.53125 6.390625 29.59375 6.390625 
Q 36.859375 6.390625 41.078125 11.03125 
Q 45.3125 15.671875 45.3125 23.6875 
L 45.3125 54.6875 
L 54.296875 54.6875 
L 54.296875 0 
L 45.3125 0 
L 45.3125 8.40625 
Q 42.046875 3.421875 37.71875 1 
Q 33.40625 -1.421875 27.6875 -1.421875 
Q 18.265625 -1.421875 13.375 4.4375 
Q 8.5 10.296875 8.5 21.578125 
z
M 31.109375 56 
z
" id="DejaVuSans-117"/>
      <path d="M 18.3125 70.21875 
L 18.3125 54.6875 
L 36.8125 54.6875 
L 36.8125 47.703125 
L 18.3125 47.703125 
L 18.3125 18.015625 
Q 18.3125 11.328125 20.140625 9.421875 
Q 21.96875 7.515625 27.59375 7.515625 
L 36.8125 7.515625 
L 36.8125 0 
L 27.59375 0 
Q 17.1875 0 13.234375 3.875 
Q 9.28125 7.765625 9.28125 18.015625 
L 9.28125 47.703125 
L 2.6875 47.703125 
L 2.6875 54.6875 
L 9.28125 54.6875 
L 9.28125 70.21875 
z
" id="DejaVuSans-116"/>
      <path d="M 56.203125 29.59375 
L 56.203125 25.203125 
L 14.890625 25.203125 
Q 15.484375 15.921875 20.484375 11.0625 
Q 25.484375 6.203125 34.421875 6.203125 
Q 39.59375 6.203125 44.453125 7.46875 
Q 49.3125 8.734375 54.109375 11.28125 
L 54.109375 2.78125 
Q 49.265625 0.734375 44.1875 -0.34375 
Q 39.109375 -1.421875 33.890625 -1.421875 
Q 20.796875 -1.421875 13.15625 6.1875 
Q 5.515625 13.8125 5.515625 26.8125 
Q 5.515625 40.234375 12.765625 48.109375 
Q 20.015625 56 32.328125 56 
Q 43.359375 56 49.78125 48.890625 
Q 56.203125 41.796875 56.203125 29.59375 
z
M 47.21875 32.234375 
Q 47.125 39.59375 43.09375 43.984375 
Q 39.0625 48.390625 32.421875 48.390625 
Q 24.90625 48.390625 20.390625 44.140625 
Q 15.875 39.890625 15.1875 32.171875 
z
" id="DejaVuSans-101"/>
      <path id="DejaVuSans-32"/>
      <path d="M 9.8125 72.90625 
L 55.90625 72.90625 
L 55.90625 64.59375 
L 19.671875 64.59375 
L 19.671875 43.015625 
L 54.390625 43.015625 
L 54.390625 34.71875 
L 19.671875 34.71875 
L 19.671875 8.296875 
L 56.78125 8.296875 
L 56.78125 0 
L 9.8125 0 
z
" id="DejaVuSans-69"/>
      <path d="M 41.109375 46.296875 
Q 39.59375 47.171875 37.8125 47.578125 
Q 36.03125 48 33.890625 48 
Q 26.265625 48 22.1875 43.046875 
Q 18.109375 38.09375 18.109375 28.8125 
L 18.109375 0 
L 9.078125 0 
L 9.078125 54.6875 
L 18.109375 54.6875 
L 18.109375 46.1875 
Q 20.953125 51.171875 25.484375 53.578125 
Q 30.03125 56 36.53125 56 
Q 37.453125 56 38.578125 55.875 
Q 39.703125 55.765625 41.0625 55.515625 
z
" id="DejaVuSans-114"/>
      <path d="M 9.421875 54.6875 
L 18.40625 54.6875 
L 18.40625 0 
L 9.421875 0 
z
M 9.421875 75.984375 
L 18.40625 75.984375 
L 18.40625 64.59375 
L 9.421875 64.59375 
z
" id="DejaVuSans-105"/>
      <path d="M 54.890625 33.015625 
L 54.890625 0 
L 45.90625 0 
L 45.90625 32.71875 
Q 45.90625 40.484375 42.875 44.328125 
Q 39.84375 48.1875 33.796875 48.1875 
Q 26.515625 48.1875 22.3125 43.546875 
Q 18.109375 38.921875 18.109375 30.90625 
L 18.109375 0 
L 9.078125 0 
L 9.078125 54.6875 
L 18.109375 54.6875 
L 18.109375 46.1875 
Q 21.34375 51.125 25.703125 53.5625 
Q 30.078125 56 35.796875 56 
Q 45.21875 56 50.046875 50.171875 
Q 54.890625 44.34375 54.890625 33.015625 
z
" id="DejaVuSans-110"/>
      <path d="M 48.78125 52.59375 
L 48.78125 44.1875 
Q 44.96875 46.296875 41.140625 47.34375 
Q 37.3125 48.390625 33.40625 48.390625 
Q 24.65625 48.390625 19.8125 42.84375 
Q 14.984375 37.3125 14.984375 27.296875 
Q 14.984375 17.28125 19.8125 11.734375 
Q 24.65625 6.203125 33.40625 6.203125 
Q 37.3125 6.203125 41.140625 7.25 
Q 44.96875 8.296875 48.78125 10.40625 
L 48.78125 2.09375 
Q 45.015625 0.34375 40.984375 -0.53125 
Q 36.96875 -1.421875 32.421875 -1.421875 
Q 20.0625 -1.421875 12.78125 6.34375 
Q 5.515625 14.109375 5.515625 27.296875 
Q 5.515625 40.671875 12.859375 48.328125 
Q 20.21875 56 33.015625 56 
Q 37.15625 56 41.109375 55.140625 
Q 45.0625 54.296875 48.78125 52.59375 
z
" id="DejaVuSans-99"/>
      <path d="M 34.28125 27.484375 
Q 23.390625 27.484375 19.1875 25 
Q 14.984375 22.515625 14.984375 16.5 
Q 14.984375 11.71875 18.140625 8.90625 
Q 21.296875 6.109375 26.703125 6.109375 
Q 34.1875 6.109375 38.703125 11.40625 
Q 43.21875 16.703125 43.21875 25.484375 
L 43.21875 27.484375 
z
M 52.203125 31.203125 
L 52.203125 0 
L 43.21875 0 
L 43.21875 8.296875 
Q 40.140625 3.328125 35.546875 0.953125 
Q 30.953125 -1.421875 24.3125 -1.421875 
Q 15.921875 -1.421875 10.953125 3.296875 
Q 6 8.015625 6 15.921875 
Q 6 25.140625 12.171875 29.828125 
Q 18.359375 34.515625 30.609375 34.515625 
L 43.21875 34.515625 
L 43.21875 35.40625 
Q 43.21875 41.609375 39.140625 45 
Q 35.0625 48.390625 27.6875 48.390625 
Q 23 48.390625 18.546875 47.265625 
Q 14.109375 46.140625 10.015625 43.890625 
L 10.015625 52.203125 
Q 14.9375 54.109375 19.578125 55.046875 
Q 24.21875 56 28.609375 56 
Q 40.484375 56 46.34375 49.84375 
Q 52.203125 43.703125 52.203125 31.203125 
z
" id="DejaVuSans-97"/>
      <path d="M 32.171875 -5.078125 
Q 28.375 -14.84375 24.75 -17.8125 
Q 21.140625 -20.796875 15.09375 -20.796875 
L 7.90625 -20.796875 
L 7.90625 -13.28125 
L 13.1875 -13.28125 
Q 16.890625 -13.28125 18.9375 -11.515625 
Q 21 -9.765625 23.484375 -3.21875 
L 25.09375 0.875 
L 2.984375 54.6875 
L 12.5 54.6875 
L 29.59375 11.921875 
L 46.6875 54.6875 
L 56.203125 54.6875 
z
" id="DejaVuSans-121"/>
      <path d="M 31 75.875 
Q 24.46875 64.65625 21.28125 53.65625 
Q 18.109375 42.671875 18.109375 31.390625 
Q 18.109375 20.125 21.3125 9.0625 
Q 24.515625 -2 31 -13.1875 
L 23.1875 -13.1875 
Q 15.875 -1.703125 12.234375 9.375 
Q 8.59375 20.453125 8.59375 31.390625 
Q 8.59375 42.28125 12.203125 53.3125 
Q 15.828125 64.359375 23.1875 75.875 
z
" id="DejaVuSans-40"/>
      <path d="M 72.703125 32.078125 
Q 68.453125 32.078125 66.03125 28.46875 
Q 63.625 24.859375 63.625 18.40625 
Q 63.625 12.0625 66.03125 8.421875 
Q 68.453125 4.78125 72.703125 4.78125 
Q 76.859375 4.78125 79.265625 8.421875 
Q 81.6875 12.0625 81.6875 18.40625 
Q 81.6875 24.8125 79.265625 28.4375 
Q 76.859375 32.078125 72.703125 32.078125 
z
M 72.703125 38.28125 
Q 80.421875 38.28125 84.953125 32.90625 
Q 89.5 27.546875 89.5 18.40625 
Q 89.5 9.28125 84.9375 3.921875 
Q 80.375 -1.421875 72.703125 -1.421875 
Q 64.890625 -1.421875 60.34375 3.921875 
Q 55.8125 9.28125 55.8125 18.40625 
Q 55.8125 27.59375 60.375 32.9375 
Q 64.9375 38.28125 72.703125 38.28125 
z
M 22.3125 68.015625 
Q 18.109375 68.015625 15.6875 64.375 
Q 13.28125 60.75 13.28125 54.390625 
Q 13.28125 47.953125 15.671875 44.328125 
Q 18.0625 40.71875 22.3125 40.71875 
Q 26.5625 40.71875 28.96875 44.328125 
Q 31.390625 47.953125 31.390625 54.390625 
Q 31.390625 60.6875 28.953125 64.34375 
Q 26.515625 68.015625 22.3125 68.015625 
z
M 66.40625 74.21875 
L 74.21875 74.21875 
L 28.609375 -1.421875 
L 20.796875 -1.421875 
z
M 22.3125 74.21875 
Q 30.03125 74.21875 34.609375 68.875 
Q 39.203125 63.53125 39.203125 54.390625 
Q 39.203125 45.171875 34.640625 39.84375 
Q 30.078125 34.515625 22.3125 34.515625 
Q 14.546875 34.515625 10.03125 39.859375 
Q 5.515625 45.21875 5.515625 54.390625 
Q 5.515625 63.484375 10.046875 68.84375 
Q 14.59375 74.21875 22.3125 74.21875 
z
" id="DejaVuSans-37"/>
      <path d="M 8.015625 75.875 
L 15.828125 75.875 
Q 23.140625 64.359375 26.78125 53.3125 
Q 30.421875 42.28125 30.421875 31.390625 
Q 30.421875 20.453125 26.78125 9.375 
Q 23.140625 -1.703125 15.828125 -13.1875 
L 8.015625 -13.1875 
Q 14.5 -2 17.703125 9.0625 
Q 20.90625 20.125 20.90625 31.390625 
Q 20.90625 42.671875 17.703125 53.65625 
Q 14.5 64.65625 8.015625 75.875 
z
" id="DejaVuSans-41"/>
      <path d="M 52 44.1875 
Q 55.375 50.25 60.0625 53.125 
Q 64.75 56 71.09375 56 
Q 79.640625 56 84.28125 50.015625 
Q 88.921875 44.046875 88.921875 33.015625 
L 88.921875 0 
L 79.890625 0 
L 79.890625 32.71875 
Q 79.890625 40.578125 77.09375 44.375 
Q 74.3125 48.1875 68.609375 48.1875 
Q 61.625 48.1875 57.5625 43.546875 
Q 53.515625 38.921875 53.515625 30.90625 
L 53.515625 0 
L 44.484375 0 
L 44.484375 32.71875 
Q 44.484375 40.625 41.703125 44.40625 
Q 38.921875 48.1875 33.109375 48.1875 
Q 26.21875 48.1875 22.15625 43.53125 
Q 18.109375 38.875 18.109375 30.90625 
L 18.109375 0 
L 9.078125 0 
L 9.078125 54.6875 
L 18.109375 54.6875 
L 18.109375 46.1875 
Q 21.1875 51.21875 25.484375 53.609375 
Q 29.78125 56 35.6875 56 
Q 41.65625 56 45.828125 52.96875 
Q 50 49.953125 52 44.1875 
z
" id="DejaVuSans-109"/>
     </defs>
     <g transform="translate(376.642187 406.276563)scale(0.1 -0.1)">
      <use xlink:href="#DejaVuSans-65"/>
      <use x="68.408203" xlink:href="#DejaVuSans-98"/>
      <use x="131.884766" xlink:href="#DejaVuSans-115"/>
      <use x="183.984375" xlink:href="#DejaVuSans-111"/>
      <use x="245.166016" xlink:href="#DejaVuSans-108"/>
      <use x="272.949219" xlink:href="#DejaVuSans-117"/>
      <use x="336.328125" xlink:href="#DejaVuSans-116"/>
      <use x="375.537109" xlink:href="#DejaVuSans-101"/>
      <use x="437.060547" xlink:href="#DejaVuSans-32"/>
      <use x="468.847656" xlink:href="#DejaVuSans-69"/>
      <use x="532.03125" xlink:href="#DejaVuSans-114"/>
      <use x="571.394531" xlink:href="#DejaVuSans-114"/>
      <use x="610.257812" xlink:href="#DejaVuSans-111"/>
      <use x="671.439453" xlink:href="#DejaVuSans-114"/>
      <use x="712.552734" xlink:href="#DejaVuSans-32"/>
      <use x="744.339844" xlink:href="#DejaVuSans-105"/>
      <use x="772.123047" xlink:href="#DejaVuSans-110"/>
      <use x="835.501953" xlink:href="#DejaVuSans-32"/>
      <use x="867.289062" xlink:href="#DejaVuSans-65"/>
      <use x="933.947266" xlink:href="#DejaVuSans-99"/>
      <use x="988.927734" xlink:href="#DejaVuSans-99"/>
      <use x="1043.908203" xlink:href="#DejaVuSans-117"/>
      <use x="1107.287109" xlink:href="#DejaVuSans-114"/>
      <use x="1148.400391" xlink:href="#DejaVuSans-97"/>
      <use x="1209.679688" xlink:href="#DejaVuSans-99"/>
      <use x="1264.660156" xlink:href="#DejaVuSans-121"/>
      <use x="1323.839844" xlink:href="#DejaVuSans-40"/>
      <use x="1362.853516" xlink:href="#DejaVuSans-37"/>
      <use x="1457.873047" xlink:href="#DejaVuSans-41"/>
      <use x="1496.886719" xlink:href="#DejaVuSans-32"/>
      <use x="1528.673828" xlink:href="#DejaVuSans-69"/>
      <use x="1591.857422" xlink:href="#DejaVuSans-115"/>
      <use x="1643.957031" xlink:href="#DejaVuSans-116"/>
      <use x="1683.166016" xlink:href="#DejaVuSans-105"/>
      <use x="1710.949219" xlink:href="#DejaVuSans-109"/>
      <use x="1808.361328" xlink:href="#DejaVuSans-97"/>
      <use x="1869.640625" xlink:href="#DejaVuSans-116"/>
      <use x="1908.849609" xlink:href="#DejaVuSans-105"/>
      <use x="1936.632812" xlink:href="#DejaVuSans-111"/>
      <use x="1997.814453" xlink:href="#DejaVuSans-110"/>
     </g>
    </g>
   </g>
   <g id="matplotlib.axis_2">
    <g id="ytick_1">
     <g id="line2d_21">
      <path clip-path="url(#p8e0e2e0a4d)" d="M 117 378 
L 842.4 378 
" style="fill:none;stroke:#b0b0b0;stroke-linecap:square;stroke-width:0.8;"/>
     </g>
     <g id="line2d_22">
      <defs>
       <path d="M 0 0 
L -3.5 0 
" id="ma52192c8f7" style="stroke:#000000;stroke-width:0.8;"/>
      </defs>
      <g>
       <use style="stroke:#000000;stroke-width:0.8;" x="117" xlink:href="#ma52192c8f7" y="378"/>
      </g>
     </g>
     <g id="text_12">
      <!-- 0 -->
      <g transform="translate(103.6375 381.799219)scale(0.1 -0.1)">
       <use xlink:href="#DejaVuSans-48"/>
      </g>
     </g>
    </g>
    <g id="ytick_2">
     <g id="line2d_23">
      <path clip-path="url(#p8e0e2e0a4d)" d="M 117 345.384 
L 842.4 345.384 
" style="fill:none;stroke:#b0b0b0;stroke-linecap:square;stroke-width:0.8;"/>
     </g>
     <g id="line2d_24">
      <g>
       <use style="stroke:#000000;stroke-width:0.8;" x="117" xlink:href="#ma52192c8f7" y="345.384"/>
      </g>
     </g>
     <g id="text_13">
      <!-- 10 -->
      <g transform="translate(97.275 349.183219)scale(0.1 -0.1)">
       <use xlink:href="#DejaVuSans-49"/>
       <use x="63.623047" xlink:href="#DejaVuSans-48"/>
      </g>
     </g>
    </g>
    <g id="ytick_3">
     <g id="line2d_25">
      <path clip-path="url(#p8e0e2e0a4d)" d="M 117 312.768 
L 842.4 312.768 
" style="fill:none;stroke:#b0b0b0;stroke-linecap:square;stroke-width:0.8;"/>
     </g>
     <g id="line2d_26">
      <g>
       <use style="stroke:#000000;stroke-width:0.8;" x="117" xlink:href="#ma52192c8f7" y="312.768"/>
      </g>
     </g>
     <g id="text_14">
      <!-- 20 -->
      <g transform="translate(97.275 316.567219)scale(0.1 -0.1)">
       <use xlink:href="#DejaVuSans-50"/>
       <use x="63.623047" xlink:href="#DejaVuSans-48"/>
      </g>
     </g>
    </g>
    <g id="ytick_4">
     <g id="line2d_27">
      <path clip-path="url(#p8e0e2e0a4d)" d="M 117 280.152 
L 842.4 280.152 
" style="fill:none;stroke:#b0b0b0;stroke-linecap:square;stroke-width:0.8;"/>
     </g>
     <g id="line2d_28">
      <g>
       <use style="stroke:#000000;stroke-width:0.8;" x="117" xlink:href="#ma52192c8f7" y="280.152"/>
      </g>
     </g>
     <g id="text_15">
      <!-- 30 -->
      <g transform="translate(97.275 283.951219)scale(0.1 -0.1)">
       <use xlink:href="#DejaVuSans-51"/>
       <use x="63.623047" xlink:href="#DejaVuSans-48"/>
      </g>
     </g>
    </g>
    <g id="ytick_5">
     <g id="line2d_29">
      <path clip-path="url(#p8e0e2e0a4d)" d="M 117 247.536 
L 842.4 247.536 
" style="fill:none;stroke:#b0b0b0;stroke-linecap:square;stroke-width:0.8;"/>
     </g>
     <g id="line2d_30">
      <g>
       <use style="stroke:#000000;stroke-width:0.8;" x="117" xlink:href="#ma52192c8f7" y="247.536"/>
      </g>
     </g>
     <g id="text_16">
      <!-- 40 -->
      <g transform="translate(97.275 251.335219)scale(0.1 -0.1)">
       <use xlink:href="#DejaVuSans-52"/>
       <use x="63.623047" xlink:href="#DejaVuSans-48"/>
      </g>
     </g>
    </g>
    <g id="ytick_6">
     <g id="line2d_31">
      <path clip-path="url(#p8e0e2e0a4d)" d="M 117 214.92 
L 842.4 214.92 
" style="fill:none;stroke:#b0b0b0;stroke-linecap:square;stroke-width:0.8;"/>
     </g>
     <g id="line2d_32">
      <g>
       <use style="stroke:#000000;stroke-width:0.8;" x="117" xlink:href="#ma52192c8f7" y="214.92"/>
      </g>
     </g>
     <g id="text_17">
      <!-- 50 -->
      <g transform="translate(97.275 218.719219)scale(0.1 -0.1)">
       <use xlink:href="#DejaVuSans-53"/>
       <use x="63.623047" xlink:href="#DejaVuSans-48"/>
      </g>
     </g>
    </g>
    <g id="ytick_7">
     <g id="line2d_33">
      <path clip-path="url(#p8e0e2e0a4d)" d="M 117 182.304 
L 842.4 182.304 
" style="fill:none;stroke:#b0b0b0;stroke-linecap:square;stroke-width:0.8;"/>
     </g>
     <g id="line2d_34">
      <g>
       <use style="stroke:#000000;stroke-width:0.8;" x="117" xlink:href="#ma52192c8f7" y="182.304"/>
      </g>
     </g>
     <g id="text_18">
      <!-- 60 -->
      <defs>
       <path d="M 33.015625 40.375 
Q 26.375 40.375 22.484375 35.828125 
Q 18.609375 31.296875 18.609375 23.390625 
Q 18.609375 15.53125 22.484375 10.953125 
Q 26.375 6.390625 33.015625 6.390625 
Q 39.65625 6.390625 43.53125 10.953125 
Q 47.40625 15.53125 47.40625 23.390625 
Q 47.40625 31.296875 43.53125 35.828125 
Q 39.65625 40.375 33.015625 40.375 
z
M 52.59375 71.296875 
L 52.59375 62.3125 
Q 48.875 64.0625 45.09375 64.984375 
Q 41.3125 65.921875 37.59375 65.921875 
Q 27.828125 65.921875 22.671875 59.328125 
Q 17.53125 52.734375 16.796875 39.40625 
Q 19.671875 43.65625 24.015625 45.921875 
Q 28.375 48.1875 33.59375 48.1875 
Q 44.578125 48.1875 50.953125 41.515625 
Q 57.328125 34.859375 57.328125 23.390625 
Q 57.328125 12.15625 50.6875 5.359375 
Q 44.046875 -1.421875 33.015625 -1.421875 
Q 20.359375 -1.421875 13.671875 8.265625 
Q 6.984375 17.96875 6.984375 36.375 
Q 6.984375 53.65625 15.1875 63.9375 
Q 23.390625 74.21875 37.203125 74.21875 
Q 40.921875 74.21875 44.703125 73.484375 
Q 48.484375 72.75 52.59375 71.296875 
z
" id="DejaVuSans-54"/>
      </defs>
      <g transform="translate(97.275 186.103219)scale(0.1 -0.1)">
       <use xlink:href="#DejaVuSans-54"/>
       <use x="63.623047" xlink:href="#DejaVuSans-48"/>
      </g>
     </g>
    </g>
    <g id="ytick_8">
     <g id="line2d_35">
      <path clip-path="url(#p8e0e2e0a4d)" d="M 117 149.688 
L 842.4 149.688 
" style="fill:none;stroke:#b0b0b0;stroke-linecap:square;stroke-width:0.8;"/>
     </g>
     <g id="line2d_36">
      <g>
       <use style="stroke:#000000;stroke-width:0.8;" x="117" xlink:href="#ma52192c8f7" y="149.688"/>
      </g>
     </g>
     <g id="text_19">
      <!-- 70 -->
      <defs>
       <path d="M 8.203125 72.90625 
L 55.078125 72.90625 
L 55.078125 68.703125 
L 28.609375 0 
L 18.3125 0 
L 43.21875 64.59375 
L 8.203125 64.59375 
z
" id="DejaVuSans-55"/>
      </defs>
      <g transform="translate(97.275 153.487219)scale(0.1 -0.1)">
       <use xlink:href="#DejaVuSans-55"/>
       <use x="63.623047" xlink:href="#DejaVuSans-48"/>
      </g>
     </g>
    </g>
    <g id="ytick_9">
     <g id="line2d_37">
      <path clip-path="url(#p8e0e2e0a4d)" d="M 117 117.072 
L 842.4 117.072 
" style="fill:none;stroke:#b0b0b0;stroke-linecap:square;stroke-width:0.8;"/>
     </g>
     <g id="line2d_38">
      <g>
       <use style="stroke:#000000;stroke-width:0.8;" x="117" xlink:href="#ma52192c8f7" y="117.072"/>
      </g>
     </g>
     <g id="text_20">
      <!-- 80 -->
      <defs>
       <path d="M 31.78125 34.625 
Q 24.75 34.625 20.71875 30.859375 
Q 16.703125 27.09375 16.703125 20.515625 
Q 16.703125 13.921875 20.71875 10.15625 
Q 24.75 6.390625 31.78125 6.390625 
Q 38.8125 6.390625 42.859375 10.171875 
Q 46.921875 13.96875 46.921875 20.515625 
Q 46.921875 27.09375 42.890625 30.859375 
Q 38.875 34.625 31.78125 34.625 
z
M 21.921875 38.8125 
Q 15.578125 40.375 12.03125 44.71875 
Q 8.5 49.078125 8.5 55.328125 
Q 8.5 64.0625 14.71875 69.140625 
Q 20.953125 74.21875 31.78125 74.21875 
Q 42.671875 74.21875 48.875 69.140625 
Q 55.078125 64.0625 55.078125 55.328125 
Q 55.078125 49.078125 51.53125 44.71875 
Q 48 40.375 41.703125 38.8125 
Q 48.828125 37.15625 52.796875 32.3125 
Q 56.78125 27.484375 56.78125 20.515625 
Q 56.78125 9.90625 50.3125 4.234375 
Q 43.84375 -1.421875 31.78125 -1.421875 
Q 19.734375 -1.421875 13.25 4.234375 
Q 6.78125 9.90625 6.78125 20.515625 
Q 6.78125 27.484375 10.78125 32.3125 
Q 14.796875 37.15625 21.921875 38.8125 
z
M 18.3125 54.390625 
Q 18.3125 48.734375 21.84375 45.5625 
Q 25.390625 42.390625 31.78125 42.390625 
Q 38.140625 42.390625 41.71875 45.5625 
Q 45.3125 48.734375 45.3125 54.390625 
Q 45.3125 60.0625 41.71875 63.234375 
Q 38.140625 66.40625 31.78125 66.40625 
Q 25.390625 66.40625 21.84375 63.234375 
Q 18.3125 60.0625 18.3125 54.390625 
z
" id="DejaVuSans-56"/>
      </defs>
      <g transform="translate(97.275 120.871219)scale(0.1 -0.1)">
       <use xlink:href="#DejaVuSans-56"/>
       <use x="63.623047" xlink:href="#DejaVuSans-48"/>
      </g>
     </g>
    </g>
    <g id="ytick_10">
     <g id="line2d_39">
      <path clip-path="url(#p8e0e2e0a4d)" d="M 117 84.456 
L 842.4 84.456 
" style="fill:none;stroke:#b0b0b0;stroke-linecap:square;stroke-width:0.8;"/>
     </g>
     <g id="line2d_40">
      <g>
       <use style="stroke:#000000;stroke-width:0.8;" x="117" xlink:href="#ma52192c8f7" y="84.456"/>
      </g>
     </g>
     <g id="text_21">
      <!-- 90 -->
      <defs>
       <path d="M 10.984375 1.515625 
L 10.984375 10.5 
Q 14.703125 8.734375 18.5 7.8125 
Q 22.3125 6.890625 25.984375 6.890625 
Q 35.75 6.890625 40.890625 13.453125 
Q 46.046875 20.015625 46.78125 33.40625 
Q 43.953125 29.203125 39.59375 26.953125 
Q 35.25 24.703125 29.984375 24.703125 
Q 19.046875 24.703125 12.671875 31.3125 
Q 6.296875 37.9375 6.296875 49.421875 
Q 6.296875 60.640625 12.9375 67.421875 
Q 19.578125 74.21875 30.609375 74.21875 
Q 43.265625 74.21875 49.921875 64.515625 
Q 56.59375 54.828125 56.59375 36.375 
Q 56.59375 19.140625 48.40625 8.859375 
Q 40.234375 -1.421875 26.421875 -1.421875 
Q 22.703125 -1.421875 18.890625 -0.6875 
Q 15.09375 0.046875 10.984375 1.515625 
z
M 30.609375 32.421875 
Q 37.25 32.421875 41.125 36.953125 
Q 45.015625 41.5 45.015625 49.421875 
Q 45.015625 57.28125 41.125 61.84375 
Q 37.25 66.40625 30.609375 66.40625 
Q 23.96875 66.40625 20.09375 61.84375 
Q 16.21875 57.28125 16.21875 49.421875 
Q 16.21875 41.5 20.09375 36.953125 
Q 23.96875 32.421875 30.609375 32.421875 
z
" id="DejaVuSans-57"/>
      </defs>
      <g transform="translate(97.275 88.255219)scale(0.1 -0.1)">
       <use xlink:href="#DejaVuSans-57"/>
       <use x="63.623047" xlink:href="#DejaVuSans-48"/>
      </g>
     </g>
    </g>
    <g id="text_22">
     <!-- % of Estimates -->
     <defs>
      <path d="M 37.109375 75.984375 
L 37.109375 68.5 
L 28.515625 68.5 
Q 23.6875 68.5 21.796875 66.546875 
Q 19.921875 64.59375 19.921875 59.515625 
L 19.921875 54.6875 
L 34.71875 54.6875 
L 34.71875 47.703125 
L 19.921875 47.703125 
L 19.921875 0 
L 10.890625 0 
L 10.890625 47.703125 
L 2.296875 47.703125 
L 2.296875 54.6875 
L 10.890625 54.6875 
L 10.890625 58.5 
Q 10.890625 67.625 15.140625 71.796875 
Q 19.390625 75.984375 28.609375 75.984375 
z
" id="DejaVuSans-102"/>
     </defs>
     <g transform="translate(91.195312 252.3575)rotate(-90)scale(0.1 -0.1)">
      <use xlink:href="#DejaVuSans-37"/>
      <use x="95.019531" xlink:href="#DejaVuSans-32"/>
      <use x="126.806641" xlink:href="#DejaVuSans-111"/>
      <use x="187.988281" xlink:href="#DejaVuSans-102"/>
      <use x="223.193359" xlink:href="#DejaVuSans-32"/>
      <use x="254.980469" xlink:href="#DejaVuSans-69"/>
      <use x="318.164062" xlink:href="#DejaVuSans-115"/>
      <use x="370.263672" xlink:href="#DejaVuSans-116"/>
      <use x="409.472656" xlink:href="#DejaVuSans-105"/>
      <use x="437.255859" xlink:href="#DejaVuSans-109"/>
      <use x="534.667969" xlink:href="#DejaVuSans-97"/>
      <use x="595.947266" xlink:href="#DejaVuSans-116"/>
      <use x="635.15625" xlink:href="#DejaVuSans-101"/>
      <use x="696.679688" xlink:href="#DejaVuSans-115"/>
     </g>
    </g>
   </g>
   <g id="line2d_41">
    <path clip-path="url(#p8e0e2e0a4d)" d="M 117 365.209412 
L 122.373763 363.610588 
L 124.008815 360.412941 
L 124.185812 358.814118 
L 125.815061 355.616471 
L 127.818616 354.017647 
L 127.84473 352.418824 
L 130.189223 350.82 
L 131.497844 347.622353 
L 133.337459 346.023529 
L 134.393641 344.424706 
L 134.779554 342.825882 
L 137.98147 341.227059 
L 138.981071 339.628235 
L 138.982522 338.029412 
L 139.163872 336.430588 
L 139.971967 334.831765 
L 140.398502 333.232941 
L 140.59436 331.634118 
L 141.599765 330.035294 
L 141.914588 328.436471 
L 142.919993 326.837647 
L 143.378446 325.238824 
L 143.51337 323.64 
L 143.816587 322.041176 
L 144.436079 320.442353 
L 144.807484 317.244706 
L 145.882526 315.645882 
L 145.883977 314.047059 
L 146.607926 304.454118 
L 148.325674 302.855294 
L 148.364845 301.256471 
L 148.778323 299.657647 
L 148.807339 298.058824 
L 148.95387 296.46 
L 150.179796 294.861176 
L 151.018358 291.663529 
L 151.487402 290.064706 
L 151.669768 286.867059 
L 151.87433 285.268235 
L 152.216719 283.669412 
L 152.312037 282.070588 
L 152.952275 278.872941 
L 153.27 275.675294 
L 153.27 274.076471 
L 153.5413 272.477647 
L 154.047629 270.878824 
L 155.041427 269.28 
L 155.716049 267.681176 
L 156.148387 264.483529 
L 157.319183 262.884706 
L 158.195466 258.088235 
L 158.735164 256.489412 
L 159.772486 254.890588 
L 159.813108 253.291765 
L 160.17871 251.692941 
L 161.179762 250.094118 
L 161.72091 248.495294 
L 162.038635 246.896471 
L 162.515948 245.297647 
L 162.694397 243.698824 
L 163.106424 242.1 
L 163.161554 240.501176 
L 163.921774 234.105882 
L 164.600748 232.507059 
L 164.71246 227.710588 
L 164.94894 226.111765 
L 165.154954 221.315294 
L 165.797658 216.518824 
L 166.347511 214.92 
L 166.775497 213.321176 
L 167.042444 211.722353 
L 167.373227 208.524706 
L 167.989817 205.327059 
L 168.311894 203.728235 
L 168.353968 202.129412 
L 168.813871 200.530588 
L 169.479788 198.931765 
L 169.756891 195.734118 
L 170.984268 194.135294 
L 171.405 192.536471 
L 171.965009 190.937647 
L 173.479644 187.74 
L 174.038202 181.344706 
L 174.14411 174.949412 
L 174.274682 173.350588 
L 174.399451 168.554118 
L 175.332316 166.955294 
L 175.635533 163.757647 
L 176.643839 162.158824 
L 176.745395 160.56 
L 177.450484 158.961176 
L 177.804479 157.362353 
L 178.413815 155.763529 
L 178.798277 154.164706 
L 178.872268 152.565882 
L 179.229164 150.967059 
L 180.221947 149.368235 
L 180.729292 147.769412 
L 180.924714 144.571765 
L 181.181941 139.775294 
L 181.389406 138.176471 
L 181.847858 136.577647 
L 182.15833 134.978824 
L 182.181542 131.781176 
L 183.775972 130.182353 
L 183.789029 128.583529 
L 184.449143 126.984706 
L 186.213316 125.385882 
L 186.356945 123.787059 
L 186.660162 122.188235 
L 187.070738 117.391765 
L 187.85272 115.792941 
L 188.280706 114.194118 
L 188.485268 112.595294 
L 188.874083 110.996471 
L 189.489222 109.397647 
L 189.792439 107.798824 
L 190.387267 106.2 
L 191.230182 104.601176 
L 191.581276 103.002353 
L 191.613193 101.403529 
L 191.930918 99.804706 
L 191.990401 98.205882 
L 192.463362 96.607059 
L 193.758926 95.008235 
L 193.795196 93.409412 
L 194.857182 91.810588 
L 194.861534 90.211765 
L 195.456362 88.612941 
L 196.439424 87.014118 
L 198.373921 85.415294 
L 199.028232 83.816471 
L 200.349911 79.02 
L 205.461079 77.421176 
L 207.187531 75.822353 
L 208.266926 74.223529 
L 209.151044 72.624706 
L 209.534926 71.025882 
L 210.607067 69.427059 
L 212.678809 67.828235 
L 213.357784 66.229412 
L 217.3765 64.630588 
L 226.229281 63.031765 
L 228.599888 61.432941 
L 228.740616 59.834118 
L 266.863288 58.235294 
L 314.320406 56.636471 
L 358.800484 53.438824 
L 368.100112 51.84 
L 937 51.84 
L 937 51.84 
" style="fill:none;stroke:#0000ff;stroke-linecap:square;stroke-width:1.5;"/>
   </g>
   <g id="line2d_42">
    <path clip-path="url(#p8e0e2e0a4d)" d="M 117 376.401176 
L 131.223643 374.802353 
L 138.203442 373.203529 
L 138.981071 371.604706 
L 153.27 368.407059 
L 155.452003 366.808235 
L 167.553126 363.610588 
L 170.901572 362.011765 
L 176.703322 360.412941 
L 178.06127 358.814118 
L 178.878071 357.215294 
L 179.176936 355.616471 
L 188.093552 354.017647 
L 190.059386 352.418824 
L 196.17741 350.82 
L 201.465576 349.221176 
L 203.030989 347.622353 
L 210.280637 346.023529 
L 212.377043 344.424706 
L 213.720484 342.825882 
L 214.151371 341.227059 
L 215.740432 339.628235 
L 216.250679 338.029412 
L 216.564052 334.831765 
L 221.949421 333.232941 
L 224.370806 331.634118 
L 224.829259 330.035294 
L 227.508887 328.436471 
L 228.599888 326.837647 
L 232.421296 325.238824 
L 233.169908 322.041176 
L 234.458219 320.442353 
L 234.8775 318.843529 
L 237.787805 317.244706 
L 237.848738 315.645882 
L 238.337658 314.047059 
L 239.366275 312.448235 
L 242.637829 310.849412 
L 247.998535 309.250588 
L 248.929949 307.651765 
L 249.990048 306.052941 
L 249.990484 304.454118 
L 254.870975 302.855294 
L 256.091098 301.256471 
L 258.351444 299.657647 
L 258.718496 298.058824 
L 261.325584 296.46 
L 261.453254 294.861176 
L 262.631304 293.262353 
L 264.611646 291.663529 
L 267.092079 290.064706 
L 272.768044 288.465882 
L 273.696556 286.867059 
L 274.295736 285.268235 
L 275.212642 283.669412 
L 277.867606 282.070588 
L 278.664095 280.471765 
L 282.016894 278.872941 
L 283.245721 277.274118 
L 283.591012 275.675294 
L 285.713532 274.076471 
L 287.63294 272.477647 
L 288.423626 269.28 
L 289.135969 267.681176 
L 289.450793 266.082353 
L 289.906344 264.483529 
L 289.97163 262.884706 
L 291.669066 261.285882 
L 292.117363 259.687059 
L 293.011056 258.088235 
L 294.30517 256.489412 
L 294.717197 254.890588 
L 295.471613 253.291765 
L 295.995352 251.692941 
L 296.112866 250.094118 
L 299.470018 248.495294 
L 300.518946 246.896471 
L 301.073152 245.297647 
L 302.573279 242.1 
L 305.991364 238.902353 
L 306.158206 237.303529 
L 309.328204 235.704706 
L 314.118745 234.105882 
L 314.477093 232.507059 
L 315.331904 230.908235 
L 315.556488 229.309412 
L 315.640634 227.710588 
L 316.232561 226.111765 
L 319.718833 224.512941 
L 319.91324 222.914118 
L 320.461643 221.315294 
L 320.715533 219.716471 
L 322.157628 218.117647 
L 322.279495 216.518824 
L 325.02586 214.92 
L 325.088244 213.321176 
L 327.883936 211.722353 
L 329.426136 210.123529 
L 329.825106 208.524706 
L 332.162345 206.925882 
L 333.247543 205.327059 
L 334.107868 203.728235 
L 336.577129 202.129412 
L 339.449713 197.332941 
L 341.833378 195.734118 
L 345.873856 192.536471 
L 347.578546 189.338824 
L 351.172177 187.74 
L 351.79312 186.141176 
L 353.08143 184.542353 
L 359.865371 182.943529 
L 360.28175 181.344706 
L 360.846112 179.745882 
L 362.961378 178.147059 
L 367.302172 176.548235 
L 374.286323 173.350588 
L 374.946437 171.751765 
L 381.866753 170.152941 
L 383.941397 168.554118 
L 384.412907 166.955294 
L 385.907231 165.356471 
L 390.147919 163.757647 
L 391.07353 162.158824 
L 392.303808 160.56 
L 393.796681 158.961176 
L 394.297207 157.362353 
L 396.53289 155.763529 
L 396.834656 154.164706 
L 396.904295 152.565882 
L 398.667017 150.967059 
L 398.842564 149.368235 
L 398.900015 147.769412 
L 403.991453 146.170588 
L 406.41574 144.571765 
L 407.862187 141.374118 
L 408.062398 139.775294 
L 408.795052 136.577647 
L 409.568328 134.978824 
L 410.521504 133.38 
L 418.199137 131.781176 
L 418.622771 130.182353 
L 421.35898 128.583529 
L 429.42978 126.984706 
L 434.405299 125.385882 
L 438.249193 123.787059 
L 439.071797 122.188235 
L 444.127545 120.589412 
L 447.120835 118.990588 
L 449.201282 117.391765 
L 449.814971 115.792941 
L 451.542874 114.194118 
L 455.534024 112.595294 
L 461.753604 110.996471 
L 464.819144 109.397647 
L 470.027516 107.798824 
L 470.635402 106.2 
L 474.53138 104.601176 
L 475.69144 103.002353 
L 480.763436 101.403529 
L 482.76554 99.804706 
L 483.012176 98.205882 
L 485.433562 96.607059 
L 494.036225 95.008235 
L 500.217214 93.409412 
L 501.628842 91.810588 
L 503.880484 90.211765 
L 505.429938 88.612941 
L 505.711393 87.014118 
L 510.687637 85.415294 
L 513.364363 83.816471 
L 515.183666 82.217647 
L 520.365924 80.618824 
L 522.682852 79.02 
L 532.812337 77.421176 
L 533.558048 74.223529 
L 545.383519 72.624706 
L 547.137536 71.025882 
L 558.4973 69.427059 
L 583.516346 66.229412 
L 592.628821 64.630588 
L 593.04375 63.031765 
L 599.612972 61.432941 
L 611.84902 59.834118 
L 673.661804 58.235294 
L 681.776129 56.636471 
L 756.292118 55.037647 
L 887.470553 53.438824 
L 898.20067 51.84 
L 937 51.84 
L 937 51.84 
" style="fill:none;stroke:#800080;stroke-linecap:square;stroke-width:1.5;"/>
   </g>
   <g id="line2d_43">
    <path clip-path="url(#p8e0e2e0a4d)" d="M 117 370.005882 
L 119.845019 368.407059 
L 125.508942 366.808235 
L 125.767184 365.209412 
L 126.211129 363.610588 
L 127.46317 362.011765 
L 131.258462 360.412941 
L 131.891011 358.814118 
L 135.135 357.215294 
L 141.180048 355.616471 
L 145.576408 354.017647 
L 148.903092 352.418824 
L 150.082592 350.82 
L 151.543548 347.622353 
L 175.722581 344.424706 
L 178.300652 342.825882 
L 180.151873 339.628235 
L 182.946114 338.029412 
L 186.085645 336.430588 
L 190.961784 333.232941 
L 191.996204 331.634118 
L 192.226882 330.035294 
L 193.358506 328.436471 
L 194.722258 326.837647 
L 197.600645 325.238824 
L 199.800058 323.64 
L 202.341859 322.041176 
L 203.615662 320.442353 
L 204.371528 318.843529 
L 208.309 317.244706 
L 211.616824 314.047059 
L 212.25445 310.849412 
L 213.720484 309.250588 
L 215.027654 307.651765 
L 219.169688 306.052941 
L 219.329276 304.454118 
L 220.202658 302.855294 
L 220.629193 301.256471 
L 222.915654 299.657647 
L 223.011407 298.058824 
L 224.466559 296.46 
L 225.268852 294.861176 
L 225.318179 293.262353 
L 228.599888 290.064706 
L 234.474178 288.465882 
L 234.701953 285.268235 
L 236.244154 283.669412 
L 237.204583 282.070588 
L 237.899516 280.471765 
L 237.900967 278.872941 
L 240.848993 277.274118 
L 245.902129 275.675294 
L 248.890777 274.076471 
L 248.890922 272.477647 
L 250.222612 270.878824 
L 250.920446 269.28 
L 255.17129 266.082353 
L 258.541499 264.483529 
L 258.746062 262.884706 
L 259.702139 261.285882 
L 262.08 259.687059 
L 262.08 258.088235 
L 262.5341 256.489412 
L 265.377668 254.890588 
L 265.618501 253.291765 
L 266.284418 251.692941 
L 267.307232 250.094118 
L 268.98871 248.495294 
L 271.286777 246.896471 
L 274.450972 245.297647 
L 275.269223 243.698824 
L 275.269223 240.501176 
L 278.199839 238.902353 
L 279.665147 237.303529 
L 282.806129 235.704706 
L 285.697573 234.105882 
L 286.260484 232.507059 
L 287.682268 230.908235 
L 290.464902 229.309412 
L 293.926511 227.710588 
L 294.876785 226.111765 
L 296.266651 224.512941 
L 302.209128 221.315294 
L 303.250802 219.716471 
L 305.067204 218.117647 
L 307.561129 216.518824 
L 312.42276 214.92 
L 323.460446 211.722353 
L 323.741902 210.123529 
L 323.780638 208.524706 
L 324.256936 206.925882 
L 325.033114 205.327059 
L 325.976134 203.728235 
L 326.649305 202.129412 
L 328.538246 200.530588 
L 335.674732 198.931765 
L 335.988104 197.332941 
L 339.931379 195.734118 
L 347.944147 194.135294 
L 348.286536 192.536471 
L 348.834938 190.937647 
L 356.142618 189.338824 
L 360.046431 186.141176 
L 373.679888 184.542353 
L 376.071387 182.943529 
L 376.63807 181.344706 
L 385.409606 179.745882 
L 392.447437 176.548235 
L 400.65026 174.949412 
L 407.16 173.350588 
L 411.364418 171.751765 
L 411.663283 170.152941 
L 413.784353 168.554118 
L 416.175271 166.955294 
L 416.954351 165.356471 
L 419.249516 163.757647 
L 420.349223 162.158824 
L 424.185138 160.56 
L 432.490968 158.961176 
L 434.88914 157.362353 
L 442.690092 155.763529 
L 443.605547 154.164706 
L 444.314988 152.565882 
L 448.517956 150.967059 
L 454.341467 149.368235 
L 455.519516 147.769412 
L 456.459635 146.170588 
L 457.704421 144.571765 
L 457.897813 142.972941 
L 463.731044 141.374118 
L 465.810041 139.775294 
L 468.708739 136.577647 
L 471.639355 134.978824 
L 472.588178 133.38 
L 475.881494 131.781176 
L 483.45467 128.583529 
L 493.132957 125.385882 
L 497.311261 123.787059 
L 502.419528 122.188235 
L 504.787234 120.589412 
L 513.563123 118.990588 
L 519.998872 117.391765 
L 520.000322 115.792941 
L 536.11871 114.194118 
L 543.332088 112.595294 
L 552.24 110.996471 
L 558.784559 109.397647 
L 562.218602 107.798824 
L 563.399554 106.2 
L 570.109504 104.601176 
L 574.299704 103.002353 
L 588.51 101.403529 
L 600.600967 99.804706 
L 618.186114 98.205882 
L 625.612759 96.607059 
L 630.63833 95.008235 
L 631.159168 93.409412 
L 637.119054 91.810588 
L 672.825418 90.211765 
L 686.956936 88.612941 
L 695.290331 87.014118 
L 717.513685 85.415294 
L 717.837214 83.816471 
L 722.608895 82.217647 
L 726.336 80.618824 
L 747.782596 79.02 
L 759.402634 77.421176 
L 769.86 75.822353 
L 832.287924 72.624706 
L 842.4 71.025882 
L 851.699628 69.427059 
L 854.303814 67.828235 
L 856.224673 66.229412 
L 861.940245 64.630588 
L 909.254315 63.031765 
L 937 61.943438 
L 937 61.943438 
" style="fill:none;stroke:#ff0000;stroke-linecap:square;stroke-width:1.5;"/>
   </g>
   <g id="line2d_44">
    <path clip-path="url(#p8e0e2e0a4d)" d="M 262.08 378 
L 262.08 51.84 
" style="fill:none;stroke:#000000;stroke-dasharray:1.5,2.475;stroke-dashoffset:0;stroke-width:1.5;"/>
   </g>
   <g id="line2d_45">
    <path clip-path="url(#p8e0e2e0a4d)" d="M 117 58.235294 
L 262.08 58.235294 
" style="fill:none;stroke:#0000ff;stroke-dasharray:1.5,2.475;stroke-dashoffset:0;stroke-width:1.5;"/>
   </g>
   <g id="line2d_46">
    <path clip-path="url(#p8e0e2e0a4d)" d="M 117 293.262353 
L 262.08 293.262353 
" style="fill:none;stroke:#800080;stroke-dasharray:1.5,2.475;stroke-dashoffset:0;stroke-width:1.5;"/>
   </g>
   <g id="line2d_47">
    <path clip-path="url(#p8e0e2e0a4d)" d="M 117 258.088235 
L 262.08 258.088235 
" style="fill:none;stroke:#ff0000;stroke-dasharray:1.5,2.475;stroke-dashoffset:0;stroke-width:1.5;"/>
   </g>
   <g id="patch_3">
    <path d="M 117 378 
L 117 51.84 
" style="fill:none;stroke:#000000;stroke-linecap:square;stroke-linejoin:miter;stroke-width:0.8;"/>
   </g>
   <g id="patch_4">
    <path d="M 842.4 378 
L 842.4 51.84 
" style="fill:none;stroke:#000000;stroke-linecap:square;stroke-linejoin:miter;stroke-width:0.8;"/>
   </g>
   <g id="patch_5">
    <path d="M 117 378 
L 842.4 378 
" style="fill:none;stroke:#000000;stroke-linecap:square;stroke-linejoin:miter;stroke-width:0.8;"/>
   </g>
   <g id="patch_6">
    <path d="M 117 51.84 
L 842.4 51.84 
" style="fill:none;stroke:#000000;stroke-linecap:square;stroke-linejoin:miter;stroke-width:0.8;"/>
   </g>
   <g id="text_23">
    <!-- Percentage of Accuracy Estimates (for which there was less than 'x' absolute error) -->
    <defs>
     <path d="M 19.671875 64.796875 
L 19.671875 37.40625 
L 32.078125 37.40625 
Q 38.96875 37.40625 42.71875 40.96875 
Q 46.484375 44.53125 46.484375 51.125 
Q 46.484375 57.671875 42.71875 61.234375 
Q 38.96875 64.796875 32.078125 64.796875 
z
M 9.8125 72.90625 
L 32.078125 72.90625 
Q 44.34375 72.90625 50.609375 67.359375 
Q 56.890625 61.8125 56.890625 51.125 
Q 56.890625 40.328125 50.609375 34.8125 
Q 44.34375 29.296875 32.078125 29.296875 
L 19.671875 29.296875 
L 19.671875 0 
L 9.8125 0 
z
" id="DejaVuSans-80"/>
     <path d="M 45.40625 27.984375 
Q 45.40625 37.75 41.375 43.109375 
Q 37.359375 48.484375 30.078125 48.484375 
Q 22.859375 48.484375 18.828125 43.109375 
Q 14.796875 37.75 14.796875 27.984375 
Q 14.796875 18.265625 18.828125 12.890625 
Q 22.859375 7.515625 30.078125 7.515625 
Q 37.359375 7.515625 41.375 12.890625 
Q 45.40625 18.265625 45.40625 27.984375 
z
M 54.390625 6.78125 
Q 54.390625 -7.171875 48.1875 -13.984375 
Q 42 -20.796875 29.203125 -20.796875 
Q 24.46875 -20.796875 20.265625 -20.09375 
Q 16.0625 -19.390625 12.109375 -17.921875 
L 12.109375 -9.1875 
Q 16.0625 -11.328125 19.921875 -12.34375 
Q 23.78125 -13.375 27.78125 -13.375 
Q 36.625 -13.375 41.015625 -8.765625 
Q 45.40625 -4.15625 45.40625 5.171875 
L 45.40625 9.625 
Q 42.625 4.78125 38.28125 2.390625 
Q 33.9375 0 27.875 0 
Q 17.828125 0 11.671875 7.65625 
Q 5.515625 15.328125 5.515625 27.984375 
Q 5.515625 40.671875 11.671875 48.328125 
Q 17.828125 56 27.875 56 
Q 33.9375 56 38.28125 53.609375 
Q 42.625 51.21875 45.40625 46.390625 
L 45.40625 54.6875 
L 54.390625 54.6875 
z
" id="DejaVuSans-103"/>
     <path d="M 4.203125 54.6875 
L 13.1875 54.6875 
L 24.421875 12.015625 
L 35.59375 54.6875 
L 46.1875 54.6875 
L 57.421875 12.015625 
L 68.609375 54.6875 
L 77.59375 54.6875 
L 63.28125 0 
L 52.6875 0 
L 40.921875 44.828125 
L 29.109375 0 
L 18.5 0 
z
" id="DejaVuSans-119"/>
     <path d="M 54.890625 33.015625 
L 54.890625 0 
L 45.90625 0 
L 45.90625 32.71875 
Q 45.90625 40.484375 42.875 44.328125 
Q 39.84375 48.1875 33.796875 48.1875 
Q 26.515625 48.1875 22.3125 43.546875 
Q 18.109375 38.921875 18.109375 30.90625 
L 18.109375 0 
L 9.078125 0 
L 9.078125 75.984375 
L 18.109375 75.984375 
L 18.109375 46.1875 
Q 21.34375 51.125 25.703125 53.5625 
Q 30.078125 56 35.796875 56 
Q 45.21875 56 50.046875 50.171875 
Q 54.890625 44.34375 54.890625 33.015625 
z
" id="DejaVuSans-104"/>
     <path d="M 17.921875 72.90625 
L 17.921875 45.796875 
L 9.625 45.796875 
L 9.625 72.90625 
z
" id="DejaVuSans-39"/>
     <path d="M 54.890625 54.6875 
L 35.109375 28.078125 
L 55.90625 0 
L 45.3125 0 
L 29.390625 21.484375 
L 13.484375 0 
L 2.875 0 
L 24.125 28.609375 
L 4.6875 54.6875 
L 15.28125 54.6875 
L 29.78125 35.203125 
L 44.28125 54.6875 
z
" id="DejaVuSans-120"/>
    </defs>
    <g transform="translate(167.405859 12.246562)scale(0.15 -0.15)">
     <use xlink:href="#DejaVuSans-80"/>
     <use x="56.677734" xlink:href="#DejaVuSans-101"/>
     <use x="118.201172" xlink:href="#DejaVuSans-114"/>
     <use x="157.064453" xlink:href="#DejaVuSans-99"/>
     <use x="212.044922" xlink:href="#DejaVuSans-101"/>
     <use x="273.568359" xlink:href="#DejaVuSans-110"/>
     <use x="336.947266" xlink:href="#DejaVuSans-116"/>
     <use x="376.15625" xlink:href="#DejaVuSans-97"/>
     <use x="437.435547" xlink:href="#DejaVuSans-103"/>
     <use x="500.912109" xlink:href="#DejaVuSans-101"/>
     <use x="562.435547" xlink:href="#DejaVuSans-32"/>
     <use x="594.222656" xlink:href="#DejaVuSans-111"/>
     <use x="655.404297" xlink:href="#DejaVuSans-102"/>
     <use x="690.609375" xlink:href="#DejaVuSans-32"/>
     <use x="722.396484" xlink:href="#DejaVuSans-65"/>
     <use x="789.054688" xlink:href="#DejaVuSans-99"/>
     <use x="844.035156" xlink:href="#DejaVuSans-99"/>
     <use x="899.015625" xlink:href="#DejaVuSans-117"/>
     <use x="962.394531" xlink:href="#DejaVuSans-114"/>
     <use x="1003.507812" xlink:href="#DejaVuSans-97"/>
     <use x="1064.787109" xlink:href="#DejaVuSans-99"/>
     <use x="1119.767578" xlink:href="#DejaVuSans-121"/>
     <use x="1178.947266" xlink:href="#DejaVuSans-32"/>
     <use x="1210.734375" xlink:href="#DejaVuSans-69"/>
     <use x="1273.917969" xlink:href="#DejaVuSans-115"/>
     <use x="1326.017578" xlink:href="#DejaVuSans-116"/>
     <use x="1365.226562" xlink:href="#DejaVuSans-105"/>
     <use x="1393.009766" xlink:href="#DejaVuSans-109"/>
     <use x="1490.421875" xlink:href="#DejaVuSans-97"/>
     <use x="1551.701172" xlink:href="#DejaVuSans-116"/>
     <use x="1590.910156" xlink:href="#DejaVuSans-101"/>
     <use x="1652.433594" xlink:href="#DejaVuSans-115"/>
     <use x="1704.533203" xlink:href="#DejaVuSans-32"/>
     <use x="1736.320312" xlink:href="#DejaVuSans-40"/>
     <use x="1775.333984" xlink:href="#DejaVuSans-102"/>
     <use x="1810.539062" xlink:href="#DejaVuSans-111"/>
     <use x="1871.720703" xlink:href="#DejaVuSans-114"/>
     <use x="1912.833984" xlink:href="#DejaVuSans-32"/>
     <use x="1944.621094" xlink:href="#DejaVuSans-119"/>
     <use x="2026.408203" xlink:href="#DejaVuSans-104"/>
     <use x="2089.787109" xlink:href="#DejaVuSans-105"/>
     <use x="2117.570312" xlink:href="#DejaVuSans-99"/>
     <use x="2172.550781" xlink:href="#DejaVuSans-104"/>
     <use x="2235.929688" xlink:href="#DejaVuSans-32"/>
     <use x="2267.716797" xlink:href="#DejaVuSans-116"/>
     <use x="2306.925781" xlink:href="#DejaVuSans-104"/>
     <use x="2370.304688" xlink:href="#DejaVuSans-101"/>
     <use x="2431.828125" xlink:href="#DejaVuSans-114"/>
     <use x="2470.691406" xlink:href="#DejaVuSans-101"/>
     <use x="2532.214844" xlink:href="#DejaVuSans-32"/>
     <use x="2564.001953" xlink:href="#DejaVuSans-119"/>
     <use x="2645.789062" xlink:href="#DejaVuSans-97"/>
     <use x="2707.068359" xlink:href="#DejaVuSans-115"/>
     <use x="2759.167969" xlink:href="#DejaVuSans-32"/>
     <use x="2790.955078" xlink:href="#DejaVuSans-108"/>
     <use x="2818.738281" xlink:href="#DejaVuSans-101"/>
     <use x="2880.261719" xlink:href="#DejaVuSans-115"/>
     <use x="2932.361328" xlink:href="#DejaVuSans-115"/>
     <use x="2984.460938" xlink:href="#DejaVuSans-32"/>
     <use x="3016.248047" xlink:href="#DejaVuSans-116"/>
     <use x="3055.457031" xlink:href="#DejaVuSans-104"/>
     <use x="3118.835938" xlink:href="#DejaVuSans-97"/>
     <use x="3180.115234" xlink:href="#DejaVuSans-110"/>
     <use x="3243.494141" xlink:href="#DejaVuSans-32"/>
     <use x="3275.28125" xlink:href="#DejaVuSans-39"/>
     <use x="3302.771484" xlink:href="#DejaVuSans-120"/>
     <use x="3361.951172" xlink:href="#DejaVuSans-39"/>
     <use x="3389.441406" xlink:href="#DejaVuSans-32"/>
     <use x="3421.228516" xlink:href="#DejaVuSans-97"/>
     <use x="3482.507812" xlink:href="#DejaVuSans-98"/>
     <use x="3545.984375" xlink:href="#DejaVuSans-115"/>
     <use x="3598.083984" xlink:href="#DejaVuSans-111"/>
     <use x="3659.265625" xlink:href="#DejaVuSans-108"/>
     <use x="3687.048828" xlink:href="#DejaVuSans-117"/>
     <use x="3750.427734" xlink:href="#DejaVuSans-116"/>
     <use x="3789.636719" xlink:href="#DejaVuSans-101"/>
     <use x="3851.160156" xlink:href="#DejaVuSans-32"/>
     <use x="3882.947266" xlink:href="#DejaVuSans-101"/>
     <use x="3944.470703" xlink:href="#DejaVuSans-114"/>
     <use x="3983.833984" xlink:href="#DejaVuSans-114"/>
     <use x="4022.697266" xlink:href="#DejaVuSans-111"/>
     <use x="4083.878906" xlink:href="#DejaVuSans-114"/>
     <use x="4124.992188" xlink:href="#DejaVuSans-41"/>
    </g>
    <!-- vs. Absolute Error -->
    <defs>
     <path d="M 2.984375 54.6875 
L 12.5 54.6875 
L 29.59375 8.796875 
L 46.6875 54.6875 
L 56.203125 54.6875 
L 35.6875 0 
L 23.484375 0 
z
" id="DejaVuSans-118"/>
     <path d="M 10.6875 12.40625 
L 21 12.40625 
L 21 0 
L 10.6875 0 
z
" id="DejaVuSans-46"/>
    </defs>
    <g transform="translate(413.145703 29.043281)scale(0.15 -0.15)">
     <use xlink:href="#DejaVuSans-118"/>
     <use x="59.179688" xlink:href="#DejaVuSans-115"/>
     <use x="111.279297" xlink:href="#DejaVuSans-46"/>
     <use x="143.066406" xlink:href="#DejaVuSans-32"/>
     <use x="174.853516" xlink:href="#DejaVuSans-65"/>
     <use x="243.261719" xlink:href="#DejaVuSans-98"/>
     <use x="306.738281" xlink:href="#DejaVuSans-115"/>
     <use x="358.837891" xlink:href="#DejaVuSans-111"/>
     <use x="420.019531" xlink:href="#DejaVuSans-108"/>
     <use x="447.802734" xlink:href="#DejaVuSans-117"/>
     <use x="511.181641" xlink:href="#DejaVuSans-116"/>
     <use x="550.390625" xlink:href="#DejaVuSans-101"/>
     <use x="611.914062" xlink:href="#DejaVuSans-32"/>
     <use x="643.701172" xlink:href="#DejaVuSans-69"/>
     <use x="706.884766" xlink:href="#DejaVuSans-114"/>
     <use x="746.248047" xlink:href="#DejaVuSans-114"/>
     <use x="785.111328" xlink:href="#DejaVuSans-111"/>
     <use x="846.292969" xlink:href="#DejaVuSans-114"/>
    </g>
    <!-- Scenario:1 -->
    <defs>
     <path d="M 53.515625 70.515625 
L 53.515625 60.890625 
Q 47.90625 63.578125 42.921875 64.890625 
Q 37.9375 66.21875 33.296875 66.21875 
Q 25.25 66.21875 20.875 63.09375 
Q 16.5 59.96875 16.5 54.203125 
Q 16.5 49.359375 19.40625 46.890625 
Q 22.3125 44.4375 30.421875 42.921875 
L 36.375 41.703125 
Q 47.40625 39.59375 52.65625 34.296875 
Q 57.90625 29 57.90625 20.125 
Q 57.90625 9.515625 50.796875 4.046875 
Q 43.703125 -1.421875 29.984375 -1.421875 
Q 24.8125 -1.421875 18.96875 -0.25 
Q 13.140625 0.921875 6.890625 3.21875 
L 6.890625 13.375 
Q 12.890625 10.015625 18.65625 8.296875 
Q 24.421875 6.59375 29.984375 6.59375 
Q 38.421875 6.59375 43.015625 9.90625 
Q 47.609375 13.234375 47.609375 19.390625 
Q 47.609375 24.75 44.3125 27.78125 
Q 41.015625 30.8125 33.5 32.328125 
L 27.484375 33.5 
Q 16.453125 35.6875 11.515625 40.375 
Q 6.59375 45.0625 6.59375 53.421875 
Q 6.59375 63.09375 13.40625 68.65625 
Q 20.21875 74.21875 32.171875 74.21875 
Q 37.3125 74.21875 42.625 73.28125 
Q 47.953125 72.359375 53.515625 70.515625 
z
" id="DejaVuSans-83"/>
     <path d="M 11.71875 12.40625 
L 22.015625 12.40625 
L 22.015625 0 
L 11.71875 0 
z
M 11.71875 51.703125 
L 22.015625 51.703125 
L 22.015625 39.3125 
L 11.71875 39.3125 
z
" id="DejaVuSans-58"/>
    </defs>
    <g transform="translate(439.796484 45.84)scale(0.15 -0.15)">
     <use xlink:href="#DejaVuSans-83"/>
     <use x="63.476562" xlink:href="#DejaVuSans-99"/>
     <use x="118.457031" xlink:href="#DejaVuSans-101"/>
     <use x="179.980469" xlink:href="#DejaVuSans-110"/>
     <use x="243.359375" xlink:href="#DejaVuSans-97"/>
     <use x="304.638672" xlink:href="#DejaVuSans-114"/>
     <use x="345.751953" xlink:href="#DejaVuSans-105"/>
     <use x="373.535156" xlink:href="#DejaVuSans-111"/>
     <use x="434.716797" xlink:href="#DejaVuSans-58"/>
     <use x="468.408203" xlink:href="#DejaVuSans-49"/>
    </g>
   </g>
   <g id="legend_1">
    <g id="patch_7">
     <path d="M 560.671875 373 
L 835.4 373 
Q 837.4 373 837.4 371 
L 837.4 313.2875 
Q 837.4 311.2875 835.4 311.2875 
L 560.671875 311.2875 
Q 558.671875 311.2875 558.671875 313.2875 
L 558.671875 371 
Q 558.671875 373 560.671875 373 
z
" style="fill:#ffffff;opacity:0.8;stroke:#cccccc;stroke-linejoin:miter;"/>
    </g>
    <g id="line2d_48">
     <path d="M 562.671875 319.385938 
L 582.671875 319.385938 
" style="fill:none;stroke:#0000ff;stroke-linecap:square;stroke-width:1.5;"/>
    </g>
    <g id="line2d_49"/>
    <g id="text_24">
     <!-- Message Avg Based Method With Blacklisting -->
     <defs>
      <path d="M 9.8125 72.90625 
L 24.515625 72.90625 
L 43.109375 23.296875 
L 61.8125 72.90625 
L 76.515625 72.90625 
L 76.515625 0 
L 66.890625 0 
L 66.890625 64.015625 
L 48.09375 14.015625 
L 38.1875 14.015625 
L 19.390625 64.015625 
L 19.390625 0 
L 9.8125 0 
z
" id="DejaVuSans-77"/>
      <path d="M 19.671875 34.8125 
L 19.671875 8.109375 
L 35.5 8.109375 
Q 43.453125 8.109375 47.28125 11.40625 
Q 51.125 14.703125 51.125 21.484375 
Q 51.125 28.328125 47.28125 31.5625 
Q 43.453125 34.8125 35.5 34.8125 
z
M 19.671875 64.796875 
L 19.671875 42.828125 
L 34.28125 42.828125 
Q 41.5 42.828125 45.03125 45.53125 
Q 48.578125 48.25 48.578125 53.8125 
Q 48.578125 59.328125 45.03125 62.0625 
Q 41.5 64.796875 34.28125 64.796875 
z
M 9.8125 72.90625 
L 35.015625 72.90625 
Q 46.296875 72.90625 52.390625 68.21875 
Q 58.5 63.53125 58.5 54.890625 
Q 58.5 48.1875 55.375 44.234375 
Q 52.25 40.28125 46.1875 39.3125 
Q 53.46875 37.75 57.5 32.78125 
Q 61.53125 27.828125 61.53125 20.40625 
Q 61.53125 10.640625 54.890625 5.3125 
Q 48.25 0 35.984375 0 
L 9.8125 0 
z
" id="DejaVuSans-66"/>
      <path d="M 45.40625 46.390625 
L 45.40625 75.984375 
L 54.390625 75.984375 
L 54.390625 0 
L 45.40625 0 
L 45.40625 8.203125 
Q 42.578125 3.328125 38.25 0.953125 
Q 33.9375 -1.421875 27.875 -1.421875 
Q 17.96875 -1.421875 11.734375 6.484375 
Q 5.515625 14.40625 5.515625 27.296875 
Q 5.515625 40.1875 11.734375 48.09375 
Q 17.96875 56 27.875 56 
Q 33.9375 56 38.25 53.625 
Q 42.578125 51.265625 45.40625 46.390625 
z
M 14.796875 27.296875 
Q 14.796875 17.390625 18.875 11.75 
Q 22.953125 6.109375 30.078125 6.109375 
Q 37.203125 6.109375 41.296875 11.75 
Q 45.40625 17.390625 45.40625 27.296875 
Q 45.40625 37.203125 41.296875 42.84375 
Q 37.203125 48.484375 30.078125 48.484375 
Q 22.953125 48.484375 18.875 42.84375 
Q 14.796875 37.203125 14.796875 27.296875 
z
" id="DejaVuSans-100"/>
      <path d="M 3.328125 72.90625 
L 13.28125 72.90625 
L 28.609375 11.28125 
L 43.890625 72.90625 
L 54.984375 72.90625 
L 70.3125 11.28125 
L 85.59375 72.90625 
L 95.609375 72.90625 
L 77.296875 0 
L 64.890625 0 
L 49.515625 63.28125 
L 33.984375 0 
L 21.578125 0 
z
" id="DejaVuSans-87"/>
      <path d="M 9.078125 75.984375 
L 18.109375 75.984375 
L 18.109375 31.109375 
L 44.921875 54.6875 
L 56.390625 54.6875 
L 27.390625 29.109375 
L 57.625 0 
L 45.90625 0 
L 18.109375 26.703125 
L 18.109375 0 
L 9.078125 0 
z
" id="DejaVuSans-107"/>
     </defs>
     <g transform="translate(590.671875 322.885938)scale(0.1 -0.1)">
      <use xlink:href="#DejaVuSans-77"/>
      <use x="86.279297" xlink:href="#DejaVuSans-101"/>
      <use x="147.802734" xlink:href="#DejaVuSans-115"/>
      <use x="199.902344" xlink:href="#DejaVuSans-115"/>
      <use x="252.001953" xlink:href="#DejaVuSans-97"/>
      <use x="313.28125" xlink:href="#DejaVuSans-103"/>
      <use x="376.757812" xlink:href="#DejaVuSans-101"/>
      <use x="438.28125" xlink:href="#DejaVuSans-32"/>
      <use x="470.068359" xlink:href="#DejaVuSans-65"/>
      <use x="532.601562" xlink:href="#DejaVuSans-118"/>
      <use x="591.78125" xlink:href="#DejaVuSans-103"/>
      <use x="655.257812" xlink:href="#DejaVuSans-32"/>
      <use x="687.044922" xlink:href="#DejaVuSans-66"/>
      <use x="755.648438" xlink:href="#DejaVuSans-97"/>
      <use x="816.927734" xlink:href="#DejaVuSans-115"/>
      <use x="869.027344" xlink:href="#DejaVuSans-101"/>
      <use x="930.550781" xlink:href="#DejaVuSans-100"/>
      <use x="994.027344" xlink:href="#DejaVuSans-32"/>
      <use x="1025.814453" xlink:href="#DejaVuSans-77"/>
      <use x="1112.09375" xlink:href="#DejaVuSans-101"/>
      <use x="1173.617188" xlink:href="#DejaVuSans-116"/>
      <use x="1212.826172" xlink:href="#DejaVuSans-104"/>
      <use x="1276.205078" xlink:href="#DejaVuSans-111"/>
      <use x="1337.386719" xlink:href="#DejaVuSans-100"/>
      <use x="1400.863281" xlink:href="#DejaVuSans-32"/>
      <use x="1432.650391" xlink:href="#DejaVuSans-87"/>
      <use x="1529.277344" xlink:href="#DejaVuSans-105"/>
      <use x="1557.060547" xlink:href="#DejaVuSans-116"/>
      <use x="1596.269531" xlink:href="#DejaVuSans-104"/>
      <use x="1659.648438" xlink:href="#DejaVuSans-32"/>
      <use x="1691.435547" xlink:href="#DejaVuSans-66"/>
      <use x="1760.039062" xlink:href="#DejaVuSans-108"/>
      <use x="1787.822266" xlink:href="#DejaVuSans-97"/>
      <use x="1849.101562" xlink:href="#DejaVuSans-99"/>
      <use x="1904.082031" xlink:href="#DejaVuSans-107"/>
      <use x="1961.992188" xlink:href="#DejaVuSans-108"/>
      <use x="1989.775391" xlink:href="#DejaVuSans-105"/>
      <use x="2017.558594" xlink:href="#DejaVuSans-115"/>
      <use x="2069.658203" xlink:href="#DejaVuSans-116"/>
      <use x="2108.867188" xlink:href="#DejaVuSans-105"/>
      <use x="2136.650391" xlink:href="#DejaVuSans-110"/>
      <use x="2200.029297" xlink:href="#DejaVuSans-103"/>
     </g>
    </g>
    <g id="line2d_50">
     <path d="M 562.671875 334.064062 
L 582.671875 334.064062 
" style="fill:none;stroke:#800080;stroke-linecap:square;stroke-width:1.5;"/>
    </g>
    <g id="line2d_51"/>
    <g id="text_25">
     <!-- Message Avg Based Method Without Blacklisting -->
     <g transform="translate(590.671875 337.564062)scale(0.1 -0.1)">
      <use xlink:href="#DejaVuSans-77"/>
      <use x="86.279297" xlink:href="#DejaVuSans-101"/>
      <use x="147.802734" xlink:href="#DejaVuSans-115"/>
      <use x="199.902344" xlink:href="#DejaVuSans-115"/>
      <use x="252.001953" xlink:href="#DejaVuSans-97"/>
      <use x="313.28125" xlink:href="#DejaVuSans-103"/>
      <use x="376.757812" xlink:href="#DejaVuSans-101"/>
      <use x="438.28125" xlink:href="#DejaVuSans-32"/>
      <use x="470.068359" xlink:href="#DejaVuSans-65"/>
      <use x="532.601562" xlink:href="#DejaVuSans-118"/>
      <use x="591.78125" xlink:href="#DejaVuSans-103"/>
      <use x="655.257812" xlink:href="#DejaVuSans-32"/>
      <use x="687.044922" xlink:href="#DejaVuSans-66"/>
      <use x="755.648438" xlink:href="#DejaVuSans-97"/>
      <use x="816.927734" xlink:href="#DejaVuSans-115"/>
      <use x="869.027344" xlink:href="#DejaVuSans-101"/>
      <use x="930.550781" xlink:href="#DejaVuSans-100"/>
      <use x="994.027344" xlink:href="#DejaVuSans-32"/>
      <use x="1025.814453" xlink:href="#DejaVuSans-77"/>
      <use x="1112.09375" xlink:href="#DejaVuSans-101"/>
      <use x="1173.617188" xlink:href="#DejaVuSans-116"/>
      <use x="1212.826172" xlink:href="#DejaVuSans-104"/>
      <use x="1276.205078" xlink:href="#DejaVuSans-111"/>
      <use x="1337.386719" xlink:href="#DejaVuSans-100"/>
      <use x="1400.863281" xlink:href="#DejaVuSans-32"/>
      <use x="1432.650391" xlink:href="#DejaVuSans-87"/>
      <use x="1529.277344" xlink:href="#DejaVuSans-105"/>
      <use x="1557.060547" xlink:href="#DejaVuSans-116"/>
      <use x="1596.269531" xlink:href="#DejaVuSans-104"/>
      <use x="1659.648438" xlink:href="#DejaVuSans-111"/>
      <use x="1720.830078" xlink:href="#DejaVuSans-117"/>
      <use x="1784.208984" xlink:href="#DejaVuSans-116"/>
      <use x="1823.417969" xlink:href="#DejaVuSans-32"/>
      <use x="1855.205078" xlink:href="#DejaVuSans-66"/>
      <use x="1923.808594" xlink:href="#DejaVuSans-108"/>
      <use x="1951.591797" xlink:href="#DejaVuSans-97"/>
      <use x="2012.871094" xlink:href="#DejaVuSans-99"/>
      <use x="2067.851562" xlink:href="#DejaVuSans-107"/>
      <use x="2125.761719" xlink:href="#DejaVuSans-108"/>
      <use x="2153.544922" xlink:href="#DejaVuSans-105"/>
      <use x="2181.328125" xlink:href="#DejaVuSans-115"/>
      <use x="2233.427734" xlink:href="#DejaVuSans-116"/>
      <use x="2272.636719" xlink:href="#DejaVuSans-105"/>
      <use x="2300.419922" xlink:href="#DejaVuSans-110"/>
      <use x="2363.798828" xlink:href="#DejaVuSans-103"/>
     </g>
    </g>
    <g id="line2d_52">
     <path d="M 562.671875 348.742188 
L 582.671875 348.742188 
" style="fill:none;stroke:#ff0000;stroke-linecap:square;stroke-width:1.5;"/>
    </g>
    <g id="line2d_53"/>
    <g id="text_26">
     <!-- Reports Based Method -->
     <defs>
      <path d="M 44.390625 34.1875 
Q 47.5625 33.109375 50.5625 29.59375 
Q 53.5625 26.078125 56.59375 19.921875 
L 66.609375 0 
L 56 0 
L 46.6875 18.703125 
Q 43.0625 26.03125 39.671875 28.421875 
Q 36.28125 30.8125 30.421875 30.8125 
L 19.671875 30.8125 
L 19.671875 0 
L 9.8125 0 
L 9.8125 72.90625 
L 32.078125 72.90625 
Q 44.578125 72.90625 50.734375 67.671875 
Q 56.890625 62.453125 56.890625 51.90625 
Q 56.890625 45.015625 53.6875 40.46875 
Q 50.484375 35.9375 44.390625 34.1875 
z
M 19.671875 64.796875 
L 19.671875 38.921875 
L 32.078125 38.921875 
Q 39.203125 38.921875 42.84375 42.21875 
Q 46.484375 45.515625 46.484375 51.90625 
Q 46.484375 58.296875 42.84375 61.546875 
Q 39.203125 64.796875 32.078125 64.796875 
z
" id="DejaVuSans-82"/>
      <path d="M 18.109375 8.203125 
L 18.109375 -20.796875 
L 9.078125 -20.796875 
L 9.078125 54.6875 
L 18.109375 54.6875 
L 18.109375 46.390625 
Q 20.953125 51.265625 25.265625 53.625 
Q 29.59375 56 35.59375 56 
Q 45.5625 56 51.78125 48.09375 
Q 58.015625 40.1875 58.015625 27.296875 
Q 58.015625 14.40625 51.78125 6.484375 
Q 45.5625 -1.421875 35.59375 -1.421875 
Q 29.59375 -1.421875 25.265625 0.953125 
Q 20.953125 3.328125 18.109375 8.203125 
z
M 48.6875 27.296875 
Q 48.6875 37.203125 44.609375 42.84375 
Q 40.53125 48.484375 33.40625 48.484375 
Q 26.265625 48.484375 22.1875 42.84375 
Q 18.109375 37.203125 18.109375 27.296875 
Q 18.109375 17.390625 22.1875 11.75 
Q 26.265625 6.109375 33.40625 6.109375 
Q 40.53125 6.109375 44.609375 11.75 
Q 48.6875 17.390625 48.6875 27.296875 
z
" id="DejaVuSans-112"/>
     </defs>
     <g transform="translate(590.671875 352.242188)scale(0.1 -0.1)">
      <use xlink:href="#DejaVuSans-82"/>
      <use x="64.982422" xlink:href="#DejaVuSans-101"/>
      <use x="126.505859" xlink:href="#DejaVuSans-112"/>
      <use x="189.982422" xlink:href="#DejaVuSans-111"/>
      <use x="251.164062" xlink:href="#DejaVuSans-114"/>
      <use x="292.277344" xlink:href="#DejaVuSans-116"/>
      <use x="331.486328" xlink:href="#DejaVuSans-115"/>
      <use x="383.585938" xlink:href="#DejaVuSans-32"/>
      <use x="415.373047" xlink:href="#DejaVuSans-66"/>
      <use x="483.976562" xlink:href="#DejaVuSans-97"/>
      <use x="545.255859" xlink:href="#DejaVuSans-115"/>
      <use x="597.355469" xlink:href="#DejaVuSans-101"/>
      <use x="658.878906" xlink:href="#DejaVuSans-100"/>
      <use x="722.355469" xlink:href="#DejaVuSans-32"/>
      <use x="754.142578" xlink:href="#DejaVuSans-77"/>
      <use x="840.421875" xlink:href="#DejaVuSans-101"/>
      <use x="901.945312" xlink:href="#DejaVuSans-116"/>
      <use x="941.154297" xlink:href="#DejaVuSans-104"/>
      <use x="1004.533203" xlink:href="#DejaVuSans-111"/>
      <use x="1065.714844" xlink:href="#DejaVuSans-100"/>
     </g>
    </g>
    <g id="line2d_54">
     <path d="M 562.671875 363.420313 
L 582.671875 363.420313 
" style="fill:none;stroke:#000000;stroke-dasharray:1.5,2.475;stroke-dashoffset:0;stroke-width:1.5;"/>
    </g>
    <g id="line2d_55"/>
    <g id="text_27">
     <!-- 10% Absolute Error -->
     <g transform="translate(590.671875 366.920313)scale(0.1 -0.1)">
      <use xlink:href="#DejaVuSans-49"/>
      <use x="63.623047" xlink:href="#DejaVuSans-48"/>
      <use x="127.246094" xlink:href="#DejaVuSans-37"/>
      <use x="222.265625" xlink:href="#DejaVuSans-32"/>
      <use x="254.052734" xlink:href="#DejaVuSans-65"/>
      <use x="322.460938" xlink:href="#DejaVuSans-98"/>
      <use x="385.9375" xlink:href="#DejaVuSans-115"/>
      <use x="438.037109" xlink:href="#DejaVuSans-111"/>
      <use x="499.21875" xlink:href="#DejaVuSans-108"/>
      <use x="527.001953" xlink:href="#DejaVuSans-117"/>
      <use x="590.380859" xlink:href="#DejaVuSans-116"/>
      <use x="629.589844" xlink:href="#DejaVuSans-101"/>
      <use x="691.113281" xlink:href="#DejaVuSans-32"/>
      <use x="722.900391" xlink:href="#DejaVuSans-69"/>
      <use x="786.083984" xlink:href="#DejaVuSans-114"/>
      <use x="825.447266" xlink:href="#DejaVuSans-114"/>
      <use x="864.310547" xlink:href="#DejaVuSans-111"/>
      <use x="925.492188" xlink:href="#DejaVuSans-114"/>
     </g>
    </g>
   </g>
  </g>
 </g>
 <defs>
  <clipPath id="p8e0e2e0a4d">
   <rect height="326.16" width="725.4" x="117" y="51.84"/>
  </clipPath>
 </defs>
</svg>
