<?xml version="1.0" encoding="utf-8" standalone="no"?>
<!DOCTYPE svg PUBLIC "-//W3C//DTD SVG 1.1//EN"
  "http://www.w3.org/Graphics/SVG/1.1/DTD/svg11.dtd">
<!-- Created with matplotlib (https://matplotlib.org/) -->
<svg height="432pt" version="1.1" viewBox="0 0 936 432" width="936pt" xmlns="http://www.w3.org/2000/svg" xmlns:xlink="http://www.w3.org/1999/xlink">
 <defs>
  <style type="text/css">
*{stroke-linecap:butt;stroke-linejoin:round;}
  </style>
 </defs>
 <g id="figure_1">
  <g id="patch_1">
   <path d="M 0 432 
L 936 432 
L 936 0 
L 0 0 
z
" style="fill:#ffffff;"/>
  </g>
  <g id="axes_1">
   <g id="patch_2">
    <path d="M 117 378 
L 842.4 378 
L 842.4 51.84 
L 117 51.84 
z
" style="fill:#ffffff;"/>
   </g>
   <g id="matplotlib.axis_1">
    <g id="xtick_1">
     <g id="line2d_1">
      <path clip-path="url(#p7bc9bd9987)" d="M 117 378 
L 117 51.84 
" style="fill:none;stroke:#b0b0b0;stroke-linecap:square;stroke-width:0.8;"/>
     </g>
     <g id="line2d_2">
      <defs>
       <path d="M 0 0 
L 0 3.5 
" id="m29a0db195a" style="stroke:#000000;stroke-width:0.8;"/>
      </defs>
      <g>
       <use style="stroke:#000000;stroke-width:0.8;" x="117" xlink:href="#m29a0db195a" y="378"/>
      </g>
     </g>
     <g id="text_1">
      <!-- 0 -->
      <defs>
       <path d="M 31.78125 66.40625 
Q 24.171875 66.40625 20.328125 58.90625 
Q 16.5 51.421875 16.5 36.375 
Q 16.5 21.390625 20.328125 13.890625 
Q 24.171875 6.390625 31.78125 6.390625 
Q 39.453125 6.390625 43.28125 13.890625 
Q 47.125 21.390625 47.125 36.375 
Q 47.125 51.421875 43.28125 58.90625 
Q 39.453125 66.40625 31.78125 66.40625 
z
M 31.78125 74.21875 
Q 44.046875 74.21875 50.515625 64.515625 
Q 56.984375 54.828125 56.984375 36.375 
Q 56.984375 17.96875 50.515625 8.265625 
Q 44.046875 -1.421875 31.78125 -1.421875 
Q 19.53125 -1.421875 13.0625 8.265625 
Q 6.59375 17.96875 6.59375 36.375 
Q 6.59375 54.828125 13.0625 64.515625 
Q 19.53125 74.21875 31.78125 74.21875 
z
" id="DejaVuSans-48"/>
      </defs>
      <g transform="translate(113.81875 392.598437)scale(0.1 -0.1)">
       <use xlink:href="#DejaVuSans-48"/>
      </g>
     </g>
    </g>
    <g id="xtick_2">
     <g id="line2d_3">
      <path clip-path="url(#p7bc9bd9987)" d="M 189.54 378 
L 189.54 51.84 
" style="fill:none;stroke:#b0b0b0;stroke-linecap:square;stroke-width:0.8;"/>
     </g>
     <g id="line2d_4">
      <g>
       <use style="stroke:#000000;stroke-width:0.8;" x="189.54" xlink:href="#m29a0db195a" y="378"/>
      </g>
     </g>
     <g id="text_2">
      <!-- 5 -->
      <defs>
       <path d="M 10.796875 72.90625 
L 49.515625 72.90625 
L 49.515625 64.59375 
L 19.828125 64.59375 
L 19.828125 46.734375 
Q 21.96875 47.46875 24.109375 47.828125 
Q 26.265625 48.1875 28.421875 48.1875 
Q 40.625 48.1875 47.75 41.5 
Q 54.890625 34.8125 54.890625 23.390625 
Q 54.890625 11.625 47.5625 5.09375 
Q 40.234375 -1.421875 26.90625 -1.421875 
Q 22.3125 -1.421875 17.546875 -0.640625 
Q 12.796875 0.140625 7.71875 1.703125 
L 7.71875 11.625 
Q 12.109375 9.234375 16.796875 8.0625 
Q 21.484375 6.890625 26.703125 6.890625 
Q 35.15625 6.890625 40.078125 11.328125 
Q 45.015625 15.765625 45.015625 23.390625 
Q 45.015625 31 40.078125 35.4375 
Q 35.15625 39.890625 26.703125 39.890625 
Q 22.75 39.890625 18.8125 39.015625 
Q 14.890625 38.140625 10.796875 36.28125 
z
" id="DejaVuSans-53"/>
      </defs>
      <g transform="translate(186.35875 392.598437)scale(0.1 -0.1)">
       <use xlink:href="#DejaVuSans-53"/>
      </g>
     </g>
    </g>
    <g id="xtick_3">
     <g id="line2d_5">
      <path clip-path="url(#p7bc9bd9987)" d="M 262.08 378 
L 262.08 51.84 
" style="fill:none;stroke:#b0b0b0;stroke-linecap:square;stroke-width:0.8;"/>
     </g>
     <g id="line2d_6">
      <g>
       <use style="stroke:#000000;stroke-width:0.8;" x="262.08" xlink:href="#m29a0db195a" y="378"/>
      </g>
     </g>
     <g id="text_3">
      <!-- 10 -->
      <defs>
       <path d="M 12.40625 8.296875 
L 28.515625 8.296875 
L 28.515625 63.921875 
L 10.984375 60.40625 
L 10.984375 69.390625 
L 28.421875 72.90625 
L 38.28125 72.90625 
L 38.28125 8.296875 
L 54.390625 8.296875 
L 54.390625 0 
L 12.40625 0 
z
" id="DejaVuSans-49"/>
      </defs>
      <g transform="translate(255.7175 392.598437)scale(0.1 -0.1)">
       <use xlink:href="#DejaVuSans-49"/>
       <use x="63.623047" xlink:href="#DejaVuSans-48"/>
      </g>
     </g>
    </g>
    <g id="xtick_4">
     <g id="line2d_7">
      <path clip-path="url(#p7bc9bd9987)" d="M 334.62 378 
L 334.62 51.84 
" style="fill:none;stroke:#b0b0b0;stroke-linecap:square;stroke-width:0.8;"/>
     </g>
     <g id="line2d_8">
      <g>
       <use style="stroke:#000000;stroke-width:0.8;" x="334.62" xlink:href="#m29a0db195a" y="378"/>
      </g>
     </g>
     <g id="text_4">
      <!-- 15 -->
      <g transform="translate(328.2575 392.598437)scale(0.1 -0.1)">
       <use xlink:href="#DejaVuSans-49"/>
       <use x="63.623047" xlink:href="#DejaVuSans-53"/>
      </g>
     </g>
    </g>
    <g id="xtick_5">
     <g id="line2d_9">
      <path clip-path="url(#p7bc9bd9987)" d="M 407.16 378 
L 407.16 51.84 
" style="fill:none;stroke:#b0b0b0;stroke-linecap:square;stroke-width:0.8;"/>
     </g>
     <g id="line2d_10">
      <g>
       <use style="stroke:#000000;stroke-width:0.8;" x="407.16" xlink:href="#m29a0db195a" y="378"/>
      </g>
     </g>
     <g id="text_5">
      <!-- 20 -->
      <defs>
       <path d="M 19.1875 8.296875 
L 53.609375 8.296875 
L 53.609375 0 
L 7.328125 0 
L 7.328125 8.296875 
Q 12.9375 14.109375 22.625 23.890625 
Q 32.328125 33.6875 34.8125 36.53125 
Q 39.546875 41.84375 41.421875 45.53125 
Q 43.3125 49.21875 43.3125 52.78125 
Q 43.3125 58.59375 39.234375 62.25 
Q 35.15625 65.921875 28.609375 65.921875 
Q 23.96875 65.921875 18.8125 64.3125 
Q 13.671875 62.703125 7.8125 59.421875 
L 7.8125 69.390625 
Q 13.765625 71.78125 18.9375 73 
Q 24.125 74.21875 28.421875 74.21875 
Q 39.75 74.21875 46.484375 68.546875 
Q 53.21875 62.890625 53.21875 53.421875 
Q 53.21875 48.921875 51.53125 44.890625 
Q 49.859375 40.875 45.40625 35.40625 
Q 44.1875 33.984375 37.640625 27.21875 
Q 31.109375 20.453125 19.1875 8.296875 
z
" id="DejaVuSans-50"/>
      </defs>
      <g transform="translate(400.7975 392.598437)scale(0.1 -0.1)">
       <use xlink:href="#DejaVuSans-50"/>
       <use x="63.623047" xlink:href="#DejaVuSans-48"/>
      </g>
     </g>
    </g>
    <g id="xtick_6">
     <g id="line2d_11">
      <path clip-path="url(#p7bc9bd9987)" d="M 479.7 378 
L 479.7 51.84 
" style="fill:none;stroke:#b0b0b0;stroke-linecap:square;stroke-width:0.8;"/>
     </g>
     <g id="line2d_12">
      <g>
       <use style="stroke:#000000;stroke-width:0.8;" x="479.7" xlink:href="#m29a0db195a" y="378"/>
      </g>
     </g>
     <g id="text_6">
      <!-- 25 -->
      <g transform="translate(473.3375 392.598437)scale(0.1 -0.1)">
       <use xlink:href="#DejaVuSans-50"/>
       <use x="63.623047" xlink:href="#DejaVuSans-53"/>
      </g>
     </g>
    </g>
    <g id="xtick_7">
     <g id="line2d_13">
      <path clip-path="url(#p7bc9bd9987)" d="M 552.24 378 
L 552.24 51.84 
" style="fill:none;stroke:#b0b0b0;stroke-linecap:square;stroke-width:0.8;"/>
     </g>
     <g id="line2d_14">
      <g>
       <use style="stroke:#000000;stroke-width:0.8;" x="552.24" xlink:href="#m29a0db195a" y="378"/>
      </g>
     </g>
     <g id="text_7">
      <!-- 30 -->
      <defs>
       <path d="M 40.578125 39.3125 
Q 47.65625 37.796875 51.625 33 
Q 55.609375 28.21875 55.609375 21.1875 
Q 55.609375 10.40625 48.1875 4.484375 
Q 40.765625 -1.421875 27.09375 -1.421875 
Q 22.515625 -1.421875 17.65625 -0.515625 
Q 12.796875 0.390625 7.625 2.203125 
L 7.625 11.71875 
Q 11.71875 9.328125 16.59375 8.109375 
Q 21.484375 6.890625 26.8125 6.890625 
Q 36.078125 6.890625 40.9375 10.546875 
Q 45.796875 14.203125 45.796875 21.1875 
Q 45.796875 27.640625 41.28125 31.265625 
Q 36.765625 34.90625 28.71875 34.90625 
L 20.21875 34.90625 
L 20.21875 43.015625 
L 29.109375 43.015625 
Q 36.375 43.015625 40.234375 45.921875 
Q 44.09375 48.828125 44.09375 54.296875 
Q 44.09375 59.90625 40.109375 62.90625 
Q 36.140625 65.921875 28.71875 65.921875 
Q 24.65625 65.921875 20.015625 65.03125 
Q 15.375 64.15625 9.8125 62.3125 
L 9.8125 71.09375 
Q 15.4375 72.65625 20.34375 73.4375 
Q 25.25 74.21875 29.59375 74.21875 
Q 40.828125 74.21875 47.359375 69.109375 
Q 53.90625 64.015625 53.90625 55.328125 
Q 53.90625 49.265625 50.4375 45.09375 
Q 46.96875 40.921875 40.578125 39.3125 
z
" id="DejaVuSans-51"/>
      </defs>
      <g transform="translate(545.8775 392.598437)scale(0.1 -0.1)">
       <use xlink:href="#DejaVuSans-51"/>
       <use x="63.623047" xlink:href="#DejaVuSans-48"/>
      </g>
     </g>
    </g>
    <g id="xtick_8">
     <g id="line2d_15">
      <path clip-path="url(#p7bc9bd9987)" d="M 624.78 378 
L 624.78 51.84 
" style="fill:none;stroke:#b0b0b0;stroke-linecap:square;stroke-width:0.8;"/>
     </g>
     <g id="line2d_16">
      <g>
       <use style="stroke:#000000;stroke-width:0.8;" x="624.78" xlink:href="#m29a0db195a" y="378"/>
      </g>
     </g>
     <g id="text_8">
      <!-- 35 -->
      <g transform="translate(618.4175 392.598437)scale(0.1 -0.1)">
       <use xlink:href="#DejaVuSans-51"/>
       <use x="63.623047" xlink:href="#DejaVuSans-53"/>
      </g>
     </g>
    </g>
    <g id="xtick_9">
     <g id="line2d_17">
      <path clip-path="url(#p7bc9bd9987)" d="M 697.32 378 
L 697.32 51.84 
" style="fill:none;stroke:#b0b0b0;stroke-linecap:square;stroke-width:0.8;"/>
     </g>
     <g id="line2d_18">
      <g>
       <use style="stroke:#000000;stroke-width:0.8;" x="697.32" xlink:href="#m29a0db195a" y="378"/>
      </g>
     </g>
     <g id="text_9">
      <!-- 40 -->
      <defs>
       <path d="M 37.796875 64.3125 
L 12.890625 25.390625 
L 37.796875 25.390625 
z
M 35.203125 72.90625 
L 47.609375 72.90625 
L 47.609375 25.390625 
L 58.015625 25.390625 
L 58.015625 17.1875 
L 47.609375 17.1875 
L 47.609375 0 
L 37.796875 0 
L 37.796875 17.1875 
L 4.890625 17.1875 
L 4.890625 26.703125 
z
" id="DejaVuSans-52"/>
      </defs>
      <g transform="translate(690.9575 392.598437)scale(0.1 -0.1)">
       <use xlink:href="#DejaVuSans-52"/>
       <use x="63.623047" xlink:href="#DejaVuSans-48"/>
      </g>
     </g>
    </g>
    <g id="xtick_10">
     <g id="line2d_19">
      <path clip-path="url(#p7bc9bd9987)" d="M 769.86 378 
L 769.86 51.84 
" style="fill:none;stroke:#b0b0b0;stroke-linecap:square;stroke-width:0.8;"/>
     </g>
     <g id="line2d_20">
      <g>
       <use style="stroke:#000000;stroke-width:0.8;" x="769.86" xlink:href="#m29a0db195a" y="378"/>
      </g>
     </g>
     <g id="text_10">
      <!-- 45 -->
      <g transform="translate(763.4975 392.598437)scale(0.1 -0.1)">
       <use xlink:href="#DejaVuSans-52"/>
       <use x="63.623047" xlink:href="#DejaVuSans-53"/>
      </g>
     </g>
    </g>
    <g id="text_11">
     <!-- Absolute Error in Accuracy(%) Estimation -->
     <defs>
      <path d="M 34.1875 63.1875 
L 20.796875 26.90625 
L 47.609375 26.90625 
z
M 28.609375 72.90625 
L 39.796875 72.90625 
L 67.578125 0 
L 57.328125 0 
L 50.6875 18.703125 
L 17.828125 18.703125 
L 11.1875 0 
L 0.78125 0 
z
" id="DejaVuSans-65"/>
      <path d="M 48.6875 27.296875 
Q 48.6875 37.203125 44.609375 42.84375 
Q 40.53125 48.484375 33.40625 48.484375 
Q 26.265625 48.484375 22.1875 42.84375 
Q 18.109375 37.203125 18.109375 27.296875 
Q 18.109375 17.390625 22.1875 11.75 
Q 26.265625 6.109375 33.40625 6.109375 
Q 40.53125 6.109375 44.609375 11.75 
Q 48.6875 17.390625 48.6875 27.296875 
z
M 18.109375 46.390625 
Q 20.953125 51.265625 25.265625 53.625 
Q 29.59375 56 35.59375 56 
Q 45.5625 56 51.78125 48.09375 
Q 58.015625 40.1875 58.015625 27.296875 
Q 58.015625 14.40625 51.78125 6.484375 
Q 45.5625 -1.421875 35.59375 -1.421875 
Q 29.59375 -1.421875 25.265625 0.953125 
Q 20.953125 3.328125 18.109375 8.203125 
L 18.109375 0 
L 9.078125 0 
L 9.078125 75.984375 
L 18.109375 75.984375 
z
" id="DejaVuSans-98"/>
      <path d="M 44.28125 53.078125 
L 44.28125 44.578125 
Q 40.484375 46.53125 36.375 47.5 
Q 32.28125 48.484375 27.875 48.484375 
Q 21.1875 48.484375 17.84375 46.4375 
Q 14.5 44.390625 14.5 40.28125 
Q 14.5 37.15625 16.890625 35.375 
Q 19.28125 33.59375 26.515625 31.984375 
L 29.59375 31.296875 
Q 39.15625 29.25 43.1875 25.515625 
Q 47.21875 21.78125 47.21875 15.09375 
Q 47.21875 7.46875 41.1875 3.015625 
Q 35.15625 -1.421875 24.609375 -1.421875 
Q 20.21875 -1.421875 15.453125 -0.5625 
Q 10.6875 0.296875 5.421875 2 
L 5.421875 11.28125 
Q 10.40625 8.6875 15.234375 7.390625 
Q 20.0625 6.109375 24.8125 6.109375 
Q 31.15625 6.109375 34.5625 8.28125 
Q 37.984375 10.453125 37.984375 14.40625 
Q 37.984375 18.0625 35.515625 20.015625 
Q 33.0625 21.96875 24.703125 23.78125 
L 21.578125 24.515625 
Q 13.234375 26.265625 9.515625 29.90625 
Q 5.8125 33.546875 5.8125 39.890625 
Q 5.8125 47.609375 11.28125 51.796875 
Q 16.75 56 26.8125 56 
Q 31.78125 56 36.171875 55.265625 
Q 40.578125 54.546875 44.28125 53.078125 
z
" id="DejaVuSans-115"/>
      <path d="M 30.609375 48.390625 
Q 23.390625 48.390625 19.1875 42.75 
Q 14.984375 37.109375 14.984375 27.296875 
Q 14.984375 17.484375 19.15625 11.84375 
Q 23.34375 6.203125 30.609375 6.203125 
Q 37.796875 6.203125 41.984375 11.859375 
Q 46.1875 17.53125 46.1875 27.296875 
Q 46.1875 37.015625 41.984375 42.703125 
Q 37.796875 48.390625 30.609375 48.390625 
z
M 30.609375 56 
Q 42.328125 56 49.015625 48.375 
Q 55.71875 40.765625 55.71875 27.296875 
Q 55.71875 13.875 49.015625 6.21875 
Q 42.328125 -1.421875 30.609375 -1.421875 
Q 18.84375 -1.421875 12.171875 6.21875 
Q 5.515625 13.875 5.515625 27.296875 
Q 5.515625 40.765625 12.171875 48.375 
Q 18.84375 56 30.609375 56 
z
" id="DejaVuSans-111"/>
      <path d="M 9.421875 75.984375 
L 18.40625 75.984375 
L 18.40625 0 
L 9.421875 0 
z
" id="DejaVuSans-108"/>
      <path d="M 8.5 21.578125 
L 8.5 54.6875 
L 17.484375 54.6875 
L 17.484375 21.921875 
Q 17.484375 14.15625 20.5 10.265625 
Q 23.53125 6.390625 29.59375 6.390625 
Q 36.859375 6.390625 41.078125 11.03125 
Q 45.3125 15.671875 45.3125 23.6875 
L 45.3125 54.6875 
L 54.296875 54.6875 
L 54.296875 0 
L 45.3125 0 
L 45.3125 8.40625 
Q 42.046875 3.421875 37.71875 1 
Q 33.40625 -1.421875 27.6875 -1.421875 
Q 18.265625 -1.421875 13.375 4.4375 
Q 8.5 10.296875 8.5 21.578125 
z
M 31.109375 56 
z
" id="DejaVuSans-117"/>
      <path d="M 18.3125 70.21875 
L 18.3125 54.6875 
L 36.8125 54.6875 
L 36.8125 47.703125 
L 18.3125 47.703125 
L 18.3125 18.015625 
Q 18.3125 11.328125 20.140625 9.421875 
Q 21.96875 7.515625 27.59375 7.515625 
L 36.8125 7.515625 
L 36.8125 0 
L 27.59375 0 
Q 17.1875 0 13.234375 3.875 
Q 9.28125 7.765625 9.28125 18.015625 
L 9.28125 47.703125 
L 2.6875 47.703125 
L 2.6875 54.6875 
L 9.28125 54.6875 
L 9.28125 70.21875 
z
" id="DejaVuSans-116"/>
      <path d="M 56.203125 29.59375 
L 56.203125 25.203125 
L 14.890625 25.203125 
Q 15.484375 15.921875 20.484375 11.0625 
Q 25.484375 6.203125 34.421875 6.203125 
Q 39.59375 6.203125 44.453125 7.46875 
Q 49.3125 8.734375 54.109375 11.28125 
L 54.109375 2.78125 
Q 49.265625 0.734375 44.1875 -0.34375 
Q 39.109375 -1.421875 33.890625 -1.421875 
Q 20.796875 -1.421875 13.15625 6.1875 
Q 5.515625 13.8125 5.515625 26.8125 
Q 5.515625 40.234375 12.765625 48.109375 
Q 20.015625 56 32.328125 56 
Q 43.359375 56 49.78125 48.890625 
Q 56.203125 41.796875 56.203125 29.59375 
z
M 47.21875 32.234375 
Q 47.125 39.59375 43.09375 43.984375 
Q 39.0625 48.390625 32.421875 48.390625 
Q 24.90625 48.390625 20.390625 44.140625 
Q 15.875 39.890625 15.1875 32.171875 
z
" id="DejaVuSans-101"/>
      <path id="DejaVuSans-32"/>
      <path d="M 9.8125 72.90625 
L 55.90625 72.90625 
L 55.90625 64.59375 
L 19.671875 64.59375 
L 19.671875 43.015625 
L 54.390625 43.015625 
L 54.390625 34.71875 
L 19.671875 34.71875 
L 19.671875 8.296875 
L 56.78125 8.296875 
L 56.78125 0 
L 9.8125 0 
z
" id="DejaVuSans-69"/>
      <path d="M 41.109375 46.296875 
Q 39.59375 47.171875 37.8125 47.578125 
Q 36.03125 48 33.890625 48 
Q 26.265625 48 22.1875 43.046875 
Q 18.109375 38.09375 18.109375 28.8125 
L 18.109375 0 
L 9.078125 0 
L 9.078125 54.6875 
L 18.109375 54.6875 
L 18.109375 46.1875 
Q 20.953125 51.171875 25.484375 53.578125 
Q 30.03125 56 36.53125 56 
Q 37.453125 56 38.578125 55.875 
Q 39.703125 55.765625 41.0625 55.515625 
z
" id="DejaVuSans-114"/>
      <path d="M 9.421875 54.6875 
L 18.40625 54.6875 
L 18.40625 0 
L 9.421875 0 
z
M 9.421875 75.984375 
L 18.40625 75.984375 
L 18.40625 64.59375 
L 9.421875 64.59375 
z
" id="DejaVuSans-105"/>
      <path d="M 54.890625 33.015625 
L 54.890625 0 
L 45.90625 0 
L 45.90625 32.71875 
Q 45.90625 40.484375 42.875 44.328125 
Q 39.84375 48.1875 33.796875 48.1875 
Q 26.515625 48.1875 22.3125 43.546875 
Q 18.109375 38.921875 18.109375 30.90625 
L 18.109375 0 
L 9.078125 0 
L 9.078125 54.6875 
L 18.109375 54.6875 
L 18.109375 46.1875 
Q 21.34375 51.125 25.703125 53.5625 
Q 30.078125 56 35.796875 56 
Q 45.21875 56 50.046875 50.171875 
Q 54.890625 44.34375 54.890625 33.015625 
z
" id="DejaVuSans-110"/>
      <path d="M 48.78125 52.59375 
L 48.78125 44.1875 
Q 44.96875 46.296875 41.140625 47.34375 
Q 37.3125 48.390625 33.40625 48.390625 
Q 24.65625 48.390625 19.8125 42.84375 
Q 14.984375 37.3125 14.984375 27.296875 
Q 14.984375 17.28125 19.8125 11.734375 
Q 24.65625 6.203125 33.40625 6.203125 
Q 37.3125 6.203125 41.140625 7.25 
Q 44.96875 8.296875 48.78125 10.40625 
L 48.78125 2.09375 
Q 45.015625 0.34375 40.984375 -0.53125 
Q 36.96875 -1.421875 32.421875 -1.421875 
Q 20.0625 -1.421875 12.78125 6.34375 
Q 5.515625 14.109375 5.515625 27.296875 
Q 5.515625 40.671875 12.859375 48.328125 
Q 20.21875 56 33.015625 56 
Q 37.15625 56 41.109375 55.140625 
Q 45.0625 54.296875 48.78125 52.59375 
z
" id="DejaVuSans-99"/>
      <path d="M 34.28125 27.484375 
Q 23.390625 27.484375 19.1875 25 
Q 14.984375 22.515625 14.984375 16.5 
Q 14.984375 11.71875 18.140625 8.90625 
Q 21.296875 6.109375 26.703125 6.109375 
Q 34.1875 6.109375 38.703125 11.40625 
Q 43.21875 16.703125 43.21875 25.484375 
L 43.21875 27.484375 
z
M 52.203125 31.203125 
L 52.203125 0 
L 43.21875 0 
L 43.21875 8.296875 
Q 40.140625 3.328125 35.546875 0.953125 
Q 30.953125 -1.421875 24.3125 -1.421875 
Q 15.921875 -1.421875 10.953125 3.296875 
Q 6 8.015625 6 15.921875 
Q 6 25.140625 12.171875 29.828125 
Q 18.359375 34.515625 30.609375 34.515625 
L 43.21875 34.515625 
L 43.21875 35.40625 
Q 43.21875 41.609375 39.140625 45 
Q 35.0625 48.390625 27.6875 48.390625 
Q 23 48.390625 18.546875 47.265625 
Q 14.109375 46.140625 10.015625 43.890625 
L 10.015625 52.203125 
Q 14.9375 54.109375 19.578125 55.046875 
Q 24.21875 56 28.609375 56 
Q 40.484375 56 46.34375 49.84375 
Q 52.203125 43.703125 52.203125 31.203125 
z
" id="DejaVuSans-97"/>
      <path d="M 32.171875 -5.078125 
Q 28.375 -14.84375 24.75 -17.8125 
Q 21.140625 -20.796875 15.09375 -20.796875 
L 7.90625 -20.796875 
L 7.90625 -13.28125 
L 13.1875 -13.28125 
Q 16.890625 -13.28125 18.9375 -11.515625 
Q 21 -9.765625 23.484375 -3.21875 
L 25.09375 0.875 
L 2.984375 54.6875 
L 12.5 54.6875 
L 29.59375 11.921875 
L 46.6875 54.6875 
L 56.203125 54.6875 
z
" id="DejaVuSans-121"/>
      <path d="M 31 75.875 
Q 24.46875 64.65625 21.28125 53.65625 
Q 18.109375 42.671875 18.109375 31.390625 
Q 18.109375 20.125 21.3125 9.0625 
Q 24.515625 -2 31 -13.1875 
L 23.1875 -13.1875 
Q 15.875 -1.703125 12.234375 9.375 
Q 8.59375 20.453125 8.59375 31.390625 
Q 8.59375 42.28125 12.203125 53.3125 
Q 15.828125 64.359375 23.1875 75.875 
z
" id="DejaVuSans-40"/>
      <path d="M 72.703125 32.078125 
Q 68.453125 32.078125 66.03125 28.46875 
Q 63.625 24.859375 63.625 18.40625 
Q 63.625 12.0625 66.03125 8.421875 
Q 68.453125 4.78125 72.703125 4.78125 
Q 76.859375 4.78125 79.265625 8.421875 
Q 81.6875 12.0625 81.6875 18.40625 
Q 81.6875 24.8125 79.265625 28.4375 
Q 76.859375 32.078125 72.703125 32.078125 
z
M 72.703125 38.28125 
Q 80.421875 38.28125 84.953125 32.90625 
Q 89.5 27.546875 89.5 18.40625 
Q 89.5 9.28125 84.9375 3.921875 
Q 80.375 -1.421875 72.703125 -1.421875 
Q 64.890625 -1.421875 60.34375 3.921875 
Q 55.8125 9.28125 55.8125 18.40625 
Q 55.8125 27.59375 60.375 32.9375 
Q 64.9375 38.28125 72.703125 38.28125 
z
M 22.3125 68.015625 
Q 18.109375 68.015625 15.6875 64.375 
Q 13.28125 60.75 13.28125 54.390625 
Q 13.28125 47.953125 15.671875 44.328125 
Q 18.0625 40.71875 22.3125 40.71875 
Q 26.5625 40.71875 28.96875 44.328125 
Q 31.390625 47.953125 31.390625 54.390625 
Q 31.390625 60.6875 28.953125 64.34375 
Q 26.515625 68.015625 22.3125 68.015625 
z
M 66.40625 74.21875 
L 74.21875 74.21875 
L 28.609375 -1.421875 
L 20.796875 -1.421875 
z
M 22.3125 74.21875 
Q 30.03125 74.21875 34.609375 68.875 
Q 39.203125 63.53125 39.203125 54.390625 
Q 39.203125 45.171875 34.640625 39.84375 
Q 30.078125 34.515625 22.3125 34.515625 
Q 14.546875 34.515625 10.03125 39.859375 
Q 5.515625 45.21875 5.515625 54.390625 
Q 5.515625 63.484375 10.046875 68.84375 
Q 14.59375 74.21875 22.3125 74.21875 
z
" id="DejaVuSans-37"/>
      <path d="M 8.015625 75.875 
L 15.828125 75.875 
Q 23.140625 64.359375 26.78125 53.3125 
Q 30.421875 42.28125 30.421875 31.390625 
Q 30.421875 20.453125 26.78125 9.375 
Q 23.140625 -1.703125 15.828125 -13.1875 
L 8.015625 -13.1875 
Q 14.5 -2 17.703125 9.0625 
Q 20.90625 20.125 20.90625 31.390625 
Q 20.90625 42.671875 17.703125 53.65625 
Q 14.5 64.65625 8.015625 75.875 
z
" id="DejaVuSans-41"/>
      <path d="M 52 44.1875 
Q 55.375 50.25 60.0625 53.125 
Q 64.75 56 71.09375 56 
Q 79.640625 56 84.28125 50.015625 
Q 88.921875 44.046875 88.921875 33.015625 
L 88.921875 0 
L 79.890625 0 
L 79.890625 32.71875 
Q 79.890625 40.578125 77.09375 44.375 
Q 74.3125 48.1875 68.609375 48.1875 
Q 61.625 48.1875 57.5625 43.546875 
Q 53.515625 38.921875 53.515625 30.90625 
L 53.515625 0 
L 44.484375 0 
L 44.484375 32.71875 
Q 44.484375 40.625 41.703125 44.40625 
Q 38.921875 48.1875 33.109375 48.1875 
Q 26.21875 48.1875 22.15625 43.53125 
Q 18.109375 38.875 18.109375 30.90625 
L 18.109375 0 
L 9.078125 0 
L 9.078125 54.6875 
L 18.109375 54.6875 
L 18.109375 46.1875 
Q 21.1875 51.21875 25.484375 53.609375 
Q 29.78125 56 35.6875 56 
Q 41.65625 56 45.828125 52.96875 
Q 50 49.953125 52 44.1875 
z
" id="DejaVuSans-109"/>
     </defs>
     <g transform="translate(376.642187 406.276563)scale(0.1 -0.1)">
      <use xlink:href="#DejaVuSans-65"/>
      <use x="68.408203" xlink:href="#DejaVuSans-98"/>
      <use x="131.884766" xlink:href="#DejaVuSans-115"/>
      <use x="183.984375" xlink:href="#DejaVuSans-111"/>
      <use x="245.166016" xlink:href="#DejaVuSans-108"/>
      <use x="272.949219" xlink:href="#DejaVuSans-117"/>
      <use x="336.328125" xlink:href="#DejaVuSans-116"/>
      <use x="375.537109" xlink:href="#DejaVuSans-101"/>
      <use x="437.060547" xlink:href="#DejaVuSans-32"/>
      <use x="468.847656" xlink:href="#DejaVuSans-69"/>
      <use x="532.03125" xlink:href="#DejaVuSans-114"/>
      <use x="571.394531" xlink:href="#DejaVuSans-114"/>
      <use x="610.257812" xlink:href="#DejaVuSans-111"/>
      <use x="671.439453" xlink:href="#DejaVuSans-114"/>
      <use x="712.552734" xlink:href="#DejaVuSans-32"/>
      <use x="744.339844" xlink:href="#DejaVuSans-105"/>
      <use x="772.123047" xlink:href="#DejaVuSans-110"/>
      <use x="835.501953" xlink:href="#DejaVuSans-32"/>
      <use x="867.289062" xlink:href="#DejaVuSans-65"/>
      <use x="933.947266" xlink:href="#DejaVuSans-99"/>
      <use x="988.927734" xlink:href="#DejaVuSans-99"/>
      <use x="1043.908203" xlink:href="#DejaVuSans-117"/>
      <use x="1107.287109" xlink:href="#DejaVuSans-114"/>
      <use x="1148.400391" xlink:href="#DejaVuSans-97"/>
      <use x="1209.679688" xlink:href="#DejaVuSans-99"/>
      <use x="1264.660156" xlink:href="#DejaVuSans-121"/>
      <use x="1323.839844" xlink:href="#DejaVuSans-40"/>
      <use x="1362.853516" xlink:href="#DejaVuSans-37"/>
      <use x="1457.873047" xlink:href="#DejaVuSans-41"/>
      <use x="1496.886719" xlink:href="#DejaVuSans-32"/>
      <use x="1528.673828" xlink:href="#DejaVuSans-69"/>
      <use x="1591.857422" xlink:href="#DejaVuSans-115"/>
      <use x="1643.957031" xlink:href="#DejaVuSans-116"/>
      <use x="1683.166016" xlink:href="#DejaVuSans-105"/>
      <use x="1710.949219" xlink:href="#DejaVuSans-109"/>
      <use x="1808.361328" xlink:href="#DejaVuSans-97"/>
      <use x="1869.640625" xlink:href="#DejaVuSans-116"/>
      <use x="1908.849609" xlink:href="#DejaVuSans-105"/>
      <use x="1936.632812" xlink:href="#DejaVuSans-111"/>
      <use x="1997.814453" xlink:href="#DejaVuSans-110"/>
     </g>
    </g>
   </g>
   <g id="matplotlib.axis_2">
    <g id="ytick_1">
     <g id="line2d_21">
      <path clip-path="url(#p7bc9bd9987)" d="M 117 378 
L 842.4 378 
" style="fill:none;stroke:#b0b0b0;stroke-linecap:square;stroke-width:0.8;"/>
     </g>
     <g id="line2d_22">
      <defs>
       <path d="M 0 0 
L -3.5 0 
" id="m3daf71dac1" style="stroke:#000000;stroke-width:0.8;"/>
      </defs>
      <g>
       <use style="stroke:#000000;stroke-width:0.8;" x="117" xlink:href="#m3daf71dac1" y="378"/>
      </g>
     </g>
     <g id="text_12">
      <!-- 0 -->
      <g transform="translate(103.6375 381.799219)scale(0.1 -0.1)">
       <use xlink:href="#DejaVuSans-48"/>
      </g>
     </g>
    </g>
    <g id="ytick_2">
     <g id="line2d_23">
      <path clip-path="url(#p7bc9bd9987)" d="M 117 345.384 
L 842.4 345.384 
" style="fill:none;stroke:#b0b0b0;stroke-linecap:square;stroke-width:0.8;"/>
     </g>
     <g id="line2d_24">
      <g>
       <use style="stroke:#000000;stroke-width:0.8;" x="117" xlink:href="#m3daf71dac1" y="345.384"/>
      </g>
     </g>
     <g id="text_13">
      <!-- 10 -->
      <g transform="translate(97.275 349.183219)scale(0.1 -0.1)">
       <use xlink:href="#DejaVuSans-49"/>
       <use x="63.623047" xlink:href="#DejaVuSans-48"/>
      </g>
     </g>
    </g>
    <g id="ytick_3">
     <g id="line2d_25">
      <path clip-path="url(#p7bc9bd9987)" d="M 117 312.768 
L 842.4 312.768 
" style="fill:none;stroke:#b0b0b0;stroke-linecap:square;stroke-width:0.8;"/>
     </g>
     <g id="line2d_26">
      <g>
       <use style="stroke:#000000;stroke-width:0.8;" x="117" xlink:href="#m3daf71dac1" y="312.768"/>
      </g>
     </g>
     <g id="text_14">
      <!-- 20 -->
      <g transform="translate(97.275 316.567219)scale(0.1 -0.1)">
       <use xlink:href="#DejaVuSans-50"/>
       <use x="63.623047" xlink:href="#DejaVuSans-48"/>
      </g>
     </g>
    </g>
    <g id="ytick_4">
     <g id="line2d_27">
      <path clip-path="url(#p7bc9bd9987)" d="M 117 280.152 
L 842.4 280.152 
" style="fill:none;stroke:#b0b0b0;stroke-linecap:square;stroke-width:0.8;"/>
     </g>
     <g id="line2d_28">
      <g>
       <use style="stroke:#000000;stroke-width:0.8;" x="117" xlink:href="#m3daf71dac1" y="280.152"/>
      </g>
     </g>
     <g id="text_15">
      <!-- 30 -->
      <g transform="translate(97.275 283.951219)scale(0.1 -0.1)">
       <use xlink:href="#DejaVuSans-51"/>
       <use x="63.623047" xlink:href="#DejaVuSans-48"/>
      </g>
     </g>
    </g>
    <g id="ytick_5">
     <g id="line2d_29">
      <path clip-path="url(#p7bc9bd9987)" d="M 117 247.536 
L 842.4 247.536 
" style="fill:none;stroke:#b0b0b0;stroke-linecap:square;stroke-width:0.8;"/>
     </g>
     <g id="line2d_30">
      <g>
       <use style="stroke:#000000;stroke-width:0.8;" x="117" xlink:href="#m3daf71dac1" y="247.536"/>
      </g>
     </g>
     <g id="text_16">
      <!-- 40 -->
      <g transform="translate(97.275 251.335219)scale(0.1 -0.1)">
       <use xlink:href="#DejaVuSans-52"/>
       <use x="63.623047" xlink:href="#DejaVuSans-48"/>
      </g>
     </g>
    </g>
    <g id="ytick_6">
     <g id="line2d_31">
      <path clip-path="url(#p7bc9bd9987)" d="M 117 214.92 
L 842.4 214.92 
" style="fill:none;stroke:#b0b0b0;stroke-linecap:square;stroke-width:0.8;"/>
     </g>
     <g id="line2d_32">
      <g>
       <use style="stroke:#000000;stroke-width:0.8;" x="117" xlink:href="#m3daf71dac1" y="214.92"/>
      </g>
     </g>
     <g id="text_17">
      <!-- 50 -->
      <g transform="translate(97.275 218.719219)scale(0.1 -0.1)">
       <use xlink:href="#DejaVuSans-53"/>
       <use x="63.623047" xlink:href="#DejaVuSans-48"/>
      </g>
     </g>
    </g>
    <g id="ytick_7">
     <g id="line2d_33">
      <path clip-path="url(#p7bc9bd9987)" d="M 117 182.304 
L 842.4 182.304 
" style="fill:none;stroke:#b0b0b0;stroke-linecap:square;stroke-width:0.8;"/>
     </g>
     <g id="line2d_34">
      <g>
       <use style="stroke:#000000;stroke-width:0.8;" x="117" xlink:href="#m3daf71dac1" y="182.304"/>
      </g>
     </g>
     <g id="text_18">
      <!-- 60 -->
      <defs>
       <path d="M 33.015625 40.375 
Q 26.375 40.375 22.484375 35.828125 
Q 18.609375 31.296875 18.609375 23.390625 
Q 18.609375 15.53125 22.484375 10.953125 
Q 26.375 6.390625 33.015625 6.390625 
Q 39.65625 6.390625 43.53125 10.953125 
Q 47.40625 15.53125 47.40625 23.390625 
Q 47.40625 31.296875 43.53125 35.828125 
Q 39.65625 40.375 33.015625 40.375 
z
M 52.59375 71.296875 
L 52.59375 62.3125 
Q 48.875 64.0625 45.09375 64.984375 
Q 41.3125 65.921875 37.59375 65.921875 
Q 27.828125 65.921875 22.671875 59.328125 
Q 17.53125 52.734375 16.796875 39.40625 
Q 19.671875 43.65625 24.015625 45.921875 
Q 28.375 48.1875 33.59375 48.1875 
Q 44.578125 48.1875 50.953125 41.515625 
Q 57.328125 34.859375 57.328125 23.390625 
Q 57.328125 12.15625 50.6875 5.359375 
Q 44.046875 -1.421875 33.015625 -1.421875 
Q 20.359375 -1.421875 13.671875 8.265625 
Q 6.984375 17.96875 6.984375 36.375 
Q 6.984375 53.65625 15.1875 63.9375 
Q 23.390625 74.21875 37.203125 74.21875 
Q 40.921875 74.21875 44.703125 73.484375 
Q 48.484375 72.75 52.59375 71.296875 
z
" id="DejaVuSans-54"/>
      </defs>
      <g transform="translate(97.275 186.103219)scale(0.1 -0.1)">
       <use xlink:href="#DejaVuSans-54"/>
       <use x="63.623047" xlink:href="#DejaVuSans-48"/>
      </g>
     </g>
    </g>
    <g id="ytick_8">
     <g id="line2d_35">
      <path clip-path="url(#p7bc9bd9987)" d="M 117 149.688 
L 842.4 149.688 
" style="fill:none;stroke:#b0b0b0;stroke-linecap:square;stroke-width:0.8;"/>
     </g>
     <g id="line2d_36">
      <g>
       <use style="stroke:#000000;stroke-width:0.8;" x="117" xlink:href="#m3daf71dac1" y="149.688"/>
      </g>
     </g>
     <g id="text_19">
      <!-- 70 -->
      <defs>
       <path d="M 8.203125 72.90625 
L 55.078125 72.90625 
L 55.078125 68.703125 
L 28.609375 0 
L 18.3125 0 
L 43.21875 64.59375 
L 8.203125 64.59375 
z
" id="DejaVuSans-55"/>
      </defs>
      <g transform="translate(97.275 153.487219)scale(0.1 -0.1)">
       <use xlink:href="#DejaVuSans-55"/>
       <use x="63.623047" xlink:href="#DejaVuSans-48"/>
      </g>
     </g>
    </g>
    <g id="ytick_9">
     <g id="line2d_37">
      <path clip-path="url(#p7bc9bd9987)" d="M 117 117.072 
L 842.4 117.072 
" style="fill:none;stroke:#b0b0b0;stroke-linecap:square;stroke-width:0.8;"/>
     </g>
     <g id="line2d_38">
      <g>
       <use style="stroke:#000000;stroke-width:0.8;" x="117" xlink:href="#m3daf71dac1" y="117.072"/>
      </g>
     </g>
     <g id="text_20">
      <!-- 80 -->
      <defs>
       <path d="M 31.78125 34.625 
Q 24.75 34.625 20.71875 30.859375 
Q 16.703125 27.09375 16.703125 20.515625 
Q 16.703125 13.921875 20.71875 10.15625 
Q 24.75 6.390625 31.78125 6.390625 
Q 38.8125 6.390625 42.859375 10.171875 
Q 46.921875 13.96875 46.921875 20.515625 
Q 46.921875 27.09375 42.890625 30.859375 
Q 38.875 34.625 31.78125 34.625 
z
M 21.921875 38.8125 
Q 15.578125 40.375 12.03125 44.71875 
Q 8.5 49.078125 8.5 55.328125 
Q 8.5 64.0625 14.71875 69.140625 
Q 20.953125 74.21875 31.78125 74.21875 
Q 42.671875 74.21875 48.875 69.140625 
Q 55.078125 64.0625 55.078125 55.328125 
Q 55.078125 49.078125 51.53125 44.71875 
Q 48 40.375 41.703125 38.8125 
Q 48.828125 37.15625 52.796875 32.3125 
Q 56.78125 27.484375 56.78125 20.515625 
Q 56.78125 9.90625 50.3125 4.234375 
Q 43.84375 -1.421875 31.78125 -1.421875 
Q 19.734375 -1.421875 13.25 4.234375 
Q 6.78125 9.90625 6.78125 20.515625 
Q 6.78125 27.484375 10.78125 32.3125 
Q 14.796875 37.15625 21.921875 38.8125 
z
M 18.3125 54.390625 
Q 18.3125 48.734375 21.84375 45.5625 
Q 25.390625 42.390625 31.78125 42.390625 
Q 38.140625 42.390625 41.71875 45.5625 
Q 45.3125 48.734375 45.3125 54.390625 
Q 45.3125 60.0625 41.71875 63.234375 
Q 38.140625 66.40625 31.78125 66.40625 
Q 25.390625 66.40625 21.84375 63.234375 
Q 18.3125 60.0625 18.3125 54.390625 
z
" id="DejaVuSans-56"/>
      </defs>
      <g transform="translate(97.275 120.871219)scale(0.1 -0.1)">
       <use xlink:href="#DejaVuSans-56"/>
       <use x="63.623047" xlink:href="#DejaVuSans-48"/>
      </g>
     </g>
    </g>
    <g id="ytick_10">
     <g id="line2d_39">
      <path clip-path="url(#p7bc9bd9987)" d="M 117 84.456 
L 842.4 84.456 
" style="fill:none;stroke:#b0b0b0;stroke-linecap:square;stroke-width:0.8;"/>
     </g>
     <g id="line2d_40">
      <g>
       <use style="stroke:#000000;stroke-width:0.8;" x="117" xlink:href="#m3daf71dac1" y="84.456"/>
      </g>
     </g>
     <g id="text_21">
      <!-- 90 -->
      <defs>
       <path d="M 10.984375 1.515625 
L 10.984375 10.5 
Q 14.703125 8.734375 18.5 7.8125 
Q 22.3125 6.890625 25.984375 6.890625 
Q 35.75 6.890625 40.890625 13.453125 
Q 46.046875 20.015625 46.78125 33.40625 
Q 43.953125 29.203125 39.59375 26.953125 
Q 35.25 24.703125 29.984375 24.703125 
Q 19.046875 24.703125 12.671875 31.3125 
Q 6.296875 37.9375 6.296875 49.421875 
Q 6.296875 60.640625 12.9375 67.421875 
Q 19.578125 74.21875 30.609375 74.21875 
Q 43.265625 74.21875 49.921875 64.515625 
Q 56.59375 54.828125 56.59375 36.375 
Q 56.59375 19.140625 48.40625 8.859375 
Q 40.234375 -1.421875 26.421875 -1.421875 
Q 22.703125 -1.421875 18.890625 -0.6875 
Q 15.09375 0.046875 10.984375 1.515625 
z
M 30.609375 32.421875 
Q 37.25 32.421875 41.125 36.953125 
Q 45.015625 41.5 45.015625 49.421875 
Q 45.015625 57.28125 41.125 61.84375 
Q 37.25 66.40625 30.609375 66.40625 
Q 23.96875 66.40625 20.09375 61.84375 
Q 16.21875 57.28125 16.21875 49.421875 
Q 16.21875 41.5 20.09375 36.953125 
Q 23.96875 32.421875 30.609375 32.421875 
z
" id="DejaVuSans-57"/>
      </defs>
      <g transform="translate(97.275 88.255219)scale(0.1 -0.1)">
       <use xlink:href="#DejaVuSans-57"/>
       <use x="63.623047" xlink:href="#DejaVuSans-48"/>
      </g>
     </g>
    </g>
    <g id="text_22">
     <!-- % of Estimates -->
     <defs>
      <path d="M 37.109375 75.984375 
L 37.109375 68.5 
L 28.515625 68.5 
Q 23.6875 68.5 21.796875 66.546875 
Q 19.921875 64.59375 19.921875 59.515625 
L 19.921875 54.6875 
L 34.71875 54.6875 
L 34.71875 47.703125 
L 19.921875 47.703125 
L 19.921875 0 
L 10.890625 0 
L 10.890625 47.703125 
L 2.296875 47.703125 
L 2.296875 54.6875 
L 10.890625 54.6875 
L 10.890625 58.5 
Q 10.890625 67.625 15.140625 71.796875 
Q 19.390625 75.984375 28.609375 75.984375 
z
" id="DejaVuSans-102"/>
     </defs>
     <g transform="translate(91.195312 252.3575)rotate(-90)scale(0.1 -0.1)">
      <use xlink:href="#DejaVuSans-37"/>
      <use x="95.019531" xlink:href="#DejaVuSans-32"/>
      <use x="126.806641" xlink:href="#DejaVuSans-111"/>
      <use x="187.988281" xlink:href="#DejaVuSans-102"/>
      <use x="223.193359" xlink:href="#DejaVuSans-32"/>
      <use x="254.980469" xlink:href="#DejaVuSans-69"/>
      <use x="318.164062" xlink:href="#DejaVuSans-115"/>
      <use x="370.263672" xlink:href="#DejaVuSans-116"/>
      <use x="409.472656" xlink:href="#DejaVuSans-105"/>
      <use x="437.255859" xlink:href="#DejaVuSans-109"/>
      <use x="534.667969" xlink:href="#DejaVuSans-97"/>
      <use x="595.947266" xlink:href="#DejaVuSans-116"/>
      <use x="635.15625" xlink:href="#DejaVuSans-101"/>
      <use x="696.679688" xlink:href="#DejaVuSans-115"/>
     </g>
    </g>
   </g>
   <g id="line2d_41">
    <path clip-path="url(#p7bc9bd9987)" d="M 117 374.218435 
L 117.191506 373.273043 
L 117.259693 372.327652 
L 118.465308 371.382261 
L 118.83236 369.491478 
L 120.241087 368.546087 
L 120.510936 367.600696 
L 121.263901 366.655304 
L 122.159045 365.709913 
L 124.535455 364.764522 
L 125.389976 363.81913 
L 125.54231 361.928348 
L 127.112076 360.037565 
L 127.376122 359.092174 
L 127.612602 357.201391 
L 128.530958 356.256 
L 129.018427 355.310609 
L 130.432957 354.365217 
L 130.570783 352.474435 
L 132.131844 351.529043 
L 132.672992 350.583652 
L 132.997972 349.638261 
L 136.175224 348.69287 
L 136.873058 347.747478 
L 137.273479 346.802087 
L 138.242614 345.856696 
L 139.609993 343.965913 
L 139.848649 343.020522 
L 140.028548 340.184348 
L 140.511665 339.238957 
L 142.198945 337.348174 
L 142.539883 336.402783 
L 142.760405 335.457391 
L 143.253677 334.512 
L 143.410363 333.566609 
L 143.738244 332.621217 
L 143.867365 330.730435 
L 144.394006 329.785043 
L 144.600019 328.839652 
L 144.76541 326.94887 
L 145.281895 325.058087 
L 145.284797 324.112696 
L 145.70698 323.167304 
L 145.910092 322.221913 
L 145.915895 321.276522 
L 146.117556 320.33113 
L 146.275693 317.494957 
L 146.57891 315.604174 
L 147.191148 314.658783 
L 147.616232 313.713391 
L 148.491065 312.768 
L 148.788479 311.822609 
L 148.818946 310.877217 
L 149.040918 308.986435 
L 149.522584 308.041043 
L 149.576263 307.095652 
L 149.790982 306.150261 
L 150.507677 305.20487 
L 150.538144 304.259478 
L 152.151433 299.532522 
L 152.152884 298.58713 
L 152.828957 296.696348 
L 152.882636 295.750957 
L 153.200362 294.805565 
L 153.225025 293.860174 
L 153.525341 291.969391 
L 153.933886 291.024 
L 153.996851 290.078609 
L 154.179652 289.133217 
L 154.359551 285.351652 
L 154.822356 283.46087 
L 154.922461 282.515478 
L 155.28371 281.570087 
L 155.562264 279.679304 
L 156.023618 278.733913 
L 156.183206 276.84313 
L 156.474817 275.897739 
L 156.885394 274.952348 
L 157.092858 274.006957 
L 157.541155 273.061565 
L 157.587581 270.225391 
L 158.028624 269.28 
L 158.278162 267.389217 
L 158.906358 266.443826 
L 159.10947 263.607652 
L 159.4359 262.662261 
L 159.586783 260.771478 
L 160.139538 259.826087 
L 160.370215 256.044522 
L 161.073853 255.09913 
L 161.390128 254.153739 
L 161.729615 252.262957 
L 162.035734 247.536 
L 162.244649 246.590609 
L 162.311386 244.699826 
L 162.488383 243.754435 
L 162.559472 241.863652 
L 162.723413 240.918261 
L 163.09917 239.97287 
L 163.125284 239.027478 
L 163.51555 237.136696 
L 164.017526 236.191304 
L 164.195975 234.300522 
L 164.551421 233.35513 
L 164.94894 230.518957 
L 165.359516 229.573565 
L 165.490088 228.628174 
L 165.611956 226.737391 
L 165.971754 225.792 
L 166.586893 224.846609 
L 167.019232 222.010435 
L 167.302138 219.174261 
L 167.445767 218.22887 
L 167.812819 217.283478 
L 168.200183 213.501913 
L 168.609308 210.665739 
L 168.638324 209.720348 
L 168.813871 208.774957 
L 169.178022 207.829565 
L 169.236054 205.938783 
L 169.460928 204.048 
L 169.711916 203.102609 
L 169.913578 200.266435 
L 170.210992 199.321043 
L 170.290786 197.430261 
L 170.693092 195.539478 
L 170.98862 193.648696 
L 171.040849 192.703304 
L 171.753192 189.86713 
L 171.80397 188.921739 
L 172.162318 187.976348 
L 172.255169 187.030957 
L 172.525018 186.085565 
L 172.554034 185.140174 
L 173.087928 184.194783 
L 173.385342 181.358609 
L 174.293543 180.413217 
L 174.737488 176.631652 
L 175.55864 175.686261 
L 175.737089 173.795478 
L 175.890874 170.959304 
L 176.278237 170.013913 
L 176.490054 168.12313 
L 176.803427 167.177739 
L 177.041358 164.341565 
L 177.523024 161.505391 
L 177.583957 160.56 
L 178.110598 158.669217 
L 178.138163 157.723826 
L 178.448634 154.887652 
L 178.792474 152.051478 
L 179.069576 151.106087 
L 179.480153 148.269913 
L 179.497562 147.324522 
L 179.767411 146.37913 
L 180.151873 143.542957 
L 180.595818 142.597565 
L 181.406815 141.652174 
L 181.653451 139.761391 
L 182.464448 138.816 
L 182.744453 137.870609 
L 182.773469 136.925217 
L 182.976581 135.979826 
L 183.023006 135.034435 
L 183.497418 133.143652 
L 183.831102 130.307478 
L 184.563756 128.416696 
L 184.598575 127.471304 
L 185.068634 126.525913 
L 185.273197 124.63513 
L 185.71424 123.689739 
L 186.022245 121.798957 
L 186.612286 120.853565 
L 187.077992 118.962783 
L 188.086298 118.017391 
L 188.335836 117.072 
L 188.3605 116.126609 
L 188.734806 115.181217 
L 188.846518 113.290435 
L 189.54 112.345043 
L 189.851922 109.50887 
L 190.127574 108.563478 
L 190.195762 107.618087 
L 190.623748 106.672696 
L 190.639126 105.727304 
L 191.636406 104.781913 
L 191.674127 103.836522 
L 191.925115 102.89113 
L 191.967188 101.945739 
L 192.142735 101.000348 
L 192.595385 100.054957 
L 193.426693 99.109565 
L 193.532602 98.164174 
L 194.749823 97.218783 
L 194.921017 96.273391 
L 195.533255 95.328 
L 195.666728 94.382609 
L 195.68704 93.437217 
L 196.152746 92.491826 
L 197.726864 91.546435 
L 198.868644 90.601043 
L 199.769591 89.655652 
L 199.903064 88.710261 
L 200.26678 87.76487 
L 202.069109 86.819478 
L 203.009227 83.983304 
L 204.507904 83.037913 
L 204.741482 82.092522 
L 204.75454 81.14713 
L 205.15351 80.201739 
L 206.100882 79.256348 
L 209.14466 78.310957 
L 209.344871 76.420174 
L 209.76125 75.474783 
L 212.30015 74.529391 
L 213.099541 73.584 
L 213.655198 72.638609 
L 215.753054 71.693217 
L 217.227067 70.747826 
L 217.733396 69.802435 
L 219.007199 68.857043 
L 224.568696 67.911652 
L 228.599888 66.966261 
L 231.063347 66.02087 
L 232.074554 65.075478 
L 233.374471 64.130087 
L 235.309838 63.184696 
L 237.899516 62.239304 
L 237.944491 61.293913 
L 238.946994 60.348522 
L 245.076624 59.40313 
L 247.200595 58.457739 
L 270.199837 57.512348 
L 286.260484 55.621565 
L 314.661344 54.676174 
L 319.0239 53.730783 
L 355.346129 52.785391 
L 937 52.331856 
L 937 52.331856 
" style="fill:none;stroke:#0000ff;stroke-linecap:square;stroke-width:1.5;"/>
   </g>
   <g id="line2d_42">
    <path clip-path="url(#p7bc9bd9987)" d="M 117 374.218435 
L 119.010809 373.273043 
L 119.354648 372.327652 
L 120.641508 371.382261 
L 121.704944 370.43687 
L 125.011318 369.491478 
L 126.274964 368.546087 
L 126.923472 367.600696 
L 128.040588 366.655304 
L 129.775745 365.709913 
L 130.535964 364.764522 
L 136.801969 363.81913 
L 137.36488 362.873739 
L 137.530271 361.928348 
L 139.049258 360.982957 
L 139.62421 360.037565 
L 139.749995 358.146783 
L 139.816732 357.201391 
L 140.080777 356.256 
L 140.476846 355.310609 
L 141.081829 354.365217 
L 141.315408 353.419826 
L 142.140913 352.474435 
L 142.487654 351.529043 
L 144.128509 350.583652 
L 144.23877 347.747478 
L 144.43898 346.802087 
L 146.111753 345.856696 
L 147.128764 344.911304 
L 147.400063 343.020522 
L 147.817894 342.07513 
L 148.060177 341.129739 
L 148.089193 340.184348 
L 148.359042 338.293565 
L 148.509925 337.348174 
L 149.013353 336.402783 
L 149.030762 335.457391 
L 149.222268 334.512 
L 149.293357 330.730435 
L 150.129018 329.785043 
L 150.837008 326.003478 
L 151.901896 325.058087 
L 152.731753 324.112696 
L 153.058183 323.167304 
L 153.866279 322.221913 
L 154.017162 321.276522 
L 154.401624 320.33113 
L 154.922461 319.385739 
L 155.039976 318.440348 
L 156.049733 317.494957 
L 156.258648 314.658783 
L 156.647462 313.713391 
L 156.692437 312.768 
L 156.976794 311.822609 
L 157.065293 310.877217 
L 157.490377 309.931826 
L 158.150491 308.986435 
L 158.640862 308.041043 
L 158.865736 307.095652 
L 158.986152 305.20487 
L 159.123978 304.259478 
L 160.14244 303.314087 
L 160.574778 302.368696 
L 160.645867 301.423304 
L 160.898306 300.477913 
L 160.928773 299.532522 
L 161.143492 298.58713 
L 161.362562 295.750957 
L 161.968997 294.805565 
L 161.979152 293.860174 
L 162.114077 292.914783 
L 162.515948 291.969391 
L 162.546415 289.133217 
L 163.376273 287.242435 
L 163.384978 286.297043 
L 163.601147 285.351652 
L 163.905815 282.515478 
L 164.116181 281.570087 
L 164.504995 280.624696 
L 164.755984 279.679304 
L 165.088217 276.84313 
L 165.649241 275.897739 
L 166.015278 274.006957 
L 166.038491 273.061565 
L 166.483886 270.225391 
L 166.512902 269.28 
L 166.684097 268.334609 
L 166.736326 267.389217 
L 167.347112 265.498435 
L 168.037838 264.553043 
L 168.130544 263.607652 
L 168.528064 262.662261 
L 169.163514 258.880696 
L 169.17512 257.935304 
L 169.765596 255.09913 
L 170.012232 252.262957 
L 170.270474 251.317565 
L 170.292236 249.426783 
L 170.533069 247.536 
L 170.62592 245.645217 
L 171.164167 244.699826 
L 171.42386 242.809043 
L 171.490597 241.863652 
L 172.247915 240.918261 
L 172.466986 236.191304 
L 172.834038 235.245913 
L 173.486898 230.518957 
L 173.573946 229.573565 
L 173.96276 227.682783 
L 174.048358 226.737391 
L 174.56049 225.792 
L 174.840494 223.901217 
L 175.325062 222.010435 
L 175.359881 221.065043 
L 175.841546 220.119652 
L 176.250672 216.338087 
L 176.42767 215.392696 
L 176.4828 212.556522 
L 176.662699 211.61113 
L 177.124054 210.665739 
L 177.328616 209.720348 
L 177.42582 204.993391 
L 177.550589 204.048 
L 178.631435 203.102609 
L 178.796826 202.157217 
L 179.20305 201.211826 
L 179.88333 195.539478 
L 180.153324 194.594087 
L 180.382986 192.703304 
L 180.52618 190.812522 
L 180.70753 189.86713 
L 180.772816 187.976348 
L 181.006394 187.030957 
L 181.254481 184.194783 
L 181.698426 183.249391 
L 181.802884 181.358609 
L 182.12206 180.413217 
L 182.262787 179.467826 
L 182.653052 178.522435 
L 182.705281 177.577043 
L 183.050572 175.686261 
L 183.395862 174.74087 
L 183.730997 170.959304 
L 183.735349 170.013913 
L 184.02696 167.177739 
L 184.032763 166.232348 
L 184.173491 165.286957 
L 184.187999 164.341565 
L 184.344685 163.396174 
L 184.385308 162.450783 
L 184.652255 161.505391 
L 184.705934 160.56 
L 184.975783 159.614609 
L 185.010602 158.669217 
L 185.463252 157.723826 
L 185.65911 153.942261 
L 185.868025 152.99687 
L 185.947819 152.051478 
L 186.16689 151.106087 
L 186.887938 150.160696 
L 187.082345 146.37913 
L 187.978939 144.488348 
L 188.07179 143.542957 
L 188.57957 142.597565 
L 189.007556 139.761391 
L 189.365904 138.816 
L 189.70394 136.925217 
L 190.336489 135.979826 
L 190.805098 135.034435 
L 191.060438 132.198261 
L 191.486974 130.307478 
L 192.046982 129.362087 
L 192.105014 128.416696 
L 192.299422 127.471304 
L 192.633106 126.525913 
L 192.728858 124.63513 
L 193.43975 122.744348 
L 193.935924 121.798957 
L 193.970743 120.853565 
L 194.958738 119.908174 
L 194.977598 118.962783 
L 195.611598 118.017391 
L 195.782792 116.126609 
L 196.347154 115.181217 
L 197.001464 113.290435 
L 197.510695 111.399652 
L 197.93578 110.454261 
L 198.949889 109.50887 
L 199.588241 108.563478 
L 200.02203 107.618087 
L 200.273018 106.672696 
L 200.499343 103.836522 
L 202.575438 102.89113 
L 203.918879 101.945739 
L 204.735679 101.000348 
L 207.041 100.054957 
L 207.675 99.109565 
L 207.830236 98.164174 
L 208.156666 97.218783 
L 208.446826 95.328 
L 209.547548 93.437217 
L 211.423867 92.491826 
L 211.634233 90.601043 
L 212.700571 89.655652 
L 213.343276 88.710261 
L 213.375193 87.76487 
L 215.421256 86.819478 
L 215.680514 84.928696 
L 216.598871 83.983304 
L 217.138568 83.037913 
L 220.69593 82.092522 
L 220.7322 81.14713 
L 222.513782 80.201739 
L 223.88827 79.256348 
L 228.007962 78.310957 
L 228.599888 77.365565 
L 231.183763 76.420174 
L 232.208028 75.474783 
L 242.505806 74.529391 
L 256.652557 73.584 
L 256.897742 72.638609 
L 264.466566 71.693217 
L 278.199839 70.747826 
L 290.02531 69.802435 
L 310.686152 68.857043 
L 322.749554 67.911652 
L 322.83225 66.966261 
L 328.117514 66.02087 
L 339.174061 65.075478 
L 344.582644 64.130087 
L 345.717169 63.184696 
L 359.715938 62.239304 
L 400.406526 61.293913 
L 406.787144 60.348522 
L 425.04111 59.40313 
L 439.975645 58.457739 
L 451.994072 57.512348 
L 458.306503 56.566957 
L 473.048082 55.621565 
L 473.851825 54.676174 
L 498.692423 53.730783 
L 519.630078 52.785391 
L 937 52.20976 
L 937 52.20976 
" style="fill:none;stroke:#800080;stroke-linecap:square;stroke-width:1.5;"/>
   </g>
   <g id="line2d_43">
    <path clip-path="url(#p7bc9bd9987)" d="M 117 370.43687 
L 117.612238 369.491478 
L 120.22803 366.655304 
L 121.977695 365.709913 
L 122.333141 364.764522 
L 123.487978 363.81913 
L 123.747671 362.873739 
L 124.631208 360.982957 
L 126.011209 360.037565 
L 126.517248 359.092174 
L 127.907114 358.146783 
L 128.349608 357.201391 
L 128.404739 356.256 
L 129.616157 353.419826 
L 129.649525 352.474435 
L 130.189223 351.529043 
L 130.432957 350.583652 
L 130.457621 349.638261 
L 131.136595 348.69287 
L 132.847088 347.747478 
L 133.95695 346.802087 
L 134.586598 345.856696 
L 134.796964 344.911304 
L 136.500203 343.020522 
L 137.724678 342.07513 
L 139.528022 341.129739 
L 140.748145 340.184348 
L 140.899028 339.238957 
L 141.179033 338.293565 
L 142.712528 337.348174 
L 143.692109 335.457391 
L 146.869361 333.566609 
L 147.360892 332.621217 
L 148.402566 331.675826 
L 148.961124 330.730435 
L 149.685073 328.839652 
L 150.480112 326.94887 
L 150.53089 326.003478 
L 152.509781 322.221913 
L 153.27 321.276522 
L 153.79664 320.33113 
L 154.590228 319.385739 
L 155.647861 318.440348 
L 155.648296 317.494957 
L 156.231083 316.549565 
L 157.237938 315.604174 
L 157.249544 314.658783 
L 158.427594 313.713391 
L 158.700344 312.768 
L 159.644815 311.822609 
L 160.963592 310.877217 
L 161.137688 309.931826 
L 164.828524 306.150261 
L 165.359516 304.259478 
L 166.782751 303.314087 
L 167.244106 302.368696 
L 167.989817 301.423304 
L 170.617216 300.477913 
L 170.73328 299.532522 
L 171.357124 298.58713 
L 172.65704 297.641739 
L 173.331662 296.696348 
L 173.524619 295.750957 
L 173.894573 294.805565 
L 175.155318 293.860174 
L 175.207547 292.914783 
L 176.169427 291.969391 
L 176.215853 291.024 
L 176.90063 290.078609 
L 178.275989 289.133217 
L 178.300652 288.187826 
L 179.867516 287.242435 
L 182.945389 286.297043 
L 183.960223 285.351652 
L 184.446241 284.406261 
L 184.650804 283.46087 
L 185.812605 282.515478 
L 186.085645 278.733913 
L 187.630747 277.788522 
L 187.68051 276.84313 
L 187.928161 275.897739 
L 189.455854 274.952348 
L 189.54 274.006957 
L 190.966136 273.061565 
L 191.778584 272.116174 
L 191.994754 271.170783 
L 192.041179 270.225391 
L 193.358506 268.334609 
L 195.296774 267.389217 
L 196.882499 266.443826 
L 197.076906 265.498435 
L 197.600645 264.553043 
L 199.602749 263.607652 
L 199.778296 262.662261 
L 200.379362 261.71687 
L 200.421 260.771478 
L 202.341859 259.826087 
L 202.774198 258.880696 
L 203.615662 257.935304 
L 204.048 256.989913 
L 205.463981 256.044522 
L 206.554982 253.208348 
L 208.784862 250.372174 
L 211.271533 249.426783 
L 211.616824 248.481391 
L 211.743043 247.536 
L 212.674312 246.590609 
L 213.308456 245.645217 
L 213.392603 244.699826 
L 215.027654 243.754435 
L 216.920948 242.809043 
L 217.054422 241.863652 
L 217.331525 240.918261 
L 218.019204 239.97287 
L 218.217964 239.027478 
L 220.218617 238.082087 
L 220.627742 237.136696 
L 220.629193 236.191304 
L 222.058231 235.245913 
L 222.130771 234.300522 
L 222.512332 233.35513 
L 223.156487 230.518957 
L 223.480015 229.573565 
L 224.202514 228.628174 
L 224.466559 226.737391 
L 225.268852 225.792 
L 225.470513 224.846609 
L 225.81 223.901217 
L 226.528146 222.955826 
L 228.228484 222.010435 
L 228.599888 220.119652 
L 230.645516 219.174261 
L 230.787695 218.22887 
L 233.064 217.283478 
L 234.632315 216.338087 
L 235.354813 215.392696 
L 237.899516 212.556522 
L 237.900967 210.665739 
L 239.038394 209.720348 
L 239.35612 208.774957 
L 240.181625 207.829565 
L 240.848993 206.884174 
L 243.157216 204.993391 
L 244.262725 204.048 
L 245.011338 203.102609 
L 245.960161 202.157217 
L 247.126604 200.266435 
L 247.200595 199.321043 
L 248.890777 197.430261 
L 249.524777 196.48487 
L 250.406863 195.539478 
L 250.920446 194.594087 
L 251.716936 193.648696 
L 253.0125 192.703304 
L 254.067232 191.757913 
L 254.44444 190.812522 
L 255.17129 187.976348 
L 256.58437 187.030957 
L 257.399719 185.140174 
L 258.541499 184.194783 
L 259.234981 183.249391 
L 259.702139 181.358609 
L 262.08 178.522435 
L 264.925019 177.577043 
L 265.200671 176.631652 
L 265.994258 175.686261 
L 266.245247 174.74087 
L 266.346803 173.795478 
L 267.614802 172.850087 
L 268.319891 171.904696 
L 269.760535 170.959304 
L 272.003472 170.013913 
L 272.443064 169.068522 
L 273.239554 168.12313 
L 274.662788 167.177739 
L 275.269223 166.232348 
L 276.428412 165.286957 
L 278.919436 161.505391 
L 279.749293 160.56 
L 281.242166 159.614609 
L 282.280939 158.669217 
L 282.806129 157.723826 
L 285.697573 156.778435 
L 286.573856 155.833043 
L 287.682268 153.942261 
L 289.527685 152.99687 
L 292.85437 152.051478 
L 293.926511 151.106087 
L 294.260195 150.160696 
L 298.35 148.269913 
L 302.209128 147.324522 
L 302.640016 146.37913 
L 304.781396 145.433739 
L 306.235098 144.488348 
L 306.327949 143.542957 
L 311.086573 142.597565 
L 313.473139 140.706783 
L 316.618474 139.761391 
L 318.500161 138.816 
L 318.923795 137.870609 
L 319.138513 136.925217 
L 320.481954 135.979826 
L 324.538391 135.034435 
L 324.957672 134.089043 
L 331.933118 133.143652 
L 333.450655 132.198261 
L 333.537703 131.25287 
L 334.62 130.307478 
L 334.799899 129.362087 
L 336.817962 128.416696 
L 342.680645 127.471304 
L 344.234452 126.525913 
L 348.286536 125.580522 
L 357.56005 124.63513 
L 360.046431 123.689739 
L 361.883434 122.744348 
L 362.218568 121.798957 
L 372.233441 118.962783 
L 376.070807 118.017391 
L 377.39974 117.072 
L 380.781554 116.126609 
L 381.611412 115.181217 
L 386.699368 114.235826 
L 390.001388 113.290435 
L 395.740753 112.345043 
L 398.536445 111.399652 
L 403.971142 110.454261 
L 407.16 108.563478 
L 410.614355 107.618087 
L 416.621682 106.672696 
L 417.26192 105.727304 
L 417.692808 104.781913 
L 420.43482 103.836522 
L 427.043214 102.89113 
L 437.129176 101.945739 
L 440.90851 101.000348 
L 441.520747 100.054957 
L 442.500037 99.109565 
L 444.248251 98.164174 
L 468.708739 97.218783 
L 472.20952 96.273391 
L 474.442301 95.328 
L 474.704896 94.382609 
L 476.715704 93.437217 
L 494.208 92.491826 
L 499.781974 90.601043 
L 509.862132 89.655652 
L 512.672332 88.710261 
L 527.078776 86.819478 
L 529.159223 85.874087 
L 538.534292 84.928696 
L 559.14871 83.983304 
L 570.375 83.037913 
L 584.056044 82.092522 
L 588.688448 81.14713 
L 601.517873 80.201739 
L 630.825484 78.310957 
L 631.800421 77.365565 
L 642.915 76.420174 
L 644.16704 75.474783 
L 644.988193 74.529391 
L 668.304 73.584 
L 669.194791 72.638609 
L 672.089137 71.693217 
L 676.625789 70.747826 
L 688.101617 69.802435 
L 706.886575 68.857043 
L 713.439839 67.911652 
L 726.872796 66.966261 
L 744.546442 66.02087 
L 769.102682 65.075478 
L 813.384 64.130087 
L 880.817184 63.184696 
L 937 62.076833 
L 937 62.076833 
" style="fill:none;stroke:#ff0000;stroke-linecap:square;stroke-width:1.5;"/>
   </g>
   <g id="line2d_44">
    <path clip-path="url(#p7bc9bd9987)" d="M 262.08 378 
L 262.08 51.84 
" style="fill:none;stroke:#000000;stroke-dasharray:1.5,2.475;stroke-dashoffset:0;stroke-width:1.5;"/>
   </g>
   <g id="line2d_45">
    <path clip-path="url(#p7bc9bd9987)" d="M 117 57.512348 
L 262.08 57.512348 
" style="fill:none;stroke:#0000ff;stroke-dasharray:1.5,2.475;stroke-dashoffset:0;stroke-width:1.5;"/>
   </g>
   <g id="line2d_46">
    <path clip-path="url(#p7bc9bd9987)" d="M 117 71.693217 
L 262.08 71.693217 
" style="fill:none;stroke:#800080;stroke-dasharray:1.5,2.475;stroke-dashoffset:0;stroke-width:1.5;"/>
   </g>
   <g id="line2d_47">
    <path clip-path="url(#p7bc9bd9987)" d="M 117 177.577043 
L 262.08 177.577043 
" style="fill:none;stroke:#ff0000;stroke-dasharray:1.5,2.475;stroke-dashoffset:0;stroke-width:1.5;"/>
   </g>
   <g id="patch_3">
    <path d="M 117 378 
L 117 51.84 
" style="fill:none;stroke:#000000;stroke-linecap:square;stroke-linejoin:miter;stroke-width:0.8;"/>
   </g>
   <g id="patch_4">
    <path d="M 842.4 378 
L 842.4 51.84 
" style="fill:none;stroke:#000000;stroke-linecap:square;stroke-linejoin:miter;stroke-width:0.8;"/>
   </g>
   <g id="patch_5">
    <path d="M 117 378 
L 842.4 378 
" style="fill:none;stroke:#000000;stroke-linecap:square;stroke-linejoin:miter;stroke-width:0.8;"/>
   </g>
   <g id="patch_6">
    <path d="M 117 51.84 
L 842.4 51.84 
" style="fill:none;stroke:#000000;stroke-linecap:square;stroke-linejoin:miter;stroke-width:0.8;"/>
   </g>
   <g id="text_23">
    <!-- Percentage of Accuracy Estimates (for which there was less than 'x' absolute error) -->
    <defs>
     <path d="M 19.671875 64.796875 
L 19.671875 37.40625 
L 32.078125 37.40625 
Q 38.96875 37.40625 42.71875 40.96875 
Q 46.484375 44.53125 46.484375 51.125 
Q 46.484375 57.671875 42.71875 61.234375 
Q 38.96875 64.796875 32.078125 64.796875 
z
M 9.8125 72.90625 
L 32.078125 72.90625 
Q 44.34375 72.90625 50.609375 67.359375 
Q 56.890625 61.8125 56.890625 51.125 
Q 56.890625 40.328125 50.609375 34.8125 
Q 44.34375 29.296875 32.078125 29.296875 
L 19.671875 29.296875 
L 19.671875 0 
L 9.8125 0 
z
" id="DejaVuSans-80"/>
     <path d="M 45.40625 27.984375 
Q 45.40625 37.75 41.375 43.109375 
Q 37.359375 48.484375 30.078125 48.484375 
Q 22.859375 48.484375 18.828125 43.109375 
Q 14.796875 37.75 14.796875 27.984375 
Q 14.796875 18.265625 18.828125 12.890625 
Q 22.859375 7.515625 30.078125 7.515625 
Q 37.359375 7.515625 41.375 12.890625 
Q 45.40625 18.265625 45.40625 27.984375 
z
M 54.390625 6.78125 
Q 54.390625 -7.171875 48.1875 -13.984375 
Q 42 -20.796875 29.203125 -20.796875 
Q 24.46875 -20.796875 20.265625 -20.09375 
Q 16.0625 -19.390625 12.109375 -17.921875 
L 12.109375 -9.1875 
Q 16.0625 -11.328125 19.921875 -12.34375 
Q 23.78125 -13.375 27.78125 -13.375 
Q 36.625 -13.375 41.015625 -8.765625 
Q 45.40625 -4.15625 45.40625 5.171875 
L 45.40625 9.625 
Q 42.625 4.78125 38.28125 2.390625 
Q 33.9375 0 27.875 0 
Q 17.828125 0 11.671875 7.65625 
Q 5.515625 15.328125 5.515625 27.984375 
Q 5.515625 40.671875 11.671875 48.328125 
Q 17.828125 56 27.875 56 
Q 33.9375 56 38.28125 53.609375 
Q 42.625 51.21875 45.40625 46.390625 
L 45.40625 54.6875 
L 54.390625 54.6875 
z
" id="DejaVuSans-103"/>
     <path d="M 4.203125 54.6875 
L 13.1875 54.6875 
L 24.421875 12.015625 
L 35.59375 54.6875 
L 46.1875 54.6875 
L 57.421875 12.015625 
L 68.609375 54.6875 
L 77.59375 54.6875 
L 63.28125 0 
L 52.6875 0 
L 40.921875 44.828125 
L 29.109375 0 
L 18.5 0 
z
" id="DejaVuSans-119"/>
     <path d="M 54.890625 33.015625 
L 54.890625 0 
L 45.90625 0 
L 45.90625 32.71875 
Q 45.90625 40.484375 42.875 44.328125 
Q 39.84375 48.1875 33.796875 48.1875 
Q 26.515625 48.1875 22.3125 43.546875 
Q 18.109375 38.921875 18.109375 30.90625 
L 18.109375 0 
L 9.078125 0 
L 9.078125 75.984375 
L 18.109375 75.984375 
L 18.109375 46.1875 
Q 21.34375 51.125 25.703125 53.5625 
Q 30.078125 56 35.796875 56 
Q 45.21875 56 50.046875 50.171875 
Q 54.890625 44.34375 54.890625 33.015625 
z
" id="DejaVuSans-104"/>
     <path d="M 17.921875 72.90625 
L 17.921875 45.796875 
L 9.625 45.796875 
L 9.625 72.90625 
z
" id="DejaVuSans-39"/>
     <path d="M 54.890625 54.6875 
L 35.109375 28.078125 
L 55.90625 0 
L 45.3125 0 
L 29.390625 21.484375 
L 13.484375 0 
L 2.875 0 
L 24.125 28.609375 
L 4.6875 54.6875 
L 15.28125 54.6875 
L 29.78125 35.203125 
L 44.28125 54.6875 
z
" id="DejaVuSans-120"/>
    </defs>
    <g transform="translate(167.405859 12.246562)scale(0.15 -0.15)">
     <use xlink:href="#DejaVuSans-80"/>
     <use x="56.677734" xlink:href="#DejaVuSans-101"/>
     <use x="118.201172" xlink:href="#DejaVuSans-114"/>
     <use x="157.064453" xlink:href="#DejaVuSans-99"/>
     <use x="212.044922" xlink:href="#DejaVuSans-101"/>
     <use x="273.568359" xlink:href="#DejaVuSans-110"/>
     <use x="336.947266" xlink:href="#DejaVuSans-116"/>
     <use x="376.15625" xlink:href="#DejaVuSans-97"/>
     <use x="437.435547" xlink:href="#DejaVuSans-103"/>
     <use x="500.912109" xlink:href="#DejaVuSans-101"/>
     <use x="562.435547" xlink:href="#DejaVuSans-32"/>
     <use x="594.222656" xlink:href="#DejaVuSans-111"/>
     <use x="655.404297" xlink:href="#DejaVuSans-102"/>
     <use x="690.609375" xlink:href="#DejaVuSans-32"/>
     <use x="722.396484" xlink:href="#DejaVuSans-65"/>
     <use x="789.054688" xlink:href="#DejaVuSans-99"/>
     <use x="844.035156" xlink:href="#DejaVuSans-99"/>
     <use x="899.015625" xlink:href="#DejaVuSans-117"/>
     <use x="962.394531" xlink:href="#DejaVuSans-114"/>
     <use x="1003.507812" xlink:href="#DejaVuSans-97"/>
     <use x="1064.787109" xlink:href="#DejaVuSans-99"/>
     <use x="1119.767578" xlink:href="#DejaVuSans-121"/>
     <use x="1178.947266" xlink:href="#DejaVuSans-32"/>
     <use x="1210.734375" xlink:href="#DejaVuSans-69"/>
     <use x="1273.917969" xlink:href="#DejaVuSans-115"/>
     <use x="1326.017578" xlink:href="#DejaVuSans-116"/>
     <use x="1365.226562" xlink:href="#DejaVuSans-105"/>
     <use x="1393.009766" xlink:href="#DejaVuSans-109"/>
     <use x="1490.421875" xlink:href="#DejaVuSans-97"/>
     <use x="1551.701172" xlink:href="#DejaVuSans-116"/>
     <use x="1590.910156" xlink:href="#DejaVuSans-101"/>
     <use x="1652.433594" xlink:href="#DejaVuSans-115"/>
     <use x="1704.533203" xlink:href="#DejaVuSans-32"/>
     <use x="1736.320312" xlink:href="#DejaVuSans-40"/>
     <use x="1775.333984" xlink:href="#DejaVuSans-102"/>
     <use x="1810.539062" xlink:href="#DejaVuSans-111"/>
     <use x="1871.720703" xlink:href="#DejaVuSans-114"/>
     <use x="1912.833984" xlink:href="#DejaVuSans-32"/>
     <use x="1944.621094" xlink:href="#DejaVuSans-119"/>
     <use x="2026.408203" xlink:href="#DejaVuSans-104"/>
     <use x="2089.787109" xlink:href="#DejaVuSans-105"/>
     <use x="2117.570312" xlink:href="#DejaVuSans-99"/>
     <use x="2172.550781" xlink:href="#DejaVuSans-104"/>
     <use x="2235.929688" xlink:href="#DejaVuSans-32"/>
     <use x="2267.716797" xlink:href="#DejaVuSans-116"/>
     <use x="2306.925781" xlink:href="#DejaVuSans-104"/>
     <use x="2370.304688" xlink:href="#DejaVuSans-101"/>
     <use x="2431.828125" xlink:href="#DejaVuSans-114"/>
     <use x="2470.691406" xlink:href="#DejaVuSans-101"/>
     <use x="2532.214844" xlink:href="#DejaVuSans-32"/>
     <use x="2564.001953" xlink:href="#DejaVuSans-119"/>
     <use x="2645.789062" xlink:href="#DejaVuSans-97"/>
     <use x="2707.068359" xlink:href="#DejaVuSans-115"/>
     <use x="2759.167969" xlink:href="#DejaVuSans-32"/>
     <use x="2790.955078" xlink:href="#DejaVuSans-108"/>
     <use x="2818.738281" xlink:href="#DejaVuSans-101"/>
     <use x="2880.261719" xlink:href="#DejaVuSans-115"/>
     <use x="2932.361328" xlink:href="#DejaVuSans-115"/>
     <use x="2984.460938" xlink:href="#DejaVuSans-32"/>
     <use x="3016.248047" xlink:href="#DejaVuSans-116"/>
     <use x="3055.457031" xlink:href="#DejaVuSans-104"/>
     <use x="3118.835938" xlink:href="#DejaVuSans-97"/>
     <use x="3180.115234" xlink:href="#DejaVuSans-110"/>
     <use x="3243.494141" xlink:href="#DejaVuSans-32"/>
     <use x="3275.28125" xlink:href="#DejaVuSans-39"/>
     <use x="3302.771484" xlink:href="#DejaVuSans-120"/>
     <use x="3361.951172" xlink:href="#DejaVuSans-39"/>
     <use x="3389.441406" xlink:href="#DejaVuSans-32"/>
     <use x="3421.228516" xlink:href="#DejaVuSans-97"/>
     <use x="3482.507812" xlink:href="#DejaVuSans-98"/>
     <use x="3545.984375" xlink:href="#DejaVuSans-115"/>
     <use x="3598.083984" xlink:href="#DejaVuSans-111"/>
     <use x="3659.265625" xlink:href="#DejaVuSans-108"/>
     <use x="3687.048828" xlink:href="#DejaVuSans-117"/>
     <use x="3750.427734" xlink:href="#DejaVuSans-116"/>
     <use x="3789.636719" xlink:href="#DejaVuSans-101"/>
     <use x="3851.160156" xlink:href="#DejaVuSans-32"/>
     <use x="3882.947266" xlink:href="#DejaVuSans-101"/>
     <use x="3944.470703" xlink:href="#DejaVuSans-114"/>
     <use x="3983.833984" xlink:href="#DejaVuSans-114"/>
     <use x="4022.697266" xlink:href="#DejaVuSans-111"/>
     <use x="4083.878906" xlink:href="#DejaVuSans-114"/>
     <use x="4124.992188" xlink:href="#DejaVuSans-41"/>
    </g>
    <!-- vs. Absolute Error -->
    <defs>
     <path d="M 2.984375 54.6875 
L 12.5 54.6875 
L 29.59375 8.796875 
L 46.6875 54.6875 
L 56.203125 54.6875 
L 35.6875 0 
L 23.484375 0 
z
" id="DejaVuSans-118"/>
     <path d="M 10.6875 12.40625 
L 21 12.40625 
L 21 0 
L 10.6875 0 
z
" id="DejaVuSans-46"/>
    </defs>
    <g transform="translate(413.145703 29.043281)scale(0.15 -0.15)">
     <use xlink:href="#DejaVuSans-118"/>
     <use x="59.179688" xlink:href="#DejaVuSans-115"/>
     <use x="111.279297" xlink:href="#DejaVuSans-46"/>
     <use x="143.066406" xlink:href="#DejaVuSans-32"/>
     <use x="174.853516" xlink:href="#DejaVuSans-65"/>
     <use x="243.261719" xlink:href="#DejaVuSans-98"/>
     <use x="306.738281" xlink:href="#DejaVuSans-115"/>
     <use x="358.837891" xlink:href="#DejaVuSans-111"/>
     <use x="420.019531" xlink:href="#DejaVuSans-108"/>
     <use x="447.802734" xlink:href="#DejaVuSans-117"/>
     <use x="511.181641" xlink:href="#DejaVuSans-116"/>
     <use x="550.390625" xlink:href="#DejaVuSans-101"/>
     <use x="611.914062" xlink:href="#DejaVuSans-32"/>
     <use x="643.701172" xlink:href="#DejaVuSans-69"/>
     <use x="706.884766" xlink:href="#DejaVuSans-114"/>
     <use x="746.248047" xlink:href="#DejaVuSans-114"/>
     <use x="785.111328" xlink:href="#DejaVuSans-111"/>
     <use x="846.292969" xlink:href="#DejaVuSans-114"/>
    </g>
    <!-- Scenario:2 -->
    <defs>
     <path d="M 53.515625 70.515625 
L 53.515625 60.890625 
Q 47.90625 63.578125 42.921875 64.890625 
Q 37.9375 66.21875 33.296875 66.21875 
Q 25.25 66.21875 20.875 63.09375 
Q 16.5 59.96875 16.5 54.203125 
Q 16.5 49.359375 19.40625 46.890625 
Q 22.3125 44.4375 30.421875 42.921875 
L 36.375 41.703125 
Q 47.40625 39.59375 52.65625 34.296875 
Q 57.90625 29 57.90625 20.125 
Q 57.90625 9.515625 50.796875 4.046875 
Q 43.703125 -1.421875 29.984375 -1.421875 
Q 24.8125 -1.421875 18.96875 -0.25 
Q 13.140625 0.921875 6.890625 3.21875 
L 6.890625 13.375 
Q 12.890625 10.015625 18.65625 8.296875 
Q 24.421875 6.59375 29.984375 6.59375 
Q 38.421875 6.59375 43.015625 9.90625 
Q 47.609375 13.234375 47.609375 19.390625 
Q 47.609375 24.75 44.3125 27.78125 
Q 41.015625 30.8125 33.5 32.328125 
L 27.484375 33.5 
Q 16.453125 35.6875 11.515625 40.375 
Q 6.59375 45.0625 6.59375 53.421875 
Q 6.59375 63.09375 13.40625 68.65625 
Q 20.21875 74.21875 32.171875 74.21875 
Q 37.3125 74.21875 42.625 73.28125 
Q 47.953125 72.359375 53.515625 70.515625 
z
" id="DejaVuSans-83"/>
     <path d="M 11.71875 12.40625 
L 22.015625 12.40625 
L 22.015625 0 
L 11.71875 0 
z
M 11.71875 51.703125 
L 22.015625 51.703125 
L 22.015625 39.3125 
L 11.71875 39.3125 
z
" id="DejaVuSans-58"/>
    </defs>
    <g transform="translate(439.796484 45.84)scale(0.15 -0.15)">
     <use xlink:href="#DejaVuSans-83"/>
     <use x="63.476562" xlink:href="#DejaVuSans-99"/>
     <use x="118.457031" xlink:href="#DejaVuSans-101"/>
     <use x="179.980469" xlink:href="#DejaVuSans-110"/>
     <use x="243.359375" xlink:href="#DejaVuSans-97"/>
     <use x="304.638672" xlink:href="#DejaVuSans-114"/>
     <use x="345.751953" xlink:href="#DejaVuSans-105"/>
     <use x="373.535156" xlink:href="#DejaVuSans-111"/>
     <use x="434.716797" xlink:href="#DejaVuSans-58"/>
     <use x="468.408203" xlink:href="#DejaVuSans-50"/>
    </g>
   </g>
   <g id="legend_1">
    <g id="patch_7">
     <path d="M 560.671875 373 
L 835.4 373 
Q 837.4 373 837.4 371 
L 837.4 313.2875 
Q 837.4 311.2875 835.4 311.2875 
L 560.671875 311.2875 
Q 558.671875 311.2875 558.671875 313.2875 
L 558.671875 371 
Q 558.671875 373 560.671875 373 
z
" style="fill:#ffffff;opacity:0.8;stroke:#cccccc;stroke-linejoin:miter;"/>
    </g>
    <g id="line2d_48">
     <path d="M 562.671875 319.385938 
L 582.671875 319.385938 
" style="fill:none;stroke:#0000ff;stroke-linecap:square;stroke-width:1.5;"/>
    </g>
    <g id="line2d_49"/>
    <g id="text_24">
     <!-- Message Avg Based Method With Blacklisting -->
     <defs>
      <path d="M 9.8125 72.90625 
L 24.515625 72.90625 
L 43.109375 23.296875 
L 61.8125 72.90625 
L 76.515625 72.90625 
L 76.515625 0 
L 66.890625 0 
L 66.890625 64.015625 
L 48.09375 14.015625 
L 38.1875 14.015625 
L 19.390625 64.015625 
L 19.390625 0 
L 9.8125 0 
z
" id="DejaVuSans-77"/>
      <path d="M 19.671875 34.8125 
L 19.671875 8.109375 
L 35.5 8.109375 
Q 43.453125 8.109375 47.28125 11.40625 
Q 51.125 14.703125 51.125 21.484375 
Q 51.125 28.328125 47.28125 31.5625 
Q 43.453125 34.8125 35.5 34.8125 
z
M 19.671875 64.796875 
L 19.671875 42.828125 
L 34.28125 42.828125 
Q 41.5 42.828125 45.03125 45.53125 
Q 48.578125 48.25 48.578125 53.8125 
Q 48.578125 59.328125 45.03125 62.0625 
Q 41.5 64.796875 34.28125 64.796875 
z
M 9.8125 72.90625 
L 35.015625 72.90625 
Q 46.296875 72.90625 52.390625 68.21875 
Q 58.5 63.53125 58.5 54.890625 
Q 58.5 48.1875 55.375 44.234375 
Q 52.25 40.28125 46.1875 39.3125 
Q 53.46875 37.75 57.5 32.78125 
Q 61.53125 27.828125 61.53125 20.40625 
Q 61.53125 10.640625 54.890625 5.3125 
Q 48.25 0 35.984375 0 
L 9.8125 0 
z
" id="DejaVuSans-66"/>
      <path d="M 45.40625 46.390625 
L 45.40625 75.984375 
L 54.390625 75.984375 
L 54.390625 0 
L 45.40625 0 
L 45.40625 8.203125 
Q 42.578125 3.328125 38.25 0.953125 
Q 33.9375 -1.421875 27.875 -1.421875 
Q 17.96875 -1.421875 11.734375 6.484375 
Q 5.515625 14.40625 5.515625 27.296875 
Q 5.515625 40.1875 11.734375 48.09375 
Q 17.96875 56 27.875 56 
Q 33.9375 56 38.25 53.625 
Q 42.578125 51.265625 45.40625 46.390625 
z
M 14.796875 27.296875 
Q 14.796875 17.390625 18.875 11.75 
Q 22.953125 6.109375 30.078125 6.109375 
Q 37.203125 6.109375 41.296875 11.75 
Q 45.40625 17.390625 45.40625 27.296875 
Q 45.40625 37.203125 41.296875 42.84375 
Q 37.203125 48.484375 30.078125 48.484375 
Q 22.953125 48.484375 18.875 42.84375 
Q 14.796875 37.203125 14.796875 27.296875 
z
" id="DejaVuSans-100"/>
      <path d="M 3.328125 72.90625 
L 13.28125 72.90625 
L 28.609375 11.28125 
L 43.890625 72.90625 
L 54.984375 72.90625 
L 70.3125 11.28125 
L 85.59375 72.90625 
L 95.609375 72.90625 
L 77.296875 0 
L 64.890625 0 
L 49.515625 63.28125 
L 33.984375 0 
L 21.578125 0 
z
" id="DejaVuSans-87"/>
      <path d="M 9.078125 75.984375 
L 18.109375 75.984375 
L 18.109375 31.109375 
L 44.921875 54.6875 
L 56.390625 54.6875 
L 27.390625 29.109375 
L 57.625 0 
L 45.90625 0 
L 18.109375 26.703125 
L 18.109375 0 
L 9.078125 0 
z
" id="DejaVuSans-107"/>
     </defs>
     <g transform="translate(590.671875 322.885938)scale(0.1 -0.1)">
      <use xlink:href="#DejaVuSans-77"/>
      <use x="86.279297" xlink:href="#DejaVuSans-101"/>
      <use x="147.802734" xlink:href="#DejaVuSans-115"/>
      <use x="199.902344" xlink:href="#DejaVuSans-115"/>
      <use x="252.001953" xlink:href="#DejaVuSans-97"/>
      <use x="313.28125" xlink:href="#DejaVuSans-103"/>
      <use x="376.757812" xlink:href="#DejaVuSans-101"/>
      <use x="438.28125" xlink:href="#DejaVuSans-32"/>
      <use x="470.068359" xlink:href="#DejaVuSans-65"/>
      <use x="532.601562" xlink:href="#DejaVuSans-118"/>
      <use x="591.78125" xlink:href="#DejaVuSans-103"/>
      <use x="655.257812" xlink:href="#DejaVuSans-32"/>
      <use x="687.044922" xlink:href="#DejaVuSans-66"/>
      <use x="755.648438" xlink:href="#DejaVuSans-97"/>
      <use x="816.927734" xlink:href="#DejaVuSans-115"/>
      <use x="869.027344" xlink:href="#DejaVuSans-101"/>
      <use x="930.550781" xlink:href="#DejaVuSans-100"/>
      <use x="994.027344" xlink:href="#DejaVuSans-32"/>
      <use x="1025.814453" xlink:href="#DejaVuSans-77"/>
      <use x="1112.09375" xlink:href="#DejaVuSans-101"/>
      <use x="1173.617188" xlink:href="#DejaVuSans-116"/>
      <use x="1212.826172" xlink:href="#DejaVuSans-104"/>
      <use x="1276.205078" xlink:href="#DejaVuSans-111"/>
      <use x="1337.386719" xlink:href="#DejaVuSans-100"/>
      <use x="1400.863281" xlink:href="#DejaVuSans-32"/>
      <use x="1432.650391" xlink:href="#DejaVuSans-87"/>
      <use x="1529.277344" xlink:href="#DejaVuSans-105"/>
      <use x="1557.060547" xlink:href="#DejaVuSans-116"/>
      <use x="1596.269531" xlink:href="#DejaVuSans-104"/>
      <use x="1659.648438" xlink:href="#DejaVuSans-32"/>
      <use x="1691.435547" xlink:href="#DejaVuSans-66"/>
      <use x="1760.039062" xlink:href="#DejaVuSans-108"/>
      <use x="1787.822266" xlink:href="#DejaVuSans-97"/>
      <use x="1849.101562" xlink:href="#DejaVuSans-99"/>
      <use x="1904.082031" xlink:href="#DejaVuSans-107"/>
      <use x="1961.992188" xlink:href="#DejaVuSans-108"/>
      <use x="1989.775391" xlink:href="#DejaVuSans-105"/>
      <use x="2017.558594" xlink:href="#DejaVuSans-115"/>
      <use x="2069.658203" xlink:href="#DejaVuSans-116"/>
      <use x="2108.867188" xlink:href="#DejaVuSans-105"/>
      <use x="2136.650391" xlink:href="#DejaVuSans-110"/>
      <use x="2200.029297" xlink:href="#DejaVuSans-103"/>
     </g>
    </g>
    <g id="line2d_50">
     <path d="M 562.671875 334.064062 
L 582.671875 334.064062 
" style="fill:none;stroke:#800080;stroke-linecap:square;stroke-width:1.5;"/>
    </g>
    <g id="line2d_51"/>
    <g id="text_25">
     <!-- Message Avg Based Method Without Blacklisting -->
     <g transform="translate(590.671875 337.564062)scale(0.1 -0.1)">
      <use xlink:href="#DejaVuSans-77"/>
      <use x="86.279297" xlink:href="#DejaVuSans-101"/>
      <use x="147.802734" xlink:href="#DejaVuSans-115"/>
      <use x="199.902344" xlink:href="#DejaVuSans-115"/>
      <use x="252.001953" xlink:href="#DejaVuSans-97"/>
      <use x="313.28125" xlink:href="#DejaVuSans-103"/>
      <use x="376.757812" xlink:href="#DejaVuSans-101"/>
      <use x="438.28125" xlink:href="#DejaVuSans-32"/>
      <use x="470.068359" xlink:href="#DejaVuSans-65"/>
      <use x="532.601562" xlink:href="#DejaVuSans-118"/>
      <use x="591.78125" xlink:href="#DejaVuSans-103"/>
      <use x="655.257812" xlink:href="#DejaVuSans-32"/>
      <use x="687.044922" xlink:href="#DejaVuSans-66"/>
      <use x="755.648438" xlink:href="#DejaVuSans-97"/>
      <use x="816.927734" xlink:href="#DejaVuSans-115"/>
      <use x="869.027344" xlink:href="#DejaVuSans-101"/>
      <use x="930.550781" xlink:href="#DejaVuSans-100"/>
      <use x="994.027344" xlink:href="#DejaVuSans-32"/>
      <use x="1025.814453" xlink:href="#DejaVuSans-77"/>
      <use x="1112.09375" xlink:href="#DejaVuSans-101"/>
      <use x="1173.617188" xlink:href="#DejaVuSans-116"/>
      <use x="1212.826172" xlink:href="#DejaVuSans-104"/>
      <use x="1276.205078" xlink:href="#DejaVuSans-111"/>
      <use x="1337.386719" xlink:href="#DejaVuSans-100"/>
      <use x="1400.863281" xlink:href="#DejaVuSans-32"/>
      <use x="1432.650391" xlink:href="#DejaVuSans-87"/>
      <use x="1529.277344" xlink:href="#DejaVuSans-105"/>
      <use x="1557.060547" xlink:href="#DejaVuSans-116"/>
      <use x="1596.269531" xlink:href="#DejaVuSans-104"/>
      <use x="1659.648438" xlink:href="#DejaVuSans-111"/>
      <use x="1720.830078" xlink:href="#DejaVuSans-117"/>
      <use x="1784.208984" xlink:href="#DejaVuSans-116"/>
      <use x="1823.417969" xlink:href="#DejaVuSans-32"/>
      <use x="1855.205078" xlink:href="#DejaVuSans-66"/>
      <use x="1923.808594" xlink:href="#DejaVuSans-108"/>
      <use x="1951.591797" xlink:href="#DejaVuSans-97"/>
      <use x="2012.871094" xlink:href="#DejaVuSans-99"/>
      <use x="2067.851562" xlink:href="#DejaVuSans-107"/>
      <use x="2125.761719" xlink:href="#DejaVuSans-108"/>
      <use x="2153.544922" xlink:href="#DejaVuSans-105"/>
      <use x="2181.328125" xlink:href="#DejaVuSans-115"/>
      <use x="2233.427734" xlink:href="#DejaVuSans-116"/>
      <use x="2272.636719" xlink:href="#DejaVuSans-105"/>
      <use x="2300.419922" xlink:href="#DejaVuSans-110"/>
      <use x="2363.798828" xlink:href="#DejaVuSans-103"/>
     </g>
    </g>
    <g id="line2d_52">
     <path d="M 562.671875 348.742188 
L 582.671875 348.742188 
" style="fill:none;stroke:#ff0000;stroke-linecap:square;stroke-width:1.5;"/>
    </g>
    <g id="line2d_53"/>
    <g id="text_26">
     <!-- Reports Based Method -->
     <defs>
      <path d="M 44.390625 34.1875 
Q 47.5625 33.109375 50.5625 29.59375 
Q 53.5625 26.078125 56.59375 19.921875 
L 66.609375 0 
L 56 0 
L 46.6875 18.703125 
Q 43.0625 26.03125 39.671875 28.421875 
Q 36.28125 30.8125 30.421875 30.8125 
L 19.671875 30.8125 
L 19.671875 0 
L 9.8125 0 
L 9.8125 72.90625 
L 32.078125 72.90625 
Q 44.578125 72.90625 50.734375 67.671875 
Q 56.890625 62.453125 56.890625 51.90625 
Q 56.890625 45.015625 53.6875 40.46875 
Q 50.484375 35.9375 44.390625 34.1875 
z
M 19.671875 64.796875 
L 19.671875 38.921875 
L 32.078125 38.921875 
Q 39.203125 38.921875 42.84375 42.21875 
Q 46.484375 45.515625 46.484375 51.90625 
Q 46.484375 58.296875 42.84375 61.546875 
Q 39.203125 64.796875 32.078125 64.796875 
z
" id="DejaVuSans-82"/>
      <path d="M 18.109375 8.203125 
L 18.109375 -20.796875 
L 9.078125 -20.796875 
L 9.078125 54.6875 
L 18.109375 54.6875 
L 18.109375 46.390625 
Q 20.953125 51.265625 25.265625 53.625 
Q 29.59375 56 35.59375 56 
Q 45.5625 56 51.78125 48.09375 
Q 58.015625 40.1875 58.015625 27.296875 
Q 58.015625 14.40625 51.78125 6.484375 
Q 45.5625 -1.421875 35.59375 -1.421875 
Q 29.59375 -1.421875 25.265625 0.953125 
Q 20.953125 3.328125 18.109375 8.203125 
z
M 48.6875 27.296875 
Q 48.6875 37.203125 44.609375 42.84375 
Q 40.53125 48.484375 33.40625 48.484375 
Q 26.265625 48.484375 22.1875 42.84375 
Q 18.109375 37.203125 18.109375 27.296875 
Q 18.109375 17.390625 22.1875 11.75 
Q 26.265625 6.109375 33.40625 6.109375 
Q 40.53125 6.109375 44.609375 11.75 
Q 48.6875 17.390625 48.6875 27.296875 
z
" id="DejaVuSans-112"/>
     </defs>
     <g transform="translate(590.671875 352.242188)scale(0.1 -0.1)">
      <use xlink:href="#DejaVuSans-82"/>
      <use x="64.982422" xlink:href="#DejaVuSans-101"/>
      <use x="126.505859" xlink:href="#DejaVuSans-112"/>
      <use x="189.982422" xlink:href="#DejaVuSans-111"/>
      <use x="251.164062" xlink:href="#DejaVuSans-114"/>
      <use x="292.277344" xlink:href="#DejaVuSans-116"/>
      <use x="331.486328" xlink:href="#DejaVuSans-115"/>
      <use x="383.585938" xlink:href="#DejaVuSans-32"/>
      <use x="415.373047" xlink:href="#DejaVuSans-66"/>
      <use x="483.976562" xlink:href="#DejaVuSans-97"/>
      <use x="545.255859" xlink:href="#DejaVuSans-115"/>
      <use x="597.355469" xlink:href="#DejaVuSans-101"/>
      <use x="658.878906" xlink:href="#DejaVuSans-100"/>
      <use x="722.355469" xlink:href="#DejaVuSans-32"/>
      <use x="754.142578" xlink:href="#DejaVuSans-77"/>
      <use x="840.421875" xlink:href="#DejaVuSans-101"/>
      <use x="901.945312" xlink:href="#DejaVuSans-116"/>
      <use x="941.154297" xlink:href="#DejaVuSans-104"/>
      <use x="1004.533203" xlink:href="#DejaVuSans-111"/>
      <use x="1065.714844" xlink:href="#DejaVuSans-100"/>
     </g>
    </g>
    <g id="line2d_54">
     <path d="M 562.671875 363.420313 
L 582.671875 363.420313 
" style="fill:none;stroke:#000000;stroke-dasharray:1.5,2.475;stroke-dashoffset:0;stroke-width:1.5;"/>
    </g>
    <g id="line2d_55"/>
    <g id="text_27">
     <!-- 10% Absolute Error -->
     <g transform="translate(590.671875 366.920313)scale(0.1 -0.1)">
      <use xlink:href="#DejaVuSans-49"/>
      <use x="63.623047" xlink:href="#DejaVuSans-48"/>
      <use x="127.246094" xlink:href="#DejaVuSans-37"/>
      <use x="222.265625" xlink:href="#DejaVuSans-32"/>
      <use x="254.052734" xlink:href="#DejaVuSans-65"/>
      <use x="322.460938" xlink:href="#DejaVuSans-98"/>
      <use x="385.9375" xlink:href="#DejaVuSans-115"/>
      <use x="438.037109" xlink:href="#DejaVuSans-111"/>
      <use x="499.21875" xlink:href="#DejaVuSans-108"/>
      <use x="527.001953" xlink:href="#DejaVuSans-117"/>
      <use x="590.380859" xlink:href="#DejaVuSans-116"/>
      <use x="629.589844" xlink:href="#DejaVuSans-101"/>
      <use x="691.113281" xlink:href="#DejaVuSans-32"/>
      <use x="722.900391" xlink:href="#DejaVuSans-69"/>
      <use x="786.083984" xlink:href="#DejaVuSans-114"/>
      <use x="825.447266" xlink:href="#DejaVuSans-114"/>
      <use x="864.310547" xlink:href="#DejaVuSans-111"/>
      <use x="925.492188" xlink:href="#DejaVuSans-114"/>
     </g>
    </g>
   </g>
  </g>
 </g>
 <defs>
  <clipPath id="p7bc9bd9987">
   <rect height="326.16" width="725.4" x="117" y="51.84"/>
  </clipPath>
 </defs>
</svg>
