<?xml version="1.0" encoding="utf-8" standalone="no"?>
<!DOCTYPE svg PUBLIC "-//W3C//DTD SVG 1.1//EN"
  "http://www.w3.org/Graphics/SVG/1.1/DTD/svg11.dtd">
<!-- Created with matplotlib (https://matplotlib.org/) -->
<svg height="1080pt" version="1.1" viewBox="0 0 720 1080" width="720pt" xmlns="http://www.w3.org/2000/svg" xmlns:xlink="http://www.w3.org/1999/xlink">
 <defs>
  <style type="text/css">
*{stroke-linecap:butt;stroke-linejoin:round;}
  </style>
 </defs>
 <g id="figure_1">
  <g id="patch_1">
   <path d="M 0 1080 
L 720 1080 
L 720 0 
L 0 0 
z
" style="fill:#ffffff;"/>
  </g>
  <g id="axes_1">
   <g id="patch_2">
    <path d="M 52.30649 368.797483 
L 707.45601 368.797483 
L 707.45601 56.753075 
L 52.30649 56.753075 
z
" style="fill:#ffffff;"/>
   </g>
   <g id="patch_3">
    <path clip-path="url(#p3ace47439f)" d="M 52.30649 368.797483 
L 81.743963 368.797483 
L 81.743963 276.776017 
L 52.30649 276.776017 
z
" style="fill:#ff0000;opacity:0.4;"/>
   </g>
   <g id="patch_4">
    <path clip-path="url(#p3ace47439f)" d="M 81.743963 368.797483 
L 111.181436 368.797483 
L 111.181436 279.651688 
L 81.743963 279.651688 
z
" style="fill:#ff0000;opacity:0.4;"/>
   </g>
   <g id="patch_5">
    <path clip-path="url(#p3ace47439f)" d="M 111.181436 368.797483 
L 140.618909 368.797483 
L 140.618909 310.32551 
L 111.181436 310.32551 
z
" style="fill:#ff0000;opacity:0.4;"/>
   </g>
   <g id="patch_6">
    <path clip-path="url(#p3ace47439f)" d="M 140.618909 368.797483 
L 170.056382 368.797483 
L 170.056382 343.875003 
L 140.618909 343.875003 
z
" style="fill:#ff0000;opacity:0.4;"/>
   </g>
   <g id="patch_7">
    <path clip-path="url(#p3ace47439f)" d="M 170.056382 368.797483 
L 199.493855 368.797483 
L 199.493855 350.584902 
L 170.056382 350.584902 
z
" style="fill:#ff0000;opacity:0.4;"/>
   </g>
   <g id="patch_8">
    <path clip-path="url(#p3ace47439f)" d="M 199.493855 368.797483 
L 228.931328 368.797483 
L 228.931328 360.170471 
L 199.493855 360.170471 
z
" style="fill:#ff0000;opacity:0.4;"/>
   </g>
   <g id="patch_9">
    <path clip-path="url(#p3ace47439f)" d="M 228.931328 368.797483 
L 258.368801 368.797483 
L 258.368801 361.129028 
L 228.931328 361.129028 
z
" style="fill:#ff0000;opacity:0.4;"/>
   </g>
   <g id="patch_10">
    <path clip-path="url(#p3ace47439f)" d="M 258.368801 368.797483 
L 287.806274 368.797483 
L 287.806274 363.046142 
L 258.368801 363.046142 
z
" style="fill:#ff0000;opacity:0.4;"/>
   </g>
   <g id="patch_11">
    <path clip-path="url(#p3ace47439f)" d="M 287.806274 368.797483 
L 317.243747 368.797483 
L 317.243747 361.129028 
L 287.806274 361.129028 
z
" style="fill:#ff0000;opacity:0.4;"/>
   </g>
   <g id="patch_12">
    <path clip-path="url(#p3ace47439f)" d="M 317.243747 368.797483 
L 346.68122 368.797483 
L 346.68122 364.963256 
L 317.243747 364.963256 
z
" style="fill:#ff0000;opacity:0.4;"/>
   </g>
   <g id="patch_13">
    <path clip-path="url(#p3ace47439f)" d="M 346.68122 368.797483 
L 376.118694 368.797483 
L 376.118694 366.880369 
L 346.68122 366.880369 
z
" style="fill:#ff0000;opacity:0.4;"/>
   </g>
   <g id="patch_14">
    <path clip-path="url(#p3ace47439f)" d="M 376.118694 368.797483 
L 405.556167 368.797483 
L 405.556167 367.838926 
L 376.118694 367.838926 
z
" style="fill:#ff0000;opacity:0.4;"/>
   </g>
   <g id="patch_15">
    <path clip-path="url(#p3ace47439f)" d="M 405.556167 368.797483 
L 434.99364 368.797483 
L 434.99364 367.838926 
L 405.556167 367.838926 
z
" style="fill:#ff0000;opacity:0.4;"/>
   </g>
   <g id="patch_16">
    <path clip-path="url(#p3ace47439f)" d="M 434.99364 368.797483 
L 464.431113 368.797483 
L 464.431113 367.838926 
L 434.99364 367.838926 
z
" style="fill:#ff0000;opacity:0.4;"/>
   </g>
   <g id="patch_17">
    <path clip-path="url(#p3ace47439f)" d="M 464.431113 368.797483 
L 493.868586 368.797483 
L 493.868586 367.838926 
L 464.431113 367.838926 
z
" style="fill:#ff0000;opacity:0.4;"/>
   </g>
   <g id="patch_18">
    <path clip-path="url(#p3ace47439f)" d="M 493.868586 368.797483 
L 523.306059 368.797483 
L 523.306059 367.838926 
L 493.868586 367.838926 
z
" style="fill:#ff0000;opacity:0.4;"/>
   </g>
   <g id="patch_19">
    <path clip-path="url(#p3ace47439f)" d="M 523.306059 368.797483 
L 552.743532 368.797483 
L 552.743532 366.880369 
L 523.306059 366.880369 
z
" style="fill:#ff0000;opacity:0.4;"/>
   </g>
   <g id="patch_20">
    <path clip-path="url(#p3ace47439f)" d="M 552.743532 368.797483 
L 582.181005 368.797483 
L 582.181005 367.838926 
L 552.743532 367.838926 
z
" style="fill:#ff0000;opacity:0.4;"/>
   </g>
   <g id="patch_21">
    <path clip-path="url(#p3ace47439f)" d="M 582.181005 368.797483 
L 611.618478 368.797483 
L 611.618478 367.838926 
L 582.181005 367.838926 
z
" style="fill:#ff0000;opacity:0.4;"/>
   </g>
   <g id="patch_22">
    <path clip-path="url(#p3ace47439f)" d="M 611.618478 368.797483 
L 641.055951 368.797483 
L 641.055951 364.963256 
L 611.618478 364.963256 
z
" style="fill:#ff0000;opacity:0.4;"/>
   </g>
   <g id="matplotlib.axis_1">
    <g id="xtick_1">
     <g id="line2d_1">
      <defs>
       <path d="M 0 0 
L 0 3.5 
" id="m39e832919a" style="stroke:#000000;stroke-width:0.8;"/>
      </defs>
      <g>
       <use style="stroke:#000000;stroke-width:0.8;" x="52.30649" xlink:href="#m39e832919a" y="368.797483"/>
      </g>
     </g>
    </g>
    <g id="xtick_2">
     <g id="line2d_2">
      <g>
       <use style="stroke:#000000;stroke-width:0.8;" x="183.336394" xlink:href="#m39e832919a" y="368.797483"/>
      </g>
     </g>
    </g>
    <g id="xtick_3">
     <g id="line2d_3">
      <g>
       <use style="stroke:#000000;stroke-width:0.8;" x="314.366298" xlink:href="#m39e832919a" y="368.797483"/>
      </g>
     </g>
    </g>
    <g id="xtick_4">
     <g id="line2d_4">
      <g>
       <use style="stroke:#000000;stroke-width:0.8;" x="445.396202" xlink:href="#m39e832919a" y="368.797483"/>
      </g>
     </g>
    </g>
    <g id="xtick_5">
     <g id="line2d_5">
      <g>
       <use style="stroke:#000000;stroke-width:0.8;" x="576.426106" xlink:href="#m39e832919a" y="368.797483"/>
      </g>
     </g>
    </g>
    <g id="xtick_6">
     <g id="line2d_6">
      <g>
       <use style="stroke:#000000;stroke-width:0.8;" x="707.45601" xlink:href="#m39e832919a" y="368.797483"/>
      </g>
     </g>
    </g>
    <g id="text_1">
     <!-- Absolute Error in Accuracy(%) Estimation -->
     <defs>
      <path d="M 34.1875 63.1875 
L 20.796875 26.90625 
L 47.609375 26.90625 
z
M 28.609375 72.90625 
L 39.796875 72.90625 
L 67.578125 0 
L 57.328125 0 
L 50.6875 18.703125 
L 17.828125 18.703125 
L 11.1875 0 
L 0.78125 0 
z
" id="DejaVuSans-65"/>
      <path d="M 48.6875 27.296875 
Q 48.6875 37.203125 44.609375 42.84375 
Q 40.53125 48.484375 33.40625 48.484375 
Q 26.265625 48.484375 22.1875 42.84375 
Q 18.109375 37.203125 18.109375 27.296875 
Q 18.109375 17.390625 22.1875 11.75 
Q 26.265625 6.109375 33.40625 6.109375 
Q 40.53125 6.109375 44.609375 11.75 
Q 48.6875 17.390625 48.6875 27.296875 
z
M 18.109375 46.390625 
Q 20.953125 51.265625 25.265625 53.625 
Q 29.59375 56 35.59375 56 
Q 45.5625 56 51.78125 48.09375 
Q 58.015625 40.1875 58.015625 27.296875 
Q 58.015625 14.40625 51.78125 6.484375 
Q 45.5625 -1.421875 35.59375 -1.421875 
Q 29.59375 -1.421875 25.265625 0.953125 
Q 20.953125 3.328125 18.109375 8.203125 
L 18.109375 0 
L 9.078125 0 
L 9.078125 75.984375 
L 18.109375 75.984375 
z
" id="DejaVuSans-98"/>
      <path d="M 44.28125 53.078125 
L 44.28125 44.578125 
Q 40.484375 46.53125 36.375 47.5 
Q 32.28125 48.484375 27.875 48.484375 
Q 21.1875 48.484375 17.84375 46.4375 
Q 14.5 44.390625 14.5 40.28125 
Q 14.5 37.15625 16.890625 35.375 
Q 19.28125 33.59375 26.515625 31.984375 
L 29.59375 31.296875 
Q 39.15625 29.25 43.1875 25.515625 
Q 47.21875 21.78125 47.21875 15.09375 
Q 47.21875 7.46875 41.1875 3.015625 
Q 35.15625 -1.421875 24.609375 -1.421875 
Q 20.21875 -1.421875 15.453125 -0.5625 
Q 10.6875 0.296875 5.421875 2 
L 5.421875 11.28125 
Q 10.40625 8.6875 15.234375 7.390625 
Q 20.0625 6.109375 24.8125 6.109375 
Q 31.15625 6.109375 34.5625 8.28125 
Q 37.984375 10.453125 37.984375 14.40625 
Q 37.984375 18.0625 35.515625 20.015625 
Q 33.0625 21.96875 24.703125 23.78125 
L 21.578125 24.515625 
Q 13.234375 26.265625 9.515625 29.90625 
Q 5.8125 33.546875 5.8125 39.890625 
Q 5.8125 47.609375 11.28125 51.796875 
Q 16.75 56 26.8125 56 
Q 31.78125 56 36.171875 55.265625 
Q 40.578125 54.546875 44.28125 53.078125 
z
" id="DejaVuSans-115"/>
      <path d="M 30.609375 48.390625 
Q 23.390625 48.390625 19.1875 42.75 
Q 14.984375 37.109375 14.984375 27.296875 
Q 14.984375 17.484375 19.15625 11.84375 
Q 23.34375 6.203125 30.609375 6.203125 
Q 37.796875 6.203125 41.984375 11.859375 
Q 46.1875 17.53125 46.1875 27.296875 
Q 46.1875 37.015625 41.984375 42.703125 
Q 37.796875 48.390625 30.609375 48.390625 
z
M 30.609375 56 
Q 42.328125 56 49.015625 48.375 
Q 55.71875 40.765625 55.71875 27.296875 
Q 55.71875 13.875 49.015625 6.21875 
Q 42.328125 -1.421875 30.609375 -1.421875 
Q 18.84375 -1.421875 12.171875 6.21875 
Q 5.515625 13.875 5.515625 27.296875 
Q 5.515625 40.765625 12.171875 48.375 
Q 18.84375 56 30.609375 56 
z
" id="DejaVuSans-111"/>
      <path d="M 9.421875 75.984375 
L 18.40625 75.984375 
L 18.40625 0 
L 9.421875 0 
z
" id="DejaVuSans-108"/>
      <path d="M 8.5 21.578125 
L 8.5 54.6875 
L 17.484375 54.6875 
L 17.484375 21.921875 
Q 17.484375 14.15625 20.5 10.265625 
Q 23.53125 6.390625 29.59375 6.390625 
Q 36.859375 6.390625 41.078125 11.03125 
Q 45.3125 15.671875 45.3125 23.6875 
L 45.3125 54.6875 
L 54.296875 54.6875 
L 54.296875 0 
L 45.3125 0 
L 45.3125 8.40625 
Q 42.046875 3.421875 37.71875 1 
Q 33.40625 -1.421875 27.6875 -1.421875 
Q 18.265625 -1.421875 13.375 4.4375 
Q 8.5 10.296875 8.5 21.578125 
z
M 31.109375 56 
z
" id="DejaVuSans-117"/>
      <path d="M 18.3125 70.21875 
L 18.3125 54.6875 
L 36.8125 54.6875 
L 36.8125 47.703125 
L 18.3125 47.703125 
L 18.3125 18.015625 
Q 18.3125 11.328125 20.140625 9.421875 
Q 21.96875 7.515625 27.59375 7.515625 
L 36.8125 7.515625 
L 36.8125 0 
L 27.59375 0 
Q 17.1875 0 13.234375 3.875 
Q 9.28125 7.765625 9.28125 18.015625 
L 9.28125 47.703125 
L 2.6875 47.703125 
L 2.6875 54.6875 
L 9.28125 54.6875 
L 9.28125 70.21875 
z
" id="DejaVuSans-116"/>
      <path d="M 56.203125 29.59375 
L 56.203125 25.203125 
L 14.890625 25.203125 
Q 15.484375 15.921875 20.484375 11.0625 
Q 25.484375 6.203125 34.421875 6.203125 
Q 39.59375 6.203125 44.453125 7.46875 
Q 49.3125 8.734375 54.109375 11.28125 
L 54.109375 2.78125 
Q 49.265625 0.734375 44.1875 -0.34375 
Q 39.109375 -1.421875 33.890625 -1.421875 
Q 20.796875 -1.421875 13.15625 6.1875 
Q 5.515625 13.8125 5.515625 26.8125 
Q 5.515625 40.234375 12.765625 48.109375 
Q 20.015625 56 32.328125 56 
Q 43.359375 56 49.78125 48.890625 
Q 56.203125 41.796875 56.203125 29.59375 
z
M 47.21875 32.234375 
Q 47.125 39.59375 43.09375 43.984375 
Q 39.0625 48.390625 32.421875 48.390625 
Q 24.90625 48.390625 20.390625 44.140625 
Q 15.875 39.890625 15.1875 32.171875 
z
" id="DejaVuSans-101"/>
      <path id="DejaVuSans-32"/>
      <path d="M 9.8125 72.90625 
L 55.90625 72.90625 
L 55.90625 64.59375 
L 19.671875 64.59375 
L 19.671875 43.015625 
L 54.390625 43.015625 
L 54.390625 34.71875 
L 19.671875 34.71875 
L 19.671875 8.296875 
L 56.78125 8.296875 
L 56.78125 0 
L 9.8125 0 
z
" id="DejaVuSans-69"/>
      <path d="M 41.109375 46.296875 
Q 39.59375 47.171875 37.8125 47.578125 
Q 36.03125 48 33.890625 48 
Q 26.265625 48 22.1875 43.046875 
Q 18.109375 38.09375 18.109375 28.8125 
L 18.109375 0 
L 9.078125 0 
L 9.078125 54.6875 
L 18.109375 54.6875 
L 18.109375 46.1875 
Q 20.953125 51.171875 25.484375 53.578125 
Q 30.03125 56 36.53125 56 
Q 37.453125 56 38.578125 55.875 
Q 39.703125 55.765625 41.0625 55.515625 
z
" id="DejaVuSans-114"/>
      <path d="M 9.421875 54.6875 
L 18.40625 54.6875 
L 18.40625 0 
L 9.421875 0 
z
M 9.421875 75.984375 
L 18.40625 75.984375 
L 18.40625 64.59375 
L 9.421875 64.59375 
z
" id="DejaVuSans-105"/>
      <path d="M 54.890625 33.015625 
L 54.890625 0 
L 45.90625 0 
L 45.90625 32.71875 
Q 45.90625 40.484375 42.875 44.328125 
Q 39.84375 48.1875 33.796875 48.1875 
Q 26.515625 48.1875 22.3125 43.546875 
Q 18.109375 38.921875 18.109375 30.90625 
L 18.109375 0 
L 9.078125 0 
L 9.078125 54.6875 
L 18.109375 54.6875 
L 18.109375 46.1875 
Q 21.34375 51.125 25.703125 53.5625 
Q 30.078125 56 35.796875 56 
Q 45.21875 56 50.046875 50.171875 
Q 54.890625 44.34375 54.890625 33.015625 
z
" id="DejaVuSans-110"/>
      <path d="M 48.78125 52.59375 
L 48.78125 44.1875 
Q 44.96875 46.296875 41.140625 47.34375 
Q 37.3125 48.390625 33.40625 48.390625 
Q 24.65625 48.390625 19.8125 42.84375 
Q 14.984375 37.3125 14.984375 27.296875 
Q 14.984375 17.28125 19.8125 11.734375 
Q 24.65625 6.203125 33.40625 6.203125 
Q 37.3125 6.203125 41.140625 7.25 
Q 44.96875 8.296875 48.78125 10.40625 
L 48.78125 2.09375 
Q 45.015625 0.34375 40.984375 -0.53125 
Q 36.96875 -1.421875 32.421875 -1.421875 
Q 20.0625 -1.421875 12.78125 6.34375 
Q 5.515625 14.109375 5.515625 27.296875 
Q 5.515625 40.671875 12.859375 48.328125 
Q 20.21875 56 33.015625 56 
Q 37.15625 56 41.109375 55.140625 
Q 45.0625 54.296875 48.78125 52.59375 
z
" id="DejaVuSans-99"/>
      <path d="M 34.28125 27.484375 
Q 23.390625 27.484375 19.1875 25 
Q 14.984375 22.515625 14.984375 16.5 
Q 14.984375 11.71875 18.140625 8.90625 
Q 21.296875 6.109375 26.703125 6.109375 
Q 34.1875 6.109375 38.703125 11.40625 
Q 43.21875 16.703125 43.21875 25.484375 
L 43.21875 27.484375 
z
M 52.203125 31.203125 
L 52.203125 0 
L 43.21875 0 
L 43.21875 8.296875 
Q 40.140625 3.328125 35.546875 0.953125 
Q 30.953125 -1.421875 24.3125 -1.421875 
Q 15.921875 -1.421875 10.953125 3.296875 
Q 6 8.015625 6 15.921875 
Q 6 25.140625 12.171875 29.828125 
Q 18.359375 34.515625 30.609375 34.515625 
L 43.21875 34.515625 
L 43.21875 35.40625 
Q 43.21875 41.609375 39.140625 45 
Q 35.0625 48.390625 27.6875 48.390625 
Q 23 48.390625 18.546875 47.265625 
Q 14.109375 46.140625 10.015625 43.890625 
L 10.015625 52.203125 
Q 14.9375 54.109375 19.578125 55.046875 
Q 24.21875 56 28.609375 56 
Q 40.484375 56 46.34375 49.84375 
Q 52.203125 43.703125 52.203125 31.203125 
z
" id="DejaVuSans-97"/>
      <path d="M 32.171875 -5.078125 
Q 28.375 -14.84375 24.75 -17.8125 
Q 21.140625 -20.796875 15.09375 -20.796875 
L 7.90625 -20.796875 
L 7.90625 -13.28125 
L 13.1875 -13.28125 
Q 16.890625 -13.28125 18.9375 -11.515625 
Q 21 -9.765625 23.484375 -3.21875 
L 25.09375 0.875 
L 2.984375 54.6875 
L 12.5 54.6875 
L 29.59375 11.921875 
L 46.6875 54.6875 
L 56.203125 54.6875 
z
" id="DejaVuSans-121"/>
      <path d="M 31 75.875 
Q 24.46875 64.65625 21.28125 53.65625 
Q 18.109375 42.671875 18.109375 31.390625 
Q 18.109375 20.125 21.3125 9.0625 
Q 24.515625 -2 31 -13.1875 
L 23.1875 -13.1875 
Q 15.875 -1.703125 12.234375 9.375 
Q 8.59375 20.453125 8.59375 31.390625 
Q 8.59375 42.28125 12.203125 53.3125 
Q 15.828125 64.359375 23.1875 75.875 
z
" id="DejaVuSans-40"/>
      <path d="M 72.703125 32.078125 
Q 68.453125 32.078125 66.03125 28.46875 
Q 63.625 24.859375 63.625 18.40625 
Q 63.625 12.0625 66.03125 8.421875 
Q 68.453125 4.78125 72.703125 4.78125 
Q 76.859375 4.78125 79.265625 8.421875 
Q 81.6875 12.0625 81.6875 18.40625 
Q 81.6875 24.8125 79.265625 28.4375 
Q 76.859375 32.078125 72.703125 32.078125 
z
M 72.703125 38.28125 
Q 80.421875 38.28125 84.953125 32.90625 
Q 89.5 27.546875 89.5 18.40625 
Q 89.5 9.28125 84.9375 3.921875 
Q 80.375 -1.421875 72.703125 -1.421875 
Q 64.890625 -1.421875 60.34375 3.921875 
Q 55.8125 9.28125 55.8125 18.40625 
Q 55.8125 27.59375 60.375 32.9375 
Q 64.9375 38.28125 72.703125 38.28125 
z
M 22.3125 68.015625 
Q 18.109375 68.015625 15.6875 64.375 
Q 13.28125 60.75 13.28125 54.390625 
Q 13.28125 47.953125 15.671875 44.328125 
Q 18.0625 40.71875 22.3125 40.71875 
Q 26.5625 40.71875 28.96875 44.328125 
Q 31.390625 47.953125 31.390625 54.390625 
Q 31.390625 60.6875 28.953125 64.34375 
Q 26.515625 68.015625 22.3125 68.015625 
z
M 66.40625 74.21875 
L 74.21875 74.21875 
L 28.609375 -1.421875 
L 20.796875 -1.421875 
z
M 22.3125 74.21875 
Q 30.03125 74.21875 34.609375 68.875 
Q 39.203125 63.53125 39.203125 54.390625 
Q 39.203125 45.171875 34.640625 39.84375 
Q 30.078125 34.515625 22.3125 34.515625 
Q 14.546875 34.515625 10.03125 39.859375 
Q 5.515625 45.21875 5.515625 54.390625 
Q 5.515625 63.484375 10.046875 68.84375 
Q 14.59375 74.21875 22.3125 74.21875 
z
" id="DejaVuSans-37"/>
      <path d="M 8.015625 75.875 
L 15.828125 75.875 
Q 23.140625 64.359375 26.78125 53.3125 
Q 30.421875 42.28125 30.421875 31.390625 
Q 30.421875 20.453125 26.78125 9.375 
Q 23.140625 -1.703125 15.828125 -13.1875 
L 8.015625 -13.1875 
Q 14.5 -2 17.703125 9.0625 
Q 20.90625 20.125 20.90625 31.390625 
Q 20.90625 42.671875 17.703125 53.65625 
Q 14.5 64.65625 8.015625 75.875 
z
" id="DejaVuSans-41"/>
      <path d="M 52 44.1875 
Q 55.375 50.25 60.0625 53.125 
Q 64.75 56 71.09375 56 
Q 79.640625 56 84.28125 50.015625 
Q 88.921875 44.046875 88.921875 33.015625 
L 88.921875 0 
L 79.890625 0 
L 79.890625 32.71875 
Q 79.890625 40.578125 77.09375 44.375 
Q 74.3125 48.1875 68.609375 48.1875 
Q 61.625 48.1875 57.5625 43.546875 
Q 53.515625 38.921875 53.515625 30.90625 
L 53.515625 0 
L 44.484375 0 
L 44.484375 32.71875 
Q 44.484375 40.625 41.703125 44.40625 
Q 38.921875 48.1875 33.109375 48.1875 
Q 26.21875 48.1875 22.15625 43.53125 
Q 18.109375 38.875 18.109375 30.90625 
L 18.109375 0 
L 9.078125 0 
L 9.078125 54.6875 
L 18.109375 54.6875 
L 18.109375 46.1875 
Q 21.1875 51.21875 25.484375 53.609375 
Q 29.78125 56 35.6875 56 
Q 41.65625 56 45.828125 52.96875 
Q 50 49.953125 52 44.1875 
z
" id="DejaVuSans-109"/>
     </defs>
     <g transform="translate(276.823437 380.395921)scale(0.1 -0.1)">
      <use xlink:href="#DejaVuSans-65"/>
      <use x="68.408203" xlink:href="#DejaVuSans-98"/>
      <use x="131.884766" xlink:href="#DejaVuSans-115"/>
      <use x="183.984375" xlink:href="#DejaVuSans-111"/>
      <use x="245.166016" xlink:href="#DejaVuSans-108"/>
      <use x="272.949219" xlink:href="#DejaVuSans-117"/>
      <use x="336.328125" xlink:href="#DejaVuSans-116"/>
      <use x="375.537109" xlink:href="#DejaVuSans-101"/>
      <use x="437.060547" xlink:href="#DejaVuSans-32"/>
      <use x="468.847656" xlink:href="#DejaVuSans-69"/>
      <use x="532.03125" xlink:href="#DejaVuSans-114"/>
      <use x="571.394531" xlink:href="#DejaVuSans-114"/>
      <use x="610.257812" xlink:href="#DejaVuSans-111"/>
      <use x="671.439453" xlink:href="#DejaVuSans-114"/>
      <use x="712.552734" xlink:href="#DejaVuSans-32"/>
      <use x="744.339844" xlink:href="#DejaVuSans-105"/>
      <use x="772.123047" xlink:href="#DejaVuSans-110"/>
      <use x="835.501953" xlink:href="#DejaVuSans-32"/>
      <use x="867.289062" xlink:href="#DejaVuSans-65"/>
      <use x="933.947266" xlink:href="#DejaVuSans-99"/>
      <use x="988.927734" xlink:href="#DejaVuSans-99"/>
      <use x="1043.908203" xlink:href="#DejaVuSans-117"/>
      <use x="1107.287109" xlink:href="#DejaVuSans-114"/>
      <use x="1148.400391" xlink:href="#DejaVuSans-97"/>
      <use x="1209.679688" xlink:href="#DejaVuSans-99"/>
      <use x="1264.660156" xlink:href="#DejaVuSans-121"/>
      <use x="1323.839844" xlink:href="#DejaVuSans-40"/>
      <use x="1362.853516" xlink:href="#DejaVuSans-37"/>
      <use x="1457.873047" xlink:href="#DejaVuSans-41"/>
      <use x="1496.886719" xlink:href="#DejaVuSans-32"/>
      <use x="1528.673828" xlink:href="#DejaVuSans-69"/>
      <use x="1591.857422" xlink:href="#DejaVuSans-115"/>
      <use x="1643.957031" xlink:href="#DejaVuSans-116"/>
      <use x="1683.166016" xlink:href="#DejaVuSans-105"/>
      <use x="1710.949219" xlink:href="#DejaVuSans-109"/>
      <use x="1808.361328" xlink:href="#DejaVuSans-97"/>
      <use x="1869.640625" xlink:href="#DejaVuSans-116"/>
      <use x="1908.849609" xlink:href="#DejaVuSans-105"/>
      <use x="1936.632812" xlink:href="#DejaVuSans-111"/>
      <use x="1997.814453" xlink:href="#DejaVuSans-110"/>
     </g>
    </g>
   </g>
   <g id="matplotlib.axis_2">
    <g id="ytick_1">
     <g id="line2d_7">
      <defs>
       <path d="M 0 0 
L -3.5 0 
" id="m485cafcb89" style="stroke:#000000;stroke-width:0.8;"/>
      </defs>
      <g>
       <use style="stroke:#000000;stroke-width:0.8;" x="52.30649" xlink:href="#m485cafcb89" y="368.797483"/>
      </g>
     </g>
     <g id="text_2">
      <!-- 0.000 -->
      <defs>
       <path d="M 31.78125 66.40625 
Q 24.171875 66.40625 20.328125 58.90625 
Q 16.5 51.421875 16.5 36.375 
Q 16.5 21.390625 20.328125 13.890625 
Q 24.171875 6.390625 31.78125 6.390625 
Q 39.453125 6.390625 43.28125 13.890625 
Q 47.125 21.390625 47.125 36.375 
Q 47.125 51.421875 43.28125 58.90625 
Q 39.453125 66.40625 31.78125 66.40625 
z
M 31.78125 74.21875 
Q 44.046875 74.21875 50.515625 64.515625 
Q 56.984375 54.828125 56.984375 36.375 
Q 56.984375 17.96875 50.515625 8.265625 
Q 44.046875 -1.421875 31.78125 -1.421875 
Q 19.53125 -1.421875 13.0625 8.265625 
Q 6.59375 17.96875 6.59375 36.375 
Q 6.59375 54.828125 13.0625 64.515625 
Q 19.53125 74.21875 31.78125 74.21875 
z
" id="DejaVuSans-48"/>
       <path d="M 10.6875 12.40625 
L 21 12.40625 
L 21 0 
L 10.6875 0 
z
" id="DejaVuSans-46"/>
      </defs>
      <g transform="translate(16.678365 372.596702)scale(0.1 -0.1)">
       <use xlink:href="#DejaVuSans-48"/>
       <use x="63.623047" xlink:href="#DejaVuSans-46"/>
       <use x="95.410156" xlink:href="#DejaVuSans-48"/>
       <use x="159.033203" xlink:href="#DejaVuSans-48"/>
       <use x="222.65625" xlink:href="#DejaVuSans-48"/>
      </g>
     </g>
    </g>
    <g id="ytick_2">
     <g id="line2d_8">
      <g>
       <use style="stroke:#000000;stroke-width:0.8;" x="52.30649" xlink:href="#m485cafcb89" y="331.649339"/>
      </g>
     </g>
     <g id="text_3">
      <!-- 0.025 -->
      <defs>
       <path d="M 19.1875 8.296875 
L 53.609375 8.296875 
L 53.609375 0 
L 7.328125 0 
L 7.328125 8.296875 
Q 12.9375 14.109375 22.625 23.890625 
Q 32.328125 33.6875 34.8125 36.53125 
Q 39.546875 41.84375 41.421875 45.53125 
Q 43.3125 49.21875 43.3125 52.78125 
Q 43.3125 58.59375 39.234375 62.25 
Q 35.15625 65.921875 28.609375 65.921875 
Q 23.96875 65.921875 18.8125 64.3125 
Q 13.671875 62.703125 7.8125 59.421875 
L 7.8125 69.390625 
Q 13.765625 71.78125 18.9375 73 
Q 24.125 74.21875 28.421875 74.21875 
Q 39.75 74.21875 46.484375 68.546875 
Q 53.21875 62.890625 53.21875 53.421875 
Q 53.21875 48.921875 51.53125 44.890625 
Q 49.859375 40.875 45.40625 35.40625 
Q 44.1875 33.984375 37.640625 27.21875 
Q 31.109375 20.453125 19.1875 8.296875 
z
" id="DejaVuSans-50"/>
       <path d="M 10.796875 72.90625 
L 49.515625 72.90625 
L 49.515625 64.59375 
L 19.828125 64.59375 
L 19.828125 46.734375 
Q 21.96875 47.46875 24.109375 47.828125 
Q 26.265625 48.1875 28.421875 48.1875 
Q 40.625 48.1875 47.75 41.5 
Q 54.890625 34.8125 54.890625 23.390625 
Q 54.890625 11.625 47.5625 5.09375 
Q 40.234375 -1.421875 26.90625 -1.421875 
Q 22.3125 -1.421875 17.546875 -0.640625 
Q 12.796875 0.140625 7.71875 1.703125 
L 7.71875 11.625 
Q 12.109375 9.234375 16.796875 8.0625 
Q 21.484375 6.890625 26.703125 6.890625 
Q 35.15625 6.890625 40.078125 11.328125 
Q 45.015625 15.765625 45.015625 23.390625 
Q 45.015625 31 40.078125 35.4375 
Q 35.15625 39.890625 26.703125 39.890625 
Q 22.75 39.890625 18.8125 39.015625 
Q 14.890625 38.140625 10.796875 36.28125 
z
" id="DejaVuSans-53"/>
      </defs>
      <g transform="translate(16.678365 335.448558)scale(0.1 -0.1)">
       <use xlink:href="#DejaVuSans-48"/>
       <use x="63.623047" xlink:href="#DejaVuSans-46"/>
       <use x="95.410156" xlink:href="#DejaVuSans-48"/>
       <use x="159.033203" xlink:href="#DejaVuSans-50"/>
       <use x="222.65625" xlink:href="#DejaVuSans-53"/>
      </g>
     </g>
    </g>
    <g id="ytick_3">
     <g id="line2d_9">
      <g>
       <use style="stroke:#000000;stroke-width:0.8;" x="52.30649" xlink:href="#m485cafcb89" y="294.501196"/>
      </g>
     </g>
     <g id="text_4">
      <!-- 0.050 -->
      <g transform="translate(16.678365 298.300414)scale(0.1 -0.1)">
       <use xlink:href="#DejaVuSans-48"/>
       <use x="63.623047" xlink:href="#DejaVuSans-46"/>
       <use x="95.410156" xlink:href="#DejaVuSans-48"/>
       <use x="159.033203" xlink:href="#DejaVuSans-53"/>
       <use x="222.65625" xlink:href="#DejaVuSans-48"/>
      </g>
     </g>
    </g>
    <g id="ytick_4">
     <g id="line2d_10">
      <g>
       <use style="stroke:#000000;stroke-width:0.8;" x="52.30649" xlink:href="#m485cafcb89" y="257.353052"/>
      </g>
     </g>
     <g id="text_5">
      <!-- 0.075 -->
      <defs>
       <path d="M 8.203125 72.90625 
L 55.078125 72.90625 
L 55.078125 68.703125 
L 28.609375 0 
L 18.3125 0 
L 43.21875 64.59375 
L 8.203125 64.59375 
z
" id="DejaVuSans-55"/>
      </defs>
      <g transform="translate(16.678365 261.152271)scale(0.1 -0.1)">
       <use xlink:href="#DejaVuSans-48"/>
       <use x="63.623047" xlink:href="#DejaVuSans-46"/>
       <use x="95.410156" xlink:href="#DejaVuSans-48"/>
       <use x="159.033203" xlink:href="#DejaVuSans-55"/>
       <use x="222.65625" xlink:href="#DejaVuSans-53"/>
      </g>
     </g>
    </g>
    <g id="ytick_5">
     <g id="line2d_11">
      <g>
       <use style="stroke:#000000;stroke-width:0.8;" x="52.30649" xlink:href="#m485cafcb89" y="220.204908"/>
      </g>
     </g>
     <g id="text_6">
      <!-- 0.100 -->
      <defs>
       <path d="M 12.40625 8.296875 
L 28.515625 8.296875 
L 28.515625 63.921875 
L 10.984375 60.40625 
L 10.984375 69.390625 
L 28.421875 72.90625 
L 38.28125 72.90625 
L 38.28125 8.296875 
L 54.390625 8.296875 
L 54.390625 0 
L 12.40625 0 
z
" id="DejaVuSans-49"/>
      </defs>
      <g transform="translate(16.678365 224.004127)scale(0.1 -0.1)">
       <use xlink:href="#DejaVuSans-48"/>
       <use x="63.623047" xlink:href="#DejaVuSans-46"/>
       <use x="95.410156" xlink:href="#DejaVuSans-49"/>
       <use x="159.033203" xlink:href="#DejaVuSans-48"/>
       <use x="222.65625" xlink:href="#DejaVuSans-48"/>
      </g>
     </g>
    </g>
    <g id="ytick_6">
     <g id="line2d_12">
      <g>
       <use style="stroke:#000000;stroke-width:0.8;" x="52.30649" xlink:href="#m485cafcb89" y="183.056764"/>
      </g>
     </g>
     <g id="text_7">
      <!-- 0.125 -->
      <g transform="translate(16.678365 186.855983)scale(0.1 -0.1)">
       <use xlink:href="#DejaVuSans-48"/>
       <use x="63.623047" xlink:href="#DejaVuSans-46"/>
       <use x="95.410156" xlink:href="#DejaVuSans-49"/>
       <use x="159.033203" xlink:href="#DejaVuSans-50"/>
       <use x="222.65625" xlink:href="#DejaVuSans-53"/>
      </g>
     </g>
    </g>
    <g id="ytick_7">
     <g id="line2d_13">
      <g>
       <use style="stroke:#000000;stroke-width:0.8;" x="52.30649" xlink:href="#m485cafcb89" y="145.90862"/>
      </g>
     </g>
     <g id="text_8">
      <!-- 0.150 -->
      <g transform="translate(16.678365 149.707839)scale(0.1 -0.1)">
       <use xlink:href="#DejaVuSans-48"/>
       <use x="63.623047" xlink:href="#DejaVuSans-46"/>
       <use x="95.410156" xlink:href="#DejaVuSans-49"/>
       <use x="159.033203" xlink:href="#DejaVuSans-53"/>
       <use x="222.65625" xlink:href="#DejaVuSans-48"/>
      </g>
     </g>
    </g>
    <g id="ytick_8">
     <g id="line2d_14">
      <g>
       <use style="stroke:#000000;stroke-width:0.8;" x="52.30649" xlink:href="#m485cafcb89" y="108.760476"/>
      </g>
     </g>
     <g id="text_9">
      <!-- 0.175 -->
      <g transform="translate(16.678365 112.559695)scale(0.1 -0.1)">
       <use xlink:href="#DejaVuSans-48"/>
       <use x="63.623047" xlink:href="#DejaVuSans-46"/>
       <use x="95.410156" xlink:href="#DejaVuSans-49"/>
       <use x="159.033203" xlink:href="#DejaVuSans-55"/>
       <use x="222.65625" xlink:href="#DejaVuSans-53"/>
      </g>
     </g>
    </g>
    <g id="ytick_9">
     <g id="line2d_15">
      <g>
       <use style="stroke:#000000;stroke-width:0.8;" x="52.30649" xlink:href="#m485cafcb89" y="71.612333"/>
      </g>
     </g>
     <g id="text_10">
      <!-- 0.200 -->
      <g transform="translate(16.678365 75.411551)scale(0.1 -0.1)">
       <use xlink:href="#DejaVuSans-48"/>
       <use x="63.623047" xlink:href="#DejaVuSans-46"/>
       <use x="95.410156" xlink:href="#DejaVuSans-50"/>
       <use x="159.033203" xlink:href="#DejaVuSans-48"/>
       <use x="222.65625" xlink:href="#DejaVuSans-48"/>
      </g>
     </g>
    </g>
    <g id="text_11">
     <!-- #nodes in bin -->
     <defs>
      <path d="M 51.125 44 
L 36.921875 44 
L 32.8125 27.6875 
L 47.125 27.6875 
z
M 43.796875 71.78125 
L 38.71875 51.515625 
L 52.984375 51.515625 
L 58.109375 71.78125 
L 65.921875 71.78125 
L 60.890625 51.515625 
L 76.125 51.515625 
L 76.125 44 
L 58.984375 44 
L 54.984375 27.6875 
L 70.515625 27.6875 
L 70.515625 20.21875 
L 53.078125 20.21875 
L 48 0 
L 40.1875 0 
L 45.21875 20.21875 
L 30.90625 20.21875 
L 25.875 0 
L 18.015625 0 
L 23.09375 20.21875 
L 7.71875 20.21875 
L 7.71875 27.6875 
L 24.90625 27.6875 
L 29 44 
L 13.28125 44 
L 13.28125 51.515625 
L 30.90625 51.515625 
L 35.890625 71.78125 
z
" id="DejaVuSans-35"/>
      <path d="M 45.40625 46.390625 
L 45.40625 75.984375 
L 54.390625 75.984375 
L 54.390625 0 
L 45.40625 0 
L 45.40625 8.203125 
Q 42.578125 3.328125 38.25 0.953125 
Q 33.9375 -1.421875 27.875 -1.421875 
Q 17.96875 -1.421875 11.734375 6.484375 
Q 5.515625 14.40625 5.515625 27.296875 
Q 5.515625 40.1875 11.734375 48.09375 
Q 17.96875 56 27.875 56 
Q 33.9375 56 38.25 53.625 
Q 42.578125 51.265625 45.40625 46.390625 
z
M 14.796875 27.296875 
Q 14.796875 17.390625 18.875 11.75 
Q 22.953125 6.109375 30.078125 6.109375 
Q 37.203125 6.109375 41.296875 11.75 
Q 45.40625 17.390625 45.40625 27.296875 
Q 45.40625 37.203125 41.296875 42.84375 
Q 37.203125 48.484375 30.078125 48.484375 
Q 22.953125 48.484375 18.875 42.84375 
Q 14.796875 37.203125 14.796875 27.296875 
z
" id="DejaVuSans-100"/>
     </defs>
     <g transform="translate(10.598678 247.516685)rotate(-90)scale(0.1 -0.1)">
      <use xlink:href="#DejaVuSans-35"/>
      <use x="83.789062" xlink:href="#DejaVuSans-110"/>
      <use x="147.167969" xlink:href="#DejaVuSans-111"/>
      <use x="208.349609" xlink:href="#DejaVuSans-100"/>
      <use x="271.826172" xlink:href="#DejaVuSans-101"/>
      <use x="333.349609" xlink:href="#DejaVuSans-115"/>
      <use x="385.449219" xlink:href="#DejaVuSans-32"/>
      <use x="417.236328" xlink:href="#DejaVuSans-105"/>
      <use x="445.019531" xlink:href="#DejaVuSans-110"/>
      <use x="508.398438" xlink:href="#DejaVuSans-32"/>
      <use x="540.185547" xlink:href="#DejaVuSans-98"/>
      <use x="603.662109" xlink:href="#DejaVuSans-105"/>
      <use x="631.445312" xlink:href="#DejaVuSans-110"/>
     </g>
    </g>
   </g>
   <g id="line2d_16">
    <path clip-path="url(#p3ace47439f)" d="M -1 363.927492 
L 4.136697 362.26837 
L 12.011283 358.645933 
L 19.88587 353.796803 
L 27.760457 347.698799 
L 35.635044 340.501366 
L 43.50963 332.54122 
L 51.384217 324.316852 
L 59.258804 316.42422 
L 67.133391 309.469133 
L 75.007978 303.978999 
L 82.882564 300.334465 
L 90.757151 298.732126 
L 98.631738 299.178326 
L 106.506325 301.506849 
L 114.380911 305.41202 
L 122.255498 310.491339 
L 130.130085 316.294362 
L 138.004672 322.374424 
L 145.879258 328.337476 
L 153.753845 333.880159 
L 161.628432 338.809984 
L 169.503019 343.044548 
L 177.377605 346.59247 
L 185.252192 349.523425 
L 193.126779 351.936337 
L 201.001366 353.933093 
L 208.875952 355.601517 
L 216.750539 357.00769 
L 224.625126 358.195457 
L 232.499713 359.190527 
L 240.374299 360.007132 
L 248.248886 360.6558 
L 256.123473 361.150933 
L 263.99806 361.516547 
L 271.872646 361.788519 
L 279.747233 362.012338 
L 287.62182 362.23674 
L 295.496407 362.505075 
L 303.370993 362.847157 
L 311.24558 363.274153 
L 319.120167 363.777923 
L 326.994754 364.334643 
L 334.86934 364.91128 
L 342.743927 365.472867 
L 350.618514 365.988778 
L 358.493101 366.436897 
L 366.367687 366.805381 
L 374.242274 367.092327 
L 382.116861 367.30393 
L 389.991448 367.451796 
L 397.866034 367.550059 
L 405.740621 367.612841 
L 413.615208 367.652494 
L 421.489795 367.678788 
L 429.364381 367.698878 
L 437.238968 367.717611 
L 445.113555 367.73771 
L 452.988142 367.759636 
L 460.862728 367.781348 
L 468.737315 367.798499 
L 476.611902 367.805495 
L 484.486489 367.797435 
L 492.361075 367.772264 
L 500.235662 367.732194 
L 508.110249 367.68353 
L 515.984836 367.634764 
L 523.859422 367.593571 
L 531.734009 367.563934 
L 539.608596 367.54457 
L 547.483183 367.529281 
L 555.357769 367.50904 
L 563.232356 367.475012 
L 571.106943 367.421511 
L 578.98153 367.348118 
L 586.856116 367.260608 
L 594.730703 367.17061 
L 602.60529 367.094072 
L 610.479877 367.048637 
L 618.354463 367.050194 
L 626.22905 367.109233 
L 634.103637 367.227961 
L 641.978224 367.399169 
L 649.852811 367.60743 
L 657.727397 367.832392 
L 665.601984 368.053159 
L 673.476571 368.252371 
L 681.351158 368.418851 
L 689.225744 368.548285 
L 697.100331 368.642196 
L 704.974918 368.705921 
L 712.849505 368.746426 
L 720.724091 368.770571 
L 721 368.771044 
" style="fill:none;stroke:#ff0000;stroke-linecap:square;stroke-width:1.5;"/>
   </g>
   <g id="patch_23">
    <path d="M 52.30649 368.797483 
L 52.30649 56.753075 
" style="fill:none;stroke:#000000;stroke-linecap:square;stroke-linejoin:miter;stroke-width:0.8;"/>
   </g>
   <g id="patch_24">
    <path d="M 707.45601 368.797483 
L 707.45601 56.753075 
" style="fill:none;stroke:#000000;stroke-linecap:square;stroke-linejoin:miter;stroke-width:0.8;"/>
   </g>
   <g id="patch_25">
    <path d="M 52.30649 368.797483 
L 707.45601 368.797483 
" style="fill:none;stroke:#000000;stroke-linecap:square;stroke-linejoin:miter;stroke-width:0.8;"/>
   </g>
   <g id="patch_26">
    <path d="M 52.30649 56.753075 
L 707.45601 56.753075 
" style="fill:none;stroke:#000000;stroke-linecap:square;stroke-linejoin:miter;stroke-width:0.8;"/>
   </g>
   <g id="legend_1">
    <g id="patch_27">
     <path d="M 596.21851 79.4312 
L 700.45601 79.4312 
Q 702.45601 79.4312 702.45601 77.4312 
L 702.45601 63.753075 
Q 702.45601 61.753075 700.45601 61.753075 
L 596.21851 61.753075 
Q 594.21851 61.753075 594.21851 63.753075 
L 594.21851 77.4312 
Q 594.21851 79.4312 596.21851 79.4312 
z
" style="fill:#ffffff;opacity:0.8;stroke:#cccccc;stroke-linejoin:miter;"/>
    </g>
    <g id="patch_28">
     <path d="M 598.21851 73.351513 
L 618.21851 73.351513 
L 618.21851 66.351513 
L 598.21851 66.351513 
z
" style="fill:#ff0000;opacity:0.4;"/>
    </g>
    <g id="text_12">
     <!-- Reports Based -->
     <defs>
      <path d="M 44.390625 34.1875 
Q 47.5625 33.109375 50.5625 29.59375 
Q 53.5625 26.078125 56.59375 19.921875 
L 66.609375 0 
L 56 0 
L 46.6875 18.703125 
Q 43.0625 26.03125 39.671875 28.421875 
Q 36.28125 30.8125 30.421875 30.8125 
L 19.671875 30.8125 
L 19.671875 0 
L 9.8125 0 
L 9.8125 72.90625 
L 32.078125 72.90625 
Q 44.578125 72.90625 50.734375 67.671875 
Q 56.890625 62.453125 56.890625 51.90625 
Q 56.890625 45.015625 53.6875 40.46875 
Q 50.484375 35.9375 44.390625 34.1875 
z
M 19.671875 64.796875 
L 19.671875 38.921875 
L 32.078125 38.921875 
Q 39.203125 38.921875 42.84375 42.21875 
Q 46.484375 45.515625 46.484375 51.90625 
Q 46.484375 58.296875 42.84375 61.546875 
Q 39.203125 64.796875 32.078125 64.796875 
z
" id="DejaVuSans-82"/>
      <path d="M 18.109375 8.203125 
L 18.109375 -20.796875 
L 9.078125 -20.796875 
L 9.078125 54.6875 
L 18.109375 54.6875 
L 18.109375 46.390625 
Q 20.953125 51.265625 25.265625 53.625 
Q 29.59375 56 35.59375 56 
Q 45.5625 56 51.78125 48.09375 
Q 58.015625 40.1875 58.015625 27.296875 
Q 58.015625 14.40625 51.78125 6.484375 
Q 45.5625 -1.421875 35.59375 -1.421875 
Q 29.59375 -1.421875 25.265625 0.953125 
Q 20.953125 3.328125 18.109375 8.203125 
z
M 48.6875 27.296875 
Q 48.6875 37.203125 44.609375 42.84375 
Q 40.53125 48.484375 33.40625 48.484375 
Q 26.265625 48.484375 22.1875 42.84375 
Q 18.109375 37.203125 18.109375 27.296875 
Q 18.109375 17.390625 22.1875 11.75 
Q 26.265625 6.109375 33.40625 6.109375 
Q 40.53125 6.109375 44.609375 11.75 
Q 48.6875 17.390625 48.6875 27.296875 
z
" id="DejaVuSans-112"/>
      <path d="M 19.671875 34.8125 
L 19.671875 8.109375 
L 35.5 8.109375 
Q 43.453125 8.109375 47.28125 11.40625 
Q 51.125 14.703125 51.125 21.484375 
Q 51.125 28.328125 47.28125 31.5625 
Q 43.453125 34.8125 35.5 34.8125 
z
M 19.671875 64.796875 
L 19.671875 42.828125 
L 34.28125 42.828125 
Q 41.5 42.828125 45.03125 45.53125 
Q 48.578125 48.25 48.578125 53.8125 
Q 48.578125 59.328125 45.03125 62.0625 
Q 41.5 64.796875 34.28125 64.796875 
z
M 9.8125 72.90625 
L 35.015625 72.90625 
Q 46.296875 72.90625 52.390625 68.21875 
Q 58.5 63.53125 58.5 54.890625 
Q 58.5 48.1875 55.375 44.234375 
Q 52.25 40.28125 46.1875 39.3125 
Q 53.46875 37.75 57.5 32.78125 
Q 61.53125 27.828125 61.53125 20.40625 
Q 61.53125 10.640625 54.890625 5.3125 
Q 48.25 0 35.984375 0 
L 9.8125 0 
z
" id="DejaVuSans-66"/>
     </defs>
     <g transform="translate(626.21851 73.351513)scale(0.1 -0.1)">
      <use xlink:href="#DejaVuSans-82"/>
      <use x="64.982422" xlink:href="#DejaVuSans-101"/>
      <use x="126.505859" xlink:href="#DejaVuSans-112"/>
      <use x="189.982422" xlink:href="#DejaVuSans-111"/>
      <use x="251.164062" xlink:href="#DejaVuSans-114"/>
      <use x="292.277344" xlink:href="#DejaVuSans-116"/>
      <use x="331.486328" xlink:href="#DejaVuSans-115"/>
      <use x="383.585938" xlink:href="#DejaVuSans-32"/>
      <use x="415.373047" xlink:href="#DejaVuSans-66"/>
      <use x="483.976562" xlink:href="#DejaVuSans-97"/>
      <use x="545.255859" xlink:href="#DejaVuSans-115"/>
      <use x="597.355469" xlink:href="#DejaVuSans-101"/>
      <use x="658.878906" xlink:href="#DejaVuSans-100"/>
     </g>
    </g>
   </g>
  </g>
  <g id="axes_2">
   <g id="patch_29">
    <path d="M 52.30649 707.720497 
L 707.45601 707.720497 
L 707.45601 395.676088 
L 52.30649 395.676088 
z
" style="fill:#ffffff;"/>
   </g>
   <g id="patch_30">
    <path clip-path="url(#p2106b52640)" d="M 52.30649 707.720497 
L 76.874597 707.720497 
L 76.874597 544.627583 
L 52.30649 544.627583 
z
" style="fill:#800080;opacity:0.4;"/>
   </g>
   <g id="patch_31">
    <path clip-path="url(#p2106b52640)" d="M 76.874597 707.720497 
L 101.442704 707.720497 
L 101.442704 507.87425 
L 76.874597 507.87425 
z
" style="fill:#800080;opacity:0.4;"/>
   </g>
   <g id="patch_32">
    <path clip-path="url(#p2106b52640)" d="M 101.442704 707.720497 
L 126.010811 707.720497 
L 126.010811 697.383622 
L 101.442704 697.383622 
z
" style="fill:#800080;opacity:0.4;"/>
   </g>
   <g id="patch_33">
    <path clip-path="url(#p2106b52640)" d="M 126.010811 707.720497 
L 150.578918 707.720497 
L 150.578918 701.977788 
L 126.010811 701.977788 
z
" style="fill:#800080;opacity:0.4;"/>
   </g>
   <g id="patch_34">
    <path clip-path="url(#p2106b52640)" d="M 150.578918 707.720497 
L 175.147025 707.720497 
L 175.147025 703.12633 
L 150.578918 703.12633 
z
" style="fill:#800080;opacity:0.4;"/>
   </g>
   <g id="patch_35">
    <path clip-path="url(#p2106b52640)" d="M 175.147025 707.720497 
L 199.715132 707.720497 
L 199.715132 703.12633 
L 175.147025 703.12633 
z
" style="fill:#800080;opacity:0.4;"/>
   </g>
   <g id="patch_36">
    <path clip-path="url(#p2106b52640)" d="M 199.715132 707.720497 
L 224.283239 707.720497 
L 224.283239 703.12633 
L 199.715132 703.12633 
z
" style="fill:#800080;opacity:0.4;"/>
   </g>
   <g id="patch_37">
    <path clip-path="url(#p2106b52640)" d="M 224.283239 707.720497 
L 248.851346 707.720497 
L 248.851346 705.423413 
L 224.283239 705.423413 
z
" style="fill:#800080;opacity:0.4;"/>
   </g>
   <g id="patch_38">
    <path clip-path="url(#p2106b52640)" d="M 248.851346 707.720497 
L 273.419453 707.720497 
L 273.419453 707.720497 
L 248.851346 707.720497 
z
" style="fill:#800080;opacity:0.4;"/>
   </g>
   <g id="patch_39">
    <path clip-path="url(#p2106b52640)" d="M 273.419453 707.720497 
L 297.98756 707.720497 
L 297.98756 707.720497 
L 273.419453 707.720497 
z
" style="fill:#800080;opacity:0.4;"/>
   </g>
   <g id="patch_40">
    <path clip-path="url(#p2106b52640)" d="M 297.98756 707.720497 
L 322.555667 707.720497 
L 322.555667 707.720497 
L 297.98756 707.720497 
z
" style="fill:#800080;opacity:0.4;"/>
   </g>
   <g id="patch_41">
    <path clip-path="url(#p2106b52640)" d="M 322.555667 707.720497 
L 347.123774 707.720497 
L 347.123774 707.720497 
L 322.555667 707.720497 
z
" style="fill:#800080;opacity:0.4;"/>
   </g>
   <g id="patch_42">
    <path clip-path="url(#p2106b52640)" d="M 347.123774 707.720497 
L 371.691881 707.720497 
L 371.691881 707.720497 
L 347.123774 707.720497 
z
" style="fill:#800080;opacity:0.4;"/>
   </g>
   <g id="patch_43">
    <path clip-path="url(#p2106b52640)" d="M 371.691881 707.720497 
L 396.259988 707.720497 
L 396.259988 707.720497 
L 371.691881 707.720497 
z
" style="fill:#800080;opacity:0.4;"/>
   </g>
   <g id="patch_44">
    <path clip-path="url(#p2106b52640)" d="M 396.259988 707.720497 
L 420.828095 707.720497 
L 420.828095 707.720497 
L 396.259988 707.720497 
z
" style="fill:#800080;opacity:0.4;"/>
   </g>
   <g id="patch_45">
    <path clip-path="url(#p2106b52640)" d="M 420.828095 707.720497 
L 445.396202 707.720497 
L 445.396202 707.720497 
L 420.828095 707.720497 
z
" style="fill:#800080;opacity:0.4;"/>
   </g>
   <g id="patch_46">
    <path clip-path="url(#p2106b52640)" d="M 445.396202 707.720497 
L 469.964309 707.720497 
L 469.964309 707.720497 
L 445.396202 707.720497 
z
" style="fill:#800080;opacity:0.4;"/>
   </g>
   <g id="patch_47">
    <path clip-path="url(#p2106b52640)" d="M 469.964309 707.720497 
L 494.532416 707.720497 
L 494.532416 707.720497 
L 469.964309 707.720497 
z
" style="fill:#800080;opacity:0.4;"/>
   </g>
   <g id="patch_48">
    <path clip-path="url(#p2106b52640)" d="M 494.532416 707.720497 
L 519.100523 707.720497 
L 519.100523 707.720497 
L 494.532416 707.720497 
z
" style="fill:#800080;opacity:0.4;"/>
   </g>
   <g id="patch_49">
    <path clip-path="url(#p2106b52640)" d="M 519.100523 707.720497 
L 543.66863 707.720497 
L 543.66863 706.571955 
L 519.100523 706.571955 
z
" style="fill:#800080;opacity:0.4;"/>
   </g>
   <g id="matplotlib.axis_3">
    <g id="xtick_7">
     <g id="line2d_17">
      <g>
       <use style="stroke:#000000;stroke-width:0.8;" x="52.30649" xlink:href="#m39e832919a" y="707.720497"/>
      </g>
     </g>
    </g>
    <g id="xtick_8">
     <g id="line2d_18">
      <g>
       <use style="stroke:#000000;stroke-width:0.8;" x="183.336394" xlink:href="#m39e832919a" y="707.720497"/>
      </g>
     </g>
    </g>
    <g id="xtick_9">
     <g id="line2d_19">
      <g>
       <use style="stroke:#000000;stroke-width:0.8;" x="314.366298" xlink:href="#m39e832919a" y="707.720497"/>
      </g>
     </g>
    </g>
    <g id="xtick_10">
     <g id="line2d_20">
      <g>
       <use style="stroke:#000000;stroke-width:0.8;" x="445.396202" xlink:href="#m39e832919a" y="707.720497"/>
      </g>
     </g>
    </g>
    <g id="xtick_11">
     <g id="line2d_21">
      <g>
       <use style="stroke:#000000;stroke-width:0.8;" x="576.426106" xlink:href="#m39e832919a" y="707.720497"/>
      </g>
     </g>
    </g>
    <g id="xtick_12">
     <g id="line2d_22">
      <g>
       <use style="stroke:#000000;stroke-width:0.8;" x="707.45601" xlink:href="#m39e832919a" y="707.720497"/>
      </g>
     </g>
    </g>
    <g id="text_13">
     <!-- Absolute Error in Accuracy(%) Estimation -->
     <g transform="translate(276.823437 719.318934)scale(0.1 -0.1)">
      <use xlink:href="#DejaVuSans-65"/>
      <use x="68.408203" xlink:href="#DejaVuSans-98"/>
      <use x="131.884766" xlink:href="#DejaVuSans-115"/>
      <use x="183.984375" xlink:href="#DejaVuSans-111"/>
      <use x="245.166016" xlink:href="#DejaVuSans-108"/>
      <use x="272.949219" xlink:href="#DejaVuSans-117"/>
      <use x="336.328125" xlink:href="#DejaVuSans-116"/>
      <use x="375.537109" xlink:href="#DejaVuSans-101"/>
      <use x="437.060547" xlink:href="#DejaVuSans-32"/>
      <use x="468.847656" xlink:href="#DejaVuSans-69"/>
      <use x="532.03125" xlink:href="#DejaVuSans-114"/>
      <use x="571.394531" xlink:href="#DejaVuSans-114"/>
      <use x="610.257812" xlink:href="#DejaVuSans-111"/>
      <use x="671.439453" xlink:href="#DejaVuSans-114"/>
      <use x="712.552734" xlink:href="#DejaVuSans-32"/>
      <use x="744.339844" xlink:href="#DejaVuSans-105"/>
      <use x="772.123047" xlink:href="#DejaVuSans-110"/>
      <use x="835.501953" xlink:href="#DejaVuSans-32"/>
      <use x="867.289062" xlink:href="#DejaVuSans-65"/>
      <use x="933.947266" xlink:href="#DejaVuSans-99"/>
      <use x="988.927734" xlink:href="#DejaVuSans-99"/>
      <use x="1043.908203" xlink:href="#DejaVuSans-117"/>
      <use x="1107.287109" xlink:href="#DejaVuSans-114"/>
      <use x="1148.400391" xlink:href="#DejaVuSans-97"/>
      <use x="1209.679688" xlink:href="#DejaVuSans-99"/>
      <use x="1264.660156" xlink:href="#DejaVuSans-121"/>
      <use x="1323.839844" xlink:href="#DejaVuSans-40"/>
      <use x="1362.853516" xlink:href="#DejaVuSans-37"/>
      <use x="1457.873047" xlink:href="#DejaVuSans-41"/>
      <use x="1496.886719" xlink:href="#DejaVuSans-32"/>
      <use x="1528.673828" xlink:href="#DejaVuSans-69"/>
      <use x="1591.857422" xlink:href="#DejaVuSans-115"/>
      <use x="1643.957031" xlink:href="#DejaVuSans-116"/>
      <use x="1683.166016" xlink:href="#DejaVuSans-105"/>
      <use x="1710.949219" xlink:href="#DejaVuSans-109"/>
      <use x="1808.361328" xlink:href="#DejaVuSans-97"/>
      <use x="1869.640625" xlink:href="#DejaVuSans-116"/>
      <use x="1908.849609" xlink:href="#DejaVuSans-105"/>
      <use x="1936.632812" xlink:href="#DejaVuSans-111"/>
      <use x="1997.814453" xlink:href="#DejaVuSans-110"/>
     </g>
    </g>
   </g>
   <g id="matplotlib.axis_4">
    <g id="ytick_10">
     <g id="line2d_23">
      <g>
       <use style="stroke:#000000;stroke-width:0.8;" x="52.30649" xlink:href="#m485cafcb89" y="707.720497"/>
      </g>
     </g>
     <g id="text_14">
      <!-- 0.000 -->
      <g transform="translate(16.678365 711.519715)scale(0.1 -0.1)">
       <use xlink:href="#DejaVuSans-48"/>
       <use x="63.623047" xlink:href="#DejaVuSans-46"/>
       <use x="95.410156" xlink:href="#DejaVuSans-48"/>
       <use x="159.033203" xlink:href="#DejaVuSans-48"/>
       <use x="222.65625" xlink:href="#DejaVuSans-48"/>
      </g>
     </g>
    </g>
    <g id="ytick_11">
     <g id="line2d_24">
      <g>
       <use style="stroke:#000000;stroke-width:0.8;" x="52.30649" xlink:href="#m485cafcb89" y="670.572353"/>
      </g>
     </g>
     <g id="text_15">
      <!-- 0.025 -->
      <g transform="translate(16.678365 674.371572)scale(0.1 -0.1)">
       <use xlink:href="#DejaVuSans-48"/>
       <use x="63.623047" xlink:href="#DejaVuSans-46"/>
       <use x="95.410156" xlink:href="#DejaVuSans-48"/>
       <use x="159.033203" xlink:href="#DejaVuSans-50"/>
       <use x="222.65625" xlink:href="#DejaVuSans-53"/>
      </g>
     </g>
    </g>
    <g id="ytick_12">
     <g id="line2d_25">
      <g>
       <use style="stroke:#000000;stroke-width:0.8;" x="52.30649" xlink:href="#m485cafcb89" y="633.424209"/>
      </g>
     </g>
     <g id="text_16">
      <!-- 0.050 -->
      <g transform="translate(16.678365 637.223428)scale(0.1 -0.1)">
       <use xlink:href="#DejaVuSans-48"/>
       <use x="63.623047" xlink:href="#DejaVuSans-46"/>
       <use x="95.410156" xlink:href="#DejaVuSans-48"/>
       <use x="159.033203" xlink:href="#DejaVuSans-53"/>
       <use x="222.65625" xlink:href="#DejaVuSans-48"/>
      </g>
     </g>
    </g>
    <g id="ytick_13">
     <g id="line2d_26">
      <g>
       <use style="stroke:#000000;stroke-width:0.8;" x="52.30649" xlink:href="#m485cafcb89" y="596.276065"/>
      </g>
     </g>
     <g id="text_17">
      <!-- 0.075 -->
      <g transform="translate(16.678365 600.075284)scale(0.1 -0.1)">
       <use xlink:href="#DejaVuSans-48"/>
       <use x="63.623047" xlink:href="#DejaVuSans-46"/>
       <use x="95.410156" xlink:href="#DejaVuSans-48"/>
       <use x="159.033203" xlink:href="#DejaVuSans-55"/>
       <use x="222.65625" xlink:href="#DejaVuSans-53"/>
      </g>
     </g>
    </g>
    <g id="ytick_14">
     <g id="line2d_27">
      <g>
       <use style="stroke:#000000;stroke-width:0.8;" x="52.30649" xlink:href="#m485cafcb89" y="559.127921"/>
      </g>
     </g>
     <g id="text_18">
      <!-- 0.100 -->
      <g transform="translate(16.678365 562.92714)scale(0.1 -0.1)">
       <use xlink:href="#DejaVuSans-48"/>
       <use x="63.623047" xlink:href="#DejaVuSans-46"/>
       <use x="95.410156" xlink:href="#DejaVuSans-49"/>
       <use x="159.033203" xlink:href="#DejaVuSans-48"/>
       <use x="222.65625" xlink:href="#DejaVuSans-48"/>
      </g>
     </g>
    </g>
    <g id="ytick_15">
     <g id="line2d_28">
      <g>
       <use style="stroke:#000000;stroke-width:0.8;" x="52.30649" xlink:href="#m485cafcb89" y="521.979777"/>
      </g>
     </g>
     <g id="text_19">
      <!-- 0.125 -->
      <g transform="translate(16.678365 525.778996)scale(0.1 -0.1)">
       <use xlink:href="#DejaVuSans-48"/>
       <use x="63.623047" xlink:href="#DejaVuSans-46"/>
       <use x="95.410156" xlink:href="#DejaVuSans-49"/>
       <use x="159.033203" xlink:href="#DejaVuSans-50"/>
       <use x="222.65625" xlink:href="#DejaVuSans-53"/>
      </g>
     </g>
    </g>
    <g id="ytick_16">
     <g id="line2d_29">
      <g>
       <use style="stroke:#000000;stroke-width:0.8;" x="52.30649" xlink:href="#m485cafcb89" y="484.831634"/>
      </g>
     </g>
     <g id="text_20">
      <!-- 0.150 -->
      <g transform="translate(16.678365 488.630852)scale(0.1 -0.1)">
       <use xlink:href="#DejaVuSans-48"/>
       <use x="63.623047" xlink:href="#DejaVuSans-46"/>
       <use x="95.410156" xlink:href="#DejaVuSans-49"/>
       <use x="159.033203" xlink:href="#DejaVuSans-53"/>
       <use x="222.65625" xlink:href="#DejaVuSans-48"/>
      </g>
     </g>
    </g>
    <g id="ytick_17">
     <g id="line2d_30">
      <g>
       <use style="stroke:#000000;stroke-width:0.8;" x="52.30649" xlink:href="#m485cafcb89" y="447.68349"/>
      </g>
     </g>
     <g id="text_21">
      <!-- 0.175 -->
      <g transform="translate(16.678365 451.482708)scale(0.1 -0.1)">
       <use xlink:href="#DejaVuSans-48"/>
       <use x="63.623047" xlink:href="#DejaVuSans-46"/>
       <use x="95.410156" xlink:href="#DejaVuSans-49"/>
       <use x="159.033203" xlink:href="#DejaVuSans-55"/>
       <use x="222.65625" xlink:href="#DejaVuSans-53"/>
      </g>
     </g>
    </g>
    <g id="ytick_18">
     <g id="line2d_31">
      <g>
       <use style="stroke:#000000;stroke-width:0.8;" x="52.30649" xlink:href="#m485cafcb89" y="410.535346"/>
      </g>
     </g>
     <g id="text_22">
      <!-- 0.200 -->
      <g transform="translate(16.678365 414.334565)scale(0.1 -0.1)">
       <use xlink:href="#DejaVuSans-48"/>
       <use x="63.623047" xlink:href="#DejaVuSans-46"/>
       <use x="95.410156" xlink:href="#DejaVuSans-50"/>
       <use x="159.033203" xlink:href="#DejaVuSans-48"/>
       <use x="222.65625" xlink:href="#DejaVuSans-48"/>
      </g>
     </g>
    </g>
    <g id="text_23">
     <!-- #nodes in bin -->
     <g transform="translate(10.598678 586.439699)rotate(-90)scale(0.1 -0.1)">
      <use xlink:href="#DejaVuSans-35"/>
      <use x="83.789062" xlink:href="#DejaVuSans-110"/>
      <use x="147.167969" xlink:href="#DejaVuSans-111"/>
      <use x="208.349609" xlink:href="#DejaVuSans-100"/>
      <use x="271.826172" xlink:href="#DejaVuSans-101"/>
      <use x="333.349609" xlink:href="#DejaVuSans-115"/>
      <use x="385.449219" xlink:href="#DejaVuSans-32"/>
      <use x="417.236328" xlink:href="#DejaVuSans-105"/>
      <use x="445.019531" xlink:href="#DejaVuSans-110"/>
      <use x="508.398438" xlink:href="#DejaVuSans-32"/>
      <use x="540.185547" xlink:href="#DejaVuSans-98"/>
      <use x="603.662109" xlink:href="#DejaVuSans-105"/>
      <use x="631.445312" xlink:href="#DejaVuSans-110"/>
     </g>
    </g>
   </g>
   <g id="line2d_32">
    <path clip-path="url(#p2106b52640)" d="M 18.732903 707.615581 
L 24.374411 707.245527 
L 30.01592 705.976741 
L 35.657428 702.433694 
L 41.298936 694.187348 
L 46.940444 677.801456 
L 52.581952 649.577618 
L 58.223461 607.598041 
L 63.864969 555.218183 
L 69.506477 503.863549 
L 75.147985 470.771031 
L 80.789494 469.936979 
L 86.431002 502.203051 
L 92.07251 554.104438 
L 97.714018 607.221476 
L 103.355526 648.906575 
L 108.997035 675.771945 
L 114.638543 690.55281 
L 120.280051 697.68783 
L 125.921559 700.713378 
L 131.563068 701.631537 
L 137.204576 701.427531 
L 142.846084 700.8071 
L 148.487592 700.479518 
L 154.1291 700.919871 
L 159.770609 702.059618 
L 165.412117 703.34319 
L 171.053625 704.165907 
L 176.695133 704.308679 
L 182.336641 703.976136 
L 187.97815 703.478816 
L 193.619658 702.98464 
L 199.261166 702.57664 
L 204.902674 702.393693 
L 210.544183 702.583181 
L 216.185691 703.142276 
L 221.827199 703.901869 
L 227.468707 704.689008 
L 233.110215 705.445143 
L 238.751724 706.165706 
L 244.393232 706.799464 
L 250.03474 707.266188 
L 255.676248 707.53884 
L 261.317757 707.662575 
L 266.959265 707.705915 
L 272.600773 707.717616 
L 278.242281 707.720052 
L 283.883789 707.720443 
L 289.525298 707.720492 
L 295.166806 707.720496 
L 300.808314 707.720497 
L 306.449822 707.720497 
L 312.091331 707.720497 
L 317.732839 707.720497 
L 323.374347 707.720497 
L 329.015855 707.720497 
L 334.657363 707.720497 
L 340.298872 707.720497 
L 345.94038 707.720497 
L 351.581888 707.720497 
L 357.223396 707.720497 
L 362.864905 707.720497 
L 368.506413 707.720497 
L 374.147921 707.720497 
L 379.789429 707.720497 
L 385.430937 707.720497 
L 391.072446 707.720497 
L 396.713954 707.720497 
L 402.355462 707.720497 
L 407.99697 707.720497 
L 413.638479 707.720497 
L 419.279987 707.720497 
L 424.921495 707.720497 
L 430.563003 707.720497 
L 436.204511 707.720497 
L 441.84602 707.720497 
L 447.487528 707.720497 
L 453.129036 707.720497 
L 458.770544 707.720497 
L 464.412052 707.720497 
L 470.053561 707.720497 
L 475.695069 707.720497 
L 481.336577 707.720496 
L 486.978085 707.720494 
L 492.619594 707.720465 
L 498.261102 707.720223 
L 503.90261 707.718643 
L 509.544118 707.710752 
L 515.185626 707.680742 
L 520.827135 707.594617 
L 526.468643 707.411126 
L 532.110151 707.130351 
L 537.751659 706.846729 
L 543.393168 706.716365 
L 549.034676 706.824838 
L 554.676184 707.100411 
L 560.317692 707.387287 
L 565.9592 707.58152 
L 571.600709 707.675506 
L 577.242217 707.709192 
" style="fill:none;stroke:#800080;stroke-linecap:square;stroke-width:1.5;"/>
   </g>
   <g id="patch_50">
    <path d="M 52.30649 707.720497 
L 52.30649 395.676088 
" style="fill:none;stroke:#000000;stroke-linecap:square;stroke-linejoin:miter;stroke-width:0.8;"/>
   </g>
   <g id="patch_51">
    <path d="M 707.45601 707.720497 
L 707.45601 395.676088 
" style="fill:none;stroke:#000000;stroke-linecap:square;stroke-linejoin:miter;stroke-width:0.8;"/>
   </g>
   <g id="patch_52">
    <path d="M 52.30649 707.720497 
L 707.45601 707.720497 
" style="fill:none;stroke:#000000;stroke-linecap:square;stroke-linejoin:miter;stroke-width:0.8;"/>
   </g>
   <g id="patch_53">
    <path d="M 52.30649 395.676088 
L 707.45601 395.676088 
" style="fill:none;stroke:#000000;stroke-linecap:square;stroke-linejoin:miter;stroke-width:0.8;"/>
   </g>
   <g id="legend_2">
    <g id="patch_54">
     <path d="M 466.41226 418.354213 
L 700.45601 418.354213 
Q 702.45601 418.354213 702.45601 416.354213 
L 702.45601 402.676088 
Q 702.45601 400.676088 700.45601 400.676088 
L 466.41226 400.676088 
Q 464.41226 400.676088 464.41226 402.676088 
L 464.41226 416.354213 
Q 464.41226 418.354213 466.41226 418.354213 
z
" style="fill:#ffffff;opacity:0.8;stroke:#cccccc;stroke-linejoin:miter;"/>
    </g>
    <g id="patch_55">
     <path d="M 468.41226 412.274526 
L 488.41226 412.274526 
L 488.41226 405.274526 
L 468.41226 405.274526 
z
" style="fill:#800080;opacity:0.4;"/>
    </g>
    <g id="text_24">
     <!-- Message Avg Based Without Blacklisting -->
     <defs>
      <path d="M 9.8125 72.90625 
L 24.515625 72.90625 
L 43.109375 23.296875 
L 61.8125 72.90625 
L 76.515625 72.90625 
L 76.515625 0 
L 66.890625 0 
L 66.890625 64.015625 
L 48.09375 14.015625 
L 38.1875 14.015625 
L 19.390625 64.015625 
L 19.390625 0 
L 9.8125 0 
z
" id="DejaVuSans-77"/>
      <path d="M 45.40625 27.984375 
Q 45.40625 37.75 41.375 43.109375 
Q 37.359375 48.484375 30.078125 48.484375 
Q 22.859375 48.484375 18.828125 43.109375 
Q 14.796875 37.75 14.796875 27.984375 
Q 14.796875 18.265625 18.828125 12.890625 
Q 22.859375 7.515625 30.078125 7.515625 
Q 37.359375 7.515625 41.375 12.890625 
Q 45.40625 18.265625 45.40625 27.984375 
z
M 54.390625 6.78125 
Q 54.390625 -7.171875 48.1875 -13.984375 
Q 42 -20.796875 29.203125 -20.796875 
Q 24.46875 -20.796875 20.265625 -20.09375 
Q 16.0625 -19.390625 12.109375 -17.921875 
L 12.109375 -9.1875 
Q 16.0625 -11.328125 19.921875 -12.34375 
Q 23.78125 -13.375 27.78125 -13.375 
Q 36.625 -13.375 41.015625 -8.765625 
Q 45.40625 -4.15625 45.40625 5.171875 
L 45.40625 9.625 
Q 42.625 4.78125 38.28125 2.390625 
Q 33.9375 0 27.875 0 
Q 17.828125 0 11.671875 7.65625 
Q 5.515625 15.328125 5.515625 27.984375 
Q 5.515625 40.671875 11.671875 48.328125 
Q 17.828125 56 27.875 56 
Q 33.9375 56 38.28125 53.609375 
Q 42.625 51.21875 45.40625 46.390625 
L 45.40625 54.6875 
L 54.390625 54.6875 
z
" id="DejaVuSans-103"/>
      <path d="M 2.984375 54.6875 
L 12.5 54.6875 
L 29.59375 8.796875 
L 46.6875 54.6875 
L 56.203125 54.6875 
L 35.6875 0 
L 23.484375 0 
z
" id="DejaVuSans-118"/>
      <path d="M 3.328125 72.90625 
L 13.28125 72.90625 
L 28.609375 11.28125 
L 43.890625 72.90625 
L 54.984375 72.90625 
L 70.3125 11.28125 
L 85.59375 72.90625 
L 95.609375 72.90625 
L 77.296875 0 
L 64.890625 0 
L 49.515625 63.28125 
L 33.984375 0 
L 21.578125 0 
z
" id="DejaVuSans-87"/>
      <path d="M 54.890625 33.015625 
L 54.890625 0 
L 45.90625 0 
L 45.90625 32.71875 
Q 45.90625 40.484375 42.875 44.328125 
Q 39.84375 48.1875 33.796875 48.1875 
Q 26.515625 48.1875 22.3125 43.546875 
Q 18.109375 38.921875 18.109375 30.90625 
L 18.109375 0 
L 9.078125 0 
L 9.078125 75.984375 
L 18.109375 75.984375 
L 18.109375 46.1875 
Q 21.34375 51.125 25.703125 53.5625 
Q 30.078125 56 35.796875 56 
Q 45.21875 56 50.046875 50.171875 
Q 54.890625 44.34375 54.890625 33.015625 
z
" id="DejaVuSans-104"/>
      <path d="M 9.078125 75.984375 
L 18.109375 75.984375 
L 18.109375 31.109375 
L 44.921875 54.6875 
L 56.390625 54.6875 
L 27.390625 29.109375 
L 57.625 0 
L 45.90625 0 
L 18.109375 26.703125 
L 18.109375 0 
L 9.078125 0 
z
" id="DejaVuSans-107"/>
     </defs>
     <g transform="translate(496.41226 412.274526)scale(0.1 -0.1)">
      <use xlink:href="#DejaVuSans-77"/>
      <use x="86.279297" xlink:href="#DejaVuSans-101"/>
      <use x="147.802734" xlink:href="#DejaVuSans-115"/>
      <use x="199.902344" xlink:href="#DejaVuSans-115"/>
      <use x="252.001953" xlink:href="#DejaVuSans-97"/>
      <use x="313.28125" xlink:href="#DejaVuSans-103"/>
      <use x="376.757812" xlink:href="#DejaVuSans-101"/>
      <use x="438.28125" xlink:href="#DejaVuSans-32"/>
      <use x="470.068359" xlink:href="#DejaVuSans-65"/>
      <use x="532.601562" xlink:href="#DejaVuSans-118"/>
      <use x="591.78125" xlink:href="#DejaVuSans-103"/>
      <use x="655.257812" xlink:href="#DejaVuSans-32"/>
      <use x="687.044922" xlink:href="#DejaVuSans-66"/>
      <use x="755.648438" xlink:href="#DejaVuSans-97"/>
      <use x="816.927734" xlink:href="#DejaVuSans-115"/>
      <use x="869.027344" xlink:href="#DejaVuSans-101"/>
      <use x="930.550781" xlink:href="#DejaVuSans-100"/>
      <use x="994.027344" xlink:href="#DejaVuSans-32"/>
      <use x="1025.814453" xlink:href="#DejaVuSans-87"/>
      <use x="1122.441406" xlink:href="#DejaVuSans-105"/>
      <use x="1150.224609" xlink:href="#DejaVuSans-116"/>
      <use x="1189.433594" xlink:href="#DejaVuSans-104"/>
      <use x="1252.8125" xlink:href="#DejaVuSans-111"/>
      <use x="1313.994141" xlink:href="#DejaVuSans-117"/>
      <use x="1377.373047" xlink:href="#DejaVuSans-116"/>
      <use x="1416.582031" xlink:href="#DejaVuSans-32"/>
      <use x="1448.369141" xlink:href="#DejaVuSans-66"/>
      <use x="1516.972656" xlink:href="#DejaVuSans-108"/>
      <use x="1544.755859" xlink:href="#DejaVuSans-97"/>
      <use x="1606.035156" xlink:href="#DejaVuSans-99"/>
      <use x="1661.015625" xlink:href="#DejaVuSans-107"/>
      <use x="1718.925781" xlink:href="#DejaVuSans-108"/>
      <use x="1746.708984" xlink:href="#DejaVuSans-105"/>
      <use x="1774.492188" xlink:href="#DejaVuSans-115"/>
      <use x="1826.591797" xlink:href="#DejaVuSans-116"/>
      <use x="1865.800781" xlink:href="#DejaVuSans-105"/>
      <use x="1893.583984" xlink:href="#DejaVuSans-110"/>
      <use x="1956.962891" xlink:href="#DejaVuSans-103"/>
     </g>
    </g>
   </g>
  </g>
  <g id="axes_3">
   <g id="patch_56">
    <path d="M 52.30649 1046.64351 
L 707.45601 1046.64351 
L 707.45601 734.599102 
L 52.30649 734.599102 
z
" style="fill:#ffffff;"/>
   </g>
   <g id="patch_57">
    <path clip-path="url(#p9a8b8bbccb)" d="M 52.30649 1046.64351 
L 85.063966 1046.64351 
L 85.063966 805.449764 
L 52.30649 805.449764 
z
" style="fill:#0000ff;opacity:0.4;"/>
   </g>
   <g id="patch_58">
    <path clip-path="url(#p9a8b8bbccb)" d="M 85.063966 1046.64351 
L 117.821442 1046.64351 
L 117.821442 996.681948 
L 85.063966 996.681948 
z
" style="fill:#0000ff;opacity:0.4;"/>
   </g>
   <g id="patch_59">
    <path clip-path="url(#p9a8b8bbccb)" d="M 117.821442 1046.64351 
L 150.578918 1046.64351 
L 150.578918 1042.336479 
L 117.821442 1042.336479 
z
" style="fill:#0000ff;opacity:0.4;"/>
   </g>
   <g id="patch_60">
    <path clip-path="url(#p9a8b8bbccb)" d="M 150.578918 1046.64351 
L 183.336394 1046.64351 
L 183.336394 1045.782104 
L 150.578918 1045.782104 
z
" style="fill:#0000ff;opacity:0.4;"/>
   </g>
   <g id="patch_61">
    <path clip-path="url(#p9a8b8bbccb)" d="M 183.336394 1046.64351 
L 216.09387 1046.64351 
L 216.09387 1046.64351 
L 183.336394 1046.64351 
z
" style="fill:#0000ff;opacity:0.4;"/>
   </g>
   <g id="patch_62">
    <path clip-path="url(#p9a8b8bbccb)" d="M 216.09387 1046.64351 
L 248.851346 1046.64351 
L 248.851346 1046.64351 
L 216.09387 1046.64351 
z
" style="fill:#0000ff;opacity:0.4;"/>
   </g>
   <g id="patch_63">
    <path clip-path="url(#p9a8b8bbccb)" d="M 248.851346 1046.64351 
L 281.608822 1046.64351 
L 281.608822 1046.64351 
L 248.851346 1046.64351 
z
" style="fill:#0000ff;opacity:0.4;"/>
   </g>
   <g id="patch_64">
    <path clip-path="url(#p9a8b8bbccb)" d="M 281.608822 1046.64351 
L 314.366298 1046.64351 
L 314.366298 1046.64351 
L 281.608822 1046.64351 
z
" style="fill:#0000ff;opacity:0.4;"/>
   </g>
   <g id="patch_65">
    <path clip-path="url(#p9a8b8bbccb)" d="M 314.366298 1046.64351 
L 347.123774 1046.64351 
L 347.123774 1046.64351 
L 314.366298 1046.64351 
z
" style="fill:#0000ff;opacity:0.4;"/>
   </g>
   <g id="patch_66">
    <path clip-path="url(#p9a8b8bbccb)" d="M 347.123774 1046.64351 
L 379.88125 1046.64351 
L 379.88125 1046.64351 
L 347.123774 1046.64351 
z
" style="fill:#0000ff;opacity:0.4;"/>
   </g>
   <g id="patch_67">
    <path clip-path="url(#p9a8b8bbccb)" d="M 379.88125 1046.64351 
L 412.638726 1046.64351 
L 412.638726 1046.64351 
L 379.88125 1046.64351 
z
" style="fill:#0000ff;opacity:0.4;"/>
   </g>
   <g id="patch_68">
    <path clip-path="url(#p9a8b8bbccb)" d="M 412.638726 1046.64351 
L 445.396202 1046.64351 
L 445.396202 1046.64351 
L 412.638726 1046.64351 
z
" style="fill:#0000ff;opacity:0.4;"/>
   </g>
   <g id="patch_69">
    <path clip-path="url(#p9a8b8bbccb)" d="M 445.396202 1046.64351 
L 478.153678 1046.64351 
L 478.153678 1046.64351 
L 445.396202 1046.64351 
z
" style="fill:#0000ff;opacity:0.4;"/>
   </g>
   <g id="patch_70">
    <path clip-path="url(#p9a8b8bbccb)" d="M 478.153678 1046.64351 
L 510.911154 1046.64351 
L 510.911154 1046.64351 
L 478.153678 1046.64351 
z
" style="fill:#0000ff;opacity:0.4;"/>
   </g>
   <g id="patch_71">
    <path clip-path="url(#p9a8b8bbccb)" d="M 510.911154 1046.64351 
L 543.66863 1046.64351 
L 543.66863 1046.64351 
L 510.911154 1046.64351 
z
" style="fill:#0000ff;opacity:0.4;"/>
   </g>
   <g id="patch_72">
    <path clip-path="url(#p9a8b8bbccb)" d="M 543.66863 1046.64351 
L 576.426106 1046.64351 
L 576.426106 1046.64351 
L 543.66863 1046.64351 
z
" style="fill:#0000ff;opacity:0.4;"/>
   </g>
   <g id="patch_73">
    <path clip-path="url(#p9a8b8bbccb)" d="M 576.426106 1046.64351 
L 609.183582 1046.64351 
L 609.183582 1046.64351 
L 576.426106 1046.64351 
z
" style="fill:#0000ff;opacity:0.4;"/>
   </g>
   <g id="patch_74">
    <path clip-path="url(#p9a8b8bbccb)" d="M 609.183582 1046.64351 
L 641.941058 1046.64351 
L 641.941058 1046.64351 
L 609.183582 1046.64351 
z
" style="fill:#0000ff;opacity:0.4;"/>
   </g>
   <g id="patch_75">
    <path clip-path="url(#p9a8b8bbccb)" d="M 641.941058 1046.64351 
L 674.698534 1046.64351 
L 674.698534 1046.64351 
L 641.941058 1046.64351 
z
" style="fill:#0000ff;opacity:0.4;"/>
   </g>
   <g id="patch_76">
    <path clip-path="url(#p9a8b8bbccb)" d="M 674.698534 1046.64351 
L 707.45601 1046.64351 
L 707.45601 1045.782104 
L 674.698534 1045.782104 
z
" style="fill:#0000ff;opacity:0.4;"/>
   </g>
   <g id="matplotlib.axis_5">
    <g id="xtick_13">
     <g id="line2d_33">
      <g>
       <use style="stroke:#000000;stroke-width:0.8;" x="52.30649" xlink:href="#m39e832919a" y="1046.64351"/>
      </g>
     </g>
     <g id="text_25">
      <!-- 0 -->
      <g transform="translate(49.12524 1061.241947)scale(0.1 -0.1)">
       <use xlink:href="#DejaVuSans-48"/>
      </g>
     </g>
    </g>
    <g id="xtick_14">
     <g id="line2d_34">
      <g>
       <use style="stroke:#000000;stroke-width:0.8;" x="183.336394" xlink:href="#m39e832919a" y="1046.64351"/>
      </g>
     </g>
     <g id="text_26">
      <!-- 20 -->
      <g transform="translate(176.973894 1061.241947)scale(0.1 -0.1)">
       <use xlink:href="#DejaVuSans-50"/>
       <use x="63.623047" xlink:href="#DejaVuSans-48"/>
      </g>
     </g>
    </g>
    <g id="xtick_15">
     <g id="line2d_35">
      <g>
       <use style="stroke:#000000;stroke-width:0.8;" x="314.366298" xlink:href="#m39e832919a" y="1046.64351"/>
      </g>
     </g>
     <g id="text_27">
      <!-- 40 -->
      <defs>
       <path d="M 37.796875 64.3125 
L 12.890625 25.390625 
L 37.796875 25.390625 
z
M 35.203125 72.90625 
L 47.609375 72.90625 
L 47.609375 25.390625 
L 58.015625 25.390625 
L 58.015625 17.1875 
L 47.609375 17.1875 
L 47.609375 0 
L 37.796875 0 
L 37.796875 17.1875 
L 4.890625 17.1875 
L 4.890625 26.703125 
z
" id="DejaVuSans-52"/>
      </defs>
      <g transform="translate(308.003798 1061.241947)scale(0.1 -0.1)">
       <use xlink:href="#DejaVuSans-52"/>
       <use x="63.623047" xlink:href="#DejaVuSans-48"/>
      </g>
     </g>
    </g>
    <g id="xtick_16">
     <g id="line2d_36">
      <g>
       <use style="stroke:#000000;stroke-width:0.8;" x="445.396202" xlink:href="#m39e832919a" y="1046.64351"/>
      </g>
     </g>
     <g id="text_28">
      <!-- 60 -->
      <defs>
       <path d="M 33.015625 40.375 
Q 26.375 40.375 22.484375 35.828125 
Q 18.609375 31.296875 18.609375 23.390625 
Q 18.609375 15.53125 22.484375 10.953125 
Q 26.375 6.390625 33.015625 6.390625 
Q 39.65625 6.390625 43.53125 10.953125 
Q 47.40625 15.53125 47.40625 23.390625 
Q 47.40625 31.296875 43.53125 35.828125 
Q 39.65625 40.375 33.015625 40.375 
z
M 52.59375 71.296875 
L 52.59375 62.3125 
Q 48.875 64.0625 45.09375 64.984375 
Q 41.3125 65.921875 37.59375 65.921875 
Q 27.828125 65.921875 22.671875 59.328125 
Q 17.53125 52.734375 16.796875 39.40625 
Q 19.671875 43.65625 24.015625 45.921875 
Q 28.375 48.1875 33.59375 48.1875 
Q 44.578125 48.1875 50.953125 41.515625 
Q 57.328125 34.859375 57.328125 23.390625 
Q 57.328125 12.15625 50.6875 5.359375 
Q 44.046875 -1.421875 33.015625 -1.421875 
Q 20.359375 -1.421875 13.671875 8.265625 
Q 6.984375 17.96875 6.984375 36.375 
Q 6.984375 53.65625 15.1875 63.9375 
Q 23.390625 74.21875 37.203125 74.21875 
Q 40.921875 74.21875 44.703125 73.484375 
Q 48.484375 72.75 52.59375 71.296875 
z
" id="DejaVuSans-54"/>
      </defs>
      <g transform="translate(439.033702 1061.241947)scale(0.1 -0.1)">
       <use xlink:href="#DejaVuSans-54"/>
       <use x="63.623047" xlink:href="#DejaVuSans-48"/>
      </g>
     </g>
    </g>
    <g id="xtick_17">
     <g id="line2d_37">
      <g>
       <use style="stroke:#000000;stroke-width:0.8;" x="576.426106" xlink:href="#m39e832919a" y="1046.64351"/>
      </g>
     </g>
     <g id="text_29">
      <!-- 80 -->
      <defs>
       <path d="M 31.78125 34.625 
Q 24.75 34.625 20.71875 30.859375 
Q 16.703125 27.09375 16.703125 20.515625 
Q 16.703125 13.921875 20.71875 10.15625 
Q 24.75 6.390625 31.78125 6.390625 
Q 38.8125 6.390625 42.859375 10.171875 
Q 46.921875 13.96875 46.921875 20.515625 
Q 46.921875 27.09375 42.890625 30.859375 
Q 38.875 34.625 31.78125 34.625 
z
M 21.921875 38.8125 
Q 15.578125 40.375 12.03125 44.71875 
Q 8.5 49.078125 8.5 55.328125 
Q 8.5 64.0625 14.71875 69.140625 
Q 20.953125 74.21875 31.78125 74.21875 
Q 42.671875 74.21875 48.875 69.140625 
Q 55.078125 64.0625 55.078125 55.328125 
Q 55.078125 49.078125 51.53125 44.71875 
Q 48 40.375 41.703125 38.8125 
Q 48.828125 37.15625 52.796875 32.3125 
Q 56.78125 27.484375 56.78125 20.515625 
Q 56.78125 9.90625 50.3125 4.234375 
Q 43.84375 -1.421875 31.78125 -1.421875 
Q 19.734375 -1.421875 13.25 4.234375 
Q 6.78125 9.90625 6.78125 20.515625 
Q 6.78125 27.484375 10.78125 32.3125 
Q 14.796875 37.15625 21.921875 38.8125 
z
M 18.3125 54.390625 
Q 18.3125 48.734375 21.84375 45.5625 
Q 25.390625 42.390625 31.78125 42.390625 
Q 38.140625 42.390625 41.71875 45.5625 
Q 45.3125 48.734375 45.3125 54.390625 
Q 45.3125 60.0625 41.71875 63.234375 
Q 38.140625 66.40625 31.78125 66.40625 
Q 25.390625 66.40625 21.84375 63.234375 
Q 18.3125 60.0625 18.3125 54.390625 
z
" id="DejaVuSans-56"/>
      </defs>
      <g transform="translate(570.063606 1061.241947)scale(0.1 -0.1)">
       <use xlink:href="#DejaVuSans-56"/>
       <use x="63.623047" xlink:href="#DejaVuSans-48"/>
      </g>
     </g>
    </g>
    <g id="xtick_18">
     <g id="line2d_38">
      <g>
       <use style="stroke:#000000;stroke-width:0.8;" x="707.45601" xlink:href="#m39e832919a" y="1046.64351"/>
      </g>
     </g>
     <g id="text_30">
      <!-- 100 -->
      <g transform="translate(697.91226 1061.241947)scale(0.1 -0.1)">
       <use xlink:href="#DejaVuSans-49"/>
       <use x="63.623047" xlink:href="#DejaVuSans-48"/>
       <use x="127.246094" xlink:href="#DejaVuSans-48"/>
      </g>
     </g>
    </g>
    <g id="text_31">
     <!-- Absolute Error in Accuracy(%) Estimation -->
     <g transform="translate(276.823437 1074.920072)scale(0.1 -0.1)">
      <use xlink:href="#DejaVuSans-65"/>
      <use x="68.408203" xlink:href="#DejaVuSans-98"/>
      <use x="131.884766" xlink:href="#DejaVuSans-115"/>
      <use x="183.984375" xlink:href="#DejaVuSans-111"/>
      <use x="245.166016" xlink:href="#DejaVuSans-108"/>
      <use x="272.949219" xlink:href="#DejaVuSans-117"/>
      <use x="336.328125" xlink:href="#DejaVuSans-116"/>
      <use x="375.537109" xlink:href="#DejaVuSans-101"/>
      <use x="437.060547" xlink:href="#DejaVuSans-32"/>
      <use x="468.847656" xlink:href="#DejaVuSans-69"/>
      <use x="532.03125" xlink:href="#DejaVuSans-114"/>
      <use x="571.394531" xlink:href="#DejaVuSans-114"/>
      <use x="610.257812" xlink:href="#DejaVuSans-111"/>
      <use x="671.439453" xlink:href="#DejaVuSans-114"/>
      <use x="712.552734" xlink:href="#DejaVuSans-32"/>
      <use x="744.339844" xlink:href="#DejaVuSans-105"/>
      <use x="772.123047" xlink:href="#DejaVuSans-110"/>
      <use x="835.501953" xlink:href="#DejaVuSans-32"/>
      <use x="867.289062" xlink:href="#DejaVuSans-65"/>
      <use x="933.947266" xlink:href="#DejaVuSans-99"/>
      <use x="988.927734" xlink:href="#DejaVuSans-99"/>
      <use x="1043.908203" xlink:href="#DejaVuSans-117"/>
      <use x="1107.287109" xlink:href="#DejaVuSans-114"/>
      <use x="1148.400391" xlink:href="#DejaVuSans-97"/>
      <use x="1209.679688" xlink:href="#DejaVuSans-99"/>
      <use x="1264.660156" xlink:href="#DejaVuSans-121"/>
      <use x="1323.839844" xlink:href="#DejaVuSans-40"/>
      <use x="1362.853516" xlink:href="#DejaVuSans-37"/>
      <use x="1457.873047" xlink:href="#DejaVuSans-41"/>
      <use x="1496.886719" xlink:href="#DejaVuSans-32"/>
      <use x="1528.673828" xlink:href="#DejaVuSans-69"/>
      <use x="1591.857422" xlink:href="#DejaVuSans-115"/>
      <use x="1643.957031" xlink:href="#DejaVuSans-116"/>
      <use x="1683.166016" xlink:href="#DejaVuSans-105"/>
      <use x="1710.949219" xlink:href="#DejaVuSans-109"/>
      <use x="1808.361328" xlink:href="#DejaVuSans-97"/>
      <use x="1869.640625" xlink:href="#DejaVuSans-116"/>
      <use x="1908.849609" xlink:href="#DejaVuSans-105"/>
      <use x="1936.632812" xlink:href="#DejaVuSans-111"/>
      <use x="1997.814453" xlink:href="#DejaVuSans-110"/>
     </g>
    </g>
   </g>
   <g id="matplotlib.axis_6">
    <g id="ytick_19">
     <g id="line2d_39">
      <g>
       <use style="stroke:#000000;stroke-width:0.8;" x="52.30649" xlink:href="#m485cafcb89" y="1046.64351"/>
      </g>
     </g>
     <g id="text_32">
      <!-- 0.000 -->
      <g transform="translate(16.678365 1050.442729)scale(0.1 -0.1)">
       <use xlink:href="#DejaVuSans-48"/>
       <use x="63.623047" xlink:href="#DejaVuSans-46"/>
       <use x="95.410156" xlink:href="#DejaVuSans-48"/>
       <use x="159.033203" xlink:href="#DejaVuSans-48"/>
       <use x="222.65625" xlink:href="#DejaVuSans-48"/>
      </g>
     </g>
    </g>
    <g id="ytick_20">
     <g id="line2d_40">
      <g>
       <use style="stroke:#000000;stroke-width:0.8;" x="52.30649" xlink:href="#m485cafcb89" y="1009.495366"/>
      </g>
     </g>
     <g id="text_33">
      <!-- 0.025 -->
      <g transform="translate(16.678365 1013.294585)scale(0.1 -0.1)">
       <use xlink:href="#DejaVuSans-48"/>
       <use x="63.623047" xlink:href="#DejaVuSans-46"/>
       <use x="95.410156" xlink:href="#DejaVuSans-48"/>
       <use x="159.033203" xlink:href="#DejaVuSans-50"/>
       <use x="222.65625" xlink:href="#DejaVuSans-53"/>
      </g>
     </g>
    </g>
    <g id="ytick_21">
     <g id="line2d_41">
      <g>
       <use style="stroke:#000000;stroke-width:0.8;" x="52.30649" xlink:href="#m485cafcb89" y="972.347222"/>
      </g>
     </g>
     <g id="text_34">
      <!-- 0.050 -->
      <g transform="translate(16.678365 976.146441)scale(0.1 -0.1)">
       <use xlink:href="#DejaVuSans-48"/>
       <use x="63.623047" xlink:href="#DejaVuSans-46"/>
       <use x="95.410156" xlink:href="#DejaVuSans-48"/>
       <use x="159.033203" xlink:href="#DejaVuSans-53"/>
       <use x="222.65625" xlink:href="#DejaVuSans-48"/>
      </g>
     </g>
    </g>
    <g id="ytick_22">
     <g id="line2d_42">
      <g>
       <use style="stroke:#000000;stroke-width:0.8;" x="52.30649" xlink:href="#m485cafcb89" y="935.199078"/>
      </g>
     </g>
     <g id="text_35">
      <!-- 0.075 -->
      <g transform="translate(16.678365 938.998297)scale(0.1 -0.1)">
       <use xlink:href="#DejaVuSans-48"/>
       <use x="63.623047" xlink:href="#DejaVuSans-46"/>
       <use x="95.410156" xlink:href="#DejaVuSans-48"/>
       <use x="159.033203" xlink:href="#DejaVuSans-55"/>
       <use x="222.65625" xlink:href="#DejaVuSans-53"/>
      </g>
     </g>
    </g>
    <g id="ytick_23">
     <g id="line2d_43">
      <g>
       <use style="stroke:#000000;stroke-width:0.8;" x="52.30649" xlink:href="#m485cafcb89" y="898.050935"/>
      </g>
     </g>
     <g id="text_36">
      <!-- 0.100 -->
      <g transform="translate(16.678365 901.850153)scale(0.1 -0.1)">
       <use xlink:href="#DejaVuSans-48"/>
       <use x="63.623047" xlink:href="#DejaVuSans-46"/>
       <use x="95.410156" xlink:href="#DejaVuSans-49"/>
       <use x="159.033203" xlink:href="#DejaVuSans-48"/>
       <use x="222.65625" xlink:href="#DejaVuSans-48"/>
      </g>
     </g>
    </g>
    <g id="ytick_24">
     <g id="line2d_44">
      <g>
       <use style="stroke:#000000;stroke-width:0.8;" x="52.30649" xlink:href="#m485cafcb89" y="860.902791"/>
      </g>
     </g>
     <g id="text_37">
      <!-- 0.125 -->
      <g transform="translate(16.678365 864.70201)scale(0.1 -0.1)">
       <use xlink:href="#DejaVuSans-48"/>
       <use x="63.623047" xlink:href="#DejaVuSans-46"/>
       <use x="95.410156" xlink:href="#DejaVuSans-49"/>
       <use x="159.033203" xlink:href="#DejaVuSans-50"/>
       <use x="222.65625" xlink:href="#DejaVuSans-53"/>
      </g>
     </g>
    </g>
    <g id="ytick_25">
     <g id="line2d_45">
      <g>
       <use style="stroke:#000000;stroke-width:0.8;" x="52.30649" xlink:href="#m485cafcb89" y="823.754647"/>
      </g>
     </g>
     <g id="text_38">
      <!-- 0.150 -->
      <g transform="translate(16.678365 827.553866)scale(0.1 -0.1)">
       <use xlink:href="#DejaVuSans-48"/>
       <use x="63.623047" xlink:href="#DejaVuSans-46"/>
       <use x="95.410156" xlink:href="#DejaVuSans-49"/>
       <use x="159.033203" xlink:href="#DejaVuSans-53"/>
       <use x="222.65625" xlink:href="#DejaVuSans-48"/>
      </g>
     </g>
    </g>
    <g id="ytick_26">
     <g id="line2d_46">
      <g>
       <use style="stroke:#000000;stroke-width:0.8;" x="52.30649" xlink:href="#m485cafcb89" y="786.606503"/>
      </g>
     </g>
     <g id="text_39">
      <!-- 0.175 -->
      <g transform="translate(16.678365 790.405722)scale(0.1 -0.1)">
       <use xlink:href="#DejaVuSans-48"/>
       <use x="63.623047" xlink:href="#DejaVuSans-46"/>
       <use x="95.410156" xlink:href="#DejaVuSans-49"/>
       <use x="159.033203" xlink:href="#DejaVuSans-55"/>
       <use x="222.65625" xlink:href="#DejaVuSans-53"/>
      </g>
     </g>
    </g>
    <g id="ytick_27">
     <g id="line2d_47">
      <g>
       <use style="stroke:#000000;stroke-width:0.8;" x="52.30649" xlink:href="#m485cafcb89" y="749.458359"/>
      </g>
     </g>
     <g id="text_40">
      <!-- 0.200 -->
      <g transform="translate(16.678365 753.257578)scale(0.1 -0.1)">
       <use xlink:href="#DejaVuSans-48"/>
       <use x="63.623047" xlink:href="#DejaVuSans-46"/>
       <use x="95.410156" xlink:href="#DejaVuSans-50"/>
       <use x="159.033203" xlink:href="#DejaVuSans-48"/>
       <use x="222.65625" xlink:href="#DejaVuSans-48"/>
      </g>
     </g>
    </g>
    <g id="text_41">
     <!-- #nodes in bin -->
     <g transform="translate(10.598678 925.362712)rotate(-90)scale(0.1 -0.1)">
      <use xlink:href="#DejaVuSans-35"/>
      <use x="83.789062" xlink:href="#DejaVuSans-110"/>
      <use x="147.167969" xlink:href="#DejaVuSans-111"/>
      <use x="208.349609" xlink:href="#DejaVuSans-100"/>
      <use x="271.826172" xlink:href="#DejaVuSans-101"/>
      <use x="333.349609" xlink:href="#DejaVuSans-115"/>
      <use x="385.449219" xlink:href="#DejaVuSans-32"/>
      <use x="417.236328" xlink:href="#DejaVuSans-105"/>
      <use x="445.019531" xlink:href="#DejaVuSans-110"/>
      <use x="508.398438" xlink:href="#DejaVuSans-32"/>
      <use x="540.185547" xlink:href="#DejaVuSans-98"/>
      <use x="603.662109" xlink:href="#DejaVuSans-105"/>
      <use x="631.445312" xlink:href="#DejaVuSans-110"/>
     </g>
    </g>
   </g>
   <g id="line2d_48">
    <path clip-path="url(#p9a8b8bbccb)" d="M 18.144853 1046.460399 
L 25.452659 1045.432539 
L 32.760465 1040.9725 
L 40.068271 1027.219857 
L 47.376077 996.021358 
L 54.683883 942.573705 
L 61.991689 874.668778 
L 69.299495 818.355809 
L 76.607301 805.295096 
L 83.915107 844.015026 
L 91.222913 909.757554 
L 98.530719 969.276218 
L 105.838525 1007.46503 
L 113.146331 1027.39518 
L 120.454137 1036.725964 
L 127.761943 1040.75031 
L 135.069749 1042.42639 
L 142.377555 1043.304471 
L 149.685361 1044.028428 
L 156.993167 1044.727112 
L 164.300973 1045.391386 
L 171.608779 1045.979219 
L 178.916585 1046.38363 
L 186.224391 1046.572865 
L 193.532197 1046.630532 
L 200.840003 1046.641917 
L 208.147809 1046.64338 
L 215.455615 1046.643503 
L 222.763421 1046.64351 
L 230.071227 1046.64351 
L 237.379033 1046.64351 
L 244.686839 1046.64351 
L 251.994645 1046.64351 
L 259.302451 1046.64351 
L 266.610257 1046.64351 
L 273.918063 1046.64351 
L 281.225869 1046.64351 
L 288.533675 1046.64351 
L 295.841481 1046.64351 
L 303.149287 1046.64351 
L 310.457093 1046.64351 
L 317.764899 1046.64351 
L 325.072705 1046.64351 
L 332.380511 1046.64351 
L 339.688317 1046.64351 
L 346.996123 1046.64351 
L 354.303929 1046.64351 
L 361.611735 1046.64351 
L 368.919541 1046.64351 
L 376.227347 1046.64351 
L 383.535153 1046.64351 
L 390.842959 1046.64351 
L 398.150765 1046.64351 
L 405.458571 1046.64351 
L 412.766377 1046.64351 
L 420.074183 1046.64351 
L 427.381989 1046.64351 
L 434.689795 1046.64351 
L 441.997601 1046.64351 
L 449.305407 1046.64351 
L 456.613213 1046.64351 
L 463.921019 1046.64351 
L 471.228825 1046.64351 
L 478.536631 1046.64351 
L 485.844437 1046.64351 
L 493.152243 1046.64351 
L 500.460049 1046.64351 
L 507.767855 1046.64351 
L 515.075661 1046.64351 
L 522.383467 1046.64351 
L 529.691273 1046.64351 
L 536.999079 1046.64351 
L 544.306885 1046.64351 
L 551.614691 1046.64351 
L 558.922497 1046.64351 
L 566.230303 1046.64351 
L 573.538109 1046.64351 
L 580.845915 1046.64351 
L 588.153721 1046.64351 
L 595.461527 1046.64351 
L 602.769333 1046.64351 
L 610.077139 1046.64351 
L 617.384945 1046.64351 
L 624.692751 1046.64351 
L 632.000557 1046.64351 
L 639.308363 1046.64351 
L 646.616169 1046.643509 
L 653.923975 1046.643494 
L 661.231781 1046.643243 
L 668.539587 1046.640589 
L 675.847393 1046.622322 
L 683.155199 1046.541574 
L 690.463005 1046.318264 
L 697.770811 1045.955253 
L 705.078617 1045.677586 
L 712.386423 1045.744447 
L 719.694229 1046.088512 
L 721 1046.14708 
" style="fill:none;stroke:#0000ff;stroke-linecap:square;stroke-width:1.5;"/>
   </g>
   <g id="patch_77">
    <path d="M 52.30649 1046.64351 
L 52.30649 734.599102 
" style="fill:none;stroke:#000000;stroke-linecap:square;stroke-linejoin:miter;stroke-width:0.8;"/>
   </g>
   <g id="patch_78">
    <path d="M 707.45601 1046.64351 
L 707.45601 734.599102 
" style="fill:none;stroke:#000000;stroke-linecap:square;stroke-linejoin:miter;stroke-width:0.8;"/>
   </g>
   <g id="patch_79">
    <path d="M 52.30649 1046.64351 
L 707.45601 1046.64351 
" style="fill:none;stroke:#000000;stroke-linecap:square;stroke-linejoin:miter;stroke-width:0.8;"/>
   </g>
   <g id="patch_80">
    <path d="M 52.30649 734.599102 
L 707.45601 734.599102 
" style="fill:none;stroke:#000000;stroke-linecap:square;stroke-linejoin:miter;stroke-width:0.8;"/>
   </g>
   <g id="legend_3">
    <g id="patch_81">
     <path d="M 486.709135 757.277227 
L 700.45601 757.277227 
Q 702.45601 757.277227 702.45601 755.277227 
L 702.45601 741.599102 
Q 702.45601 739.599102 700.45601 739.599102 
L 486.709135 739.599102 
Q 484.709135 739.599102 484.709135 741.599102 
L 484.709135 755.277227 
Q 484.709135 757.277227 486.709135 757.277227 
z
" style="fill:#ffffff;opacity:0.8;stroke:#cccccc;stroke-linejoin:miter;"/>
    </g>
    <g id="patch_82">
     <path d="M 488.709135 751.197539 
L 508.709135 751.197539 
L 508.709135 744.197539 
L 488.709135 744.197539 
z
" style="fill:#0000ff;opacity:0.4;"/>
    </g>
    <g id="text_42">
     <!-- Message Avg Based With Blacklising -->
     <g transform="translate(516.709135 751.197539)scale(0.1 -0.1)">
      <use xlink:href="#DejaVuSans-77"/>
      <use x="86.279297" xlink:href="#DejaVuSans-101"/>
      <use x="147.802734" xlink:href="#DejaVuSans-115"/>
      <use x="199.902344" xlink:href="#DejaVuSans-115"/>
      <use x="252.001953" xlink:href="#DejaVuSans-97"/>
      <use x="313.28125" xlink:href="#DejaVuSans-103"/>
      <use x="376.757812" xlink:href="#DejaVuSans-101"/>
      <use x="438.28125" xlink:href="#DejaVuSans-32"/>
      <use x="470.068359" xlink:href="#DejaVuSans-65"/>
      <use x="532.601562" xlink:href="#DejaVuSans-118"/>
      <use x="591.78125" xlink:href="#DejaVuSans-103"/>
      <use x="655.257812" xlink:href="#DejaVuSans-32"/>
      <use x="687.044922" xlink:href="#DejaVuSans-66"/>
      <use x="755.648438" xlink:href="#DejaVuSans-97"/>
      <use x="816.927734" xlink:href="#DejaVuSans-115"/>
      <use x="869.027344" xlink:href="#DejaVuSans-101"/>
      <use x="930.550781" xlink:href="#DejaVuSans-100"/>
      <use x="994.027344" xlink:href="#DejaVuSans-32"/>
      <use x="1025.814453" xlink:href="#DejaVuSans-87"/>
      <use x="1122.441406" xlink:href="#DejaVuSans-105"/>
      <use x="1150.224609" xlink:href="#DejaVuSans-116"/>
      <use x="1189.433594" xlink:href="#DejaVuSans-104"/>
      <use x="1252.8125" xlink:href="#DejaVuSans-32"/>
      <use x="1284.599609" xlink:href="#DejaVuSans-66"/>
      <use x="1353.203125" xlink:href="#DejaVuSans-108"/>
      <use x="1380.986328" xlink:href="#DejaVuSans-97"/>
      <use x="1442.265625" xlink:href="#DejaVuSans-99"/>
      <use x="1497.246094" xlink:href="#DejaVuSans-107"/>
      <use x="1555.15625" xlink:href="#DejaVuSans-108"/>
      <use x="1582.939453" xlink:href="#DejaVuSans-105"/>
      <use x="1610.722656" xlink:href="#DejaVuSans-115"/>
      <use x="1662.822266" xlink:href="#DejaVuSans-105"/>
      <use x="1690.605469" xlink:href="#DejaVuSans-110"/>
      <use x="1753.984375" xlink:href="#DejaVuSans-103"/>
     </g>
    </g>
   </g>
  </g>
  <g id="text_43">
   <!-- Histogram(&amp;KDE) of Absolute Errors in Accuracy Estimation -->
   <defs>
    <path d="M 9.8125 72.90625 
L 19.671875 72.90625 
L 19.671875 43.015625 
L 55.515625 43.015625 
L 55.515625 72.90625 
L 65.375 72.90625 
L 65.375 0 
L 55.515625 0 
L 55.515625 34.71875 
L 19.671875 34.71875 
L 19.671875 0 
L 9.8125 0 
z
" id="DejaVuSans-72"/>
    <path d="M 24.3125 39.203125 
Q 19.875 35.25 17.796875 31.3125 
Q 15.71875 27.390625 15.71875 23.09375 
Q 15.71875 15.96875 20.890625 11.234375 
Q 26.078125 6.5 33.890625 6.5 
Q 38.53125 6.5 42.578125 8.03125 
Q 46.625 9.578125 50.203125 12.703125 
z
M 31.203125 44.671875 
L 56 19.28125 
Q 58.890625 23.640625 60.5 28.59375 
Q 62.109375 33.546875 62.40625 39.109375 
L 71.484375 39.109375 
Q 70.90625 32.671875 68.359375 26.359375 
Q 65.828125 20.0625 61.28125 13.921875 
L 74.90625 0 
L 62.59375 0 
L 55.609375 7.171875 
Q 50.53125 2.828125 44.96875 0.703125 
Q 39.40625 -1.421875 33.015625 -1.421875 
Q 21.234375 -1.421875 13.765625 5.296875 
Q 6.296875 12.015625 6.296875 22.515625 
Q 6.296875 28.765625 9.5625 34.25 
Q 12.84375 39.75 19.390625 44.578125 
Q 17.046875 47.65625 15.8125 50.703125 
Q 14.59375 53.765625 14.59375 56.6875 
Q 14.59375 64.59375 20.015625 69.40625 
Q 25.4375 74.21875 34.421875 74.21875 
Q 38.484375 74.21875 42.5 73.34375 
Q 46.53125 72.46875 50.6875 70.703125 
L 50.6875 61.8125 
Q 46.4375 64.109375 42.578125 65.296875 
Q 38.71875 66.5 35.40625 66.5 
Q 30.28125 66.5 27.078125 63.78125 
Q 23.875 61.078125 23.875 56.78125 
Q 23.875 54.296875 25.3125 51.78125 
Q 26.765625 49.265625 31.203125 44.671875 
z
" id="DejaVuSans-38"/>
    <path d="M 9.8125 72.90625 
L 19.671875 72.90625 
L 19.671875 42.09375 
L 52.390625 72.90625 
L 65.09375 72.90625 
L 28.90625 38.921875 
L 67.671875 0 
L 54.6875 0 
L 19.671875 35.109375 
L 19.671875 0 
L 9.8125 0 
z
" id="DejaVuSans-75"/>
    <path d="M 19.671875 64.796875 
L 19.671875 8.109375 
L 31.59375 8.109375 
Q 46.6875 8.109375 53.6875 14.9375 
Q 60.6875 21.78125 60.6875 36.53125 
Q 60.6875 51.171875 53.6875 57.984375 
Q 46.6875 64.796875 31.59375 64.796875 
z
M 9.8125 72.90625 
L 30.078125 72.90625 
Q 51.265625 72.90625 61.171875 64.09375 
Q 71.09375 55.28125 71.09375 36.53125 
Q 71.09375 17.671875 61.125 8.828125 
Q 51.171875 0 30.078125 0 
L 9.8125 0 
z
" id="DejaVuSans-68"/>
    <path d="M 37.109375 75.984375 
L 37.109375 68.5 
L 28.515625 68.5 
Q 23.6875 68.5 21.796875 66.546875 
Q 19.921875 64.59375 19.921875 59.515625 
L 19.921875 54.6875 
L 34.71875 54.6875 
L 34.71875 47.703125 
L 19.921875 47.703125 
L 19.921875 0 
L 10.890625 0 
L 10.890625 47.703125 
L 2.296875 47.703125 
L 2.296875 54.6875 
L 10.890625 54.6875 
L 10.890625 58.5 
Q 10.890625 67.625 15.140625 71.796875 
Q 19.390625 75.984375 28.609375 75.984375 
z
" id="DejaVuSans-102"/>
   </defs>
   <g transform="translate(61.93125 18.197115)scale(0.2 -0.2)">
    <use xlink:href="#DejaVuSans-72"/>
    <use x="75.195312" xlink:href="#DejaVuSans-105"/>
    <use x="102.978516" xlink:href="#DejaVuSans-115"/>
    <use x="155.078125" xlink:href="#DejaVuSans-116"/>
    <use x="194.287109" xlink:href="#DejaVuSans-111"/>
    <use x="255.46875" xlink:href="#DejaVuSans-103"/>
    <use x="318.945312" xlink:href="#DejaVuSans-114"/>
    <use x="360.058594" xlink:href="#DejaVuSans-97"/>
    <use x="421.337891" xlink:href="#DejaVuSans-109"/>
    <use x="518.75" xlink:href="#DejaVuSans-40"/>
    <use x="557.763672" xlink:href="#DejaVuSans-38"/>
    <use x="635.742188" xlink:href="#DejaVuSans-75"/>
    <use x="701.318359" xlink:href="#DejaVuSans-68"/>
    <use x="778.320312" xlink:href="#DejaVuSans-69"/>
    <use x="841.503906" xlink:href="#DejaVuSans-41"/>
    <use x="880.517578" xlink:href="#DejaVuSans-32"/>
    <use x="912.304688" xlink:href="#DejaVuSans-111"/>
    <use x="973.486328" xlink:href="#DejaVuSans-102"/>
    <use x="1008.691406" xlink:href="#DejaVuSans-32"/>
    <use x="1040.478516" xlink:href="#DejaVuSans-65"/>
    <use x="1108.886719" xlink:href="#DejaVuSans-98"/>
    <use x="1172.363281" xlink:href="#DejaVuSans-115"/>
    <use x="1224.462891" xlink:href="#DejaVuSans-111"/>
    <use x="1285.644531" xlink:href="#DejaVuSans-108"/>
    <use x="1313.427734" xlink:href="#DejaVuSans-117"/>
    <use x="1376.806641" xlink:href="#DejaVuSans-116"/>
    <use x="1416.015625" xlink:href="#DejaVuSans-101"/>
    <use x="1477.539062" xlink:href="#DejaVuSans-32"/>
    <use x="1509.326172" xlink:href="#DejaVuSans-69"/>
    <use x="1572.509766" xlink:href="#DejaVuSans-114"/>
    <use x="1611.873047" xlink:href="#DejaVuSans-114"/>
    <use x="1650.736328" xlink:href="#DejaVuSans-111"/>
    <use x="1711.917969" xlink:href="#DejaVuSans-114"/>
    <use x="1753.03125" xlink:href="#DejaVuSans-115"/>
    <use x="1805.130859" xlink:href="#DejaVuSans-32"/>
    <use x="1836.917969" xlink:href="#DejaVuSans-105"/>
    <use x="1864.701172" xlink:href="#DejaVuSans-110"/>
    <use x="1928.080078" xlink:href="#DejaVuSans-32"/>
    <use x="1959.867188" xlink:href="#DejaVuSans-65"/>
    <use x="2026.525391" xlink:href="#DejaVuSans-99"/>
    <use x="2081.505859" xlink:href="#DejaVuSans-99"/>
    <use x="2136.486328" xlink:href="#DejaVuSans-117"/>
    <use x="2199.865234" xlink:href="#DejaVuSans-114"/>
    <use x="2240.978516" xlink:href="#DejaVuSans-97"/>
    <use x="2302.257812" xlink:href="#DejaVuSans-99"/>
    <use x="2357.238281" xlink:href="#DejaVuSans-121"/>
    <use x="2416.417969" xlink:href="#DejaVuSans-32"/>
    <use x="2448.205078" xlink:href="#DejaVuSans-69"/>
    <use x="2511.388672" xlink:href="#DejaVuSans-115"/>
    <use x="2563.488281" xlink:href="#DejaVuSans-116"/>
    <use x="2602.697266" xlink:href="#DejaVuSans-105"/>
    <use x="2630.480469" xlink:href="#DejaVuSans-109"/>
    <use x="2727.892578" xlink:href="#DejaVuSans-97"/>
    <use x="2789.171875" xlink:href="#DejaVuSans-116"/>
    <use x="2828.380859" xlink:href="#DejaVuSans-105"/>
    <use x="2856.164062" xlink:href="#DejaVuSans-111"/>
    <use x="2917.345703" xlink:href="#DejaVuSans-110"/>
   </g>
   <!-- Scenario:2 -->
   <defs>
    <path d="M 53.515625 70.515625 
L 53.515625 60.890625 
Q 47.90625 63.578125 42.921875 64.890625 
Q 37.9375 66.21875 33.296875 66.21875 
Q 25.25 66.21875 20.875 63.09375 
Q 16.5 59.96875 16.5 54.203125 
Q 16.5 49.359375 19.40625 46.890625 
Q 22.3125 44.4375 30.421875 42.921875 
L 36.375 41.703125 
Q 47.40625 39.59375 52.65625 34.296875 
Q 57.90625 29 57.90625 20.125 
Q 57.90625 9.515625 50.796875 4.046875 
Q 43.703125 -1.421875 29.984375 -1.421875 
Q 24.8125 -1.421875 18.96875 -0.25 
Q 13.140625 0.921875 6.890625 3.21875 
L 6.890625 13.375 
Q 12.890625 10.015625 18.65625 8.296875 
Q 24.421875 6.59375 29.984375 6.59375 
Q 38.421875 6.59375 43.015625 9.90625 
Q 47.609375 13.234375 47.609375 19.390625 
Q 47.609375 24.75 44.3125 27.78125 
Q 41.015625 30.8125 33.5 32.328125 
L 27.484375 33.5 
Q 16.453125 35.6875 11.515625 40.375 
Q 6.59375 45.0625 6.59375 53.421875 
Q 6.59375 63.09375 13.40625 68.65625 
Q 20.21875 74.21875 32.171875 74.21875 
Q 37.3125 74.21875 42.625 73.28125 
Q 47.953125 72.359375 53.515625 70.515625 
z
" id="DejaVuSans-83"/>
    <path d="M 11.71875 12.40625 
L 22.015625 12.40625 
L 22.015625 0 
L 11.71875 0 
z
M 11.71875 51.703125 
L 22.015625 51.703125 
L 22.015625 39.3125 
L 11.71875 39.3125 
z
" id="DejaVuSans-58"/>
   </defs>
   <g transform="translate(306.795313 40.59274)scale(0.2 -0.2)">
    <use xlink:href="#DejaVuSans-83"/>
    <use x="63.476562" xlink:href="#DejaVuSans-99"/>
    <use x="118.457031" xlink:href="#DejaVuSans-101"/>
    <use x="179.980469" xlink:href="#DejaVuSans-110"/>
    <use x="243.359375" xlink:href="#DejaVuSans-97"/>
    <use x="304.638672" xlink:href="#DejaVuSans-114"/>
    <use x="345.751953" xlink:href="#DejaVuSans-105"/>
    <use x="373.535156" xlink:href="#DejaVuSans-111"/>
    <use x="434.716797" xlink:href="#DejaVuSans-58"/>
    <use x="468.408203" xlink:href="#DejaVuSans-50"/>
   </g>
  </g>
 </g>
 <defs>
  <clipPath id="p3ace47439f">
   <rect height="312.044408" width="655.14952" x="52.30649" y="56.753075"/>
  </clipPath>
  <clipPath id="p2106b52640">
   <rect height="312.044408" width="655.14952" x="52.30649" y="395.676088"/>
  </clipPath>
  <clipPath id="p9a8b8bbccb">
   <rect height="312.044408" width="655.14952" x="52.30649" y="734.599102"/>
  </clipPath>
 </defs>
</svg>
